<?xml version="1.0" encoding="utf-8" standalone="no"?>
<!DOCTYPE svg PUBLIC "-//W3C//DTD SVG 1.1//EN"
  "http://www.w3.org/Graphics/SVG/1.1/DTD/svg11.dtd">
<svg xmlns:xlink="http://www.w3.org/1999/xlink" width="468pt" height="288pt" viewBox="0 0 468 288" xmlns="http://www.w3.org/2000/svg" version="1.1">
 <metadata>
  <rdf:RDF xmlns:dc="http://purl.org/dc/elements/1.1/" xmlns:cc="http://creativecommons.org/ns#" xmlns:rdf="http://www.w3.org/1999/02/22-rdf-syntax-ns#">
   <cc:Work>
    <dc:type rdf:resource="http://purl.org/dc/dcmitype/StillImage"/>
    <dc:date>2024-07-17T14:56:23.382057</dc:date>
    <dc:format>image/svg+xml</dc:format>
    <dc:creator>
     <cc:Agent>
      <dc:title>Matplotlib v3.7.1, https://matplotlib.org/</dc:title>
     </cc:Agent>
    </dc:creator>
   </cc:Work>
  </rdf:RDF>
 </metadata>
 <defs>
  <style type="text/css">*{stroke-linejoin: round; stroke-linecap: butt}</style>
 </defs>
 <g id="figure_1">
  <g id="patch_1">
   <path d="M 0 288 
L 468 288 
L 468 0 
L 0 0 
z
" style="fill: #ffffff"/>
  </g>
  <g id="axes_1">
   <g id="patch_2">
    <path d="M 62.562 243.348 
L 457.2 243.348 
L 457.2 10.8 
L 62.562 10.8 
z
" style="fill: #ffffff"/>
   </g>
   <g id="PolyCollection_1">
    <defs>
     <path id="m2e5154d1c7" d="M 80.500091 -55.222364 
L 80.500091 -55.222364 
L 84.087709 -59.358879 
L 87.675327 -117.5672 
L 91.262945 -119.124672 
L 94.850564 -121.501781 
L 98.438182 -130.921912 
L 102.0258 -116.995522 
L 105.613418 -129.465013 
L 109.201036 -128.80806 
L 112.788655 -127.712561 
L 116.376273 -116.880622 
L 119.963891 -118.878008 
L 123.551509 -120.155768 
L 127.139127 -118.663485 
L 130.726745 -121.36147 
L 134.314364 -116.887995 
L 137.901982 -120.795195 
L 141.4896 -133.692755 
L 145.077218 -113.951678 
L 148.664836 -131.803684 
L 152.252455 -132.272641 
L 155.840073 -122.723988 
L 159.427691 -126.398415 
L 163.015309 -115.328645 
L 166.602927 -124.011552 
L 170.190545 -122.338029 
L 173.778164 -122.387377 
L 177.365782 -139.272715 
L 180.9534 -121.181444 
L 184.541018 -120.919185 
L 188.128636 -131.744256 
L 191.716255 -128.418112 
L 195.303873 -130.779829 
L 198.891491 -124.621912 
L 202.479109 -121.815546 
L 206.066727 -142.58366 
L 209.654345 -127.653821 
L 213.241964 -124.005421 
L 216.829582 -123.630576 
L 220.4172 -122.529069 
L 224.004818 -131.313347 
L 227.592436 -126.421703 
L 231.180055 -130.440448 
L 234.767673 -127.794139 
L 238.355291 -124.987245 
L 241.942909 -129.405311 
L 245.530527 -127.907325 
L 249.118145 -118.508781 
L 252.705764 -127.394432 
L 256.293382 -126.428069 
L 259.881 -144.005444 
L 263.468618 -125.479744 
L 267.056236 -130.522271 
L 270.643855 -131.667913 
L 274.231473 -132.336085 
L 277.819091 -115.861752 
L 281.406709 -125.52354 
L 284.994327 -130.402178 
L 288.581945 -128.669845 
L 292.169564 -128.056909 
L 295.757182 -127.393772 
L 299.3448 -118.355631 
L 302.932418 -119.023969 
L 306.520036 -122.026931 
L 310.107655 -134.967729 
L 313.695273 -125.100083 
L 317.282891 -136.423831 
L 320.870509 -128.261395 
L 324.458127 -126.925711 
L 328.045745 -123.645586 
L 331.633364 -139.564692 
L 335.220982 -131.973884 
L 338.8086 -134.231329 
L 342.396218 -138.924666 
L 345.983836 -133.438931 
L 349.571455 -143.975482 
L 353.159073 -146.673968 
L 356.746691 -146.62652 
L 360.334309 -127.805927 
L 363.921927 -137.490779 
L 367.509545 -150.394437 
L 371.097164 -132.646713 
L 374.684782 -135.473252 
L 378.2724 -147.93218 
L 381.860018 -142.301284 
L 385.447636 -142.561126 
L 389.035255 -142.567724 
L 392.622873 -144.189362 
L 396.210491 -141.582389 
L 399.798109 -140.052258 
L 403.385727 -157.313042 
L 406.973345 -152.779447 
L 410.560964 -152.898064 
L 414.148582 -155.685368 
L 417.7362 -149.419642 
L 421.323818 -147.864702 
L 424.911436 -149.542124 
L 428.499055 -159.480727 
L 432.086673 -152.462936 
L 435.674291 -148.201133 
L 439.261909 -157.492536 
L 439.261909 -251.15197 
L 439.261909 -251.15197 
L 435.674291 -261.094556 
L 432.086673 -259.477075 
L 428.499055 -266.629636 
L 424.911436 -245.205814 
L 421.323818 -249.110863 
L 417.7362 -260.683461 
L 414.148582 -256.603353 
L 410.560964 -252.305956 
L 406.973345 -251.545995 
L 403.385727 -256.322718 
L 399.798109 -245.183982 
L 396.210491 -251.485901 
L 392.622873 -251.467079 
L 389.035255 -242.053911 
L 385.447636 -253.338372 
L 381.860018 -245.237427 
L 378.2724 -249.310956 
L 374.684782 -251.434195 
L 371.097164 -252.302157 
L 367.509545 -247.639779 
L 363.921927 -238.087598 
L 360.334309 -249.436975 
L 356.746691 -244.118869 
L 353.159073 -251.181524 
L 349.571455 -258.96748 
L 345.983836 -242.918462 
L 342.396218 -262.273182 
L 338.8086 -233.014703 
L 335.220982 -255.257914 
L 331.633364 -240.567731 
L 328.045745 -241.848069 
L 324.458127 -248.717095 
L 320.870509 -242.181766 
L 317.282891 -255.224974 
L 313.695273 -230.429844 
L 310.107655 -244.308337 
L 306.520036 -230.022437 
L 302.932418 -228.690628 
L 299.3448 -237.530186 
L 295.757182 -225.494145 
L 292.169564 -234.822834 
L 288.581945 -238.270045 
L 284.994327 -233.090515 
L 281.406709 -241.130273 
L 277.819091 -236.573767 
L 274.231473 -224.664639 
L 270.643855 -229.09634 
L 267.056236 -236.426154 
L 263.468618 -229.978178 
L 259.881 -235.338557 
L 256.293382 -226.277497 
L 252.705764 -229.917072 
L 249.118145 -238.100795 
L 245.530527 -227.717168 
L 241.942909 -242.792421 
L 238.355291 -218.455249 
L 234.767673 -223.60361 
L 231.180055 -228.154977 
L 227.592436 -228.218002 
L 224.004818 -230.814122 
L 220.4172 -237.232282 
L 216.829582 -227.682939 
L 213.241964 -231.686767 
L 209.654345 -224.28073 
L 206.066727 -234.130201 
L 202.479109 -220.055769 
L 198.891491 -233.166966 
L 195.303873 -233.837529 
L 191.716255 -214.291888 
L 188.128636 -225.623668 
L 184.541018 -224.905283 
L 180.9534 -226.956291 
L 177.365782 -240.009615 
L 173.778164 -221.680157 
L 170.190545 -230.714332 
L 166.602927 -228.868485 
L 163.015309 -238.739339 
L 159.427691 -237.152383 
L 155.840073 -227.353484 
L 152.252455 -235.091644 
L 148.664836 -226.654181 
L 145.077218 -231.234458 
L 141.4896 -236.827808 
L 137.901982 -222.732836 
L 134.314364 -240.269435 
L 130.726745 -238.452496 
L 127.139127 -237.599095 
L 123.551509 -230.918053 
L 119.963891 -249.841184 
L 116.376273 -229.032978 
L 112.788655 -246.525896 
L 109.201036 -223.125539 
L 105.613418 -238.000777 
L 102.0258 -250.392202 
L 98.438182 -230.687264 
L 94.850564 -247.451924 
L 91.262945 -223.273108 
L 87.675327 -243.226014 
L 84.087709 -232.053731 
L 80.500091 -55.222364 
z
" style="stroke: #2ca02c; stroke-opacity: 0.2"/>
    </defs>
    <g clip-path="url(#p214c325b1c)">
     <use xlink:href="#m2e5154d1c7" x="0" y="288" style="fill: #2ca02c; fill-opacity: 0.2; stroke: #2ca02c; stroke-opacity: 0.2"/>
    </g>
   </g>
   <g id="matplotlib.axis_1">
    <g id="xtick_1">
     <g id="line2d_1">
      <defs>
       <path id="me79b765067" d="M 0 0 
L 0 3.5 
" style="stroke: #000000; stroke-width: 0.8"/>
      </defs>
      <g>
       <use xlink:href="#me79b765067" x="62.562" y="243.348" style="stroke: #000000; stroke-width: 0.8"/>
      </g>
     </g>
     <g id="text_1">
      <!-- 0.0 -->
      <g transform="translate(54.610438 257.946438) scale(0.1 -0.1)">
       <defs>
        <path id="DejaVuSans-30" d="M 2034 4250 
Q 1547 4250 1301 3770 
Q 1056 3291 1056 2328 
Q 1056 1369 1301 889 
Q 1547 409 2034 409 
Q 2525 409 2770 889 
Q 3016 1369 3016 2328 
Q 3016 3291 2770 3770 
Q 2525 4250 2034 4250 
z
M 2034 4750 
Q 2819 4750 3233 4129 
Q 3647 3509 3647 2328 
Q 3647 1150 3233 529 
Q 2819 -91 2034 -91 
Q 1250 -91 836 529 
Q 422 1150 422 2328 
Q 422 3509 836 4129 
Q 1250 4750 2034 4750 
z
" transform="scale(0.015625)"/>
        <path id="DejaVuSans-2e" d="M 684 794 
L 1344 794 
L 1344 0 
L 684 0 
L 684 794 
z
" transform="scale(0.015625)"/>
       </defs>
       <use xlink:href="#DejaVuSans-30"/>
       <use xlink:href="#DejaVuSans-2e" x="63.623047"/>
       <use xlink:href="#DejaVuSans-30" x="95.410156"/>
      </g>
     </g>
    </g>
    <g id="xtick_2">
     <g id="line2d_2">
      <g>
       <use xlink:href="#me79b765067" x="107.407227" y="243.348" style="stroke: #000000; stroke-width: 0.8"/>
      </g>
     </g>
     <g id="text_2">
      <!-- 2.5 -->
      <g transform="translate(99.455665 257.946438) scale(0.1 -0.1)">
       <defs>
        <path id="DejaVuSans-32" d="M 1228 531 
L 3431 531 
L 3431 0 
L 469 0 
L 469 531 
Q 828 903 1448 1529 
Q 2069 2156 2228 2338 
Q 2531 2678 2651 2914 
Q 2772 3150 2772 3378 
Q 2772 3750 2511 3984 
Q 2250 4219 1831 4219 
Q 1534 4219 1204 4116 
Q 875 4013 500 3803 
L 500 4441 
Q 881 4594 1212 4672 
Q 1544 4750 1819 4750 
Q 2544 4750 2975 4387 
Q 3406 4025 3406 3419 
Q 3406 3131 3298 2873 
Q 3191 2616 2906 2266 
Q 2828 2175 2409 1742 
Q 1991 1309 1228 531 
z
" transform="scale(0.015625)"/>
        <path id="DejaVuSans-35" d="M 691 4666 
L 3169 4666 
L 3169 4134 
L 1269 4134 
L 1269 2991 
Q 1406 3038 1543 3061 
Q 1681 3084 1819 3084 
Q 2600 3084 3056 2656 
Q 3513 2228 3513 1497 
Q 3513 744 3044 326 
Q 2575 -91 1722 -91 
Q 1428 -91 1123 -41 
Q 819 9 494 109 
L 494 744 
Q 775 591 1075 516 
Q 1375 441 1709 441 
Q 2250 441 2565 725 
Q 2881 1009 2881 1497 
Q 2881 1984 2565 2268 
Q 2250 2553 1709 2553 
Q 1456 2553 1204 2497 
Q 953 2441 691 2322 
L 691 4666 
z
" transform="scale(0.015625)"/>
       </defs>
       <use xlink:href="#DejaVuSans-32"/>
       <use xlink:href="#DejaVuSans-2e" x="63.623047"/>
       <use xlink:href="#DejaVuSans-35" x="95.410156"/>
      </g>
     </g>
    </g>
    <g id="xtick_3">
     <g id="line2d_3">
      <g>
       <use xlink:href="#me79b765067" x="152.252455" y="243.348" style="stroke: #000000; stroke-width: 0.8"/>
      </g>
     </g>
     <g id="text_3">
      <!-- 5.0 -->
      <g transform="translate(144.300892 257.946438) scale(0.1 -0.1)">
       <use xlink:href="#DejaVuSans-35"/>
       <use xlink:href="#DejaVuSans-2e" x="63.623047"/>
       <use xlink:href="#DejaVuSans-30" x="95.410156"/>
      </g>
     </g>
    </g>
    <g id="xtick_4">
     <g id="line2d_4">
      <g>
       <use xlink:href="#me79b765067" x="197.097682" y="243.348" style="stroke: #000000; stroke-width: 0.8"/>
      </g>
     </g>
     <g id="text_4">
      <!-- 7.5 -->
      <g transform="translate(189.146119 257.946438) scale(0.1 -0.1)">
       <defs>
        <path id="DejaVuSans-37" d="M 525 4666 
L 3525 4666 
L 3525 4397 
L 1831 0 
L 1172 0 
L 2766 4134 
L 525 4134 
L 525 4666 
z
" transform="scale(0.015625)"/>
       </defs>
       <use xlink:href="#DejaVuSans-37"/>
       <use xlink:href="#DejaVuSans-2e" x="63.623047"/>
       <use xlink:href="#DejaVuSans-35" x="95.410156"/>
      </g>
     </g>
    </g>
    <g id="xtick_5">
     <g id="line2d_5">
      <g>
       <use xlink:href="#me79b765067" x="241.942909" y="243.348" style="stroke: #000000; stroke-width: 0.8"/>
      </g>
     </g>
     <g id="text_5">
      <!-- 10.0 -->
      <g transform="translate(230.810097 257.946438) scale(0.1 -0.1)">
       <defs>
        <path id="DejaVuSans-31" d="M 794 531 
L 1825 531 
L 1825 4091 
L 703 3866 
L 703 4441 
L 1819 4666 
L 2450 4666 
L 2450 531 
L 3481 531 
L 3481 0 
L 794 0 
L 794 531 
z
" transform="scale(0.015625)"/>
       </defs>
       <use xlink:href="#DejaVuSans-31"/>
       <use xlink:href="#DejaVuSans-30" x="63.623047"/>
       <use xlink:href="#DejaVuSans-2e" x="127.246094"/>
       <use xlink:href="#DejaVuSans-30" x="159.033203"/>
      </g>
     </g>
    </g>
    <g id="xtick_6">
     <g id="line2d_6">
      <g>
       <use xlink:href="#me79b765067" x="286.788136" y="243.348" style="stroke: #000000; stroke-width: 0.8"/>
      </g>
     </g>
     <g id="text_6">
      <!-- 12.5 -->
      <g transform="translate(275.655324 257.946438) scale(0.1 -0.1)">
       <use xlink:href="#DejaVuSans-31"/>
       <use xlink:href="#DejaVuSans-32" x="63.623047"/>
       <use xlink:href="#DejaVuSans-2e" x="127.246094"/>
       <use xlink:href="#DejaVuSans-35" x="159.033203"/>
      </g>
     </g>
    </g>
    <g id="xtick_7">
     <g id="line2d_7">
      <g>
       <use xlink:href="#me79b765067" x="331.633364" y="243.348" style="stroke: #000000; stroke-width: 0.8"/>
      </g>
     </g>
     <g id="text_7">
      <!-- 15.0 -->
      <g transform="translate(320.500551 257.946438) scale(0.1 -0.1)">
       <use xlink:href="#DejaVuSans-31"/>
       <use xlink:href="#DejaVuSans-35" x="63.623047"/>
       <use xlink:href="#DejaVuSans-2e" x="127.246094"/>
       <use xlink:href="#DejaVuSans-30" x="159.033203"/>
      </g>
     </g>
    </g>
    <g id="xtick_8">
     <g id="line2d_8">
      <g>
       <use xlink:href="#me79b765067" x="376.478591" y="243.348" style="stroke: #000000; stroke-width: 0.8"/>
      </g>
     </g>
     <g id="text_8">
      <!-- 17.5 -->
      <g transform="translate(365.345778 257.946438) scale(0.1 -0.1)">
       <use xlink:href="#DejaVuSans-31"/>
       <use xlink:href="#DejaVuSans-37" x="63.623047"/>
       <use xlink:href="#DejaVuSans-2e" x="127.246094"/>
       <use xlink:href="#DejaVuSans-35" x="159.033203"/>
      </g>
     </g>
    </g>
    <g id="xtick_9">
     <g id="line2d_9">
      <g>
       <use xlink:href="#me79b765067" x="421.323818" y="243.348" style="stroke: #000000; stroke-width: 0.8"/>
      </g>
     </g>
     <g id="text_9">
      <!-- 20.0 -->
      <g transform="translate(410.191006 257.946438) scale(0.1 -0.1)">
       <use xlink:href="#DejaVuSans-32"/>
       <use xlink:href="#DejaVuSans-30" x="63.623047"/>
       <use xlink:href="#DejaVuSans-2e" x="127.246094"/>
       <use xlink:href="#DejaVuSans-30" x="159.033203"/>
      </g>
     </g>
    </g>
    <g id="text_10">
     <!-- time (units of $\omega_\mathrm{r}^{-1}$) -->
     <g transform="translate(213.081 269.526125) scale(0.1 -0.1)">
      <defs>
       <path id="DejaVuSans-74" d="M 1172 4494 
L 1172 3500 
L 2356 3500 
L 2356 3053 
L 1172 3053 
L 1172 1153 
Q 1172 725 1289 603 
Q 1406 481 1766 481 
L 2356 481 
L 2356 0 
L 1766 0 
Q 1100 0 847 248 
Q 594 497 594 1153 
L 594 3053 
L 172 3053 
L 172 3500 
L 594 3500 
L 594 4494 
L 1172 4494 
z
" transform="scale(0.015625)"/>
       <path id="DejaVuSans-69" d="M 603 3500 
L 1178 3500 
L 1178 0 
L 603 0 
L 603 3500 
z
M 603 4863 
L 1178 4863 
L 1178 4134 
L 603 4134 
L 603 4863 
z
" transform="scale(0.015625)"/>
       <path id="DejaVuSans-6d" d="M 3328 2828 
Q 3544 3216 3844 3400 
Q 4144 3584 4550 3584 
Q 5097 3584 5394 3201 
Q 5691 2819 5691 2113 
L 5691 0 
L 5113 0 
L 5113 2094 
Q 5113 2597 4934 2840 
Q 4756 3084 4391 3084 
Q 3944 3084 3684 2787 
Q 3425 2491 3425 1978 
L 3425 0 
L 2847 0 
L 2847 2094 
Q 2847 2600 2669 2842 
Q 2491 3084 2119 3084 
Q 1678 3084 1418 2786 
Q 1159 2488 1159 1978 
L 1159 0 
L 581 0 
L 581 3500 
L 1159 3500 
L 1159 2956 
Q 1356 3278 1631 3431 
Q 1906 3584 2284 3584 
Q 2666 3584 2933 3390 
Q 3200 3197 3328 2828 
z
" transform="scale(0.015625)"/>
       <path id="DejaVuSans-65" d="M 3597 1894 
L 3597 1613 
L 953 1613 
Q 991 1019 1311 708 
Q 1631 397 2203 397 
Q 2534 397 2845 478 
Q 3156 559 3463 722 
L 3463 178 
Q 3153 47 2828 -22 
Q 2503 -91 2169 -91 
Q 1331 -91 842 396 
Q 353 884 353 1716 
Q 353 2575 817 3079 
Q 1281 3584 2069 3584 
Q 2775 3584 3186 3129 
Q 3597 2675 3597 1894 
z
M 3022 2063 
Q 3016 2534 2758 2815 
Q 2500 3097 2075 3097 
Q 1594 3097 1305 2825 
Q 1016 2553 972 2059 
L 3022 2063 
z
" transform="scale(0.015625)"/>
       <path id="DejaVuSans-20" transform="scale(0.015625)"/>
       <path id="DejaVuSans-28" d="M 1984 4856 
Q 1566 4138 1362 3434 
Q 1159 2731 1159 2009 
Q 1159 1288 1364 580 
Q 1569 -128 1984 -844 
L 1484 -844 
Q 1016 -109 783 600 
Q 550 1309 550 2009 
Q 550 2706 781 3412 
Q 1013 4119 1484 4856 
L 1984 4856 
z
" transform="scale(0.015625)"/>
       <path id="DejaVuSans-75" d="M 544 1381 
L 544 3500 
L 1119 3500 
L 1119 1403 
Q 1119 906 1312 657 
Q 1506 409 1894 409 
Q 2359 409 2629 706 
Q 2900 1003 2900 1516 
L 2900 3500 
L 3475 3500 
L 3475 0 
L 2900 0 
L 2900 538 
Q 2691 219 2414 64 
Q 2138 -91 1772 -91 
Q 1169 -91 856 284 
Q 544 659 544 1381 
z
M 1991 3584 
L 1991 3584 
z
" transform="scale(0.015625)"/>
       <path id="DejaVuSans-6e" d="M 3513 2113 
L 3513 0 
L 2938 0 
L 2938 2094 
Q 2938 2591 2744 2837 
Q 2550 3084 2163 3084 
Q 1697 3084 1428 2787 
Q 1159 2491 1159 1978 
L 1159 0 
L 581 0 
L 581 3500 
L 1159 3500 
L 1159 2956 
Q 1366 3272 1645 3428 
Q 1925 3584 2291 3584 
Q 2894 3584 3203 3211 
Q 3513 2838 3513 2113 
z
" transform="scale(0.015625)"/>
       <path id="DejaVuSans-73" d="M 2834 3397 
L 2834 2853 
Q 2591 2978 2328 3040 
Q 2066 3103 1784 3103 
Q 1356 3103 1142 2972 
Q 928 2841 928 2578 
Q 928 2378 1081 2264 
Q 1234 2150 1697 2047 
L 1894 2003 
Q 2506 1872 2764 1633 
Q 3022 1394 3022 966 
Q 3022 478 2636 193 
Q 2250 -91 1575 -91 
Q 1294 -91 989 -36 
Q 684 19 347 128 
L 347 722 
Q 666 556 975 473 
Q 1284 391 1588 391 
Q 1994 391 2212 530 
Q 2431 669 2431 922 
Q 2431 1156 2273 1281 
Q 2116 1406 1581 1522 
L 1381 1569 
Q 847 1681 609 1914 
Q 372 2147 372 2553 
Q 372 3047 722 3315 
Q 1072 3584 1716 3584 
Q 2034 3584 2315 3537 
Q 2597 3491 2834 3397 
z
" transform="scale(0.015625)"/>
       <path id="DejaVuSans-6f" d="M 1959 3097 
Q 1497 3097 1228 2736 
Q 959 2375 959 1747 
Q 959 1119 1226 758 
Q 1494 397 1959 397 
Q 2419 397 2687 759 
Q 2956 1122 2956 1747 
Q 2956 2369 2687 2733 
Q 2419 3097 1959 3097 
z
M 1959 3584 
Q 2709 3584 3137 3096 
Q 3566 2609 3566 1747 
Q 3566 888 3137 398 
Q 2709 -91 1959 -91 
Q 1206 -91 779 398 
Q 353 888 353 1747 
Q 353 2609 779 3096 
Q 1206 3584 1959 3584 
z
" transform="scale(0.015625)"/>
       <path id="DejaVuSans-66" d="M 2375 4863 
L 2375 4384 
L 1825 4384 
Q 1516 4384 1395 4259 
Q 1275 4134 1275 3809 
L 1275 3500 
L 2222 3500 
L 2222 3053 
L 1275 3053 
L 1275 0 
L 697 0 
L 697 3053 
L 147 3053 
L 147 3500 
L 697 3500 
L 697 3744 
Q 697 4328 969 4595 
Q 1241 4863 1831 4863 
L 2375 4863 
z
" transform="scale(0.015625)"/>
       <path id="DejaVuSans-Oblique-3c9" d="M 1369 -91 
Q 72 -91 434 1766 
Q 575 2500 1256 3500 
L 1875 3500 
Q 1231 2500 1088 1750 
Q 819 397 1519 397 
Q 2166 397 2478 2078 
L 3009 2078 
Q 2669 388 3316 397 
Q 4013 403 4275 1750 
Q 4419 2500 4169 3500 
L 4788 3500 
Q 5075 2500 4934 1766 
Q 4578 -94 3278 -91 
Q 2428 -88 2503 844 
Q 2194 -91 1369 -91 
z
" transform="scale(0.015625)"/>
       <path id="DejaVuSans-2212" d="M 678 2272 
L 4684 2272 
L 4684 1741 
L 678 1741 
L 678 2272 
z
" transform="scale(0.015625)"/>
       <path id="DejaVuSans-72" d="M 2631 2963 
Q 2534 3019 2420 3045 
Q 2306 3072 2169 3072 
Q 1681 3072 1420 2755 
Q 1159 2438 1159 1844 
L 1159 0 
L 581 0 
L 581 3500 
L 1159 3500 
L 1159 2956 
Q 1341 3275 1631 3429 
Q 1922 3584 2338 3584 
Q 2397 3584 2469 3576 
Q 2541 3569 2628 3553 
L 2631 2963 
z
" transform="scale(0.015625)"/>
       <path id="DejaVuSans-29" d="M 513 4856 
L 1013 4856 
Q 1481 4119 1714 3412 
Q 1947 2706 1947 2009 
Q 1947 1309 1714 600 
Q 1481 -109 1013 -844 
L 513 -844 
Q 928 -128 1133 580 
Q 1338 1288 1338 2009 
Q 1338 2731 1133 3434 
Q 928 4138 513 4856 
z
" transform="scale(0.015625)"/>
      </defs>
      <use xlink:href="#DejaVuSans-74" transform="translate(0 0.684375)"/>
      <use xlink:href="#DejaVuSans-69" transform="translate(39.208984 0.684375)"/>
      <use xlink:href="#DejaVuSans-6d" transform="translate(66.992188 0.684375)"/>
      <use xlink:href="#DejaVuSans-65" transform="translate(164.404297 0.684375)"/>
      <use xlink:href="#DejaVuSans-20" transform="translate(225.927734 0.684375)"/>
      <use xlink:href="#DejaVuSans-28" transform="translate(257.714844 0.684375)"/>
      <use xlink:href="#DejaVuSans-75" transform="translate(296.728516 0.684375)"/>
      <use xlink:href="#DejaVuSans-6e" transform="translate(360.107422 0.684375)"/>
      <use xlink:href="#DejaVuSans-69" transform="translate(423.486328 0.684375)"/>
      <use xlink:href="#DejaVuSans-74" transform="translate(451.269531 0.684375)"/>
      <use xlink:href="#DejaVuSans-73" transform="translate(490.478516 0.684375)"/>
      <use xlink:href="#DejaVuSans-20" transform="translate(542.578125 0.684375)"/>
      <use xlink:href="#DejaVuSans-6f" transform="translate(574.365234 0.684375)"/>
      <use xlink:href="#DejaVuSans-66" transform="translate(635.546875 0.684375)"/>
      <use xlink:href="#DejaVuSans-20" transform="translate(670.751953 0.684375)"/>
      <use xlink:href="#DejaVuSans-Oblique-3c9" transform="translate(702.539062 0.684375)"/>
      <use xlink:href="#DejaVuSans-2212" transform="translate(790.745443 38.965625) scale(0.7)"/>
      <use xlink:href="#DejaVuSans-31" transform="translate(849.397786 38.965625) scale(0.7)"/>
      <use xlink:href="#DejaVuSans-72" transform="translate(786.279297 -26.659375) scale(0.7)"/>
      <use xlink:href="#DejaVuSans-29" transform="translate(896.668294 0.684375)"/>
     </g>
    </g>
   </g>
   <g id="matplotlib.axis_2">
    <g id="ytick_1">
     <g id="line2d_10">
      <defs>
       <path id="m98bfbb6dd0" d="M 0 0 
L -3.5 0 
" style="stroke: #000000; stroke-width: 0.8"/>
      </defs>
      <g>
       <use xlink:href="#m98bfbb6dd0" x="62.562" y="232.777636" style="stroke: #000000; stroke-width: 0.8"/>
      </g>
     </g>
     <g id="text_11">
      <!-- 0.000 -->
      <g transform="translate(26.933875 236.576855) scale(0.1 -0.1)">
       <use xlink:href="#DejaVuSans-30"/>
       <use xlink:href="#DejaVuSans-2e" x="63.623047"/>
       <use xlink:href="#DejaVuSans-30" x="95.410156"/>
       <use xlink:href="#DejaVuSans-30" x="159.033203"/>
       <use xlink:href="#DejaVuSans-30" x="222.65625"/>
      </g>
     </g>
    </g>
    <g id="ytick_2">
     <g id="line2d_11">
      <g>
       <use xlink:href="#m98bfbb6dd0" x="62.562" y="202.713336" style="stroke: #000000; stroke-width: 0.8"/>
      </g>
     </g>
     <g id="text_12">
      <!-- 0.025 -->
      <g transform="translate(26.933875 206.512554) scale(0.1 -0.1)">
       <use xlink:href="#DejaVuSans-30"/>
       <use xlink:href="#DejaVuSans-2e" x="63.623047"/>
       <use xlink:href="#DejaVuSans-30" x="95.410156"/>
       <use xlink:href="#DejaVuSans-32" x="159.033203"/>
       <use xlink:href="#DejaVuSans-35" x="222.65625"/>
      </g>
     </g>
    </g>
    <g id="ytick_3">
     <g id="line2d_12">
      <g>
       <use xlink:href="#m98bfbb6dd0" x="62.562" y="172.649035" style="stroke: #000000; stroke-width: 0.8"/>
      </g>
     </g>
     <g id="text_13">
      <!-- 0.050 -->
      <g transform="translate(26.933875 176.448253) scale(0.1 -0.1)">
       <use xlink:href="#DejaVuSans-30"/>
       <use xlink:href="#DejaVuSans-2e" x="63.623047"/>
       <use xlink:href="#DejaVuSans-30" x="95.410156"/>
       <use xlink:href="#DejaVuSans-35" x="159.033203"/>
       <use xlink:href="#DejaVuSans-30" x="222.65625"/>
      </g>
     </g>
    </g>
    <g id="ytick_4">
     <g id="line2d_13">
      <g>
       <use xlink:href="#m98bfbb6dd0" x="62.562" y="142.584734" style="stroke: #000000; stroke-width: 0.8"/>
      </g>
     </g>
     <g id="text_14">
      <!-- 0.075 -->
      <g transform="translate(26.933875 146.383953) scale(0.1 -0.1)">
       <use xlink:href="#DejaVuSans-30"/>
       <use xlink:href="#DejaVuSans-2e" x="63.623047"/>
       <use xlink:href="#DejaVuSans-30" x="95.410156"/>
       <use xlink:href="#DejaVuSans-37" x="159.033203"/>
       <use xlink:href="#DejaVuSans-35" x="222.65625"/>
      </g>
     </g>
    </g>
    <g id="ytick_5">
     <g id="line2d_14">
      <g>
       <use xlink:href="#m98bfbb6dd0" x="62.562" y="112.520433" style="stroke: #000000; stroke-width: 0.8"/>
      </g>
     </g>
     <g id="text_15">
      <!-- 0.100 -->
      <g transform="translate(26.933875 116.319652) scale(0.1 -0.1)">
       <use xlink:href="#DejaVuSans-30"/>
       <use xlink:href="#DejaVuSans-2e" x="63.623047"/>
       <use xlink:href="#DejaVuSans-31" x="95.410156"/>
       <use xlink:href="#DejaVuSans-30" x="159.033203"/>
       <use xlink:href="#DejaVuSans-30" x="222.65625"/>
      </g>
     </g>
    </g>
    <g id="ytick_6">
     <g id="line2d_15">
      <g>
       <use xlink:href="#m98bfbb6dd0" x="62.562" y="82.456132" style="stroke: #000000; stroke-width: 0.8"/>
      </g>
     </g>
     <g id="text_16">
      <!-- 0.125 -->
      <g transform="translate(26.933875 86.255351) scale(0.1 -0.1)">
       <use xlink:href="#DejaVuSans-30"/>
       <use xlink:href="#DejaVuSans-2e" x="63.623047"/>
       <use xlink:href="#DejaVuSans-31" x="95.410156"/>
       <use xlink:href="#DejaVuSans-32" x="159.033203"/>
       <use xlink:href="#DejaVuSans-35" x="222.65625"/>
      </g>
     </g>
    </g>
    <g id="ytick_7">
     <g id="line2d_16">
      <g>
       <use xlink:href="#m98bfbb6dd0" x="62.562" y="52.391831" style="stroke: #000000; stroke-width: 0.8"/>
      </g>
     </g>
     <g id="text_17">
      <!-- 0.150 -->
      <g transform="translate(26.933875 56.19105) scale(0.1 -0.1)">
       <use xlink:href="#DejaVuSans-30"/>
       <use xlink:href="#DejaVuSans-2e" x="63.623047"/>
       <use xlink:href="#DejaVuSans-31" x="95.410156"/>
       <use xlink:href="#DejaVuSans-35" x="159.033203"/>
       <use xlink:href="#DejaVuSans-30" x="222.65625"/>
      </g>
     </g>
    </g>
    <g id="ytick_8">
     <g id="line2d_17">
      <g>
       <use xlink:href="#m98bfbb6dd0" x="62.562" y="22.327531" style="stroke: #000000; stroke-width: 0.8"/>
      </g>
     </g>
     <g id="text_18">
      <!-- 0.175 -->
      <g transform="translate(26.933875 26.126749) scale(0.1 -0.1)">
       <use xlink:href="#DejaVuSans-30"/>
       <use xlink:href="#DejaVuSans-2e" x="63.623047"/>
       <use xlink:href="#DejaVuSans-31" x="95.410156"/>
       <use xlink:href="#DejaVuSans-37" x="159.033203"/>
       <use xlink:href="#DejaVuSans-35" x="222.65625"/>
      </g>
     </g>
    </g>
    <g id="text_19">
     <!-- cavity population $|\alpha|^2/N_\mathrm{at}$ -->
     <g transform="translate(24.033875 190.124) rotate(-90) scale(0.1 -0.1)">
      <defs>
       <path id="DejaVuSans-63" d="M 3122 3366 
L 3122 2828 
Q 2878 2963 2633 3030 
Q 2388 3097 2138 3097 
Q 1578 3097 1268 2742 
Q 959 2388 959 1747 
Q 959 1106 1268 751 
Q 1578 397 2138 397 
Q 2388 397 2633 464 
Q 2878 531 3122 666 
L 3122 134 
Q 2881 22 2623 -34 
Q 2366 -91 2075 -91 
Q 1284 -91 818 406 
Q 353 903 353 1747 
Q 353 2603 823 3093 
Q 1294 3584 2113 3584 
Q 2378 3584 2631 3529 
Q 2884 3475 3122 3366 
z
" transform="scale(0.015625)"/>
       <path id="DejaVuSans-61" d="M 2194 1759 
Q 1497 1759 1228 1600 
Q 959 1441 959 1056 
Q 959 750 1161 570 
Q 1363 391 1709 391 
Q 2188 391 2477 730 
Q 2766 1069 2766 1631 
L 2766 1759 
L 2194 1759 
z
M 3341 1997 
L 3341 0 
L 2766 0 
L 2766 531 
Q 2569 213 2275 61 
Q 1981 -91 1556 -91 
Q 1019 -91 701 211 
Q 384 513 384 1019 
Q 384 1609 779 1909 
Q 1175 2209 1959 2209 
L 2766 2209 
L 2766 2266 
Q 2766 2663 2505 2880 
Q 2244 3097 1772 3097 
Q 1472 3097 1187 3025 
Q 903 2953 641 2809 
L 641 3341 
Q 956 3463 1253 3523 
Q 1550 3584 1831 3584 
Q 2591 3584 2966 3190 
Q 3341 2797 3341 1997 
z
" transform="scale(0.015625)"/>
       <path id="DejaVuSans-76" d="M 191 3500 
L 800 3500 
L 1894 563 
L 2988 3500 
L 3597 3500 
L 2284 0 
L 1503 0 
L 191 3500 
z
" transform="scale(0.015625)"/>
       <path id="DejaVuSans-79" d="M 2059 -325 
Q 1816 -950 1584 -1140 
Q 1353 -1331 966 -1331 
L 506 -1331 
L 506 -850 
L 844 -850 
Q 1081 -850 1212 -737 
Q 1344 -625 1503 -206 
L 1606 56 
L 191 3500 
L 800 3500 
L 1894 763 
L 2988 3500 
L 3597 3500 
L 2059 -325 
z
" transform="scale(0.015625)"/>
       <path id="DejaVuSans-70" d="M 1159 525 
L 1159 -1331 
L 581 -1331 
L 581 3500 
L 1159 3500 
L 1159 2969 
Q 1341 3281 1617 3432 
Q 1894 3584 2278 3584 
Q 2916 3584 3314 3078 
Q 3713 2572 3713 1747 
Q 3713 922 3314 415 
Q 2916 -91 2278 -91 
Q 1894 -91 1617 61 
Q 1341 213 1159 525 
z
M 3116 1747 
Q 3116 2381 2855 2742 
Q 2594 3103 2138 3103 
Q 1681 3103 1420 2742 
Q 1159 2381 1159 1747 
Q 1159 1113 1420 752 
Q 1681 391 2138 391 
Q 2594 391 2855 752 
Q 3116 1113 3116 1747 
z
" transform="scale(0.015625)"/>
       <path id="DejaVuSans-6c" d="M 603 4863 
L 1178 4863 
L 1178 0 
L 603 0 
L 603 4863 
z
" transform="scale(0.015625)"/>
       <path id="DejaVuSans-7c" d="M 1344 4891 
L 1344 -1509 
L 813 -1509 
L 813 4891 
L 1344 4891 
z
" transform="scale(0.015625)"/>
       <path id="DejaVuSans-Oblique-3b1" d="M 2619 1628 
L 2622 2350 
Q 2625 3088 2069 3091 
Q 1653 3094 1394 2747 
Q 1069 2319 959 1747 
Q 825 1059 994 731 
Q 1169 397 1547 397 
Q 1966 397 2319 1063 
L 2619 1628 
z
M 2166 3578 
Q 3141 3594 3128 2584 
Q 3128 2584 3616 3500 
L 4128 3500 
L 3119 1603 
L 3109 919 
Q 3109 766 3194 638 
Q 3291 488 3391 488 
L 3669 488 
L 3575 0 
L 3228 0 
Q 2934 0 2722 263 
Q 2622 394 2619 669 
Q 2416 334 2066 50 
Q 1900 -81 1453 -78 
Q 722 -72 456 397 
Q 184 884 353 1747 
Q 534 2675 1009 3097 
Q 1544 3569 2166 3578 
z
" transform="scale(0.015625)"/>
       <path id="DejaVuSans-2f" d="M 1625 4666 
L 2156 4666 
L 531 -594 
L 0 -594 
L 1625 4666 
z
" transform="scale(0.015625)"/>
       <path id="DejaVuSans-Oblique-4e" d="M 1081 4666 
L 1931 4666 
L 3219 666 
L 4000 4666 
L 4616 4666 
L 3706 0 
L 2853 0 
L 1569 4025 
L 788 0 
L 172 0 
L 1081 4666 
z
" transform="scale(0.015625)"/>
      </defs>
      <use xlink:href="#DejaVuSans-63" transform="translate(0 0.765625)"/>
      <use xlink:href="#DejaVuSans-61" transform="translate(54.980469 0.765625)"/>
      <use xlink:href="#DejaVuSans-76" transform="translate(116.259766 0.765625)"/>
      <use xlink:href="#DejaVuSans-69" transform="translate(175.439453 0.765625)"/>
      <use xlink:href="#DejaVuSans-74" transform="translate(203.222656 0.765625)"/>
      <use xlink:href="#DejaVuSans-79" transform="translate(242.431641 0.765625)"/>
      <use xlink:href="#DejaVuSans-20" transform="translate(301.611328 0.765625)"/>
      <use xlink:href="#DejaVuSans-70" transform="translate(333.398438 0.765625)"/>
      <use xlink:href="#DejaVuSans-6f" transform="translate(396.875 0.765625)"/>
      <use xlink:href="#DejaVuSans-70" transform="translate(458.056641 0.765625)"/>
      <use xlink:href="#DejaVuSans-75" transform="translate(521.533203 0.765625)"/>
      <use xlink:href="#DejaVuSans-6c" transform="translate(584.912109 0.765625)"/>
      <use xlink:href="#DejaVuSans-61" transform="translate(612.695312 0.765625)"/>
      <use xlink:href="#DejaVuSans-74" transform="translate(673.974609 0.765625)"/>
      <use xlink:href="#DejaVuSans-69" transform="translate(713.183594 0.765625)"/>
      <use xlink:href="#DejaVuSans-6f" transform="translate(740.966797 0.765625)"/>
      <use xlink:href="#DejaVuSans-6e" transform="translate(802.148438 0.765625)"/>
      <use xlink:href="#DejaVuSans-20" transform="translate(865.527344 0.765625)"/>
      <use xlink:href="#DejaVuSans-7c" transform="translate(897.314453 0.765625)"/>
      <use xlink:href="#DejaVuSans-Oblique-3b1" transform="translate(931.005859 0.765625)"/>
      <use xlink:href="#DejaVuSans-7c" transform="translate(996.923828 0.765625)"/>
      <use xlink:href="#DejaVuSans-32" transform="translate(1031.572266 39.046875) scale(0.7)"/>
      <use xlink:href="#DejaVuSans-2f" transform="translate(1078.842773 0.765625)"/>
      <use xlink:href="#DejaVuSans-Oblique-4e" transform="translate(1112.53418 0.765625)"/>
      <use xlink:href="#DejaVuSans-61" transform="translate(1187.338867 -15.640625) scale(0.7)"/>
      <use xlink:href="#DejaVuSans-74" transform="translate(1230.234375 -15.640625) scale(0.7)"/>
     </g>
    </g>
   </g>
   <g id="line2d_18">
    <path d="M 80.500091 232.777636 
L 84.087709 138.33267 
L 87.675327 103.852502 
L 91.262945 116.776306 
L 94.850564 111.900402 
L 98.438182 109.604149 
L 102.0258 111.501989 
L 105.613418 107.83755 
L 109.201036 113.604213 
L 112.788655 106.335736 
L 116.376273 116.899767 
L 119.963891 108.596424 
L 123.551509 112.989637 
L 127.139127 113.523992 
L 130.726745 111.96359 
L 134.314364 115.293004 
L 137.901982 119.809652 
L 141.4896 109.768113 
L 145.077218 116.007243 
L 148.664836 113.826283 
L 152.252455 113.281959 
L 155.840073 112.551273 
L 159.427691 112.232413 
L 163.015309 114.30582 
L 166.602927 115.416535 
L 170.190545 114.118185 
L 173.778164 117.335362 
L 177.365782 109.351384 
L 180.9534 115.392936 
L 184.541018 110.254787 
L 188.128636 112.133337 
L 191.716255 116.383918 
L 195.303873 110.886061 
L 198.891491 111.69732 
L 202.479109 116.700206 
L 206.066727 102.641472 
L 209.654345 110.764779 
L 213.241964 115.048932 
L 216.829582 110.003663 
L 220.4172 110.254622 
L 224.004818 108.305759 
L 227.592436 107.219052 
L 231.180055 112.724561 
L 234.767673 109.953126 
L 238.355291 109.304169 
L 241.942909 107.709909 
L 245.530527 110.036959 
L 249.118145 107.5648 
L 252.705764 108.414865 
L 256.293382 109.0411 
L 259.881 105.409091 
L 263.468618 110.898965 
L 267.056236 106.897025 
L 270.643855 107.24444 
L 274.231473 109.04815 
L 277.819091 109.620453 
L 281.406709 104.965434 
L 284.994327 106.475334 
L 288.581945 105.016293 
L 292.169564 106.483784 
L 295.757182 108.424095 
L 299.3448 107.137009 
L 302.932418 103.669849 
L 306.520036 103.503942 
L 310.107655 100.549393 
L 313.695273 103.936367 
L 317.282891 99.724419 
L 320.870509 102.941258 
L 324.458127 103.401101 
L 328.045745 101.321256 
L 331.633364 101.971643 
L 335.220982 100.193336 
L 338.8086 103.584887 
L 342.396218 98.405755 
L 345.983836 97.15605 
L 349.571455 96.140269 
L 353.159073 94.800295 
L 356.746691 98.050034 
L 360.334309 94.987818 
L 363.921927 96.642422 
L 367.509545 91.693197 
L 371.097164 96.020848 
L 374.684782 96.104322 
L 378.2724 92.431932 
L 381.860018 93.627559 
L 385.447636 92.671153 
L 389.035255 93.897958 
L 392.622873 93.317658 
L 396.210491 93.823235 
L 399.798109 92.575586 
L 403.385727 86.708434 
L 406.973345 92.38094 
L 410.560964 91.956407 
L 414.148582 87.228743 
L 417.7362 88.905568 
L 421.323818 89.071812 
L 424.911436 88.323333 
L 428.499055 87.013196 
L 432.086673 87.01517 
L 435.674291 87.1338 
L 439.261909 86.342385 
" clip-path="url(#p214c325b1c)" style="fill: none; stroke: #2ca02c; stroke-width: 1.5; stroke-linecap: square"/>
   </g>
   <g id="patch_3">
    <path d="M 62.562 243.348 
L 62.562 10.8 
" style="fill: none; stroke: #000000; stroke-width: 0.8; stroke-linejoin: miter; stroke-linecap: square"/>
   </g>
   <g id="patch_4">
    <path d="M 457.2 243.348 
L 457.2 10.8 
" style="fill: none; stroke: #000000; stroke-width: 0.8; stroke-linejoin: miter; stroke-linecap: square"/>
   </g>
   <g id="patch_5">
    <path d="M 62.562 243.348 
L 457.2 243.348 
" style="fill: none; stroke: #000000; stroke-width: 0.8; stroke-linejoin: miter; stroke-linecap: square"/>
   </g>
   <g id="patch_6">
    <path d="M 62.562 10.8 
L 457.2 10.8 
" style="fill: none; stroke: #000000; stroke-width: 0.8; stroke-linejoin: miter; stroke-linecap: square"/>
   </g>
  </g>
 </g>
 <defs>
  <clipPath id="p214c325b1c">
   <rect x="62.562" y="10.8" width="394.638" height="232.548"/>
  </clipPath>
 </defs>
</svg>
