<?xml version="1.0" encoding="utf-8" standalone="no"?>
<!DOCTYPE svg PUBLIC "-//W3C//DTD SVG 1.1//EN"
  "http://www.w3.org/Graphics/SVG/1.1/DTD/svg11.dtd">
<svg xmlns:xlink="http://www.w3.org/1999/xlink" width="234pt" height="144pt" viewBox="0 0 234 144" xmlns="http://www.w3.org/2000/svg" version="1.1">
 <metadata>
  <rdf:RDF xmlns:dc="http://purl.org/dc/elements/1.1/" xmlns:cc="http://creativecommons.org/ns#" xmlns:rdf="http://www.w3.org/1999/02/22-rdf-syntax-ns#">
   <cc:Work>
    <dc:type rdf:resource="http://purl.org/dc/dcmitype/StillImage"/>
    <dc:date>2024-02-05T16:31:03.922058</dc:date>
    <dc:format>image/svg+xml</dc:format>
    <dc:creator>
     <cc:Agent>
      <dc:title>Matplotlib v3.8.2, https://matplotlib.org/</dc:title>
     </cc:Agent>
    </dc:creator>
   </cc:Work>
  </rdf:RDF>
 </metadata>
 <defs>
  <style type="text/css">*{stroke-linejoin: round; stroke-linecap: butt}</style>
 </defs>
 <g id="figure_1">
  <g id="patch_1">
   <path d="M 0 144 
L 234 144 
L 234 0 
L 0 0 
z
" style="fill: #ffffff"/>
  </g>
  <g id="axes_1">
   <g id="patch_2">
    <path d="M 56.172 99.348 
L 218.696155 99.348 
L 218.696155 10.8 
L 56.172 10.8 
z
" style="fill: #ffffff"/>
   </g>
   <g id="PolyCollection_1">
    <defs>
     <path id="m38a6cca7ca" d="M 63.559462 -48.676909 
L 63.559462 -48.676909 
L 63.85496 -49.785268 
L 64.150458 -49.989142 
L 64.445957 -50.155891 
L 64.741455 -49.885166 
L 65.036954 -49.98416 
L 65.332452 -49.801911 
L 65.627951 -49.748222 
L 65.923449 -49.967976 
L 66.218948 -49.978414 
L 66.514446 -49.771481 
L 66.809945 -49.940257 
L 67.105443 -49.732213 
L 67.400942 -49.897481 
L 67.69644 -49.9221 
L 67.991939 -50.011151 
L 68.287437 -49.909674 
L 68.582935 -49.891435 
L 68.878434 -49.757659 
L 69.173932 -50.011854 
L 69.469431 -49.887505 
L 69.764929 -50.081435 
L 70.060428 -49.733544 
L 70.355926 -50.198305 
L 70.651425 -49.747143 
L 70.946923 -49.969433 
L 71.242422 -49.81785 
L 71.53792 -49.751285 
L 71.833419 -49.784678 
L 72.128917 -49.756051 
L 72.424415 -49.667387 
L 72.719914 -49.833391 
L 73.015412 -49.688218 
L 73.310911 -49.820261 
L 73.606409 -50.03024 
L 73.901908 -50.276454 
L 74.197406 -49.790643 
L 74.492905 -49.804842 
L 74.788403 -50.148556 
L 75.083902 -50.088017 
L 75.3794 -49.80926 
L 75.674899 -49.711876 
L 75.970397 -50.115501 
L 76.265895 -50.00682 
L 76.561394 -50.118439 
L 76.856892 -49.746765 
L 77.152391 -50.222874 
L 77.447889 -49.856653 
L 77.743388 -50.053207 
L 78.038886 -50.213995 
L 78.334385 -49.759801 
L 78.629883 -50.272596 
L 78.925382 -49.813472 
L 79.22088 -49.922808 
L 79.516379 -49.793266 
L 79.811877 -49.841642 
L 80.107375 -49.983939 
L 80.402874 -50.169621 
L 80.698372 -49.996393 
L 80.993871 -50.169995 
L 81.289369 -50.042259 
L 81.584868 -49.831657 
L 81.880366 -49.469547 
L 82.175865 -49.798562 
L 82.471363 -50.27854 
L 82.766862 -49.906319 
L 83.06236 -50.004682 
L 83.357859 -50.004554 
L 83.653357 -49.821279 
L 83.948856 -49.675176 
L 84.244354 -50.474236 
L 84.539852 -50.0787 
L 84.835351 -49.704334 
L 85.130849 -49.799129 
L 85.426348 -49.893048 
L 85.721846 -49.820453 
L 86.017345 -50.052352 
L 86.312843 -49.982418 
L 86.608342 -49.764313 
L 86.90384 -50.119877 
L 87.199339 -49.87145 
L 87.494837 -50.029535 
L 87.790336 -50.050088 
L 88.085834 -49.999523 
L 88.381332 -50.045531 
L 88.676831 -49.741994 
L 88.972329 -49.956798 
L 89.267828 -50.097588 
L 89.563326 -49.520359 
L 89.858825 -49.881059 
L 90.154323 -50.004406 
L 90.449822 -49.666579 
L 90.74532 -49.716653 
L 91.040819 -49.896473 
L 91.336317 -49.997989 
L 91.631816 -49.573294 
L 91.927314 -50.006085 
L 92.222812 -49.727623 
L 92.518311 -49.823974 
L 92.813809 -49.695981 
L 93.109308 -50.118021 
L 93.404806 -49.989459 
L 93.700305 -50.227074 
L 93.995803 -49.967391 
L 94.291302 -49.799953 
L 94.5868 -49.810914 
L 94.882299 -50.24751 
L 95.177797 -49.978239 
L 95.473296 -49.952914 
L 95.768794 -50.172349 
L 96.064292 -49.818123 
L 96.359791 -49.975115 
L 96.655289 -49.676601 
L 96.950788 -49.786905 
L 97.246286 -50.085827 
L 97.541785 -49.910458 
L 97.837283 -49.616441 
L 98.132782 -49.820452 
L 98.42828 -49.927176 
L 98.723779 -50.21393 
L 99.019277 -50.057228 
L 99.314776 -50.161095 
L 99.610274 -49.959193 
L 99.905772 -49.804175 
L 100.201271 -49.568781 
L 100.496769 -49.989127 
L 100.792268 -50.030515 
L 101.087766 -50.033108 
L 101.383265 -49.929154 
L 101.678763 -49.496855 
L 101.974262 -49.881799 
L 102.26976 -49.670466 
L 102.565259 -50.02407 
L 102.860757 -49.9388 
L 103.156256 -49.801283 
L 103.451754 -49.808313 
L 103.747253 -50.249081 
L 104.042751 -50.090812 
L 104.338249 -50.170199 
L 104.633748 -49.965905 
L 104.929246 -49.919943 
L 105.224745 -50.065166 
L 105.520243 -49.77207 
L 105.815742 -49.777755 
L 106.11124 -50.035934 
L 106.406739 -49.684872 
L 106.702237 -49.902047 
L 106.997736 -49.812099 
L 107.293234 -49.876813 
L 107.588733 -49.820167 
L 107.884231 -49.926284 
L 108.179729 -49.887352 
L 108.475228 -49.97985 
L 108.770726 -49.934478 
L 109.066225 -49.768904 
L 109.361723 -49.708844 
L 109.657222 -50.020611 
L 109.95272 -50.213894 
L 110.248219 -50.31222 
L 110.543717 -49.671135 
L 110.839216 -49.860654 
L 111.134714 -49.826248 
L 111.430213 -49.659998 
L 111.725711 -50.17347 
L 112.021209 -49.89728 
L 112.316708 -49.876528 
L 112.612206 -49.871718 
L 112.907705 -49.676583 
L 113.203203 -49.992214 
L 113.498702 -49.876179 
L 113.7942 -49.738576 
L 114.089699 -49.857709 
L 114.385197 -49.647666 
L 114.680696 -49.771226 
L 114.976194 -49.967057 
L 115.271693 -50.218022 
L 115.567191 -49.900761 
L 115.862689 -49.908289 
L 116.158188 -49.978048 
L 116.453686 -49.917051 
L 116.749185 -49.946548 
L 117.044683 -49.763541 
L 117.340182 -50.029526 
L 117.63568 -50.04413 
L 117.931179 -49.809126 
L 118.226677 -50.03915 
L 118.522176 -49.898065 
L 118.817674 -49.669458 
L 119.113173 -49.746715 
L 119.408671 -49.952977 
L 119.70417 -50.160084 
L 119.999668 -50.249924 
L 120.295166 -49.952488 
L 120.590665 -49.684675 
L 120.886163 -50.154764 
L 121.181662 -49.948737 
L 121.47716 -49.813604 
L 121.772659 -49.855318 
L 122.068157 -49.981521 
L 122.363656 -49.886537 
L 122.659154 -49.872532 
L 122.954653 -50.055792 
L 123.250151 -49.916668 
L 123.54565 -49.900906 
L 123.841148 -49.753846 
L 124.136646 -49.923302 
L 124.432145 -50.365707 
L 124.727643 -49.914255 
L 125.023142 -49.978338 
L 125.31864 -49.623944 
L 125.614139 -50.038734 
L 125.909637 -49.749591 
L 126.205136 -49.758413 
L 126.500634 -49.881553 
L 126.796133 -49.840912 
L 127.091631 -49.684708 
L 127.38713 -49.815292 
L 127.682628 -49.961022 
L 127.978126 -50.038307 
L 128.273625 -49.938857 
L 128.569123 -49.717614 
L 128.864622 -50.159754 
L 129.16012 -49.934488 
L 129.455619 -49.856585 
L 129.751117 -49.968553 
L 130.046616 -49.943874 
L 130.342114 -49.969589 
L 130.637613 -50.137697 
L 130.933111 -49.94643 
L 131.22861 -50.000126 
L 131.524108 -50.053467 
L 131.819606 -49.898591 
L 132.115105 -50.014203 
L 132.410603 -50.092104 
L 132.706102 -49.774857 
L 133.0016 -49.869987 
L 133.297099 -50.2286 
L 133.592597 -49.827636 
L 133.888096 -49.896474 
L 134.183594 -50.053262 
L 134.479093 -49.79823 
L 134.774591 -49.918836 
L 135.07009 -49.819311 
L 135.365588 -49.687943 
L 135.661086 -50.029815 
L 135.956585 -49.902128 
L 136.252083 -49.982361 
L 136.547582 -49.733287 
L 136.84308 -50.200006 
L 137.138579 -50.094122 
L 137.434077 -49.760565 
L 137.729576 -49.651799 
L 138.025074 -50.039332 
L 138.320573 -49.789016 
L 138.616071 -49.843931 
L 138.91157 -49.772511 
L 139.207068 -50.298472 
L 139.502567 -49.685977 
L 139.798065 -50.017435 
L 140.093563 -50.027556 
L 140.389062 -49.991328 
L 140.68456 -49.633199 
L 140.980059 -49.797893 
L 141.275557 -49.640909 
L 141.571056 -49.645293 
L 141.866554 -49.652949 
L 142.162053 -49.737123 
L 142.457551 -49.714681 
L 142.75305 -49.936815 
L 143.048548 -49.841653 
L 143.344047 -49.855601 
L 143.639545 -49.927961 
L 143.935043 -49.938029 
L 144.230542 -50.048875 
L 144.52604 -49.747757 
L 144.821539 -49.834003 
L 145.117037 -50.203295 
L 145.412536 -49.99361 
L 145.708034 -49.760832 
L 146.003533 -50.040857 
L 146.299031 -49.676367 
L 146.59453 -49.757218 
L 146.890028 -50.021169 
L 147.185527 -50.068894 
L 147.481025 -49.673356 
L 147.776523 -50.037291 
L 148.072022 -49.73084 
L 148.36752 -50.073499 
L 148.663019 -49.943513 
L 148.958517 -49.812891 
L 149.254016 -50.110935 
L 149.549514 -49.831696 
L 149.845013 -49.726137 
L 150.140511 -49.657544 
L 150.43601 -50.033754 
L 150.731508 -50.03297 
L 151.027007 -49.853477 
L 151.322505 -49.712624 
L 151.618003 -49.850569 
L 151.913502 -49.719655 
L 152.209 -49.86699 
L 152.504499 -49.694053 
L 152.799997 -49.673019 
L 153.095496 -50.019356 
L 153.390994 -49.765634 
L 153.686493 -49.723781 
L 153.981991 -49.735526 
L 154.27749 -49.872287 
L 154.572988 -49.969069 
L 154.868487 -49.956502 
L 155.163985 -49.895342 
L 155.459484 -50.023041 
L 155.754982 -49.673944 
L 156.05048 -49.958509 
L 156.345979 -50.152728 
L 156.641477 -49.890085 
L 156.936976 -49.824282 
L 157.232474 -49.951529 
L 157.527973 -49.92789 
L 157.823471 -50.090841 
L 158.11897 -49.834767 
L 158.414468 -49.57454 
L 158.709967 -50.001696 
L 159.005465 -49.771116 
L 159.300964 -49.879907 
L 159.596462 -49.731429 
L 159.89196 -49.859988 
L 160.187459 -49.880279 
L 160.482957 -49.74261 
L 160.778456 -50.016254 
L 161.073954 -49.769856 
L 161.369453 -49.919693 
L 161.664951 -49.830263 
L 161.96045 -49.823138 
L 162.255948 -49.599078 
L 162.551447 -49.843379 
L 162.846945 -49.777659 
L 163.142444 -49.854377 
L 163.437942 -49.717513 
L 163.73344 -49.988285 
L 164.028939 -49.84928 
L 164.324437 -50.128688 
L 164.619936 -50.087668 
L 164.915434 -49.846367 
L 165.210933 -49.960297 
L 165.506431 -49.987703 
L 165.80193 -49.821945 
L 166.097428 -50.02186 
L 166.392927 -50.144899 
L 166.688425 -50.123221 
L 166.983924 -49.780184 
L 167.279422 -50.353762 
L 167.57492 -49.568532 
L 167.870419 -49.947289 
L 168.165917 -49.600595 
L 168.461416 -49.913461 
L 168.756914 -49.906913 
L 169.052413 -50.069054 
L 169.347911 -49.934019 
L 169.64341 -50.202307 
L 169.938908 -49.842979 
L 170.234407 -50.10083 
L 170.529905 -49.766089 
L 170.825404 -49.612289 
L 171.120902 -49.932809 
L 171.4164 -50.045761 
L 171.711899 -50.073435 
L 172.007397 -49.939539 
L 172.302896 -49.718475 
L 172.598394 -49.952748 
L 172.893893 -49.969553 
L 173.189391 -49.798399 
L 173.48489 -49.442607 
L 173.780388 -49.557285 
L 174.075887 -50.049022 
L 174.371385 -49.866797 
L 174.666884 -50.25268 
L 174.962382 -49.62954 
L 175.257881 -49.962071 
L 175.553379 -49.707972 
L 175.848877 -49.865681 
L 176.144376 -49.661964 
L 176.439874 -49.931907 
L 176.735373 -49.959269 
L 177.030871 -50.295615 
L 177.32637 -50.130854 
L 177.621868 -49.570349 
L 177.917367 -49.921739 
L 178.212865 -49.722704 
L 178.508364 -50.390831 
L 178.803862 -49.746064 
L 179.099361 -49.98753 
L 179.394859 -49.8337 
L 179.690357 -50.14413 
L 179.985856 -49.943983 
L 180.281354 -49.85562 
L 180.576853 -49.75971 
L 180.872351 -49.813813 
L 181.16785 -49.925694 
L 181.463348 -50.013031 
L 181.758847 -49.835335 
L 182.054345 -49.945783 
L 182.349844 -49.883815 
L 182.645342 -49.926871 
L 182.940841 -49.708638 
L 183.236339 -49.682408 
L 183.531837 -50.287602 
L 183.827336 -49.986567 
L 184.122834 -49.875059 
L 184.418333 -49.858503 
L 184.713831 -49.854994 
L 185.00933 -50.297292 
L 185.304828 -49.813784 
L 185.600327 -50.218804 
L 185.895825 -50.198447 
L 186.191324 -49.834159 
L 186.486822 -50.227756 
L 186.782321 -50.157123 
L 187.077819 -49.780752 
L 187.373317 -49.850441 
L 187.668816 -49.8742 
L 187.964314 -50.00941 
L 188.259813 -50.008665 
L 188.555311 -49.650189 
L 188.85081 -49.934689 
L 189.146308 -49.89136 
L 189.441807 -50.148349 
L 189.737305 -49.946224 
L 190.032804 -49.947614 
L 190.328302 -49.888687 
L 190.623801 -49.845042 
L 190.919299 -50.0049 
L 191.214798 -49.909746 
L 191.510296 -49.761149 
L 191.805794 -49.936903 
L 192.101293 -50.430154 
L 192.396791 -49.669877 
L 192.69229 -49.921032 
L 192.987788 -50.191627 
L 193.283287 -49.909027 
L 193.578785 -49.633843 
L 193.874284 -49.928073 
L 194.169782 -49.861501 
L 194.465281 -49.980837 
L 194.760779 -50.118013 
L 195.056278 -49.897833 
L 195.351776 -50.065606 
L 195.647274 -49.849311 
L 195.942773 -49.652408 
L 196.238271 -50.053655 
L 196.53377 -50.152188 
L 196.829268 -50.074024 
L 197.124767 -49.988163 
L 197.420265 -49.909887 
L 197.715764 -49.752356 
L 198.011262 -50.308783 
L 198.306761 -50.240172 
L 198.602259 -49.743575 
L 198.897758 -49.927518 
L 199.193256 -49.968249 
L 199.488754 -49.65721 
L 199.784253 -49.951095 
L 200.079751 -49.528043 
L 200.37525 -49.843497 
L 200.670748 -49.930955 
L 200.966247 -49.762223 
L 201.261745 -50.034667 
L 201.557244 -49.768487 
L 201.852742 -49.922948 
L 202.148241 -49.99481 
L 202.443739 -49.76994 
L 202.739238 -49.766448 
L 203.034736 -50.115099 
L 203.330234 -49.832881 
L 203.625733 -49.611114 
L 203.921231 -49.576921 
L 204.21673 -49.834627 
L 204.512228 -49.717086 
L 204.807727 -49.752054 
L 205.103225 -49.866035 
L 205.398724 -49.95187 
L 205.694222 -50.152175 
L 205.989721 -49.715371 
L 206.285219 -49.996346 
L 206.580718 -49.8651 
L 206.876216 -49.986958 
L 207.171714 -49.969494 
L 207.467213 -49.778922 
L 207.762711 -49.936958 
L 208.05821 -49.72668 
L 208.353708 -49.914432 
L 208.649207 -49.920556 
L 208.944705 -49.896914 
L 209.240204 -49.797336 
L 209.535702 -50.149701 
L 209.831201 -49.874727 
L 210.126699 -49.742862 
L 210.422198 -49.9835 
L 210.717696 -50.087052 
L 211.013195 -50.188025 
L 211.308693 -49.617158 
L 211.308693 -117.367626 
L 211.308693 -117.367626 
L 211.013195 -120.818371 
L 210.717696 -119.122939 
L 210.422198 -122.705366 
L 210.126699 -119.945143 
L 209.831201 -118.975517 
L 209.535702 -117.060722 
L 209.240204 -116.183115 
L 208.944705 -115.051729 
L 208.649207 -122.817569 
L 208.353708 -125.861903 
L 208.05821 -120.834119 
L 207.762711 -120.143036 
L 207.467213 -119.566774 
L 207.171714 -120.848355 
L 206.876216 -121.019201 
L 206.580718 -115.902093 
L 206.285219 -122.922314 
L 205.989721 -117.362091 
L 205.694222 -112.829017 
L 205.398724 -121.980993 
L 205.103225 -116.009374 
L 204.807727 -117.82273 
L 204.512228 -123.517755 
L 204.21673 -118.482756 
L 203.921231 -119.849618 
L 203.625733 -118.316847 
L 203.330234 -118.318639 
L 203.034736 -121.704202 
L 202.739238 -121.433492 
L 202.443739 -117.35405 
L 202.148241 -117.145543 
L 201.852742 -119.896675 
L 201.557244 -115.956228 
L 201.261745 -125.586501 
L 200.966247 -120.608375 
L 200.670748 -115.107071 
L 200.37525 -113.589365 
L 200.079751 -117.980538 
L 199.784253 -121.588315 
L 199.488754 -115.661707 
L 199.193256 -122.056106 
L 198.897758 -120.871331 
L 198.602259 -123.969891 
L 198.306761 -120.951629 
L 198.011262 -120.509331 
L 197.715764 -120.10645 
L 197.420265 -123.268364 
L 197.124767 -127.752038 
L 196.829268 -123.998804 
L 196.53377 -122.06335 
L 196.238271 -116.276872 
L 195.942773 -121.907471 
L 195.647274 -113.591572 
L 195.351776 -120.256143 
L 195.056278 -118.504407 
L 194.760779 -115.760683 
L 194.465281 -119.555661 
L 194.169782 -120.370168 
L 193.874284 -121.237395 
L 193.578785 -117.817299 
L 193.283287 -115.119786 
L 192.987788 -118.562915 
L 192.69229 -122.897541 
L 192.396791 -118.591091 
L 192.101293 -121.311528 
L 191.805794 -124.16398 
L 191.510296 -122.321377 
L 191.214798 -121.536057 
L 190.919299 -116.636254 
L 190.623801 -117.126696 
L 190.328302 -117.918493 
L 190.032804 -116.839038 
L 189.737305 -121.95931 
L 189.441807 -124.770419 
L 189.146308 -119.113011 
L 188.85081 -121.032836 
L 188.555311 -123.320558 
L 188.259813 -120.074608 
L 187.964314 -117.455116 
L 187.668816 -122.947874 
L 187.373317 -116.288543 
L 187.077819 -117.152196 
L 186.782321 -118.317218 
L 186.486822 -123.978943 
L 186.191324 -118.38674 
L 185.895825 -119.272959 
L 185.600327 -124.7716 
L 185.304828 -117.943575 
L 185.00933 -122.125931 
L 184.713831 -124.255077 
L 184.418333 -117.134068 
L 184.122834 -117.144715 
L 183.827336 -120.154637 
L 183.531837 -114.459511 
L 183.236339 -123.790187 
L 182.940841 -120.912293 
L 182.645342 -119.910016 
L 182.349844 -116.344472 
L 182.054345 -114.04307 
L 181.758847 -115.588411 
L 181.463348 -115.542208 
L 181.16785 -121.829777 
L 180.872351 -115.558926 
L 180.576853 -117.416631 
L 180.281354 -120.873434 
L 179.985856 -119.724325 
L 179.690357 -122.440373 
L 179.394859 -116.091309 
L 179.099361 -123.487201 
L 178.803862 -116.705407 
L 178.508364 -120.533199 
L 178.212865 -113.845396 
L 177.917367 -119.313161 
L 177.621868 -113.595492 
L 177.32637 -119.211033 
L 177.030871 -112.514305 
L 176.735373 -117.503883 
L 176.439874 -116.02054 
L 176.144376 -115.192646 
L 175.848877 -125.879332 
L 175.553379 -118.075792 
L 175.257881 -126.892337 
L 174.962382 -123.678415 
L 174.666884 -115.957905 
L 174.371385 -116.610053 
L 174.075887 -120.19938 
L 173.780388 -121.531149 
L 173.48489 -117.366019 
L 173.189391 -118.506533 
L 172.893893 -120.060425 
L 172.598394 -116.399972 
L 172.302896 -126.180054 
L 172.007397 -123.118304 
L 171.711899 -126.152042 
L 171.4164 -127.047659 
L 171.120902 -116.672482 
L 170.825404 -119.769829 
L 170.529905 -109.959159 
L 170.234407 -118.825301 
L 169.938908 -118.809167 
L 169.64341 -115.294238 
L 169.347911 -118.242535 
L 169.052413 -118.101777 
L 168.756914 -121.400645 
L 168.461416 -116.527387 
L 168.165917 -123.663709 
L 167.870419 -121.13309 
L 167.57492 -116.70288 
L 167.279422 -117.840746 
L 166.983924 -119.053962 
L 166.688425 -120.009701 
L 166.392927 -121.328565 
L 166.097428 -121.762757 
L 165.80193 -112.937636 
L 165.506431 -117.480048 
L 165.210933 -116.998614 
L 164.915434 -119.8869 
L 164.619936 -110.625521 
L 164.324437 -118.379389 
L 164.028939 -119.130471 
L 163.73344 -119.360526 
L 163.437942 -116.216921 
L 163.142444 -120.81102 
L 162.846945 -123.473419 
L 162.551447 -124.098649 
L 162.255948 -117.525723 
L 161.96045 -119.608537 
L 161.664951 -116.616285 
L 161.369453 -118.638239 
L 161.073954 -123.442648 
L 160.778456 -122.03598 
L 160.482957 -119.111448 
L 160.187459 -114.102229 
L 159.89196 -117.962448 
L 159.596462 -121.94779 
L 159.300964 -121.491983 
L 159.005465 -120.106299 
L 158.709967 -118.728743 
L 158.414468 -119.596128 
L 158.11897 -122.035743 
L 157.823471 -118.644152 
L 157.527973 -121.335501 
L 157.232474 -125.206088 
L 156.936976 -123.20843 
L 156.641477 -121.113503 
L 156.345979 -118.720822 
L 156.05048 -117.504923 
L 155.754982 -117.050892 
L 155.459484 -116.668333 
L 155.163985 -120.686697 
L 154.868487 -118.88925 
L 154.572988 -121.478665 
L 154.27749 -120.866219 
L 153.981991 -116.634951 
L 153.686493 -121.84384 
L 153.390994 -120.07667 
L 153.095496 -118.040612 
L 152.799997 -124.917696 
L 152.504499 -114.413132 
L 152.209 -116.927087 
L 151.913502 -113.825748 
L 151.618003 -123.632622 
L 151.322505 -122.438878 
L 151.027007 -113.511265 
L 150.731508 -119.557284 
L 150.43601 -125.88481 
L 150.140511 -116.877028 
L 149.845013 -116.559463 
L 149.549514 -117.6893 
L 149.254016 -123.788498 
L 148.958517 -117.618514 
L 148.663019 -116.428552 
L 148.36752 -113.390021 
L 148.072022 -123.387689 
L 147.776523 -120.656515 
L 147.481025 -116.781743 
L 147.185527 -123.022153 
L 146.890028 -122.762224 
L 146.59453 -117.792281 
L 146.299031 -118.198694 
L 146.003533 -120.346778 
L 145.708034 -115.828451 
L 145.412536 -118.697421 
L 145.117037 -116.602974 
L 144.821539 -121.208672 
L 144.52604 -115.584394 
L 144.230542 -118.768756 
L 143.935043 -120.444675 
L 143.639545 -121.453297 
L 143.344047 -119.889507 
L 143.048548 -120.663591 
L 142.75305 -112.88542 
L 142.457551 -116.819703 
L 142.162053 -125.031112 
L 141.866554 -125.558027 
L 141.571056 -118.397692 
L 141.275557 -123.375284 
L 140.980059 -120.304052 
L 140.68456 -118.956336 
L 140.389062 -125.137588 
L 140.093563 -124.75056 
L 139.798065 -121.787485 
L 139.502567 -122.419961 
L 139.207068 -128.48772 
L 138.91157 -120.541398 
L 138.616071 -117.309286 
L 138.320573 -115.92907 
L 138.025074 -117.926908 
L 137.729576 -118.231395 
L 137.434077 -121.249828 
L 137.138579 -123.19315 
L 136.84308 -120.501855 
L 136.547582 -115.750095 
L 136.252083 -117.285815 
L 135.956585 -117.27366 
L 135.661086 -120.083652 
L 135.365588 -116.912953 
L 135.07009 -116.757994 
L 134.774591 -122.536634 
L 134.479093 -120.790451 
L 134.183594 -124.317955 
L 133.888096 -114.867387 
L 133.592597 -124.42339 
L 133.297099 -122.36483 
L 133.0016 -116.323896 
L 132.706102 -117.400269 
L 132.410603 -114.433764 
L 132.115105 -119.405145 
L 131.819606 -118.858476 
L 131.524108 -119.229106 
L 131.22861 -115.388984 
L 130.933111 -118.672608 
L 130.637613 -119.476739 
L 130.342114 -110.679718 
L 130.046616 -114.023726 
L 129.751117 -121.970562 
L 129.455619 -119.674834 
L 129.16012 -114.504562 
L 128.864622 -121.948114 
L 128.569123 -118.376565 
L 128.273625 -120.097707 
L 127.978126 -121.284715 
L 127.682628 -118.310902 
L 127.38713 -116.661943 
L 127.091631 -128.730453 
L 126.796133 -118.913416 
L 126.500634 -123.313069 
L 126.205136 -119.58234 
L 125.909637 -123.004816 
L 125.614139 -120.757201 
L 125.31864 -117.909873 
L 125.023142 -120.669341 
L 124.727643 -115.281585 
L 124.432145 -114.983674 
L 124.136646 -122.596791 
L 123.841148 -123.422407 
L 123.54565 -121.071409 
L 123.250151 -118.824307 
L 122.954653 -119.348579 
L 122.659154 -114.556018 
L 122.363656 -118.159553 
L 122.068157 -118.969191 
L 121.772659 -124.818259 
L 121.47716 -116.971505 
L 121.181662 -118.319755 
L 120.886163 -117.139758 
L 120.590665 -120.22796 
L 120.295166 -122.703133 
L 119.999668 -115.188167 
L 119.70417 -119.754029 
L 119.408671 -119.481641 
L 119.113173 -121.596616 
L 118.817674 -125.341119 
L 118.522176 -118.116015 
L 118.226677 -121.485204 
L 117.931179 -120.093079 
L 117.63568 -119.837684 
L 117.340182 -115.042084 
L 117.044683 -119.768827 
L 116.749185 -124.190141 
L 116.453686 -123.530039 
L 116.158188 -122.02945 
L 115.862689 -120.497692 
L 115.567191 -115.538797 
L 115.271693 -117.123507 
L 114.976194 -115.608763 
L 114.680696 -116.982339 
L 114.385197 -116.894265 
L 114.089699 -117.886378 
L 113.7942 -114.515265 
L 113.498702 -116.230368 
L 113.203203 -112.726372 
L 112.907705 -121.922644 
L 112.612206 -121.2364 
L 112.316708 -116.75082 
L 112.021209 -116.374387 
L 111.725711 -120.018794 
L 111.430213 -120.219201 
L 111.134714 -118.340134 
L 110.839216 -120.415815 
L 110.543717 -119.563728 
L 110.248219 -118.785666 
L 109.95272 -118.489274 
L 109.657222 -113.290121 
L 109.361723 -117.997858 
L 109.066225 -120.940213 
L 108.770726 -120.999247 
L 108.475228 -117.470775 
L 108.179729 -119.817641 
L 107.884231 -121.168939 
L 107.588733 -124.926559 
L 107.293234 -121.875062 
L 106.997736 -118.964523 
L 106.702237 -122.597183 
L 106.406739 -116.722224 
L 106.11124 -121.512361 
L 105.815742 -123.385018 
L 105.520243 -118.921393 
L 105.224745 -119.68601 
L 104.929246 -124.02367 
L 104.633748 -117.533871 
L 104.338249 -121.661996 
L 104.042751 -128.314224 
L 103.747253 -112.677713 
L 103.451754 -115.716868 
L 103.156256 -116.771801 
L 102.860757 -115.340154 
L 102.565259 -123.045659 
L 102.26976 -119.09427 
L 101.974262 -114.022945 
L 101.678763 -118.784635 
L 101.383265 -121.331094 
L 101.087766 -115.038716 
L 100.792268 -125.897058 
L 100.496769 -117.63167 
L 100.201271 -116.419632 
L 99.905772 -117.358493 
L 99.610274 -113.992781 
L 99.314776 -118.980446 
L 99.019277 -122.406241 
L 98.723779 -119.892799 
L 98.42828 -122.295376 
L 98.132782 -123.846068 
L 97.837283 -114.161501 
L 97.541785 -126.694408 
L 97.246286 -120.796126 
L 96.950788 -121.387514 
L 96.655289 -118.068713 
L 96.359791 -114.343694 
L 96.064292 -120.252191 
L 95.768794 -119.569509 
L 95.473296 -114.249384 
L 95.177797 -117.639709 
L 94.882299 -118.935237 
L 94.5868 -120.132154 
L 94.291302 -120.998147 
L 93.995803 -120.975722 
L 93.700305 -120.952982 
L 93.404806 -121.331883 
L 93.109308 -120.871537 
L 92.813809 -120.352822 
L 92.518311 -119.148102 
L 92.222812 -115.708206 
L 91.927314 -116.070366 
L 91.631816 -119.675819 
L 91.336317 -119.999218 
L 91.040819 -121.745927 
L 90.74532 -116.453784 
L 90.449822 -115.106657 
L 90.154323 -119.628491 
L 89.858825 -111.691672 
L 89.563326 -114.752923 
L 89.267828 -119.464768 
L 88.972329 -116.20377 
L 88.676831 -114.269104 
L 88.381332 -117.678792 
L 88.085834 -119.60467 
L 87.790336 -118.635788 
L 87.494837 -114.719089 
L 87.199339 -113.710315 
L 86.90384 -114.586949 
L 86.608342 -117.733313 
L 86.312843 -120.610124 
L 86.017345 -115.16124 
L 85.721846 -120.295505 
L 85.426348 -128.800654 
L 85.130849 -122.070397 
L 84.835351 -120.414965 
L 84.539852 -122.04876 
L 84.244354 -117.402226 
L 83.948856 -117.407926 
L 83.653357 -119.896019 
L 83.357859 -120.700528 
L 83.06236 -121.981374 
L 82.766862 -116.751769 
L 82.471363 -122.547673 
L 82.175865 -117.735782 
L 81.880366 -116.875505 
L 81.584868 -114.943885 
L 81.289369 -124.483768 
L 80.993871 -117.484505 
L 80.698372 -118.277314 
L 80.402874 -120.519415 
L 80.107375 -116.316706 
L 79.811877 -119.289471 
L 79.516379 -117.899135 
L 79.22088 -124.305358 
L 78.925382 -119.818447 
L 78.629883 -122.938829 
L 78.334385 -120.193453 
L 78.038886 -129.175091 
L 77.743388 -117.996812 
L 77.447889 -116.203186 
L 77.152391 -117.808592 
L 76.856892 -115.427178 
L 76.561394 -117.277595 
L 76.265895 -121.340811 
L 75.970397 -119.069836 
L 75.674899 -113.810344 
L 75.3794 -119.443248 
L 75.083902 -121.449549 
L 74.788403 -114.052634 
L 74.492905 -119.259123 
L 74.197406 -119.087179 
L 73.901908 -118.033604 
L 73.606409 -117.880255 
L 73.310911 -116.411771 
L 73.015412 -115.801767 
L 72.719914 -124.400424 
L 72.424415 -120.031883 
L 72.128917 -116.751628 
L 71.833419 -119.706541 
L 71.53792 -113.917311 
L 71.242422 -121.965692 
L 70.946923 -120.91549 
L 70.651425 -123.533698 
L 70.355926 -121.269872 
L 70.060428 -121.901367 
L 69.764929 -118.977697 
L 69.469431 -115.538353 
L 69.173932 -124.670901 
L 68.878434 -119.46596 
L 68.582935 -115.624907 
L 68.287437 -124.324577 
L 67.991939 -123.777617 
L 67.69644 -118.788842 
L 67.400942 -126.157072 
L 67.105443 -115.987132 
L 66.809945 -116.690942 
L 66.514446 -117.657056 
L 66.218948 -108.235167 
L 65.923449 -110.945989 
L 65.627951 -116.556298 
L 65.332452 -115.9484 
L 65.036954 -122.202779 
L 64.741455 -111.978783 
L 64.445957 -117.663327 
L 64.150458 -119.612346 
L 63.85496 -119.866186 
L 63.559462 -48.676909 
z
" style="stroke: #2ca02c; stroke-opacity: 0.2"/>
    </defs>
    <g clip-path="url(#p9a39826289)">
     <use xlink:href="#m38a6cca7ca" x="0" y="144" style="fill: #2ca02c; fill-opacity: 0.2; stroke: #2ca02c; stroke-opacity: 0.2"/>
    </g>
   </g>
   <g id="matplotlib.axis_1">
    <g id="xtick_1">
     <g id="line2d_1">
      <defs>
       <path id="m3eefc60bac" d="M 0 0 
L 0 3.5 
" style="stroke: #000000; stroke-width: 0.8"/>
      </defs>
      <g>
       <use xlink:href="#m3eefc60bac" x="63.529912" y="99.348" style="stroke: #000000; stroke-width: 0.8"/>
      </g>
     </g>
     <g id="text_1">
      <!-- 0 -->
      <g transform="translate(60.348662 113.946438) scale(0.1 -0.1)">
       <defs>
        <path id="DejaVuSans-30" d="M 2034 4250 
Q 1547 4250 1301 3770 
Q 1056 3291 1056 2328 
Q 1056 1369 1301 889 
Q 1547 409 2034 409 
Q 2525 409 2770 889 
Q 3016 1369 3016 2328 
Q 3016 3291 2770 3770 
Q 2525 4250 2034 4250 
z
M 2034 4750 
Q 2819 4750 3233 4129 
Q 3647 3509 3647 2328 
Q 3647 1150 3233 529 
Q 2819 -91 2034 -91 
Q 1250 -91 836 529 
Q 422 1150 422 2328 
Q 422 3509 836 4129 
Q 1250 4750 2034 4750 
z
" transform="scale(0.015625)"/>
       </defs>
       <use xlink:href="#DejaVuSans-30"/>
      </g>
     </g>
    </g>
    <g id="xtick_2">
     <g id="line2d_2">
      <g>
       <use xlink:href="#m3eefc60bac" x="122.629604" y="99.348" style="stroke: #000000; stroke-width: 0.8"/>
      </g>
     </g>
     <g id="text_2">
      <!-- 2000 -->
      <g transform="translate(109.904604 113.946438) scale(0.1 -0.1)">
       <defs>
        <path id="DejaVuSans-32" d="M 1228 531 
L 3431 531 
L 3431 0 
L 469 0 
L 469 531 
Q 828 903 1448 1529 
Q 2069 2156 2228 2338 
Q 2531 2678 2651 2914 
Q 2772 3150 2772 3378 
Q 2772 3750 2511 3984 
Q 2250 4219 1831 4219 
Q 1534 4219 1204 4116 
Q 875 4013 500 3803 
L 500 4441 
Q 881 4594 1212 4672 
Q 1544 4750 1819 4750 
Q 2544 4750 2975 4387 
Q 3406 4025 3406 3419 
Q 3406 3131 3298 2873 
Q 3191 2616 2906 2266 
Q 2828 2175 2409 1742 
Q 1991 1309 1228 531 
z
" transform="scale(0.015625)"/>
       </defs>
       <use xlink:href="#DejaVuSans-32"/>
       <use xlink:href="#DejaVuSans-30" x="63.623047"/>
       <use xlink:href="#DejaVuSans-30" x="127.246094"/>
       <use xlink:href="#DejaVuSans-30" x="190.869141"/>
      </g>
     </g>
    </g>
    <g id="xtick_3">
     <g id="line2d_3">
      <g>
       <use xlink:href="#m3eefc60bac" x="181.729297" y="99.348" style="stroke: #000000; stroke-width: 0.8"/>
      </g>
     </g>
     <g id="text_3">
      <!-- 4000 -->
      <g transform="translate(169.004297 113.946438) scale(0.1 -0.1)">
       <defs>
        <path id="DejaVuSans-34" d="M 2419 4116 
L 825 1625 
L 2419 1625 
L 2419 4116 
z
M 2253 4666 
L 3047 4666 
L 3047 1625 
L 3713 1625 
L 3713 1100 
L 3047 1100 
L 3047 0 
L 2419 0 
L 2419 1100 
L 313 1100 
L 313 1709 
L 2253 4666 
z
" transform="scale(0.015625)"/>
       </defs>
       <use xlink:href="#DejaVuSans-34"/>
       <use xlink:href="#DejaVuSans-30" x="63.623047"/>
       <use xlink:href="#DejaVuSans-30" x="127.246094"/>
       <use xlink:href="#DejaVuSans-30" x="190.869141"/>
      </g>
     </g>
    </g>
    <g id="text_4">
     <!-- time (units of $\omega_\mathrm{r}^{-1}$) -->
     <g transform="translate(90.634077 125.526125) scale(0.1 -0.1)">
      <defs>
       <path id="DejaVuSans-74" d="M 1172 4494 
L 1172 3500 
L 2356 3500 
L 2356 3053 
L 1172 3053 
L 1172 1153 
Q 1172 725 1289 603 
Q 1406 481 1766 481 
L 2356 481 
L 2356 0 
L 1766 0 
Q 1100 0 847 248 
Q 594 497 594 1153 
L 594 3053 
L 172 3053 
L 172 3500 
L 594 3500 
L 594 4494 
L 1172 4494 
z
" transform="scale(0.015625)"/>
       <path id="DejaVuSans-69" d="M 603 3500 
L 1178 3500 
L 1178 0 
L 603 0 
L 603 3500 
z
M 603 4863 
L 1178 4863 
L 1178 4134 
L 603 4134 
L 603 4863 
z
" transform="scale(0.015625)"/>
       <path id="DejaVuSans-6d" d="M 3328 2828 
Q 3544 3216 3844 3400 
Q 4144 3584 4550 3584 
Q 5097 3584 5394 3201 
Q 5691 2819 5691 2113 
L 5691 0 
L 5113 0 
L 5113 2094 
Q 5113 2597 4934 2840 
Q 4756 3084 4391 3084 
Q 3944 3084 3684 2787 
Q 3425 2491 3425 1978 
L 3425 0 
L 2847 0 
L 2847 2094 
Q 2847 2600 2669 2842 
Q 2491 3084 2119 3084 
Q 1678 3084 1418 2786 
Q 1159 2488 1159 1978 
L 1159 0 
L 581 0 
L 581 3500 
L 1159 3500 
L 1159 2956 
Q 1356 3278 1631 3431 
Q 1906 3584 2284 3584 
Q 2666 3584 2933 3390 
Q 3200 3197 3328 2828 
z
" transform="scale(0.015625)"/>
       <path id="DejaVuSans-65" d="M 3597 1894 
L 3597 1613 
L 953 1613 
Q 991 1019 1311 708 
Q 1631 397 2203 397 
Q 2534 397 2845 478 
Q 3156 559 3463 722 
L 3463 178 
Q 3153 47 2828 -22 
Q 2503 -91 2169 -91 
Q 1331 -91 842 396 
Q 353 884 353 1716 
Q 353 2575 817 3079 
Q 1281 3584 2069 3584 
Q 2775 3584 3186 3129 
Q 3597 2675 3597 1894 
z
M 3022 2063 
Q 3016 2534 2758 2815 
Q 2500 3097 2075 3097 
Q 1594 3097 1305 2825 
Q 1016 2553 972 2059 
L 3022 2063 
z
" transform="scale(0.015625)"/>
       <path id="DejaVuSans-20" transform="scale(0.015625)"/>
       <path id="DejaVuSans-28" d="M 1984 4856 
Q 1566 4138 1362 3434 
Q 1159 2731 1159 2009 
Q 1159 1288 1364 580 
Q 1569 -128 1984 -844 
L 1484 -844 
Q 1016 -109 783 600 
Q 550 1309 550 2009 
Q 550 2706 781 3412 
Q 1013 4119 1484 4856 
L 1984 4856 
z
" transform="scale(0.015625)"/>
       <path id="DejaVuSans-75" d="M 544 1381 
L 544 3500 
L 1119 3500 
L 1119 1403 
Q 1119 906 1312 657 
Q 1506 409 1894 409 
Q 2359 409 2629 706 
Q 2900 1003 2900 1516 
L 2900 3500 
L 3475 3500 
L 3475 0 
L 2900 0 
L 2900 538 
Q 2691 219 2414 64 
Q 2138 -91 1772 -91 
Q 1169 -91 856 284 
Q 544 659 544 1381 
z
M 1991 3584 
L 1991 3584 
z
" transform="scale(0.015625)"/>
       <path id="DejaVuSans-6e" d="M 3513 2113 
L 3513 0 
L 2938 0 
L 2938 2094 
Q 2938 2591 2744 2837 
Q 2550 3084 2163 3084 
Q 1697 3084 1428 2787 
Q 1159 2491 1159 1978 
L 1159 0 
L 581 0 
L 581 3500 
L 1159 3500 
L 1159 2956 
Q 1366 3272 1645 3428 
Q 1925 3584 2291 3584 
Q 2894 3584 3203 3211 
Q 3513 2838 3513 2113 
z
" transform="scale(0.015625)"/>
       <path id="DejaVuSans-73" d="M 2834 3397 
L 2834 2853 
Q 2591 2978 2328 3040 
Q 2066 3103 1784 3103 
Q 1356 3103 1142 2972 
Q 928 2841 928 2578 
Q 928 2378 1081 2264 
Q 1234 2150 1697 2047 
L 1894 2003 
Q 2506 1872 2764 1633 
Q 3022 1394 3022 966 
Q 3022 478 2636 193 
Q 2250 -91 1575 -91 
Q 1294 -91 989 -36 
Q 684 19 347 128 
L 347 722 
Q 666 556 975 473 
Q 1284 391 1588 391 
Q 1994 391 2212 530 
Q 2431 669 2431 922 
Q 2431 1156 2273 1281 
Q 2116 1406 1581 1522 
L 1381 1569 
Q 847 1681 609 1914 
Q 372 2147 372 2553 
Q 372 3047 722 3315 
Q 1072 3584 1716 3584 
Q 2034 3584 2315 3537 
Q 2597 3491 2834 3397 
z
" transform="scale(0.015625)"/>
       <path id="DejaVuSans-6f" d="M 1959 3097 
Q 1497 3097 1228 2736 
Q 959 2375 959 1747 
Q 959 1119 1226 758 
Q 1494 397 1959 397 
Q 2419 397 2687 759 
Q 2956 1122 2956 1747 
Q 2956 2369 2687 2733 
Q 2419 3097 1959 3097 
z
M 1959 3584 
Q 2709 3584 3137 3096 
Q 3566 2609 3566 1747 
Q 3566 888 3137 398 
Q 2709 -91 1959 -91 
Q 1206 -91 779 398 
Q 353 888 353 1747 
Q 353 2609 779 3096 
Q 1206 3584 1959 3584 
z
" transform="scale(0.015625)"/>
       <path id="DejaVuSans-66" d="M 2375 4863 
L 2375 4384 
L 1825 4384 
Q 1516 4384 1395 4259 
Q 1275 4134 1275 3809 
L 1275 3500 
L 2222 3500 
L 2222 3053 
L 1275 3053 
L 1275 0 
L 697 0 
L 697 3053 
L 147 3053 
L 147 3500 
L 697 3500 
L 697 3744 
Q 697 4328 969 4595 
Q 1241 4863 1831 4863 
L 2375 4863 
z
" transform="scale(0.015625)"/>
       <path id="DejaVuSans-Oblique-3c9" d="M 1369 -91 
Q 72 -91 434 1766 
Q 575 2500 1256 3500 
L 1875 3500 
Q 1231 2500 1088 1750 
Q 819 397 1519 397 
Q 2166 397 2478 2078 
L 3009 2078 
Q 2669 388 3316 397 
Q 4013 403 4275 1750 
Q 4419 2500 4169 3500 
L 4788 3500 
Q 5075 2500 4934 1766 
Q 4578 -94 3278 -91 
Q 2428 -88 2503 844 
Q 2194 -91 1369 -91 
z
" transform="scale(0.015625)"/>
       <path id="DejaVuSans-2212" d="M 678 2272 
L 4684 2272 
L 4684 1741 
L 678 1741 
L 678 2272 
z
" transform="scale(0.015625)"/>
       <path id="DejaVuSans-31" d="M 794 531 
L 1825 531 
L 1825 4091 
L 703 3866 
L 703 4441 
L 1819 4666 
L 2450 4666 
L 2450 531 
L 3481 531 
L 3481 0 
L 794 0 
L 794 531 
z
" transform="scale(0.015625)"/>
       <path id="DejaVuSans-72" d="M 2631 2963 
Q 2534 3019 2420 3045 
Q 2306 3072 2169 3072 
Q 1681 3072 1420 2755 
Q 1159 2438 1159 1844 
L 1159 0 
L 581 0 
L 581 3500 
L 1159 3500 
L 1159 2956 
Q 1341 3275 1631 3429 
Q 1922 3584 2338 3584 
Q 2397 3584 2469 3576 
Q 2541 3569 2628 3553 
L 2631 2963 
z
" transform="scale(0.015625)"/>
       <path id="DejaVuSans-29" d="M 513 4856 
L 1013 4856 
Q 1481 4119 1714 3412 
Q 1947 2706 1947 2009 
Q 1947 1309 1714 600 
Q 1481 -109 1013 -844 
L 513 -844 
Q 928 -128 1133 580 
Q 1338 1288 1338 2009 
Q 1338 2731 1133 3434 
Q 928 4138 513 4856 
z
" transform="scale(0.015625)"/>
      </defs>
      <use xlink:href="#DejaVuSans-74" transform="translate(0 0.684375)"/>
      <use xlink:href="#DejaVuSans-69" transform="translate(39.208984 0.684375)"/>
      <use xlink:href="#DejaVuSans-6d" transform="translate(66.992188 0.684375)"/>
      <use xlink:href="#DejaVuSans-65" transform="translate(164.404297 0.684375)"/>
      <use xlink:href="#DejaVuSans-20" transform="translate(225.927734 0.684375)"/>
      <use xlink:href="#DejaVuSans-28" transform="translate(257.714844 0.684375)"/>
      <use xlink:href="#DejaVuSans-75" transform="translate(296.728516 0.684375)"/>
      <use xlink:href="#DejaVuSans-6e" transform="translate(360.107422 0.684375)"/>
      <use xlink:href="#DejaVuSans-69" transform="translate(423.486328 0.684375)"/>
      <use xlink:href="#DejaVuSans-74" transform="translate(451.269531 0.684375)"/>
      <use xlink:href="#DejaVuSans-73" transform="translate(490.478516 0.684375)"/>
      <use xlink:href="#DejaVuSans-20" transform="translate(542.578125 0.684375)"/>
      <use xlink:href="#DejaVuSans-6f" transform="translate(574.365234 0.684375)"/>
      <use xlink:href="#DejaVuSans-66" transform="translate(635.546875 0.684375)"/>
      <use xlink:href="#DejaVuSans-20" transform="translate(670.751953 0.684375)"/>
      <use xlink:href="#DejaVuSans-Oblique-3c9" transform="translate(702.539062 0.684375)"/>
      <use xlink:href="#DejaVuSans-2212" transform="translate(790.745443 38.965625) scale(0.7)"/>
      <use xlink:href="#DejaVuSans-31" transform="translate(849.397786 38.965625) scale(0.7)"/>
      <use xlink:href="#DejaVuSans-72" transform="translate(786.279297 -26.659375) scale(0.7)"/>
      <use xlink:href="#DejaVuSans-29" transform="translate(896.668294 0.684375)"/>
     </g>
    </g>
   </g>
   <g id="matplotlib.axis_2">
    <g id="ytick_1">
     <g id="line2d_4">
      <defs>
       <path id="m5fd76bdc13" d="M 0 0 
L -3.5 0 
" style="stroke: #000000; stroke-width: 0.8"/>
      </defs>
      <g>
       <use xlink:href="#m5fd76bdc13" x="56.172" y="95.323091" style="stroke: #000000; stroke-width: 0.8"/>
      </g>
     </g>
     <g id="text_5">
      <!-- 0.00 -->
      <g transform="translate(26.906375 99.12231) scale(0.1 -0.1)">
       <defs>
        <path id="DejaVuSans-2e" d="M 684 794 
L 1344 794 
L 1344 0 
L 684 0 
L 684 794 
z
" transform="scale(0.015625)"/>
       </defs>
       <use xlink:href="#DejaVuSans-30"/>
       <use xlink:href="#DejaVuSans-2e" x="63.623047"/>
       <use xlink:href="#DejaVuSans-30" x="95.410156"/>
       <use xlink:href="#DejaVuSans-30" x="159.033203"/>
      </g>
     </g>
    </g>
    <g id="ytick_2">
     <g id="line2d_5">
      <g>
       <use xlink:href="#m5fd76bdc13" x="56.172" y="72.202382" style="stroke: #000000; stroke-width: 0.8"/>
      </g>
     </g>
     <g id="text_6">
      <!-- 0.02 -->
      <g transform="translate(26.906375 76.001601) scale(0.1 -0.1)">
       <use xlink:href="#DejaVuSans-30"/>
       <use xlink:href="#DejaVuSans-2e" x="63.623047"/>
       <use xlink:href="#DejaVuSans-30" x="95.410156"/>
       <use xlink:href="#DejaVuSans-32" x="159.033203"/>
      </g>
     </g>
    </g>
    <g id="ytick_3">
     <g id="line2d_6">
      <g>
       <use xlink:href="#m5fd76bdc13" x="56.172" y="49.081673" style="stroke: #000000; stroke-width: 0.8"/>
      </g>
     </g>
     <g id="text_7">
      <!-- 0.04 -->
      <g transform="translate(26.906375 52.880892) scale(0.1 -0.1)">
       <use xlink:href="#DejaVuSans-30"/>
       <use xlink:href="#DejaVuSans-2e" x="63.623047"/>
       <use xlink:href="#DejaVuSans-30" x="95.410156"/>
       <use xlink:href="#DejaVuSans-34" x="159.033203"/>
      </g>
     </g>
    </g>
    <g id="ytick_4">
     <g id="line2d_7">
      <g>
       <use xlink:href="#m5fd76bdc13" x="56.172" y="25.960964" style="stroke: #000000; stroke-width: 0.8"/>
      </g>
     </g>
     <g id="text_8">
      <!-- 0.06 -->
      <g transform="translate(26.906375 29.760183) scale(0.1 -0.1)">
       <defs>
        <path id="DejaVuSans-36" d="M 2113 2584 
Q 1688 2584 1439 2293 
Q 1191 2003 1191 1497 
Q 1191 994 1439 701 
Q 1688 409 2113 409 
Q 2538 409 2786 701 
Q 3034 994 3034 1497 
Q 3034 2003 2786 2293 
Q 2538 2584 2113 2584 
z
M 3366 4563 
L 3366 3988 
Q 3128 4100 2886 4159 
Q 2644 4219 2406 4219 
Q 1781 4219 1451 3797 
Q 1122 3375 1075 2522 
Q 1259 2794 1537 2939 
Q 1816 3084 2150 3084 
Q 2853 3084 3261 2657 
Q 3669 2231 3669 1497 
Q 3669 778 3244 343 
Q 2819 -91 2113 -91 
Q 1303 -91 875 529 
Q 447 1150 447 2328 
Q 447 3434 972 4092 
Q 1497 4750 2381 4750 
Q 2619 4750 2861 4703 
Q 3103 4656 3366 4563 
z
" transform="scale(0.015625)"/>
       </defs>
       <use xlink:href="#DejaVuSans-30"/>
       <use xlink:href="#DejaVuSans-2e" x="63.623047"/>
       <use xlink:href="#DejaVuSans-30" x="95.410156"/>
       <use xlink:href="#DejaVuSans-36" x="159.033203"/>
      </g>
     </g>
    </g>
    <g id="text_9">
     <!-- cavity population $|\alpha|^2/N_\mathrm{at}$ -->
     <g transform="translate(24.006375 118.124) rotate(-90) scale(0.1 -0.1)">
      <defs>
       <path id="DejaVuSans-63" d="M 3122 3366 
L 3122 2828 
Q 2878 2963 2633 3030 
Q 2388 3097 2138 3097 
Q 1578 3097 1268 2742 
Q 959 2388 959 1747 
Q 959 1106 1268 751 
Q 1578 397 2138 397 
Q 2388 397 2633 464 
Q 2878 531 3122 666 
L 3122 134 
Q 2881 22 2623 -34 
Q 2366 -91 2075 -91 
Q 1284 -91 818 406 
Q 353 903 353 1747 
Q 353 2603 823 3093 
Q 1294 3584 2113 3584 
Q 2378 3584 2631 3529 
Q 2884 3475 3122 3366 
z
" transform="scale(0.015625)"/>
       <path id="DejaVuSans-61" d="M 2194 1759 
Q 1497 1759 1228 1600 
Q 959 1441 959 1056 
Q 959 750 1161 570 
Q 1363 391 1709 391 
Q 2188 391 2477 730 
Q 2766 1069 2766 1631 
L 2766 1759 
L 2194 1759 
z
M 3341 1997 
L 3341 0 
L 2766 0 
L 2766 531 
Q 2569 213 2275 61 
Q 1981 -91 1556 -91 
Q 1019 -91 701 211 
Q 384 513 384 1019 
Q 384 1609 779 1909 
Q 1175 2209 1959 2209 
L 2766 2209 
L 2766 2266 
Q 2766 2663 2505 2880 
Q 2244 3097 1772 3097 
Q 1472 3097 1187 3025 
Q 903 2953 641 2809 
L 641 3341 
Q 956 3463 1253 3523 
Q 1550 3584 1831 3584 
Q 2591 3584 2966 3190 
Q 3341 2797 3341 1997 
z
" transform="scale(0.015625)"/>
       <path id="DejaVuSans-76" d="M 191 3500 
L 800 3500 
L 1894 563 
L 2988 3500 
L 3597 3500 
L 2284 0 
L 1503 0 
L 191 3500 
z
" transform="scale(0.015625)"/>
       <path id="DejaVuSans-79" d="M 2059 -325 
Q 1816 -950 1584 -1140 
Q 1353 -1331 966 -1331 
L 506 -1331 
L 506 -850 
L 844 -850 
Q 1081 -850 1212 -737 
Q 1344 -625 1503 -206 
L 1606 56 
L 191 3500 
L 800 3500 
L 1894 763 
L 2988 3500 
L 3597 3500 
L 2059 -325 
z
" transform="scale(0.015625)"/>
       <path id="DejaVuSans-70" d="M 1159 525 
L 1159 -1331 
L 581 -1331 
L 581 3500 
L 1159 3500 
L 1159 2969 
Q 1341 3281 1617 3432 
Q 1894 3584 2278 3584 
Q 2916 3584 3314 3078 
Q 3713 2572 3713 1747 
Q 3713 922 3314 415 
Q 2916 -91 2278 -91 
Q 1894 -91 1617 61 
Q 1341 213 1159 525 
z
M 3116 1747 
Q 3116 2381 2855 2742 
Q 2594 3103 2138 3103 
Q 1681 3103 1420 2742 
Q 1159 2381 1159 1747 
Q 1159 1113 1420 752 
Q 1681 391 2138 391 
Q 2594 391 2855 752 
Q 3116 1113 3116 1747 
z
" transform="scale(0.015625)"/>
       <path id="DejaVuSans-6c" d="M 603 4863 
L 1178 4863 
L 1178 0 
L 603 0 
L 603 4863 
z
" transform="scale(0.015625)"/>
       <path id="DejaVuSans-7c" d="M 1344 4891 
L 1344 -1509 
L 813 -1509 
L 813 4891 
L 1344 4891 
z
" transform="scale(0.015625)"/>
       <path id="DejaVuSans-Oblique-3b1" d="M 2619 1628 
L 2622 2350 
Q 2625 3088 2069 3091 
Q 1653 3094 1394 2747 
Q 1069 2319 959 1747 
Q 825 1059 994 731 
Q 1169 397 1547 397 
Q 1966 397 2319 1063 
L 2619 1628 
z
M 2166 3578 
Q 3141 3594 3128 2584 
Q 3128 2584 3616 3500 
L 4128 3500 
L 3119 1603 
L 3109 919 
Q 3109 766 3194 638 
Q 3291 488 3391 488 
L 3669 488 
L 3575 0 
L 3228 0 
Q 2934 0 2722 263 
Q 2622 394 2619 669 
Q 2416 334 2066 50 
Q 1900 -81 1453 -78 
Q 722 -72 456 397 
Q 184 884 353 1747 
Q 534 2675 1009 3097 
Q 1544 3569 2166 3578 
z
" transform="scale(0.015625)"/>
       <path id="DejaVuSans-2f" d="M 1625 4666 
L 2156 4666 
L 531 -594 
L 0 -594 
L 1625 4666 
z
" transform="scale(0.015625)"/>
       <path id="DejaVuSans-Oblique-4e" d="M 1081 4666 
L 1931 4666 
L 3219 666 
L 4000 4666 
L 4616 4666 
L 3706 0 
L 2853 0 
L 1569 4025 
L 788 0 
L 172 0 
L 1081 4666 
z
" transform="scale(0.015625)"/>
      </defs>
      <use xlink:href="#DejaVuSans-63" transform="translate(0 0.765625)"/>
      <use xlink:href="#DejaVuSans-61" transform="translate(54.980469 0.765625)"/>
      <use xlink:href="#DejaVuSans-76" transform="translate(116.259766 0.765625)"/>
      <use xlink:href="#DejaVuSans-69" transform="translate(175.439453 0.765625)"/>
      <use xlink:href="#DejaVuSans-74" transform="translate(203.222656 0.765625)"/>
      <use xlink:href="#DejaVuSans-79" transform="translate(242.431641 0.765625)"/>
      <use xlink:href="#DejaVuSans-20" transform="translate(301.611328 0.765625)"/>
      <use xlink:href="#DejaVuSans-70" transform="translate(333.398438 0.765625)"/>
      <use xlink:href="#DejaVuSans-6f" transform="translate(396.875 0.765625)"/>
      <use xlink:href="#DejaVuSans-70" transform="translate(458.056641 0.765625)"/>
      <use xlink:href="#DejaVuSans-75" transform="translate(521.533203 0.765625)"/>
      <use xlink:href="#DejaVuSans-6c" transform="translate(584.912109 0.765625)"/>
      <use xlink:href="#DejaVuSans-61" transform="translate(612.695312 0.765625)"/>
      <use xlink:href="#DejaVuSans-74" transform="translate(673.974609 0.765625)"/>
      <use xlink:href="#DejaVuSans-69" transform="translate(713.183594 0.765625)"/>
      <use xlink:href="#DejaVuSans-6f" transform="translate(740.966797 0.765625)"/>
      <use xlink:href="#DejaVuSans-6e" transform="translate(802.148438 0.765625)"/>
      <use xlink:href="#DejaVuSans-20" transform="translate(865.527344 0.765625)"/>
      <use xlink:href="#DejaVuSans-7c" transform="translate(897.314453 0.765625)"/>
      <use xlink:href="#DejaVuSans-Oblique-3b1" transform="translate(931.005859 0.765625)"/>
      <use xlink:href="#DejaVuSans-7c" transform="translate(996.923828 0.765625)"/>
      <use xlink:href="#DejaVuSans-32" transform="translate(1031.572266 39.046875) scale(0.7)"/>
      <use xlink:href="#DejaVuSans-2f" transform="translate(1078.842773 0.765625)"/>
      <use xlink:href="#DejaVuSans-Oblique-4e" transform="translate(1112.53418 0.765625)"/>
      <use xlink:href="#DejaVuSans-61" transform="translate(1187.338867 -15.640625) scale(0.7)"/>
      <use xlink:href="#DejaVuSans-74" transform="translate(1230.234375 -15.640625) scale(0.7)"/>
     </g>
    </g>
   </g>
   <g id="line2d_8">
    <path d="M 63.559462 95.323091 
L 63.85496 70.434829 
L 64.150458 72.398556 
L 64.445957 71.736316 
L 64.741455 73.502965 
L 65.036954 71.217685 
L 65.332452 72.361277 
L 65.627951 72.62597 
L 65.923449 72.163696 
L 66.218948 73.55838 
L 66.809945 71.977916 
L 67.105443 72.855321 
L 67.400942 70.728459 
L 67.69644 71.923652 
L 67.991939 70.814107 
L 68.582935 71.788598 
L 69.173932 71.358641 
L 69.469431 72.955678 
L 70.060428 70.538628 
L 70.946923 71.862494 
L 71.242422 70.8659 
L 71.53792 72.237794 
L 71.833419 71.165225 
L 72.128917 73.458952 
L 72.424415 71.870355 
L 72.719914 71.511891 
L 73.015412 72.123934 
L 73.310911 72.305234 
L 73.901908 71.388542 
L 74.492905 72.338119 
L 74.788403 72.554973 
L 75.083902 71.599679 
L 75.3794 73.034359 
L 75.674899 72.921951 
L 75.970397 71.196583 
L 76.265895 71.454004 
L 76.561394 72.354716 
L 76.856892 71.9723 
L 77.152391 70.379063 
L 77.743388 72.273097 
L 78.038886 69.760104 
L 78.334385 71.611579 
L 78.629883 70.764393 
L 78.925382 72.221151 
L 79.22088 70.626538 
L 79.516379 72.016887 
L 79.811877 72.28077 
L 80.107375 71.817517 
L 80.402874 70.877231 
L 80.698372 71.974753 
L 80.993871 71.482998 
L 81.289369 69.460445 
L 81.584868 72.798308 
L 81.880366 71.68317 
L 82.175865 72.122176 
L 82.471363 70.9015 
L 82.766862 72.306516 
L 83.06236 71.146229 
L 83.357859 71.303918 
L 83.653357 71.654711 
L 83.948856 72.268862 
L 84.244354 71.212322 
L 84.539852 70.823641 
L 84.835351 71.786468 
L 85.130849 72.144058 
L 85.426348 69.454011 
L 86.017345 72.33108 
L 86.312843 71.46368 
L 86.608342 72.035057 
L 86.90384 73.04708 
L 87.199339 71.82461 
L 87.494837 72.493194 
L 87.790336 71.844685 
L 88.085834 71.810416 
L 88.381332 71.155639 
L 88.676831 72.033182 
L 88.972329 72.201296 
L 89.267828 71.283797 
L 89.563326 72.663305 
L 89.858825 72.742293 
L 90.154323 71.729392 
L 90.449822 72.895866 
L 90.74532 71.625946 
L 91.040819 71.182126 
L 91.336317 71.084472 
L 91.631816 71.316744 
L 91.927314 72.872139 
L 92.222812 72.543507 
L 92.518311 72.459613 
L 93.109308 71.512573 
L 93.404806 72.044241 
L 93.700305 71.309288 
L 93.995803 71.992469 
L 94.291302 71.032129 
L 94.5868 72.255064 
L 95.177797 71.714936 
L 95.473296 72.472809 
L 96.064292 71.771581 
L 96.359791 72.811317 
L 96.655289 72.231317 
L 96.950788 70.893413 
L 97.246286 71.006978 
L 97.541785 70.509223 
L 97.837283 72.798751 
L 98.132782 71.216795 
L 98.42828 71.072599 
L 98.723779 71.894928 
L 99.019277 71.615169 
L 99.314776 71.534173 
L 99.610274 71.622667 
L 99.905772 72.305601 
L 100.201271 72.067423 
L 100.496769 72.363678 
L 100.792268 69.950884 
L 101.087766 72.486728 
L 101.383265 71.868469 
L 101.678763 72.322848 
L 102.26976 72.749678 
L 102.565259 70.746955 
L 102.860757 72.486684 
L 103.156256 72.156968 
L 103.451754 72.651469 
L 103.747253 72.29387 
L 104.042751 70.100844 
L 104.633748 71.473301 
L 104.929246 70.966174 
L 105.224745 71.288849 
L 105.520243 72.996983 
L 105.815742 71.668975 
L 106.11124 71.057518 
L 106.406739 72.734561 
L 106.702237 70.913983 
L 106.997736 71.919065 
L 107.293234 71.431015 
L 107.884231 72.510137 
L 108.179729 71.004241 
L 108.475228 72.421136 
L 108.770726 71.361737 
L 109.066225 71.302635 
L 109.361723 70.902076 
L 109.657222 72.682143 
L 110.248219 70.520079 
L 110.543717 71.164131 
L 111.134714 72.687375 
L 111.430213 71.574785 
L 111.725711 72.591552 
L 112.021209 71.553612 
L 112.316708 71.591898 
L 112.612206 71.283083 
L 112.907705 71.253752 
L 113.203203 72.764581 
L 113.498702 72.245477 
L 113.7942 72.149905 
L 114.089699 72.600672 
L 114.385197 71.930171 
L 114.680696 72.505647 
L 115.271693 71.762117 
L 115.567191 72.718046 
L 115.862689 70.800813 
L 116.158188 71.281609 
L 116.453686 70.361082 
L 117.340182 72.261765 
L 117.63568 69.991999 
L 117.931179 71.888407 
L 118.226677 71.60908 
L 118.522176 72.478522 
L 118.817674 70.393038 
L 119.408671 71.782988 
L 119.70417 71.762895 
L 119.999668 71.626574 
L 120.590665 72.553123 
L 121.181662 71.347504 
L 121.47716 72.11762 
L 121.772659 71.29702 
L 122.068157 72.219314 
L 122.363656 71.623509 
L 122.659154 73.134484 
L 122.954653 71.561142 
L 123.250151 72.396075 
L 123.54565 71.5757 
L 123.841148 71.365416 
L 124.136646 71.411252 
L 124.432145 71.820367 
L 125.023142 71.774313 
L 125.31864 72.069076 
L 125.614139 71.141286 
L 125.909637 71.060934 
L 126.205136 71.843903 
L 126.500634 71.874545 
L 126.796133 72.440036 
L 127.091631 70.294234 
L 127.38713 73.385764 
L 127.682628 72.179073 
L 128.273625 71.687611 
L 128.569123 71.940498 
L 128.864622 71.043799 
L 129.16012 73.350321 
L 129.455619 72.292873 
L 129.751117 70.606061 
L 130.046616 72.420624 
L 130.342114 73.364383 
L 130.637613 70.76178 
L 130.933111 71.175389 
L 131.22861 72.494762 
L 131.819606 70.362449 
L 132.115105 71.874131 
L 132.410603 72.445136 
L 132.706102 71.637257 
L 133.0016 72.100526 
L 133.592597 71.408843 
L 133.888096 72.763807 
L 134.183594 70.586749 
L 134.479093 71.757351 
L 134.774591 71.12666 
L 135.07009 72.253587 
L 135.365588 72.253648 
L 135.661086 70.914951 
L 135.956585 72.117142 
L 136.252083 71.424668 
L 136.547582 72.727699 
L 136.84308 72.21215 
L 137.138579 71.952011 
L 137.729576 72.820312 
L 138.025074 71.697736 
L 138.320573 72.406536 
L 138.616071 71.410922 
L 138.91157 71.160683 
L 139.207068 70.333266 
L 139.502567 71.405489 
L 139.798065 71.184152 
L 140.093563 70.619913 
L 140.68456 72.333613 
L 140.980059 72.326153 
L 141.275557 70.990203 
L 141.571056 71.395962 
L 141.866554 71.339738 
L 142.162053 71.160717 
L 142.457551 72.650694 
L 142.75305 73.104405 
L 143.048548 71.990831 
L 143.344047 71.522767 
L 143.639545 71.725117 
L 143.935043 70.822533 
L 144.230542 71.288555 
L 144.52604 72.530196 
L 144.821539 71.042783 
L 145.117037 71.909274 
L 145.412536 70.945206 
L 145.708034 73.439531 
L 146.003533 71.52813 
L 146.299031 72.24757 
L 146.59453 72.164863 
L 146.890028 71.043926 
L 147.185527 70.359674 
L 147.481025 72.396072 
L 147.776523 70.501624 
L 148.072022 70.669793 
L 148.36752 72.530462 
L 148.663019 71.586602 
L 148.958517 72.417118 
L 149.254016 71.595634 
L 149.549514 72.189409 
L 149.845013 71.395478 
L 150.140511 72.422897 
L 150.43601 70.233987 
L 150.731508 71.973627 
L 151.027007 72.202857 
L 151.322505 71.520919 
L 151.618003 71.416521 
L 151.913502 73.201238 
L 152.209 72.68095 
L 152.504499 72.616036 
L 152.799997 71.390917 
L 153.095496 72.525623 
L 153.390994 71.678867 
L 153.981991 72.464521 
L 154.27749 71.401264 
L 154.572988 71.947505 
L 154.868487 71.814095 
L 155.163985 71.256249 
L 155.459484 72.398195 
L 155.754982 71.390484 
L 156.05048 71.101863 
L 156.345979 71.011214 
L 156.641477 71.68757 
L 156.936976 70.656481 
L 157.232474 70.112313 
L 157.527973 71.114813 
L 158.11897 70.787333 
L 158.414468 71.614988 
L 158.709967 70.514965 
L 159.005465 71.819816 
L 159.300964 72.121116 
L 159.596462 71.404393 
L 159.89196 72.085322 
L 160.187459 72.249034 
L 160.482957 71.272155 
L 160.778456 71.823764 
L 161.073954 71.781415 
L 161.369453 72.121744 
L 161.664951 73.182683 
L 161.96045 70.817636 
L 162.255948 71.715386 
L 162.551447 70.225124 
L 162.846945 71.729897 
L 163.437942 72.186093 
L 163.73344 71.751543 
L 164.028939 71.797 
L 164.324437 71.548114 
L 164.619936 72.548368 
L 164.915434 70.938513 
L 165.210933 72.389318 
L 165.506431 72.148355 
L 165.80193 72.819973 
L 166.097428 70.910697 
L 166.392927 71.687705 
L 166.688425 70.91107 
L 166.983924 72.592559 
L 167.279422 70.848152 
L 167.57492 72.61516 
L 167.870419 71.805401 
L 168.165917 71.453132 
L 168.461416 72.413861 
L 168.756914 71.108512 
L 169.347911 71.685718 
L 169.64341 71.919865 
L 169.938908 72.835995 
L 170.234407 71.356927 
L 170.529905 72.988811 
L 170.825404 71.365645 
L 171.120902 71.972851 
L 171.4164 69.945568 
L 171.711899 70.4106 
L 172.007397 71.237694 
L 172.302896 70.283431 
L 172.598394 72.533427 
L 172.893893 70.812063 
L 173.189391 71.124138 
L 173.48489 72.13761 
L 173.780388 70.786327 
L 174.371385 72.504843 
L 174.666884 72.48392 
L 175.257881 70.035292 
L 175.553379 72.754624 
L 175.848877 70.836692 
L 176.439874 73.511299 
L 176.735373 71.453353 
L 177.030871 72.96115 
L 177.32637 70.720199 
L 177.621868 72.636278 
L 177.917367 72.003428 
L 178.212865 73.369722 
L 178.508364 70.956863 
L 178.803862 72.39597 
L 179.099361 70.543396 
L 179.394859 72.292711 
L 179.690357 71.442951 
L 179.985856 71.805969 
L 180.281354 70.997193 
L 180.576853 72.622773 
L 180.872351 72.718502 
L 181.16785 71.750589 
L 181.463348 71.993377 
L 181.758847 73.109092 
L 182.054345 71.425724 
L 182.349844 72.82835 
L 182.645342 70.609858 
L 182.940841 70.967657 
L 183.531837 71.359399 
L 183.827336 70.807641 
L 184.122834 72.368566 
L 184.418333 72.18872 
L 184.713831 70.729312 
L 185.00933 70.411137 
L 185.304828 71.470339 
L 185.600327 69.814095 
L 185.895825 71.900397 
L 186.191324 71.731072 
L 186.486822 70.235224 
L 186.782321 72.596424 
L 187.668816 71.442896 
L 187.964314 71.929896 
L 188.259813 72.057172 
L 188.555311 71.103669 
L 189.146308 71.492178 
L 189.441807 70.544967 
L 189.737305 70.687956 
L 190.032804 72.025286 
L 190.328302 72.26565 
L 190.623801 72.701872 
L 190.919299 71.437027 
L 191.510296 71.598541 
L 191.805794 69.725318 
L 192.396791 71.910869 
L 192.69229 70.893921 
L 192.987788 72.54731 
L 193.283287 71.994975 
L 193.578785 71.790269 
L 193.874284 71.038741 
L 194.169782 72.144147 
L 194.465281 70.973098 
L 194.760779 72.082027 
L 195.056278 71.05336 
L 195.647274 72.484058 
L 195.942773 72.145487 
L 196.238271 71.147913 
L 196.53377 70.931479 
L 196.829268 71.508226 
L 197.124767 69.716994 
L 197.715764 71.08738 
L 198.011262 71.589868 
L 198.306761 70.570667 
L 198.602259 71.591599 
L 198.897758 71.582572 
L 199.193256 71.416722 
L 199.488754 72.883648 
L 199.784253 71.19754 
L 200.079751 71.791094 
L 200.37525 73.415639 
L 200.670748 72.477275 
L 200.966247 72.033163 
L 201.261745 71.075479 
L 201.557244 71.437527 
L 201.852742 71.421243 
L 202.148241 71.570532 
L 202.443739 72.412061 
L 202.739238 70.753516 
L 203.034736 71.99767 
L 203.330234 71.283494 
L 203.625733 73.307102 
L 203.921231 71.473362 
L 204.21673 72.04157 
L 204.512228 70.78342 
L 205.103225 73.120018 
L 205.398724 71.53111 
L 205.694222 71.952991 
L 205.989721 72.156058 
L 206.285219 70.7815 
L 206.580718 71.854477 
L 206.876216 71.33815 
L 207.171714 71.617858 
L 207.467213 72.451613 
L 207.762711 70.995035 
L 208.05821 70.992558 
L 208.353708 70.672783 
L 208.649207 72.250581 
L 208.944705 72.398685 
L 209.240204 72.199044 
L 209.535702 72.347349 
L 209.831201 72.291564 
L 210.126699 71.107365 
L 211.013195 70.439719 
L 211.308693 71.692996 
L 211.308693 71.692996 
" clip-path="url(#p9a39826289)" style="fill: none; stroke: #2ca02c; stroke-width: 1.5; stroke-linecap: square"/>
   </g>
   <g id="patch_3">
    <path d="M 56.172 99.348 
L 56.172 10.8 
" style="fill: none; stroke: #000000; stroke-width: 0.8; stroke-linejoin: miter; stroke-linecap: square"/>
   </g>
   <g id="patch_4">
    <path d="M 218.696155 99.348 
L 218.696155 10.8 
" style="fill: none; stroke: #000000; stroke-width: 0.8; stroke-linejoin: miter; stroke-linecap: square"/>
   </g>
   <g id="patch_5">
    <path d="M 56.172 99.348 
L 218.696155 99.348 
" style="fill: none; stroke: #000000; stroke-width: 0.8; stroke-linejoin: miter; stroke-linecap: square"/>
   </g>
   <g id="patch_6">
    <path d="M 56.172 10.8 
L 218.696155 10.8 
" style="fill: none; stroke: #000000; stroke-width: 0.8; stroke-linejoin: miter; stroke-linecap: square"/>
   </g>
  </g>
 </g>
 <defs>
  <clipPath id="p9a39826289">
   <rect x="56.172" y="10.8" width="162.524155" height="88.548"/>
  </clipPath>
 </defs>
</svg>
