<?xml version="1.0" encoding="utf-8" standalone="no"?>
<!DOCTYPE svg PUBLIC "-//W3C//DTD SVG 1.1//EN"
  "http://www.w3.org/Graphics/SVG/1.1/DTD/svg11.dtd">
<svg xmlns:xlink="http://www.w3.org/1999/xlink" width="460.8pt" height="345.6pt" viewBox="0 0 460.8 345.6" xmlns="http://www.w3.org/2000/svg" version="1.1">
 <metadata>
  <rdf:RDF xmlns:dc="http://purl.org/dc/elements/1.1/" xmlns:cc="http://creativecommons.org/ns#" xmlns:rdf="http://www.w3.org/1999/02/22-rdf-syntax-ns#">
   <cc:Work>
    <dc:type rdf:resource="http://purl.org/dc/dcmitype/StillImage"/>
    <dc:date>2024-02-05T16:55:15.925786</dc:date>
    <dc:format>image/svg+xml</dc:format>
    <dc:creator>
     <cc:Agent>
      <dc:title>Matplotlib v3.8.2, https://matplotlib.org/</dc:title>
     </cc:Agent>
    </dc:creator>
   </cc:Work>
  </rdf:RDF>
 </metadata>
 <defs>
  <style type="text/css">*{stroke-linejoin: round; stroke-linecap: butt}</style>
 </defs>
 <g id="figure_1">
  <g id="patch_1">
   <path d="M 0 345.6 
L 460.8 345.6 
L 460.8 0 
L 0 0 
z
" style="fill: #ffffff"/>
  </g>
  <g id="axes_1">
   <g id="patch_2">
    <path d="M 50.998 296.636 
L 450 296.636 
L 450 27.08896 
L 50.998 27.08896 
z
" style="fill: #ffffff"/>
   </g>
   <g id="PolyCollection_1">
    <path d="M -134460.637798 39.341098 
L -134460.637798 143.225741 
L 69.134455 163.240999 
L 109.591494 172.139447 
L 133.257345 177.539202 
L 150.048534 184.379333 
L 163.072792 189.000291 
L 173.714385 193.654554 
L 182.711724 197.174584 
L 190.505574 200.110554 
L 197.380236 203.869741 
L 203.529831 207.168401 
L 209.092817 209.099624 
L 214.171425 211.353478 
L 218.843291 213.725918 
L 223.168764 214.719988 
L 227.195683 218.731349 
L 230.962613 218.231368 
L 234.501101 221.437158 
L 237.837276 222.420765 
L 240.993027 222.773845 
L 243.986871 226.132309 
L 246.834615 226.881403 
L 249.549857 227.703406 
L 252.14438 229.076632 
L 254.628465 231.259589 
L 257.011129 232.456018 
L 259.300331 234.051147 
L 261.503127 234.846019 
L 263.625804 236.077381 
L 265.673985 235.742827 
L 267.652722 238.083458 
L 269.566571 239.641817 
L 271.419653 239.51739 
L 273.215708 241.045877 
L 274.958141 241.617837 
L 276.650061 242.736167 
L 278.294316 245.013863 
L 279.893516 245.241488 
L 281.450066 245.558642 
L 282.966182 246.733111 
L 284.443911 247.246541 
L 285.885149 247.941157 
L 287.291655 247.810046 
L 288.665063 249.318929 
L 290.006896 249.4451 
L 291.318573 250.820028 
L 292.60142 251.249741 
L 293.856676 250.90469 
L 295.085504 252.119066 
L 296.288994 253.241381 
L 297.468169 254.15817 
L 298.623992 254.549956 
L 299.757371 254.467442 
L 300.86916 256.159193 
L 301.960167 255.467016 
L 303.031154 255.632796 
L 304.082843 255.476555 
L 305.115918 256.395904 
L 306.131024 256.623091 
L 307.128778 257.613487 
L 308.109762 257.340076 
L 309.074531 257.675797 
L 310.023611 258.335633 
L 310.957506 258.818331 
L 311.876693 259.207169 
L 312.781628 260.056909 
L 313.672748 259.093989 
L 314.550466 260.438989 
L 315.41518 261.365697 
L 316.267271 261.611193 
L 317.107101 261.760722 
L 317.935018 261.890839 
L 318.751355 262.450904 
L 319.556433 261.95259 
L 320.350556 262.647959 
L 321.13402 263.244323 
L 321.907106 263.586208 
L 322.670087 262.915655 
L 323.423222 263.422796 
L 324.166763 263.92621 
L 324.900951 263.176087 
L 325.626018 264.068713 
L 326.342189 264.31161 
L 327.049678 265.577701 
L 327.748694 266.842127 
L 328.439438 265.294106 
L 329.122103 265.578422 
L 329.796875 265.573623 
L 330.463936 266.08123 
L 331.123459 265.500982 
L 331.775613 267.385675 
L 332.420561 266.893459 
L 333.05846 267.023745 
L 333.689462 268.444416 
L 334.313716 267.405539 
L 334.931364 268.327328 
L 335.542544 268.700184 
L 336.147391 269.803952 
L 336.746033 269.829463 
L 337.338599 269.509657 
L 337.925208 269.768936 
L 338.505981 269.142715 
L 339.081032 269.713685 
L 339.650472 270.63525 
L 340.21441 269.996619 
L 340.772952 270.423005 
L 341.3262 270.857296 
L 341.874252 271.363516 
L 342.417207 272.039462 
L 342.955157 271.786447 
L 343.488194 271.423732 
L 344.016407 271.770964 
L 344.539883 271.642946 
L 345.058706 272.35939 
L 345.572957 272.686398 
L 346.082717 273.488974 
L 346.588064 272.377533 
L 347.089073 274.27714 
L 347.585818 273.825644 
L 348.078371 272.972107 
L 348.566802 273.093234 
L 349.051179 274.166019 
L 349.53157 273.984209 
L 350.00804 274.377054 
L 350.480651 274.414414 
L 350.949466 274.670945 
L 351.414546 274.829249 
L 351.875948 274.889694 
L 352.333733 275.68836 
L 352.787954 274.702646 
L 353.238668 274.849182 
L 353.685928 275.235086 
L 354.129787 275.102888 
L 354.570296 273.945827 
L 355.007506 274.728702 
L 355.441464 275.308598 
L 355.87222 275.571114 
L 356.29982 274.783233 
L 356.724311 275.339155 
L 357.145736 276.811546 
L 357.564141 276.283973 
L 357.979567 277.08245 
L 358.392058 276.519725 
L 358.801654 276.778903 
L 359.208395 275.882171 
L 359.612322 276.46077 
L 360.013472 276.236792 
L 360.411885 276.821222 
L 360.807596 277.607462 
L 361.200642 277.559723 
L 361.591059 277.356039 
L 361.978883 277.264648 
L 362.364146 277.301078 
L 362.746883 276.027296 
L 363.127126 277.540167 
L 363.504909 277.446203 
L 363.880261 277.940089 
L 364.253216 277.558811 
L 364.623802 277.568442 
L 364.992051 277.205222 
L 365.35799 277.710592 
L 365.72165 277.701587 
L 366.083058 278.042227 
L 366.442241 279.203653 
L 366.799228 278.030406 
L 367.154045 277.984902 
L 367.506718 277.419915 
L 367.857272 278.747337 
L 368.205734 278.49303 
L 368.552128 278.439726 
L 368.896478 278.586325 
L 369.238808 278.330289 
L 369.579143 278.678617 
L 369.917504 278.536696 
L 370.253915 279.473982 
L 370.588398 279.28559 
L 370.920976 279.234978 
L 371.251669 279.213155 
L 371.580499 279.92092 
L 371.907487 279.665335 
L 372.232653 280.063619 
L 372.556017 280.185134 
L 372.8776 279.997468 
L 373.197421 278.912242 
L 373.515499 280.489202 
L 373.831853 280.208392 
L 374.146502 279.986249 
L 374.459463 281.061099 
L 374.770756 279.918226 
L 375.080397 279.651393 
L 375.388404 279.995975 
L 375.694794 279.810919 
L 375.999584 280.451879 
L 376.30279 280.055996 
L 376.60443 280.424668 
L 376.904519 280.00754 
L 377.203073 280.564469 
L 377.500108 280.47352 
L 377.795638 281.048969 
L 378.08968 280.552153 
L 378.382248 280.644419 
L 378.673357 280.609541 
L 378.963021 280.849778 
L 379.251254 281.091333 
L 379.538071 280.606802 
L 379.823486 281.133091 
L 380.107512 280.848576 
L 380.390162 280.152942 
L 380.67145 281.348923 
L 380.951389 280.775307 
L 381.229992 281.298893 
L 381.507271 281.444995 
L 381.783239 281.386117 
L 382.057909 281.958137 
L 382.331292 281.642373 
L 382.6034 281.753474 
L 382.874246 281.744911 
L 383.143841 281.604711 
L 383.412196 281.596856 
L 383.679323 281.275493 
L 383.945234 280.885555 
L 384.209938 281.668288 
L 384.473447 281.906433 
L 384.735772 282.140545 
L 384.996923 281.905743 
L 385.256911 282.08587 
L 385.515745 282.223508 
L 385.773438 281.359604 
L 386.029997 281.699946 
L 386.285434 281.455963 
L 386.539757 281.827798 
L 386.792977 281.161515 
L 387.045104 280.805544 
L 387.296146 281.994203 
L 387.546113 281.797033 
L 387.795013 281.503535 
L 388.042857 281.437017 
L 388.289653 281.611744 
L 388.53541 281.70134 
L 388.780137 280.857447 
L 389.023841 281.758101 
L 389.266533 281.67807 
L 389.508219 281.946282 
L 389.748909 281.113403 
L 389.98861 281.846093 
L 390.227331 281.69539 
L 390.465079 282.077814 
L 390.701863 281.513507 
L 390.937691 281.880756 
L 391.172569 281.716719 
L 391.406506 281.780061 
L 391.639509 282.306705 
L 391.871585 281.441 
L 392.102743 281.29131 
L 392.332988 281.749882 
L 392.562329 281.904104 
L 392.790772 281.625338 
L 393.018325 281.986322 
L 393.244994 281.571198 
L 393.470786 281.624301 
L 393.695708 281.256979 
L 393.919766 282.130379 
L 394.142968 282.687427 
L 394.365319 282.35429 
L 394.586827 281.955955 
L 394.807497 281.973464 
L 395.027336 282.306516 
L 395.24635 282.082012 
L 395.464545 281.928981 
L 395.681928 282.441346 
L 395.898504 282.284358 
L 396.114279 282.246314 
L 396.32926 282.278185 
L 396.543452 282.606102 
L 396.75686 282.162768 
L 396.969491 282.326477 
L 397.181351 282.091567 
L 397.392444 282.880043 
L 397.602776 282.432782 
L 397.812353 281.988723 
L 398.02118 282.321635 
L 398.229263 283.02831 
L 398.436607 282.115925 
L 398.643217 282.589683 
L 398.849097 282.543014 
L 399.054255 282.624421 
L 399.258693 282.928633 
L 399.462418 282.734491 
L 399.665435 282.57178 
L 399.867748 282.410169 
L 400.069361 282.210106 
L 400.270281 282.269804 
L 400.470512 282.188562 
L 400.670058 282.353047 
L 400.868924 282.51609 
L 401.067115 282.381855 
L 401.264635 282.300614 
L 401.461489 282.702659 
L 401.657682 282.811142 
L 401.853217 282.782524 
L 402.048099 282.085331 
L 402.242333 282.104731 
L 402.435922 282.064919 
L 402.628872 282.784322 
L 402.821186 282.738014 
L 403.012868 282.771337 
L 403.203922 283.217634 
L 403.394354 283.199534 
L 403.584166 283.057948 
L 403.773363 283.224648 
L 403.961948 283.238722 
L 404.149926 283.091964 
L 404.337301 283.217861 
L 404.524076 282.634061 
L 404.710256 282.66502 
L 404.895843 282.438364 
L 405.080842 282.799276 
L 405.265257 282.456947 
L 405.44909 283.122559 
L 405.632347 283.43037 
L 405.81503 282.470085 
L 405.997143 283.152894 
L 406.17869 282.808036 
L 406.359673 283.174141 
L 406.540097 282.998787 
L 406.719966 283.177348 
L 406.899281 283.298152 
L 407.078047 283.139109 
L 407.256268 283.152926 
L 407.433946 283.658915 
L 407.611085 283.553648 
L 407.787687 283.353466 
L 407.963757 283.275053 
L 408.139298 283.424039 
L 408.314312 283.19113 
L 408.488803 282.942031 
L 408.662774 283.396099 
L 408.836228 282.830659 
L 409.009168 282.972213 
L 409.181597 283.343188 
L 409.353518 283.003777 
L 409.524934 283.230815 
L 409.695848 282.969134 
L 409.866263 283.158761 
L 410.036182 284.045034 
L 410.205608 283.167024 
L 410.374544 282.616155 
L 410.542992 283.265266 
L 410.710955 283.227795 
L 410.878436 283.683224 
L 411.045438 282.472666 
L 411.211964 283.489614 
L 411.378016 283.449358 
L 411.543596 283.291484 
L 411.708709 283.145662 
L 411.873355 283.432074 
L 412.037539 283.861716 
L 412.201261 283.905195 
L 412.364526 283.589104 
L 412.527336 283.402813 
L 412.689693 283.609585 
L 412.851599 283.003629 
L 413.013057 282.789254 
L 413.17407 282.803386 
L 413.33464 283.027461 
L 413.49477 283.353171 
L 413.654461 282.699971 
L 413.813717 282.928121 
L 413.972539 283.405179 
L 414.13093 283.152964 
L 414.288893 282.785522 
L 414.446429 283.630249 
L 414.603542 283.434399 
L 414.760232 283.456715 
L 414.916503 283.062396 
L 415.072357 283.560531 
L 415.227795 283.037329 
L 415.382821 283.33266 
L 415.537436 282.905551 
L 415.691643 283.155816 
L 415.845443 283.865234 
L 415.998839 283.467438 
L 416.151833 283.338802 
L 416.304427 282.957984 
L 416.456623 283.883329 
L 416.608424 283.423811 
L 416.75983 283.182912 
L 416.910845 283.49327 
L 417.06147 283.539085 
L 417.211707 283.690505 
L 417.361559 283.462232 
L 417.511027 283.857304 
L 417.660113 283.458674 
L 417.808819 284.257791 
L 417.957147 283.908985 
L 418.1051 283.790032 
L 418.252678 283.886727 
L 418.399884 283.676937 
L 418.54672 283.424726 
L 418.693187 283.105896 
L 418.839288 283.440561 
L 418.985024 283.40276 
L 419.130396 283.253218 
L 419.275408 283.624538 
L 419.42006 283.764399 
L 419.564355 283.881495 
L 419.708294 283.228765 
L 419.851879 283.633766 
L 419.995111 284.093815 
L 420.137993 283.845621 
L 420.280526 283.803599 
L 420.422711 283.728752 
L 420.564551 284.273571 
L 420.706048 283.509481 
L 420.847202 283.98643 
L 420.988015 283.914575 
L 421.12849 283.199024 
L 421.268627 283.127635 
L 421.408429 283.88434 
L 421.547896 283.979354 
L 421.687032 283.569354 
L 421.825836 283.400745 
L 421.964311 283.810858 
L 422.102458 283.815092 
L 422.240279 283.733993 
L 422.377775 283.183983 
L 422.514949 283.256731 
L 422.6518 283.753916 
L 422.788332 283.23671 
L 422.924544 283.58129 
L 423.06044 283.296616 
L 423.19602 283.071135 
L 423.331286 283.980574 
L 423.466239 283.799848 
L 423.600881 283.877941 
L 423.735213 283.496339 
L 423.869236 283.449622 
L 424.002952 283.407696 
L 424.136363 283.026717 
L 424.26947 284.010109 
L 424.402273 283.45442 
L 424.534775 283.959406 
L 424.666977 284.045175 
L 424.798881 283.269879 
L 424.930487 283.561711 
L 425.061796 283.406296 
L 425.192811 283.528534 
L 425.323533 283.766344 
L 425.453962 283.43004 
L 425.584101 283.057987 
L 425.71395 283.276329 
L 425.843511 283.58967 
L 425.972785 283.627014 
L 426.101773 283.626288 
L 426.230477 283.755838 
L 426.358898 283.911259 
L 426.487037 283.737169 
L 426.614895 284.354488 
L 426.742473 283.447311 
L 426.869774 283.453416 
L 426.996797 284.364818 
L 427.123544 284.082421 
L 427.250017 283.788513 
L 427.376216 283.724925 
L 427.502143 283.559844 
L 427.627799 283.746948 
L 427.753185 283.397546 
L 427.878303 284.28263 
L 428.003152 283.436223 
L 428.127735 283.498855 
L 428.252053 283.691093 
L 428.376107 283.673762 
L 428.499897 283.633437 
L 428.623426 284.200498 
L 428.746693 283.773929 
L 428.869701 284.229807 
L 428.99245 283.822055 
L 429.114942 284.042226 
L 429.237177 284.159035 
L 429.359156 284.053573 
L 429.480881 284.083055 
L 429.602353 283.815089 
L 429.723572 284.29676 
L 429.844541 284.205625 
L 429.965259 284.252046 
L 430.085728 284.026608 
L 430.205948 284.360014 
L 430.325922 283.746869 
L 430.44565 283.80284 
L 430.565132 284.010365 
L 430.684371 284.264378 
L 430.803366 284.383862 
L 430.922119 283.940894 
L 431.040631 284.151978 
L 431.158903 283.914901 
L 431.276936 284.306272 
L 431.39473 284.354774 
L 431.512288 284.333336 
L 431.629609 284.090605 
L 431.746694 283.590769 
L 431.863545 283.911404 
L 431.863545 236.722704 
L 431.863545 236.722704 
L 431.746694 235.35794 
L 431.629609 236.26646 
L 431.512288 235.933499 
L 431.39473 237.360078 
L 431.276936 236.245448 
L 431.158903 236.248835 
L 431.040631 236.727975 
L 430.922119 235.665678 
L 430.803366 235.32301 
L 430.684371 236.114979 
L 430.565132 235.26052 
L 430.44565 235.885225 
L 430.325922 235.118602 
L 430.205948 235.103344 
L 430.085728 235.299377 
L 429.965259 233.872299 
L 429.844541 234.986678 
L 429.723572 235.045569 
L 429.602353 236.174066 
L 429.480881 235.87095 
L 429.359156 234.681124 
L 429.237177 234.853639 
L 429.114942 235.546496 
L 428.99245 236.612713 
L 428.869701 236.536584 
L 428.746693 234.656388 
L 428.623426 234.985105 
L 428.499897 235.6912 
L 428.376107 233.684461 
L 428.252053 235.821608 
L 428.127735 233.594301 
L 428.003152 235.480389 
L 427.878303 234.786753 
L 427.753185 234.096674 
L 427.627799 234.52125 
L 427.502143 236.139645 
L 427.376216 234.55748 
L 427.250017 234.564053 
L 427.123544 235.194315 
L 426.996797 235.593561 
L 426.869774 235.356303 
L 426.742473 236.467287 
L 426.614895 235.234341 
L 426.487037 233.277469 
L 426.358898 234.30052 
L 426.230477 235.917813 
L 426.101773 234.747239 
L 425.972785 235.94865 
L 425.843511 234.962674 
L 425.71395 234.757373 
L 425.584101 235.507972 
L 425.453962 235.041976 
L 425.323533 234.829333 
L 425.192811 235.051267 
L 425.061796 233.550848 
L 424.930487 234.294029 
L 424.798881 233.300177 
L 424.666977 234.07375 
L 424.534775 233.412767 
L 424.402273 233.931889 
L 424.26947 233.252864 
L 424.136363 232.01681 
L 424.002952 232.287643 
L 423.869236 232.075085 
L 423.735213 232.152241 
L 423.600881 233.508976 
L 423.466239 233.428025 
L 423.331286 233.041004 
L 423.19602 233.680574 
L 423.06044 232.68339 
L 422.924544 233.480783 
L 422.788332 233.979541 
L 422.6518 233.381331 
L 422.514949 232.853667 
L 422.377775 232.782074 
L 422.240279 231.977177 
L 422.102458 233.875793 
L 421.964311 232.876161 
L 421.825836 232.372655 
L 421.687032 233.138133 
L 421.547896 232.98012 
L 421.408429 233.044365 
L 421.268627 232.376829 
L 421.12849 233.167237 
L 420.988015 232.236065 
L 420.847202 231.842195 
L 420.706048 232.008594 
L 420.564551 231.396749 
L 420.422711 231.182299 
L 420.280526 232.068516 
L 420.137993 230.962954 
L 419.995111 231.046675 
L 419.851879 232.145856 
L 419.708294 231.979137 
L 419.564355 231.648177 
L 419.42006 232.400885 
L 419.275408 231.416281 
L 419.130396 232.113438 
L 418.985024 232.592649 
L 418.839288 233.226981 
L 418.693187 231.443224 
L 418.54672 233.017627 
L 418.399884 230.466037 
L 418.252678 230.382893 
L 418.1051 231.480784 
L 417.957147 230.768646 
L 417.808819 231.314274 
L 417.660113 230.224187 
L 417.511027 230.388745 
L 417.361559 231.504849 
L 417.211707 231.04659 
L 417.06147 231.455784 
L 416.910845 228.593646 
L 416.75983 230.687814 
L 416.608424 232.269922 
L 416.456623 230.30613 
L 416.304427 230.552619 
L 416.151833 230.229413 
L 415.998839 229.394598 
L 415.845443 229.613422 
L 415.691643 229.621526 
L 415.537436 229.320317 
L 415.382821 229.022545 
L 415.227795 228.841304 
L 415.072357 230.220976 
L 414.916503 230.243298 
L 414.760232 229.244182 
L 414.603542 229.763331 
L 414.446429 229.59861 
L 414.288893 228.368042 
L 414.13093 229.534856 
L 413.972539 230.412795 
L 413.813717 230.575385 
L 413.654461 230.434677 
L 413.49477 228.562496 
L 413.33464 230.907683 
L 413.17407 228.010174 
L 413.013057 229.195931 
L 412.851599 229.511485 
L 412.689693 229.619745 
L 412.527336 229.735189 
L 412.364526 227.84215 
L 412.201261 230.072583 
L 412.037539 229.587916 
L 411.873355 229.522375 
L 411.708709 231.101882 
L 411.543596 228.487116 
L 411.378016 228.2379 
L 411.211964 228.971199 
L 411.045438 228.335142 
L 410.878436 228.336446 
L 410.710955 228.214581 
L 410.542992 228.327507 
L 410.374544 227.048159 
L 410.205608 227.603035 
L 410.036182 228.500782 
L 409.866263 228.099965 
L 409.695848 228.989625 
L 409.524934 228.870356 
L 409.353518 227.582587 
L 409.181597 229.743165 
L 409.009168 227.317029 
L 408.836228 229.145335 
L 408.662774 226.52105 
L 408.488803 228.689194 
L 408.314312 228.611738 
L 408.139298 228.109909 
L 407.963757 229.524816 
L 407.787687 229.949193 
L 407.611085 229.357529 
L 407.433946 229.064903 
L 407.256268 229.158081 
L 407.078047 228.120999 
L 406.899281 227.815426 
L 406.719966 228.275957 
L 406.540097 228.265984 
L 406.359673 228.930982 
L 406.17869 229.542066 
L 405.997143 228.090369 
L 405.81503 228.442824 
L 405.632347 228.900405 
L 405.44909 228.681124 
L 405.265257 228.597518 
L 405.080842 227.700648 
L 404.895843 228.646572 
L 404.710256 227.703206 
L 404.524076 227.353533 
L 404.337301 226.189108 
L 404.149926 226.208197 
L 403.961948 226.553238 
L 403.773363 227.617883 
L 403.584166 227.664786 
L 403.394354 226.000484 
L 403.203922 227.442658 
L 403.012868 226.299138 
L 402.821186 225.60057 
L 402.628872 226.236693 
L 402.435922 227.377594 
L 402.242333 225.883291 
L 402.048099 225.47551 
L 401.853217 226.547952 
L 401.657682 226.02193 
L 401.461489 226.304715 
L 401.264635 226.143917 
L 401.067115 226.232096 
L 400.868924 225.882671 
L 400.670058 225.533723 
L 400.470512 225.753813 
L 400.270281 225.852268 
L 400.069361 225.016 
L 399.867748 224.32558 
L 399.665435 222.574348 
L 399.462418 224.939116 
L 399.258693 224.620653 
L 399.054255 224.006788 
L 398.849097 226.335119 
L 398.643217 224.87935 
L 398.436607 226.115968 
L 398.229263 225.504383 
L 398.02118 224.71414 
L 397.812353 224.886245 
L 397.602776 225.066831 
L 397.392444 224.200851 
L 397.181351 224.598808 
L 396.969491 224.57947 
L 396.75686 224.487016 
L 396.543452 223.71191 
L 396.32926 224.385442 
L 396.114279 224.28001 
L 395.898504 223.647793 
L 395.681928 223.14207 
L 395.464545 223.535243 
L 395.24635 224.293204 
L 395.027336 223.984348 
L 394.807497 223.942232 
L 394.586827 223.315359 
L 394.365319 222.734739 
L 394.142968 223.768806 
L 393.919766 221.942265 
L 393.695708 222.421381 
L 393.470786 222.8241 
L 393.244994 220.190929 
L 393.018325 222.000785 
L 392.790772 220.487404 
L 392.562329 221.499338 
L 392.332988 221.595132 
L 392.102743 220.414213 
L 391.871585 221.136954 
L 391.639509 220.8677 
L 391.406506 221.063244 
L 391.172569 220.719725 
L 390.937691 220.969037 
L 390.701863 219.352557 
L 390.465079 219.898323 
L 390.227331 219.327246 
L 389.98861 220.720657 
L 389.748909 221.281289 
L 389.508219 221.274543 
L 389.266533 220.054339 
L 389.023841 220.736401 
L 388.780137 220.771206 
L 388.53541 221.677546 
L 388.289653 220.607333 
L 388.042857 221.001107 
L 387.795013 218.905001 
L 387.546113 221.063615 
L 387.296146 218.834813 
L 387.045104 218.847721 
L 386.792977 220.023932 
L 386.539757 220.069918 
L 386.285434 219.472895 
L 386.029997 219.338885 
L 385.773438 218.367412 
L 385.515745 219.144564 
L 385.256911 217.850948 
L 384.996923 218.47037 
L 384.735772 218.256122 
L 384.473447 218.417889 
L 384.209938 216.673336 
L 383.945234 218.509704 
L 383.679323 218.274644 
L 383.412196 219.616789 
L 383.143841 217.441689 
L 382.874246 216.105295 
L 382.6034 215.398645 
L 382.331292 215.876428 
L 382.057909 214.95404 
L 381.783239 213.949668 
L 381.507271 215.05398 
L 381.229992 214.814971 
L 380.951389 214.849057 
L 380.67145 216.172551 
L 380.390162 217.203199 
L 380.107512 215.875853 
L 379.823486 213.66959 
L 379.538071 214.498868 
L 379.251254 213.097393 
L 378.963021 213.642457 
L 378.673357 212.960578 
L 378.382248 214.173817 
L 378.08968 212.571561 
L 377.795638 212.365213 
L 377.500108 214.045133 
L 377.203073 212.114255 
L 376.904519 213.775104 
L 376.60443 212.930572 
L 376.30279 214.045039 
L 375.999584 213.366554 
L 375.694794 213.514795 
L 375.388404 213.252857 
L 375.080397 211.51121 
L 374.770756 213.579015 
L 374.459463 212.560376 
L 374.146502 213.39266 
L 373.831853 214.310324 
L 373.515499 212.55562 
L 373.197421 213.067209 
L 372.8776 211.96732 
L 372.556017 210.919095 
L 372.232653 210.700413 
L 371.907487 211.213747 
L 371.580499 209.683597 
L 371.251669 211.407091 
L 370.920976 210.951561 
L 370.588398 211.001695 
L 370.253915 211.967539 
L 369.917504 211.091961 
L 369.579143 211.280206 
L 369.238808 212.358938 
L 368.896478 211.146241 
L 368.552128 210.739019 
L 368.205734 211.132976 
L 367.857272 209.923565 
L 367.506718 211.537288 
L 367.154045 210.279471 
L 366.799228 209.440321 
L 366.442241 209.243523 
L 366.083058 209.313225 
L 365.72165 209.132768 
L 365.35799 208.368167 
L 364.992051 208.431462 
L 364.623802 210.073377 
L 364.253216 209.64061 
L 363.880261 209.000773 
L 363.504909 208.795634 
L 363.127126 208.501163 
L 362.746883 209.693534 
L 362.364146 208.972319 
L 361.978883 207.599898 
L 361.591059 206.088534 
L 361.200642 207.203859 
L 360.807596 207.71465 
L 360.411885 206.30791 
L 360.013472 208.005546 
L 359.612322 206.219316 
L 359.208395 208.100053 
L 358.801654 205.716362 
L 358.392058 207.008417 
L 357.979567 207.801935 
L 357.564141 207.800658 
L 357.145736 206.587834 
L 356.724311 204.298681 
L 356.29982 205.103514 
L 355.87222 206.01798 
L 355.441464 206.492295 
L 355.007506 204.651577 
L 354.570296 204.15901 
L 354.129787 203.165179 
L 353.685928 203.86504 
L 353.238668 204.642877 
L 352.787954 203.47388 
L 352.333733 203.848574 
L 351.875948 201.93906 
L 351.414546 204.388692 
L 350.949466 201.797858 
L 350.480651 202.659633 
L 350.00804 200.848055 
L 349.53157 201.286315 
L 349.051179 203.352992 
L 348.566802 201.682556 
L 348.078371 200.558478 
L 347.585818 199.405553 
L 347.089073 199.635609 
L 346.588064 199.105794 
L 346.082717 199.179056 
L 345.572957 199.831693 
L 345.058706 197.487484 
L 344.539883 197.636387 
L 344.016407 197.225995 
L 343.488194 196.25799 
L 342.955157 195.924178 
L 342.417207 197.304229 
L 341.874252 196.76088 
L 341.3262 195.613166 
L 340.772952 195.595436 
L 340.21441 197.01159 
L 339.650472 197.607261 
L 339.081032 195.964222 
L 338.505981 195.311248 
L 337.925208 193.495738 
L 337.338599 194.508599 
L 336.746033 193.984617 
L 336.147391 192.415299 
L 335.542544 192.056551 
L 334.931364 192.690633 
L 334.313716 191.719075 
L 333.689462 192.653346 
L 333.05846 190.262478 
L 332.420561 189.622082 
L 331.775613 189.624685 
L 331.123459 188.714142 
L 330.463936 188.023721 
L 329.796875 188.231348 
L 329.122103 186.680444 
L 328.439438 187.209603 
L 327.748694 187.064545 
L 327.049678 187.418614 
L 326.342189 185.048416 
L 325.626018 184.634672 
L 324.900951 184.335278 
L 324.166763 183.712212 
L 323.423222 182.327786 
L 322.670087 182.259981 
L 321.907106 182.700498 
L 321.13402 181.206087 
L 320.350556 181.864285 
L 319.556433 181.867102 
L 318.751355 180.708044 
L 317.935018 179.348609 
L 317.107101 181.318558 
L 316.267271 179.50382 
L 315.41518 179.938072 
L 314.550466 178.572472 
L 313.672748 178.179151 
L 312.781628 179.653873 
L 311.876693 177.410055 
L 310.957506 175.036699 
L 310.023611 176.28461 
L 309.074531 175.21874 
L 308.109762 173.327202 
L 307.128778 173.068328 
L 306.131024 172.754484 
L 305.115918 171.56397 
L 304.082843 170.464587 
L 303.031154 169.433585 
L 301.960167 170.778482 
L 300.86916 167.355902 
L 299.757371 166.322939 
L 298.623992 167.678044 
L 297.468169 166.269828 
L 296.288994 163.925709 
L 295.085504 163.270163 
L 293.856676 163.874425 
L 292.60142 162.153425 
L 291.318573 161.600881 
L 290.006896 161.491535 
L 288.665063 160.060406 
L 287.291655 159.065315 
L 285.885149 156.310016 
L 284.443911 157.090707 
L 282.966182 158.072677 
L 281.450066 155.331958 
L 279.893516 155.276056 
L 278.294316 153.133228 
L 276.650061 150.840182 
L 274.958141 152.065211 
L 273.215708 149.200831 
L 271.419653 149.596226 
L 269.566571 148.433663 
L 267.652722 146.007154 
L 265.673985 145.596118 
L 263.625804 143.765376 
L 261.503127 141.883918 
L 259.300331 141.159636 
L 257.011129 139.779469 
L 254.628465 136.766207 
L 252.14438 135.035265 
L 249.549857 133.02526 
L 246.834615 132.426276 
L 243.986871 130.639602 
L 240.993027 129.383119 
L 237.837276 128.423861 
L 234.501101 124.467524 
L 230.962613 122.541624 
L 227.195683 119.58119 
L 223.168764 117.112674 
L 218.843291 115.907919 
L 214.171425 112.751594 
L 209.092817 110.592917 
L 203.529831 107.139525 
L 197.380236 101.47872 
L 190.505574 98.077658 
L 182.711724 93.289083 
L 173.714385 89.98313 
L 163.072792 85.23903 
L 150.048534 80.688321 
L 133.257345 73.940647 
L 109.591494 66.181253 
L 69.134455 56.059792 
L -134460.637798 39.341098 
z
" clip-path="url(#pf7c739dfd4)" style="fill: #1f77b4; fill-opacity: 0.2"/>
   </g>
   <g id="matplotlib.axis_1">
    <g id="xtick_1">
     <g id="line2d_1">
      <defs>
       <path id="m8fec1ad242" d="M 0 0 
L 0 3.5 
" style="stroke: #000000; stroke-width: 0.8"/>
      </defs>
      <g>
       <use xlink:href="#m8fec1ad242" x="69.134455" y="296.636" style="stroke: #000000; stroke-width: 0.8"/>
      </g>
     </g>
     <g id="text_1">
      <!-- $\mathdefault{10^{1}}$ -->
      <g transform="translate(60.334455 311.234437) scale(0.1 -0.1)">
       <defs>
        <path id="DejaVuSans-31" d="M 794 531 
L 1825 531 
L 1825 4091 
L 703 3866 
L 703 4441 
L 1819 4666 
L 2450 4666 
L 2450 531 
L 3481 531 
L 3481 0 
L 794 0 
L 794 531 
z
" transform="scale(0.015625)"/>
        <path id="DejaVuSans-30" d="M 2034 4250 
Q 1547 4250 1301 3770 
Q 1056 3291 1056 2328 
Q 1056 1369 1301 889 
Q 1547 409 2034 409 
Q 2525 409 2770 889 
Q 3016 1369 3016 2328 
Q 3016 3291 2770 3770 
Q 2525 4250 2034 4250 
z
M 2034 4750 
Q 2819 4750 3233 4129 
Q 3647 3509 3647 2328 
Q 3647 1150 3233 529 
Q 2819 -91 2034 -91 
Q 1250 -91 836 529 
Q 422 1150 422 2328 
Q 422 3509 836 4129 
Q 1250 4750 2034 4750 
z
" transform="scale(0.015625)"/>
       </defs>
       <use xlink:href="#DejaVuSans-31" transform="translate(0 0.684375)"/>
       <use xlink:href="#DejaVuSans-30" transform="translate(63.623047 0.684375)"/>
       <use xlink:href="#DejaVuSans-31" transform="translate(128.203125 38.965625) scale(0.7)"/>
      </g>
     </g>
    </g>
    <g id="xtick_2">
     <g id="line2d_2">
      <g>
       <use xlink:href="#m8fec1ad242" x="203.529831" y="296.636" style="stroke: #000000; stroke-width: 0.8"/>
      </g>
     </g>
     <g id="text_2">
      <!-- $\mathdefault{10^{2}}$ -->
      <g transform="translate(194.729831 311.234437) scale(0.1 -0.1)">
       <defs>
        <path id="DejaVuSans-32" d="M 1228 531 
L 3431 531 
L 3431 0 
L 469 0 
L 469 531 
Q 828 903 1448 1529 
Q 2069 2156 2228 2338 
Q 2531 2678 2651 2914 
Q 2772 3150 2772 3378 
Q 2772 3750 2511 3984 
Q 2250 4219 1831 4219 
Q 1534 4219 1204 4116 
Q 875 4013 500 3803 
L 500 4441 
Q 881 4594 1212 4672 
Q 1544 4750 1819 4750 
Q 2544 4750 2975 4387 
Q 3406 4025 3406 3419 
Q 3406 3131 3298 2873 
Q 3191 2616 2906 2266 
Q 2828 2175 2409 1742 
Q 1991 1309 1228 531 
z
" transform="scale(0.015625)"/>
       </defs>
       <use xlink:href="#DejaVuSans-31" transform="translate(0 0.765625)"/>
       <use xlink:href="#DejaVuSans-30" transform="translate(63.623047 0.765625)"/>
       <use xlink:href="#DejaVuSans-32" transform="translate(128.203125 39.046875) scale(0.7)"/>
      </g>
     </g>
    </g>
    <g id="xtick_3">
     <g id="line2d_3">
      <g>
       <use xlink:href="#m8fec1ad242" x="337.925208" y="296.636" style="stroke: #000000; stroke-width: 0.8"/>
      </g>
     </g>
     <g id="text_3">
      <!-- $\mathdefault{10^{3}}$ -->
      <g transform="translate(329.125208 311.234437) scale(0.1 -0.1)">
       <defs>
        <path id="DejaVuSans-33" d="M 2597 2516 
Q 3050 2419 3304 2112 
Q 3559 1806 3559 1356 
Q 3559 666 3084 287 
Q 2609 -91 1734 -91 
Q 1441 -91 1130 -33 
Q 819 25 488 141 
L 488 750 
Q 750 597 1062 519 
Q 1375 441 1716 441 
Q 2309 441 2620 675 
Q 2931 909 2931 1356 
Q 2931 1769 2642 2001 
Q 2353 2234 1838 2234 
L 1294 2234 
L 1294 2753 
L 1863 2753 
Q 2328 2753 2575 2939 
Q 2822 3125 2822 3475 
Q 2822 3834 2567 4026 
Q 2313 4219 1838 4219 
Q 1578 4219 1281 4162 
Q 984 4106 628 3988 
L 628 4550 
Q 988 4650 1302 4700 
Q 1616 4750 1894 4750 
Q 2613 4750 3031 4423 
Q 3450 4097 3450 3541 
Q 3450 3153 3228 2886 
Q 3006 2619 2597 2516 
z
" transform="scale(0.015625)"/>
       </defs>
       <use xlink:href="#DejaVuSans-31" transform="translate(0 0.765625)"/>
       <use xlink:href="#DejaVuSans-30" transform="translate(63.623047 0.765625)"/>
       <use xlink:href="#DejaVuSans-33" transform="translate(128.203125 39.046875) scale(0.7)"/>
      </g>
     </g>
    </g>
    <g id="xtick_4">
     <g id="line2d_4">
      <defs>
       <path id="ma2a3f02e2c" d="M 0 0 
L 0 2 
" style="stroke: #000000; stroke-width: 0.6"/>
      </defs>
      <g>
       <use xlink:href="#ma2a3f02e2c" x="56.110197" y="296.636" style="stroke: #000000; stroke-width: 0.6"/>
      </g>
     </g>
    </g>
    <g id="xtick_5">
     <g id="line2d_5">
      <g>
       <use xlink:href="#ma2a3f02e2c" x="62.984859" y="296.636" style="stroke: #000000; stroke-width: 0.6"/>
      </g>
     </g>
    </g>
    <g id="xtick_6">
     <g id="line2d_6">
      <g>
       <use xlink:href="#ma2a3f02e2c" x="109.591494" y="296.636" style="stroke: #000000; stroke-width: 0.6"/>
      </g>
     </g>
    </g>
    <g id="xtick_7">
     <g id="line2d_7">
      <g>
       <use xlink:href="#ma2a3f02e2c" x="133.257345" y="296.636" style="stroke: #000000; stroke-width: 0.6"/>
      </g>
     </g>
    </g>
    <g id="xtick_8">
     <g id="line2d_8">
      <g>
       <use xlink:href="#ma2a3f02e2c" x="150.048534" y="296.636" style="stroke: #000000; stroke-width: 0.6"/>
      </g>
     </g>
    </g>
    <g id="xtick_9">
     <g id="line2d_9">
      <g>
       <use xlink:href="#ma2a3f02e2c" x="163.072792" y="296.636" style="stroke: #000000; stroke-width: 0.6"/>
      </g>
     </g>
    </g>
    <g id="xtick_10">
     <g id="line2d_10">
      <g>
       <use xlink:href="#ma2a3f02e2c" x="173.714385" y="296.636" style="stroke: #000000; stroke-width: 0.6"/>
      </g>
     </g>
    </g>
    <g id="xtick_11">
     <g id="line2d_11">
      <g>
       <use xlink:href="#ma2a3f02e2c" x="182.711724" y="296.636" style="stroke: #000000; stroke-width: 0.6"/>
      </g>
     </g>
    </g>
    <g id="xtick_12">
     <g id="line2d_12">
      <g>
       <use xlink:href="#ma2a3f02e2c" x="190.505574" y="296.636" style="stroke: #000000; stroke-width: 0.6"/>
      </g>
     </g>
    </g>
    <g id="xtick_13">
     <g id="line2d_13">
      <g>
       <use xlink:href="#ma2a3f02e2c" x="197.380236" y="296.636" style="stroke: #000000; stroke-width: 0.6"/>
      </g>
     </g>
    </g>
    <g id="xtick_14">
     <g id="line2d_14">
      <g>
       <use xlink:href="#ma2a3f02e2c" x="243.986871" y="296.636" style="stroke: #000000; stroke-width: 0.6"/>
      </g>
     </g>
    </g>
    <g id="xtick_15">
     <g id="line2d_15">
      <g>
       <use xlink:href="#ma2a3f02e2c" x="267.652722" y="296.636" style="stroke: #000000; stroke-width: 0.6"/>
      </g>
     </g>
    </g>
    <g id="xtick_16">
     <g id="line2d_16">
      <g>
       <use xlink:href="#ma2a3f02e2c" x="284.443911" y="296.636" style="stroke: #000000; stroke-width: 0.6"/>
      </g>
     </g>
    </g>
    <g id="xtick_17">
     <g id="line2d_17">
      <g>
       <use xlink:href="#ma2a3f02e2c" x="297.468169" y="296.636" style="stroke: #000000; stroke-width: 0.6"/>
      </g>
     </g>
    </g>
    <g id="xtick_18">
     <g id="line2d_18">
      <g>
       <use xlink:href="#ma2a3f02e2c" x="308.109762" y="296.636" style="stroke: #000000; stroke-width: 0.6"/>
      </g>
     </g>
    </g>
    <g id="xtick_19">
     <g id="line2d_19">
      <g>
       <use xlink:href="#ma2a3f02e2c" x="317.107101" y="296.636" style="stroke: #000000; stroke-width: 0.6"/>
      </g>
     </g>
    </g>
    <g id="xtick_20">
     <g id="line2d_20">
      <g>
       <use xlink:href="#ma2a3f02e2c" x="324.900951" y="296.636" style="stroke: #000000; stroke-width: 0.6"/>
      </g>
     </g>
    </g>
    <g id="xtick_21">
     <g id="line2d_21">
      <g>
       <use xlink:href="#ma2a3f02e2c" x="331.775613" y="296.636" style="stroke: #000000; stroke-width: 0.6"/>
      </g>
     </g>
    </g>
    <g id="xtick_22">
     <g id="line2d_22">
      <g>
       <use xlink:href="#ma2a3f02e2c" x="378.382248" y="296.636" style="stroke: #000000; stroke-width: 0.6"/>
      </g>
     </g>
    </g>
    <g id="xtick_23">
     <g id="line2d_23">
      <g>
       <use xlink:href="#ma2a3f02e2c" x="402.048099" y="296.636" style="stroke: #000000; stroke-width: 0.6"/>
      </g>
     </g>
    </g>
    <g id="xtick_24">
     <g id="line2d_24">
      <g>
       <use xlink:href="#ma2a3f02e2c" x="418.839288" y="296.636" style="stroke: #000000; stroke-width: 0.6"/>
      </g>
     </g>
    </g>
    <g id="xtick_25">
     <g id="line2d_25">
      <g>
       <use xlink:href="#ma2a3f02e2c" x="431.863545" y="296.636" style="stroke: #000000; stroke-width: 0.6"/>
      </g>
     </g>
    </g>
    <g id="xtick_26">
     <g id="line2d_26">
      <g>
       <use xlink:href="#ma2a3f02e2c" x="442.505139" y="296.636" style="stroke: #000000; stroke-width: 0.6"/>
      </g>
     </g>
    </g>
    <g id="text_4">
     <!-- time (units of $\omega_\mathrm{r}^{-1}$) -->
     <g transform="translate(203.699 323.814125) scale(0.1 -0.1)">
      <defs>
       <path id="DejaVuSans-74" d="M 1172 4494 
L 1172 3500 
L 2356 3500 
L 2356 3053 
L 1172 3053 
L 1172 1153 
Q 1172 725 1289 603 
Q 1406 481 1766 481 
L 2356 481 
L 2356 0 
L 1766 0 
Q 1100 0 847 248 
Q 594 497 594 1153 
L 594 3053 
L 172 3053 
L 172 3500 
L 594 3500 
L 594 4494 
L 1172 4494 
z
" transform="scale(0.015625)"/>
       <path id="DejaVuSans-69" d="M 603 3500 
L 1178 3500 
L 1178 0 
L 603 0 
L 603 3500 
z
M 603 4863 
L 1178 4863 
L 1178 4134 
L 603 4134 
L 603 4863 
z
" transform="scale(0.015625)"/>
       <path id="DejaVuSans-6d" d="M 3328 2828 
Q 3544 3216 3844 3400 
Q 4144 3584 4550 3584 
Q 5097 3584 5394 3201 
Q 5691 2819 5691 2113 
L 5691 0 
L 5113 0 
L 5113 2094 
Q 5113 2597 4934 2840 
Q 4756 3084 4391 3084 
Q 3944 3084 3684 2787 
Q 3425 2491 3425 1978 
L 3425 0 
L 2847 0 
L 2847 2094 
Q 2847 2600 2669 2842 
Q 2491 3084 2119 3084 
Q 1678 3084 1418 2786 
Q 1159 2488 1159 1978 
L 1159 0 
L 581 0 
L 581 3500 
L 1159 3500 
L 1159 2956 
Q 1356 3278 1631 3431 
Q 1906 3584 2284 3584 
Q 2666 3584 2933 3390 
Q 3200 3197 3328 2828 
z
" transform="scale(0.015625)"/>
       <path id="DejaVuSans-65" d="M 3597 1894 
L 3597 1613 
L 953 1613 
Q 991 1019 1311 708 
Q 1631 397 2203 397 
Q 2534 397 2845 478 
Q 3156 559 3463 722 
L 3463 178 
Q 3153 47 2828 -22 
Q 2503 -91 2169 -91 
Q 1331 -91 842 396 
Q 353 884 353 1716 
Q 353 2575 817 3079 
Q 1281 3584 2069 3584 
Q 2775 3584 3186 3129 
Q 3597 2675 3597 1894 
z
M 3022 2063 
Q 3016 2534 2758 2815 
Q 2500 3097 2075 3097 
Q 1594 3097 1305 2825 
Q 1016 2553 972 2059 
L 3022 2063 
z
" transform="scale(0.015625)"/>
       <path id="DejaVuSans-20" transform="scale(0.015625)"/>
       <path id="DejaVuSans-28" d="M 1984 4856 
Q 1566 4138 1362 3434 
Q 1159 2731 1159 2009 
Q 1159 1288 1364 580 
Q 1569 -128 1984 -844 
L 1484 -844 
Q 1016 -109 783 600 
Q 550 1309 550 2009 
Q 550 2706 781 3412 
Q 1013 4119 1484 4856 
L 1984 4856 
z
" transform="scale(0.015625)"/>
       <path id="DejaVuSans-75" d="M 544 1381 
L 544 3500 
L 1119 3500 
L 1119 1403 
Q 1119 906 1312 657 
Q 1506 409 1894 409 
Q 2359 409 2629 706 
Q 2900 1003 2900 1516 
L 2900 3500 
L 3475 3500 
L 3475 0 
L 2900 0 
L 2900 538 
Q 2691 219 2414 64 
Q 2138 -91 1772 -91 
Q 1169 -91 856 284 
Q 544 659 544 1381 
z
M 1991 3584 
L 1991 3584 
z
" transform="scale(0.015625)"/>
       <path id="DejaVuSans-6e" d="M 3513 2113 
L 3513 0 
L 2938 0 
L 2938 2094 
Q 2938 2591 2744 2837 
Q 2550 3084 2163 3084 
Q 1697 3084 1428 2787 
Q 1159 2491 1159 1978 
L 1159 0 
L 581 0 
L 581 3500 
L 1159 3500 
L 1159 2956 
Q 1366 3272 1645 3428 
Q 1925 3584 2291 3584 
Q 2894 3584 3203 3211 
Q 3513 2838 3513 2113 
z
" transform="scale(0.015625)"/>
       <path id="DejaVuSans-73" d="M 2834 3397 
L 2834 2853 
Q 2591 2978 2328 3040 
Q 2066 3103 1784 3103 
Q 1356 3103 1142 2972 
Q 928 2841 928 2578 
Q 928 2378 1081 2264 
Q 1234 2150 1697 2047 
L 1894 2003 
Q 2506 1872 2764 1633 
Q 3022 1394 3022 966 
Q 3022 478 2636 193 
Q 2250 -91 1575 -91 
Q 1294 -91 989 -36 
Q 684 19 347 128 
L 347 722 
Q 666 556 975 473 
Q 1284 391 1588 391 
Q 1994 391 2212 530 
Q 2431 669 2431 922 
Q 2431 1156 2273 1281 
Q 2116 1406 1581 1522 
L 1381 1569 
Q 847 1681 609 1914 
Q 372 2147 372 2553 
Q 372 3047 722 3315 
Q 1072 3584 1716 3584 
Q 2034 3584 2315 3537 
Q 2597 3491 2834 3397 
z
" transform="scale(0.015625)"/>
       <path id="DejaVuSans-6f" d="M 1959 3097 
Q 1497 3097 1228 2736 
Q 959 2375 959 1747 
Q 959 1119 1226 758 
Q 1494 397 1959 397 
Q 2419 397 2687 759 
Q 2956 1122 2956 1747 
Q 2956 2369 2687 2733 
Q 2419 3097 1959 3097 
z
M 1959 3584 
Q 2709 3584 3137 3096 
Q 3566 2609 3566 1747 
Q 3566 888 3137 398 
Q 2709 -91 1959 -91 
Q 1206 -91 779 398 
Q 353 888 353 1747 
Q 353 2609 779 3096 
Q 1206 3584 1959 3584 
z
" transform="scale(0.015625)"/>
       <path id="DejaVuSans-66" d="M 2375 4863 
L 2375 4384 
L 1825 4384 
Q 1516 4384 1395 4259 
Q 1275 4134 1275 3809 
L 1275 3500 
L 2222 3500 
L 2222 3053 
L 1275 3053 
L 1275 0 
L 697 0 
L 697 3053 
L 147 3053 
L 147 3500 
L 697 3500 
L 697 3744 
Q 697 4328 969 4595 
Q 1241 4863 1831 4863 
L 2375 4863 
z
" transform="scale(0.015625)"/>
       <path id="DejaVuSans-Oblique-3c9" d="M 1369 -91 
Q 72 -91 434 1766 
Q 575 2500 1256 3500 
L 1875 3500 
Q 1231 2500 1088 1750 
Q 819 397 1519 397 
Q 2166 397 2478 2078 
L 3009 2078 
Q 2669 388 3316 397 
Q 4013 403 4275 1750 
Q 4419 2500 4169 3500 
L 4788 3500 
Q 5075 2500 4934 1766 
Q 4578 -94 3278 -91 
Q 2428 -88 2503 844 
Q 2194 -91 1369 -91 
z
" transform="scale(0.015625)"/>
       <path id="DejaVuSans-2212" d="M 678 2272 
L 4684 2272 
L 4684 1741 
L 678 1741 
L 678 2272 
z
" transform="scale(0.015625)"/>
       <path id="DejaVuSans-72" d="M 2631 2963 
Q 2534 3019 2420 3045 
Q 2306 3072 2169 3072 
Q 1681 3072 1420 2755 
Q 1159 2438 1159 1844 
L 1159 0 
L 581 0 
L 581 3500 
L 1159 3500 
L 1159 2956 
Q 1341 3275 1631 3429 
Q 1922 3584 2338 3584 
Q 2397 3584 2469 3576 
Q 2541 3569 2628 3553 
L 2631 2963 
z
" transform="scale(0.015625)"/>
       <path id="DejaVuSans-29" d="M 513 4856 
L 1013 4856 
Q 1481 4119 1714 3412 
Q 1947 2706 1947 2009 
Q 1947 1309 1714 600 
Q 1481 -109 1013 -844 
L 513 -844 
Q 928 -128 1133 580 
Q 1338 1288 1338 2009 
Q 1338 2731 1133 3434 
Q 928 4138 513 4856 
z
" transform="scale(0.015625)"/>
      </defs>
      <use xlink:href="#DejaVuSans-74" transform="translate(0 0.684375)"/>
      <use xlink:href="#DejaVuSans-69" transform="translate(39.208984 0.684375)"/>
      <use xlink:href="#DejaVuSans-6d" transform="translate(66.992188 0.684375)"/>
      <use xlink:href="#DejaVuSans-65" transform="translate(164.404297 0.684375)"/>
      <use xlink:href="#DejaVuSans-20" transform="translate(225.927734 0.684375)"/>
      <use xlink:href="#DejaVuSans-28" transform="translate(257.714844 0.684375)"/>
      <use xlink:href="#DejaVuSans-75" transform="translate(296.728516 0.684375)"/>
      <use xlink:href="#DejaVuSans-6e" transform="translate(360.107422 0.684375)"/>
      <use xlink:href="#DejaVuSans-69" transform="translate(423.486328 0.684375)"/>
      <use xlink:href="#DejaVuSans-74" transform="translate(451.269531 0.684375)"/>
      <use xlink:href="#DejaVuSans-73" transform="translate(490.478516 0.684375)"/>
      <use xlink:href="#DejaVuSans-20" transform="translate(542.578125 0.684375)"/>
      <use xlink:href="#DejaVuSans-6f" transform="translate(574.365234 0.684375)"/>
      <use xlink:href="#DejaVuSans-66" transform="translate(635.546875 0.684375)"/>
      <use xlink:href="#DejaVuSans-20" transform="translate(670.751953 0.684375)"/>
      <use xlink:href="#DejaVuSans-Oblique-3c9" transform="translate(702.539062 0.684375)"/>
      <use xlink:href="#DejaVuSans-2212" transform="translate(790.745443 38.965625) scale(0.7)"/>
      <use xlink:href="#DejaVuSans-31" transform="translate(849.397786 38.965625) scale(0.7)"/>
      <use xlink:href="#DejaVuSans-72" transform="translate(786.279297 -26.659375) scale(0.7)"/>
      <use xlink:href="#DejaVuSans-29" transform="translate(896.668294 0.684375)"/>
     </g>
    </g>
   </g>
   <g id="matplotlib.axis_2">
    <g id="ytick_1">
     <g id="line2d_27">
      <defs>
       <path id="m52810b2434" d="M 0 0 
L -3.5 0 
" style="stroke: #000000; stroke-width: 0.8"/>
      </defs>
      <g>
       <use xlink:href="#m52810b2434" x="50.998" y="257.155987" style="stroke: #000000; stroke-width: 0.8"/>
      </g>
     </g>
     <g id="text_5">
      <!-- 100 -->
      <g transform="translate(24.9105 260.955206) scale(0.1 -0.1)">
       <use xlink:href="#DejaVuSans-31"/>
       <use xlink:href="#DejaVuSans-30" x="63.623047"/>
       <use xlink:href="#DejaVuSans-30" x="127.246094"/>
      </g>
     </g>
    </g>
    <g id="ytick_2">
     <g id="line2d_28">
      <g>
       <use xlink:href="#m52810b2434" x="50.998" y="202.743643" style="stroke: #000000; stroke-width: 0.8"/>
      </g>
     </g>
     <g id="text_6">
      <!-- 200 -->
      <g transform="translate(24.9105 206.542862) scale(0.1 -0.1)">
       <use xlink:href="#DejaVuSans-32"/>
       <use xlink:href="#DejaVuSans-30" x="63.623047"/>
       <use xlink:href="#DejaVuSans-30" x="127.246094"/>
      </g>
     </g>
    </g>
    <g id="ytick_3">
     <g id="line2d_29">
      <g>
       <use xlink:href="#m52810b2434" x="50.998" y="148.331299" style="stroke: #000000; stroke-width: 0.8"/>
      </g>
     </g>
     <g id="text_7">
      <!-- 300 -->
      <g transform="translate(24.9105 152.130518) scale(0.1 -0.1)">
       <use xlink:href="#DejaVuSans-33"/>
       <use xlink:href="#DejaVuSans-30" x="63.623047"/>
       <use xlink:href="#DejaVuSans-30" x="127.246094"/>
      </g>
     </g>
    </g>
    <g id="ytick_4">
     <g id="line2d_30">
      <g>
       <use xlink:href="#m52810b2434" x="50.998" y="93.918955" style="stroke: #000000; stroke-width: 0.8"/>
      </g>
     </g>
     <g id="text_8">
      <!-- 400 -->
      <g transform="translate(24.9105 97.718174) scale(0.1 -0.1)">
       <defs>
        <path id="DejaVuSans-34" d="M 2419 4116 
L 825 1625 
L 2419 1625 
L 2419 4116 
z
M 2253 4666 
L 3047 4666 
L 3047 1625 
L 3713 1625 
L 3713 1100 
L 3047 1100 
L 3047 0 
L 2419 0 
L 2419 1100 
L 313 1100 
L 313 1709 
L 2253 4666 
z
" transform="scale(0.015625)"/>
       </defs>
       <use xlink:href="#DejaVuSans-34"/>
       <use xlink:href="#DejaVuSans-30" x="63.623047"/>
       <use xlink:href="#DejaVuSans-30" x="127.246094"/>
      </g>
     </g>
    </g>
    <g id="ytick_5">
     <g id="line2d_31">
      <g>
       <use xlink:href="#m52810b2434" x="50.998" y="39.506611" style="stroke: #000000; stroke-width: 0.8"/>
      </g>
     </g>
     <g id="text_9">
      <!-- 500 -->
      <g transform="translate(24.9105 43.30583) scale(0.1 -0.1)">
       <defs>
        <path id="DejaVuSans-35" d="M 691 4666 
L 3169 4666 
L 3169 4134 
L 1269 4134 
L 1269 2991 
Q 1406 3038 1543 3061 
Q 1681 3084 1819 3084 
Q 2600 3084 3056 2656 
Q 3513 2228 3513 1497 
Q 3513 744 3044 326 
Q 2575 -91 1722 -91 
Q 1428 -91 1123 -41 
Q 819 9 494 109 
L 494 744 
Q 775 591 1075 516 
Q 1375 441 1709 441 
Q 2250 441 2565 725 
Q 2881 1009 2881 1497 
Q 2881 1984 2565 2268 
Q 2250 2553 1709 2553 
Q 1456 2553 1204 2497 
Q 953 2441 691 2322 
L 691 4666 
z
" transform="scale(0.015625)"/>
       </defs>
       <use xlink:href="#DejaVuSans-35"/>
       <use xlink:href="#DejaVuSans-30" x="63.623047"/>
       <use xlink:href="#DejaVuSans-30" x="127.246094"/>
      </g>
     </g>
    </g>
    <g id="text_10">
     <!-- $K_B T$ (units of ${\hbar\omega_\mathrm{r}}$ ) -->
     <g transform="translate(21.330813 207.36248) rotate(-90) scale(0.1 -0.1)">
      <defs>
       <path id="DejaVuSans-Oblique-4b" d="M 1081 4666 
L 1716 4666 
L 1331 2700 
L 3781 4666 
L 4622 4666 
L 1850 2438 
L 3878 0 
L 3109 0 
L 1247 2272 
L 806 0 
L 172 0 
L 1081 4666 
z
" transform="scale(0.015625)"/>
       <path id="DejaVuSans-Oblique-42" d="M 1081 4666 
L 2694 4666 
Q 3350 4666 3675 4422 
Q 4000 4178 4000 3688 
Q 4000 3238 3720 2911 
Q 3441 2584 2988 2516 
Q 3375 2428 3569 2181 
Q 3763 1934 3763 1522 
Q 3763 819 3242 409 
Q 2722 0 1819 0 
L 172 0 
L 1081 4666 
z
M 1234 2228 
L 903 519 
L 1919 519 
Q 2491 519 2800 781 
Q 3109 1044 3109 1522 
Q 3109 1891 2904 2059 
Q 2700 2228 2247 2228 
L 1234 2228 
z
M 1606 4147 
L 1331 2741 
L 2272 2741 
Q 2775 2741 3058 2959 
Q 3341 3178 3341 3566 
Q 3341 3869 3150 4008 
Q 2959 4147 2541 4147 
L 1606 4147 
z
" transform="scale(0.015625)"/>
       <path id="DejaVuSans-Oblique-54" d="M 378 4666 
L 4325 4666 
L 4225 4134 
L 2559 4134 
L 1759 0 
L 1125 0 
L 1925 4134 
L 275 4134 
L 378 4666 
z
" transform="scale(0.015625)"/>
       <path id="DejaVuSans-Oblique-127" d="M 3634 2113 
L 3225 0 
L 2650 0 
L 3056 2094 
Q 3094 2291 3094 2450 
Q 3094 2688 3006 2838 
Q 2863 3084 2475 3084 
Q 2009 3084 1681 2788 
Q 1356 2491 1256 1978 
L 872 0 
L 294 0 
L 1066 3969 
L 675 3969 
L 775 4481 
L 1166 4481 
L 1238 4863 
L 1816 4863 
L 1744 4481 
L 2844 4481 
L 2744 3969 
L 1644 3969 
L 1447 2956 
Q 1713 3272 2025 3428 
Q 2331 3584 2700 3584 
Q 3300 3584 3538 3213 
Q 3688 2975 3688 2606 
Q 3688 2381 3634 2113 
z
" transform="scale(0.015625)"/>
      </defs>
      <use xlink:href="#DejaVuSans-Oblique-4b" transform="translate(0 0.015625)"/>
      <use xlink:href="#DejaVuSans-Oblique-42" transform="translate(65.576172 -16.390625) scale(0.7)"/>
      <use xlink:href="#DejaVuSans-Oblique-54" transform="translate(116.333008 0.015625)"/>
      <use xlink:href="#DejaVuSans-20" transform="translate(177.416992 0.015625)"/>
      <use xlink:href="#DejaVuSans-28" transform="translate(209.204102 0.015625)"/>
      <use xlink:href="#DejaVuSans-75" transform="translate(248.217773 0.015625)"/>
      <use xlink:href="#DejaVuSans-6e" transform="translate(311.59668 0.015625)"/>
      <use xlink:href="#DejaVuSans-69" transform="translate(374.975586 0.015625)"/>
      <use xlink:href="#DejaVuSans-74" transform="translate(402.758789 0.015625)"/>
      <use xlink:href="#DejaVuSans-73" transform="translate(441.967773 0.015625)"/>
      <use xlink:href="#DejaVuSans-20" transform="translate(494.067383 0.015625)"/>
      <use xlink:href="#DejaVuSans-6f" transform="translate(525.854492 0.015625)"/>
      <use xlink:href="#DejaVuSans-66" transform="translate(587.036133 0.015625)"/>
      <use xlink:href="#DejaVuSans-20" transform="translate(622.241211 0.015625)"/>
      <use xlink:href="#DejaVuSans-Oblique-127" transform="translate(654.02832 0.015625)"/>
      <use xlink:href="#DejaVuSans-Oblique-3c9" transform="translate(723.510742 0.015625)"/>
      <use xlink:href="#DejaVuSans-72" transform="translate(807.250977 -16.390625) scale(0.7)"/>
      <use xlink:href="#DejaVuSans-20" transform="translate(838.764648 0.015625)"/>
      <use xlink:href="#DejaVuSans-29" transform="translate(870.551758 0.015625)"/>
     </g>
    </g>
   </g>
   <g id="line2d_32">
    <path d="M -1 111.993292 
L 69.134455 112.002579 
L 109.591494 122.108421 
L 133.257345 129.507553 
L 150.048534 135.668028 
L 182.711724 149.59642 
L 209.092817 162.382821 
L 227.195683 172.420131 
L 230.962613 174.216721 
L 234.501101 176.226208 
L 237.837276 178.367352 
L 240.993027 180.051965 
L 243.986871 181.909809 
L 246.834615 183.466535 
L 249.549857 185.224402 
L 254.628465 188.228595 
L 257.011129 189.838299 
L 259.300331 191.159382 
L 261.503127 192.67696 
L 263.625804 193.775717 
L 265.673985 195.17613 
L 269.566571 197.607895 
L 271.419653 198.429226 
L 274.958141 200.836511 
L 276.650061 201.597245 
L 278.294316 202.807936 
L 281.450066 204.611906 
L 282.966182 205.330175 
L 284.443911 206.358 
L 285.885149 207.216497 
L 288.665063 209.119995 
L 290.006896 209.948883 
L 293.856676 211.943884 
L 298.623992 214.715592 
L 299.757371 215.575795 
L 300.86916 216.178068 
L 301.960167 217.100766 
L 303.031154 217.3162 
L 304.082843 218.096771 
L 311.876693 222.163725 
L 312.781628 223.065473 
L 313.672748 223.15884 
L 315.41518 224.331222 
L 316.267271 224.661401 
L 317.935018 225.779971 
L 318.751355 226.12198 
L 319.556433 226.262549 
L 320.350556 226.627896 
L 321.13402 227.354851 
L 322.670087 228.14005 
L 323.423222 228.381371 
L 324.166763 229.074074 
L 324.900951 229.453915 
L 325.626018 229.636958 
L 326.342189 230.133451 
L 327.049678 230.43386 
L 327.748694 230.896707 
L 328.439438 231.070325 
L 330.463936 232.358106 
L 331.123459 232.413757 
L 331.775613 232.860538 
L 332.420561 233.111631 
L 334.313716 234.275319 
L 334.931364 234.39502 
L 335.542544 234.673172 
L 336.147391 235.227137 
L 337.338599 236.038605 
L 337.925208 236.154 
L 338.505981 236.714897 
L 339.650472 237.30587 
L 340.21441 237.381089 
L 341.3262 238.086348 
L 341.874252 238.239737 
L 342.417207 238.75239 
L 342.955157 239.015665 
L 343.488194 239.473896 
L 344.016407 239.472689 
L 344.539883 239.903457 
L 345.058706 240.039315 
L 346.082717 240.854827 
L 346.588064 240.911962 
L 347.089073 241.15323 
L 347.585818 241.024735 
L 348.566802 241.731282 
L 350.00804 242.396572 
L 350.480651 242.530742 
L 351.414546 243.297554 
L 351.875948 243.431036 
L 352.333733 243.747945 
L 352.787954 243.713882 
L 354.129787 244.666801 
L 354.570296 244.393617 
L 355.007506 244.624504 
L 355.441464 245.073005 
L 356.29982 245.161431 
L 356.724311 245.136757 
L 357.145736 245.384769 
L 357.979567 246.261791 
L 358.801654 246.445839 
L 359.208395 246.760793 
L 360.411885 246.883805 
L 360.807596 247.319957 
L 361.200642 247.452944 
L 361.591059 247.338243 
L 361.978883 247.819123 
L 362.746883 248.082025 
L 363.504909 248.367598 
L 364.253216 248.589403 
L 364.623802 248.904931 
L 365.35799 248.914671 
L 366.083058 249.022244 
L 366.442241 249.457337 
L 366.799228 249.351893 
L 367.506718 249.702589 
L 367.857272 249.854785 
L 368.205734 249.680394 
L 368.552128 250.035813 
L 368.896478 250.210256 
L 369.579143 250.792517 
L 369.917504 250.73988 
L 370.253915 250.994297 
L 370.588398 250.973395 
L 371.251669 251.429273 
L 372.556017 251.757559 
L 372.8776 251.623329 
L 373.515499 252.103597 
L 373.831853 252.265786 
L 374.459463 252.380164 
L 376.30279 253.191987 
L 376.60443 253.131059 
L 377.203073 253.380153 
L 378.673357 253.797651 
L 378.963021 254.045392 
L 380.107512 254.106464 
L 380.390162 254.38001 
L 380.67145 254.902654 
L 380.951389 254.740105 
L 381.229992 254.741916 
L 381.507271 255.036192 
L 382.6034 255.430056 
L 383.412196 255.924403 
L 384.209938 255.880937 
L 384.735772 256.151845 
L 384.996923 255.996706 
L 385.515745 256.490767 
L 385.773438 256.330193 
L 386.285434 256.759203 
L 386.539757 256.936646 
L 387.296146 256.868004 
L 387.546113 257.007863 
L 387.795013 256.992368 
L 388.289653 257.293101 
L 388.53541 257.17188 
L 388.780137 257.366219 
L 389.023841 257.384154 
L 389.508219 257.788503 
L 389.98861 257.774218 
L 390.227331 257.874132 
L 390.701863 257.86863 
L 390.937691 258.166311 
L 391.172569 258.022696 
L 391.639509 258.259665 
L 392.102743 258.200211 
L 392.332988 258.433107 
L 392.562329 258.404839 
L 393.244994 258.948045 
L 393.470786 258.639478 
L 394.142968 259.259158 
L 394.365319 259.190549 
L 394.586827 259.332088 
L 394.807497 259.269436 
L 395.027336 259.36834 
L 395.24635 259.227661 
L 395.464545 259.313041 
L 396.114279 259.915254 
L 396.32926 259.919138 
L 396.543452 260.266165 
L 396.75686 260.000422 
L 396.969491 260.043485 
L 397.181351 260.209514 
L 397.392444 260.168214 
L 397.602776 260.391549 
L 397.812353 260.188834 
L 398.02118 260.33304 
L 398.229263 260.316339 
L 398.436607 260.565605 
L 398.643217 260.306074 
L 399.054255 260.580655 
L 399.258693 260.771943 
L 399.462418 260.595075 
L 399.665435 260.719755 
L 399.867748 260.597682 
L 400.270281 260.853335 
L 400.470512 260.696918 
L 400.670058 260.729271 
L 400.868924 260.902113 
L 401.067115 260.678078 
L 401.264635 260.90727 
L 401.461489 260.871375 
L 401.657682 261.234701 
L 402.048099 261.046812 
L 402.242333 261.21491 
L 402.435922 261.231663 
L 402.628872 261.107821 
L 403.773363 261.636862 
L 403.961948 261.690203 
L 404.149926 261.562365 
L 404.337301 261.763257 
L 405.997143 262.191503 
L 406.17869 262.454898 
L 406.359673 262.500677 
L 406.540097 262.269162 
L 406.899281 262.57274 
L 407.433946 262.620295 
L 407.611085 262.640833 
L 407.963757 262.428223 
L 408.139298 262.768355 
L 408.488803 262.534713 
L 408.836228 262.89524 
L 409.009168 262.717985 
L 409.181597 263.027438 
L 409.695848 262.79906 
L 409.866263 262.824327 
L 410.036182 263.239884 
L 410.205608 263.06131 
L 410.374544 263.047731 
L 410.542992 263.22283 
L 411.045438 263.170369 
L 411.378016 263.541196 
L 411.708709 263.652498 
L 411.873355 263.609762 
L 412.037539 263.824841 
L 412.364526 263.782981 
L 412.527336 264.00257 
L 412.689693 263.940648 
L 412.851599 263.658744 
L 413.013057 263.858657 
L 413.17407 263.723073 
L 413.33464 263.977751 
L 413.49477 263.734929 
L 413.654461 263.887557 
L 413.813717 264.224094 
L 413.972539 264.100284 
L 414.13093 264.161762 
L 414.288893 264.086013 
L 414.446429 264.270817 
L 414.603542 264.221818 
L 414.760232 264.048264 
L 415.072357 264.418013 
L 415.227795 264.262107 
L 415.382821 264.502428 
L 415.537436 264.252499 
L 415.691643 264.278778 
L 415.845443 264.711084 
L 415.998839 264.48829 
L 416.151833 264.493508 
L 416.910845 265.078969 
L 417.06147 264.912111 
L 417.211707 265.119304 
L 417.511027 265.174203 
L 417.808819 265.298619 
L 418.1051 265.093326 
L 418.252678 265.438793 
L 418.399884 265.150069 
L 418.693187 265.239393 
L 418.839288 265.494945 
L 418.985024 265.11681 
L 419.275408 265.469176 
L 419.564355 265.537365 
L 419.851879 265.615717 
L 419.995111 265.703588 
L 420.137993 265.472787 
L 420.280526 265.588844 
L 420.422711 265.429064 
L 420.564551 265.668673 
L 420.706048 265.654217 
L 420.847202 265.478736 
L 421.12849 265.75394 
L 421.268627 265.558485 
L 421.547896 265.919135 
L 421.825836 265.723787 
L 422.102458 265.861688 
L 422.240279 265.757348 
L 422.514949 265.891789 
L 423.19602 265.878228 
L 423.600881 266.292659 
L 423.735213 266.10579 
L 423.869236 266.32253 
L 424.002952 266.271104 
L 424.136363 265.964198 
L 424.26947 266.239485 
L 424.534775 266.176485 
L 424.666977 266.44157 
L 424.798881 266.394293 
L 424.930487 266.466866 
L 425.061796 266.306003 
L 425.323533 266.504992 
L 425.453962 266.398427 
L 425.584101 266.677315 
L 425.843511 266.522607 
L 426.101773 266.744384 
L 426.230477 266.683625 
L 426.358898 266.819418 
L 426.614895 266.768839 
L 426.742473 266.815772 
L 426.869774 266.708743 
L 426.996797 266.795343 
L 427.123544 266.739256 
L 427.376216 266.887089 
L 427.502143 266.752449 
L 427.627799 266.823905 
L 427.753185 266.548821 
L 428.003152 266.910818 
L 428.127735 266.81778 
L 428.252053 267.208386 
L 428.376107 266.824278 
L 428.623426 266.980119 
L 428.746693 266.861503 
L 428.869701 267.169744 
L 429.114942 267.055728 
L 429.237177 267.188231 
L 429.359156 267.025274 
L 429.480881 267.245266 
L 429.602353 266.873275 
L 429.965259 267.377022 
L 430.325922 267.350335 
L 430.44565 267.286784 
L 430.684371 267.801842 
L 430.922119 267.536661 
L 431.040631 267.393335 
L 431.512288 267.674883 
L 431.746694 267.434103 
L 431.863545 267.449387 
L 431.863545 267.449387 
" clip-path="url(#pf7c739dfd4)" style="fill: none; stroke: #1f77b4; stroke-width: 1.5; stroke-linecap: square"/>
   </g>
   <g id="patch_3">
    <path d="M 50.998 296.636 
L 50.998 27.08896 
" style="fill: none; stroke: #000000; stroke-width: 0.8; stroke-linejoin: miter; stroke-linecap: square"/>
   </g>
   <g id="patch_4">
    <path d="M 450 296.636 
L 450 27.08896 
" style="fill: none; stroke: #000000; stroke-width: 0.8; stroke-linejoin: miter; stroke-linecap: square"/>
   </g>
   <g id="patch_5">
    <path d="M 50.998 296.636 
L 450 296.636 
" style="fill: none; stroke: #000000; stroke-width: 0.8; stroke-linejoin: miter; stroke-linecap: square"/>
   </g>
   <g id="patch_6">
    <path d="M 50.998 27.08896 
L 450 27.08896 
" style="fill: none; stroke: #000000; stroke-width: 0.8; stroke-linejoin: miter; stroke-linecap: square"/>
   </g>
   <g id="legend_1">
    <g id="patch_7">
     <path d="M 137.7984 28.203322 
L 220.9984 28.203322 
Q 222.9984 28.203322 222.9984 26.203322 
L 222.9984 12.525197 
Q 222.9984 10.525197 220.9984 10.525197 
L 137.7984 10.525197 
Q 135.7984 10.525197 135.7984 12.525197 
L 135.7984 26.203322 
Q 135.7984 28.203322 137.7984 28.203322 
z
" style="fill: #ffffff; stroke: #cccccc; stroke-linejoin: miter"/>
    </g>
    <g id="line2d_33">
     <path d="M 139.7984 18.623634 
L 152.2984 18.623634 
L 164.7984 18.623634 
" style="fill: none; stroke: #1f77b4; stroke-width: 1.5; stroke-linecap: square"/>
    </g>
    <g id="text_11">
     <!-- $N_{at}= 100$ -->
     <g transform="translate(172.7984 22.123634) scale(0.1 -0.1)">
      <defs>
       <path id="DejaVuSans-Oblique-4e" d="M 1081 4666 
L 1931 4666 
L 3219 666 
L 4000 4666 
L 4616 4666 
L 3706 0 
L 2853 0 
L 1569 4025 
L 788 0 
L 172 0 
L 1081 4666 
z
" transform="scale(0.015625)"/>
       <path id="DejaVuSans-Oblique-61" d="M 3438 1997 
L 3047 0 
L 2472 0 
L 2578 531 
Q 2325 219 2001 64 
Q 1678 -91 1281 -91 
Q 834 -91 548 182 
Q 263 456 263 884 
Q 263 1497 752 1853 
Q 1241 2209 2100 2209 
L 2900 2209 
L 2931 2363 
Q 2938 2388 2941 2417 
Q 2944 2447 2944 2509 
Q 2944 2788 2717 2942 
Q 2491 3097 2081 3097 
Q 1800 3097 1504 3025 
Q 1209 2953 897 2809 
L 997 3341 
Q 1322 3463 1633 3523 
Q 1944 3584 2234 3584 
Q 2853 3584 3176 3315 
Q 3500 3047 3500 2534 
Q 3500 2431 3484 2292 
Q 3469 2153 3438 1997 
z
M 2816 1759 
L 2241 1759 
Q 1534 1759 1195 1570 
Q 856 1381 856 984 
Q 856 709 1029 553 
Q 1203 397 1509 397 
Q 1978 397 2328 733 
Q 2678 1069 2791 1631 
L 2816 1759 
z
" transform="scale(0.015625)"/>
       <path id="DejaVuSans-Oblique-74" d="M 2706 3500 
L 2619 3053 
L 1472 3053 
L 1100 1153 
Q 1081 1047 1072 975 
Q 1063 903 1063 863 
Q 1063 663 1183 572 
Q 1303 481 1569 481 
L 2150 481 
L 2053 0 
L 1503 0 
Q 991 0 739 200 
Q 488 400 488 806 
Q 488 878 497 964 
Q 506 1050 525 1153 
L 897 3053 
L 409 3053 
L 500 3500 
L 978 3500 
L 1172 4494 
L 1747 4494 
L 1556 3500 
L 2706 3500 
z
" transform="scale(0.015625)"/>
       <path id="DejaVuSans-3d" d="M 678 2906 
L 4684 2906 
L 4684 2381 
L 678 2381 
L 678 2906 
z
M 678 1631 
L 4684 1631 
L 4684 1100 
L 678 1100 
L 678 1631 
z
" transform="scale(0.015625)"/>
      </defs>
      <use xlink:href="#DejaVuSans-Oblique-4e" transform="translate(0 0.78125)"/>
      <use xlink:href="#DejaVuSans-Oblique-61" transform="translate(74.804688 -15.625) scale(0.7)"/>
      <use xlink:href="#DejaVuSans-Oblique-74" transform="translate(117.700195 -15.625) scale(0.7)"/>
      <use xlink:href="#DejaVuSans-3d" transform="translate(167.363281 0.78125)"/>
      <use xlink:href="#DejaVuSans-31" transform="translate(270.634766 0.78125)"/>
      <use xlink:href="#DejaVuSans-30" transform="translate(334.257812 0.78125)"/>
      <use xlink:href="#DejaVuSans-30" transform="translate(397.880859 0.78125)"/>
     </g>
    </g>
   </g>
  </g>
 </g>
 <defs>
  <clipPath id="pf7c739dfd4">
   <rect x="50.998" y="27.08896" width="399.002" height="269.54704"/>
  </clipPath>
 </defs>
</svg>
