<?xml version="1.0" encoding="utf-8" standalone="no"?>
<!DOCTYPE svg PUBLIC "-//W3C//DTD SVG 1.1//EN"
  "http://www.w3.org/Graphics/SVG/1.1/DTD/svg11.dtd">
<svg xmlns:xlink="http://www.w3.org/1999/xlink" width="460.8pt" height="345.6pt" viewBox="0 0 460.8 345.6" xmlns="http://www.w3.org/2000/svg" version="1.1">
 <metadata>
  <rdf:RDF xmlns:dc="http://purl.org/dc/elements/1.1/" xmlns:cc="http://creativecommons.org/ns#" xmlns:rdf="http://www.w3.org/1999/02/22-rdf-syntax-ns#">
   <cc:Work>
    <dc:type rdf:resource="http://purl.org/dc/dcmitype/StillImage"/>
    <dc:date>2024-02-05T16:57:24.956739</dc:date>
    <dc:format>image/svg+xml</dc:format>
    <dc:creator>
     <cc:Agent>
      <dc:title>Matplotlib v3.8.2, https://matplotlib.org/</dc:title>
     </cc:Agent>
    </dc:creator>
   </cc:Work>
  </rdf:RDF>
 </metadata>
 <defs>
  <style type="text/css">*{stroke-linejoin: round; stroke-linecap: butt}</style>
 </defs>
 <g id="figure_1">
  <g id="patch_1">
   <path d="M 0 345.6 
L 460.8 345.6 
L 460.8 0 
L 0 0 
z
" style="fill: #ffffff"/>
  </g>
  <g id="axes_1">
   <g id="patch_2">
    <path d="M 50.998 296.636 
L 450 296.636 
L 450 27.08896 
L 50.998 27.08896 
z
" style="fill: #ffffff"/>
   </g>
   <g id="PolyCollection_1">
    <path d="M -134460.637798 39.341098 
L -134460.637798 189.079654 
L 69.134455 191.256889 
L 109.591494 191.730435 
L 133.257345 192.775036 
L 150.048534 193.328231 
L 163.072792 194.003479 
L 173.714385 194.278179 
L 182.711724 195.329339 
L 190.505574 195.533591 
L 197.380236 196.872154 
L 203.529831 198.286641 
L 209.092817 198.707997 
L 214.171425 198.806012 
L 218.843291 198.899204 
L 223.168764 198.806312 
L 227.195683 199.519315 
L 230.962613 200.692993 
L 234.501101 201.078206 
L 237.837276 201.669991 
L 240.993027 202.648753 
L 243.986871 202.74194 
L 246.834615 202.576926 
L 249.549857 203.389468 
L 252.14438 204.016407 
L 254.628465 204.130261 
L 257.011129 204.714806 
L 259.300331 204.442863 
L 261.503127 204.558312 
L 263.625804 205.282779 
L 265.673985 205.390458 
L 267.652722 206.154405 
L 269.566571 206.610059 
L 271.419653 208.060231 
L 273.215708 208.327995 
L 274.958141 209.250237 
L 276.650061 208.83667 
L 278.294316 209.514896 
L 279.893516 209.407896 
L 281.450066 210.181595 
L 282.966182 210.681961 
L 284.443911 210.694834 
L 285.885149 210.882046 
L 287.291655 212.597986 
L 288.665063 212.487576 
L 290.006896 213.141177 
L 291.318573 213.19985 
L 292.60142 213.630798 
L 293.856676 213.461102 
L 295.085504 213.855626 
L 296.288994 214.30858 
L 297.468169 214.151704 
L 298.623992 214.775629 
L 299.757371 215.407915 
L 300.86916 215.70672 
L 301.960167 215.667578 
L 303.031154 215.75589 
L 304.082843 216.655455 
L 305.115918 216.604151 
L 306.131024 216.350394 
L 307.128778 217.022311 
L 308.109762 217.719649 
L 309.074531 218.168904 
L 310.023611 218.28756 
L 310.957506 218.726255 
L 311.876693 219.436923 
L 312.781628 218.996969 
L 313.672748 219.357758 
L 314.550466 220.345319 
L 315.41518 220.767766 
L 316.267271 220.721413 
L 317.107101 221.477447 
L 317.935018 222.292267 
L 318.751355 221.774936 
L 319.556433 222.116342 
L 320.350556 221.864429 
L 321.13402 222.667772 
L 321.907106 222.975862 
L 322.670087 222.891755 
L 323.423222 223.570769 
L 324.166763 223.553994 
L 324.900951 223.995297 
L 325.626018 224.269559 
L 326.342189 224.628223 
L 327.049678 224.885801 
L 327.748694 224.717596 
L 328.439438 223.967204 
L 329.122103 224.904417 
L 329.796875 224.698104 
L 330.463936 224.930189 
L 331.123459 224.524957 
L 331.775613 225.662725 
L 332.420561 226.22556 
L 333.05846 226.564612 
L 333.689462 226.61401 
L 334.313716 227.17945 
L 334.931364 228.075329 
L 335.542544 228.196304 
L 336.147391 227.833764 
L 336.746033 228.509087 
L 337.338599 228.653975 
L 337.925208 228.922083 
L 338.505981 229.633002 
L 339.081032 230.05132 
L 339.650472 229.861805 
L 340.21441 230.072481 
L 340.772952 229.722689 
L 341.3262 230.045169 
L 341.874252 230.530754 
L 342.417207 230.24299 
L 342.955157 230.45649 
L 343.488194 230.654663 
L 344.016407 230.50202 
L 344.539883 231.606746 
L 345.058706 231.621466 
L 345.572957 231.961379 
L 346.082717 231.886932 
L 346.588064 231.810853 
L 347.089073 232.128876 
L 347.585818 232.486199 
L 348.078371 232.808135 
L 348.566802 232.888367 
L 349.051179 233.482884 
L 349.53157 233.784956 
L 350.00804 234.349361 
L 350.480651 234.847715 
L 350.949466 234.073178 
L 351.414546 233.219972 
L 351.875948 234.274245 
L 352.333733 234.016962 
L 352.787954 234.13861 
L 353.238668 233.859029 
L 353.685928 233.866028 
L 354.129787 234.210756 
L 354.570296 234.218199 
L 355.007506 234.67963 
L 355.441464 235.026234 
L 355.87222 235.389999 
L 356.29982 235.432244 
L 356.724311 235.415667 
L 357.145736 236.567907 
L 357.564141 237.165164 
L 357.979567 237.066847 
L 358.392058 237.871947 
L 358.801654 238.386304 
L 359.208395 239.006849 
L 359.612322 239.141091 
L 360.013472 238.959518 
L 360.411885 239.544067 
L 360.807596 239.106182 
L 361.200642 239.488682 
L 361.591059 239.549947 
L 361.978883 239.574547 
L 362.364146 240.392632 
L 362.746883 240.867981 
L 363.127126 240.82933 
L 363.504909 241.001325 
L 363.880261 241.446352 
L 364.253216 241.772389 
L 364.623802 241.464644 
L 364.992051 241.811788 
L 365.35799 241.746382 
L 365.72165 241.832139 
L 366.083058 242.603843 
L 366.442241 242.428692 
L 366.799228 241.646598 
L 367.154045 241.974777 
L 367.506718 242.239868 
L 367.857272 242.730143 
L 368.205734 243.222988 
L 368.552128 243.266482 
L 368.896478 243.257924 
L 369.238808 243.086603 
L 369.579143 243.288202 
L 369.917504 243.251256 
L 370.253915 243.485512 
L 370.588398 243.782598 
L 370.920976 244.413292 
L 371.251669 244.161951 
L 371.580499 244.155316 
L 371.907487 243.985917 
L 372.232653 244.848853 
L 372.556017 245.067413 
L 372.8776 245.092651 
L 373.197421 245.152621 
L 373.515499 244.882394 
L 373.831853 244.929279 
L 374.146502 245.344307 
L 374.459463 246.240028 
L 374.770756 246.415136 
L 375.080397 245.746835 
L 375.388404 245.856111 
L 375.694794 245.988797 
L 375.999584 246.012355 
L 376.30279 246.427821 
L 376.60443 246.496243 
L 376.904519 246.680509 
L 377.203073 247.735534 
L 377.500108 247.7889 
L 377.795638 248.356597 
L 378.08968 248.22348 
L 378.382248 248.699629 
L 378.673357 248.628205 
L 378.963021 248.954822 
L 379.251254 249.047816 
L 379.538071 249.693629 
L 379.823486 249.749578 
L 380.107512 249.879858 
L 380.390162 249.906061 
L 380.67145 250.088077 
L 380.951389 249.920202 
L 381.229992 250.347971 
L 381.507271 250.981061 
L 381.783239 251.561996 
L 382.057909 250.726186 
L 382.331292 251.023294 
L 382.6034 251.245006 
L 382.874246 251.73341 
L 383.143841 252.163021 
L 383.412196 252.043011 
L 383.679323 252.446597 
L 383.945234 252.076587 
L 384.209938 251.703774 
L 384.473447 252.012563 
L 384.735772 252.593615 
L 384.996923 252.837285 
L 385.256911 252.794707 
L 385.515745 253.068482 
L 385.773438 253.360012 
L 386.029997 253.810691 
L 386.285434 253.957884 
L 386.539757 254.159997 
L 386.792977 255.160996 
L 387.045104 255.403805 
L 387.296146 255.589995 
L 387.546113 255.814249 
L 387.795013 255.867125 
L 388.042857 255.88847 
L 388.289653 256.048252 
L 388.53541 256.696499 
L 388.780137 256.968783 
L 389.023841 257.043576 
L 389.266533 256.968647 
L 389.508219 256.969564 
L 389.748909 256.59001 
L 389.98861 256.490912 
L 390.227331 256.937949 
L 390.465079 256.49926 
L 390.701863 257.286633 
L 390.937691 258.243484 
L 391.172569 258.613474 
L 391.406506 259.259281 
L 391.639509 259.267554 
L 391.871585 258.760988 
L 392.102743 258.896537 
L 392.332988 258.915988 
L 392.562329 259.039032 
L 392.790772 259.729924 
L 393.018325 259.907601 
L 393.244994 260.400631 
L 393.470786 259.399366 
L 393.695708 259.881481 
L 393.919766 259.521222 
L 394.142968 260.037115 
L 394.365319 260.163652 
L 394.586827 260.225185 
L 394.807497 260.560273 
L 395.027336 260.680569 
L 395.24635 260.808739 
L 395.464545 260.766017 
L 395.681928 261.148207 
L 395.898504 260.683465 
L 396.114279 260.686347 
L 396.32926 260.851312 
L 396.543452 261.3264 
L 396.75686 261.568291 
L 396.969491 261.142061 
L 397.181351 261.170169 
L 397.392444 261.718666 
L 397.602776 261.481383 
L 397.812353 261.515365 
L 398.02118 261.933517 
L 398.229263 261.788648 
L 398.436607 263.071244 
L 398.643217 262.780799 
L 398.849097 263.040061 
L 399.054255 262.369573 
L 399.258693 263.022346 
L 399.462418 262.697238 
L 399.665435 263.067213 
L 399.867748 263.270026 
L 400.069361 263.542893 
L 400.270281 263.120608 
L 400.470512 262.874372 
L 400.670058 262.933403 
L 400.868924 262.948704 
L 401.067115 262.653957 
L 401.264635 263.045051 
L 401.461489 263.437099 
L 401.657682 263.812786 
L 401.853217 264.168866 
L 402.048099 264.079394 
L 402.242333 265.250907 
L 402.435922 264.964648 
L 402.628872 264.792071 
L 402.821186 265.280961 
L 403.012868 265.118409 
L 403.203922 265.592025 
L 403.394354 265.404984 
L 403.584166 264.209927 
L 403.773363 264.749948 
L 403.961948 265.086429 
L 404.149926 264.850322 
L 404.337301 265.071802 
L 404.524076 265.312086 
L 404.710256 265.042677 
L 404.895843 265.630847 
L 405.080842 265.192924 
L 405.265257 264.652238 
L 405.44909 264.921638 
L 405.632347 265.011772 
L 405.81503 265.177314 
L 405.997143 265.053693 
L 406.17869 265.509587 
L 406.359673 265.566795 
L 406.540097 266.008662 
L 406.719966 265.610113 
L 406.899281 265.76569 
L 407.078047 265.766994 
L 407.256268 265.74755 
L 407.433946 265.607898 
L 407.611085 265.523951 
L 407.787687 266.219921 
L 407.963757 266.420497 
L 408.139298 267.219283 
L 408.314312 268.04058 
L 408.488803 267.391355 
L 408.662774 267.357843 
L 408.836228 268.794069 
L 409.009168 268.391727 
L 409.181597 269.483244 
L 409.353518 268.899853 
L 409.524934 268.553832 
L 409.695848 268.54576 
L 409.866263 268.324611 
L 410.036182 268.486949 
L 410.205608 268.444071 
L 410.374544 268.554334 
L 410.542992 268.609938 
L 410.710955 269.034251 
L 410.878436 268.924674 
L 411.045438 268.976027 
L 411.211964 269.810551 
L 411.378016 269.719495 
L 411.543596 270.017605 
L 411.708709 270.505887 
L 411.873355 270.747399 
L 412.037539 270.950185 
L 412.201261 271.021823 
L 412.364526 271.46793 
L 412.527336 271.872621 
L 412.689693 272.047524 
L 412.851599 272.074984 
L 413.013057 272.411842 
L 413.17407 271.923718 
L 413.33464 271.937294 
L 413.49477 271.841424 
L 413.654461 272.543057 
L 413.813717 271.86806 
L 413.972539 272.076138 
L 414.13093 272.422559 
L 414.288893 272.34461 
L 414.446429 272.07831 
L 414.603542 271.583253 
L 414.760232 272.130189 
L 414.916503 272.120698 
L 415.072357 272.858737 
L 415.227795 273.186082 
L 415.382821 273.28949 
L 415.537436 272.95859 
L 415.691643 274.870939 
L 415.845443 274.570649 
L 415.998839 275.537703 
L 416.151833 275.418749 
L 416.304427 275.699855 
L 416.456623 275.552827 
L 416.608424 275.225321 
L 416.75983 275.637409 
L 416.910845 275.652043 
L 417.06147 275.464266 
L 417.211707 275.566568 
L 417.361559 275.873454 
L 417.511027 275.358779 
L 417.660113 275.314881 
L 417.808819 275.602961 
L 417.957147 275.264145 
L 418.1051 275.901675 
L 418.252678 276.074556 
L 418.399884 275.32333 
L 418.54672 275.652595 
L 418.693187 274.943338 
L 418.839288 275.173378 
L 418.985024 274.817039 
L 419.130396 275.807328 
L 419.275408 275.110231 
L 419.42006 275.308418 
L 419.564355 275.117501 
L 419.708294 275.53512 
L 419.851879 275.943699 
L 419.995111 276.705756 
L 420.137993 276.791142 
L 420.280526 276.237385 
L 420.422711 276.433573 
L 420.564551 276.632627 
L 420.706048 276.666934 
L 420.847202 276.770426 
L 420.988015 278.203509 
L 421.12849 278.119762 
L 421.268627 278.361752 
L 421.408429 277.819032 
L 421.547896 277.917073 
L 421.687032 278.08632 
L 421.825836 277.851692 
L 421.964311 277.711522 
L 422.102458 277.72019 
L 422.240279 278.054166 
L 422.377775 278.552921 
L 422.514949 278.409462 
L 422.6518 278.441431 
L 422.788332 278.519039 
L 422.924544 278.494158 
L 423.06044 278.332847 
L 423.19602 278.70205 
L 423.331286 278.810527 
L 423.466239 278.323002 
L 423.600881 278.397869 
L 423.735213 278.141334 
L 423.869236 278.883495 
L 424.002952 279.13642 
L 424.136363 278.303994 
L 424.26947 279.571317 
L 424.402273 279.284561 
L 424.534775 280.095141 
L 424.666977 280.258639 
L 424.798881 280.237688 
L 424.930487 279.883922 
L 425.061796 279.682889 
L 425.192811 280.432064 
L 425.323533 279.222987 
L 425.453962 279.407613 
L 425.584101 279.430547 
L 425.71395 280.830497 
L 425.843511 279.96993 
L 425.972785 279.78658 
L 426.101773 279.776913 
L 426.230477 280.397098 
L 426.358898 279.935728 
L 426.487037 280.766228 
L 426.614895 281.5918 
L 426.742473 280.764885 
L 426.869774 280.814586 
L 426.996797 281.254184 
L 427.123544 281.474941 
L 427.250017 281.69909 
L 427.376216 281.360813 
L 427.502143 281.526738 
L 427.627799 282.292625 
L 427.753185 282.125931 
L 427.878303 281.941841 
L 428.003152 282.395881 
L 428.127735 282.216365 
L 428.252053 281.90981 
L 428.376107 282.414087 
L 428.499897 281.91903 
L 428.623426 281.7826 
L 428.746693 281.794025 
L 428.869701 282.146907 
L 428.99245 282.424863 
L 429.114942 282.144819 
L 429.237177 281.215666 
L 429.359156 281.608683 
L 429.480881 282.048877 
L 429.602353 282.344259 
L 429.723572 283.218649 
L 429.844541 283.431886 
L 429.965259 283.527513 
L 430.085728 283.734191 
L 430.205948 283.125156 
L 430.325922 282.67899 
L 430.44565 282.54942 
L 430.565132 283.624506 
L 430.684371 283.746194 
L 430.803366 283.081218 
L 430.922119 283.769944 
L 431.040631 284.076861 
L 431.158903 284.383862 
L 431.276936 283.789886 
L 431.39473 283.532575 
L 431.512288 283.46094 
L 431.629609 283.695518 
L 431.746694 283.969451 
L 431.863545 283.848455 
L 431.863545 126.141983 
L 431.863545 126.141983 
L 431.746694 126.763712 
L 431.629609 126.523689 
L 431.512288 126.589838 
L 431.39473 127.043157 
L 431.276936 126.577693 
L 431.158903 125.780887 
L 431.040631 126.442247 
L 430.922119 125.500986 
L 430.803366 125.221478 
L 430.684371 125.351046 
L 430.565132 124.839132 
L 430.44565 125.381458 
L 430.325922 125.139317 
L 430.205948 125.387579 
L 430.085728 125.32534 
L 429.965259 125.045779 
L 429.844541 124.967928 
L 429.723572 125.204447 
L 429.602353 125.676887 
L 429.480881 125.383327 
L 429.359156 125.368319 
L 429.237177 124.822807 
L 429.114942 125.055617 
L 428.99245 125.413384 
L 428.869701 125.902034 
L 428.746693 125.285772 
L 428.623426 124.691944 
L 428.499897 124.832527 
L 428.376107 124.990213 
L 428.252053 125.358547 
L 428.127735 125.754386 
L 428.003152 125.353629 
L 427.878303 124.929934 
L 427.753185 124.30402 
L 427.627799 123.76139 
L 427.502143 124.619869 
L 427.376216 124.180066 
L 427.250017 124.504245 
L 427.123544 124.049725 
L 426.996797 124.700305 
L 426.869774 123.599823 
L 426.742473 123.877143 
L 426.614895 124.060533 
L 426.487037 123.950466 
L 426.358898 122.881318 
L 426.230477 122.369697 
L 426.101773 121.513719 
L 425.972785 121.302996 
L 425.843511 120.99335 
L 425.71395 121.04416 
L 425.584101 121.350217 
L 425.453962 120.790984 
L 425.323533 120.367802 
L 425.192811 119.888961 
L 425.061796 118.676643 
L 424.930487 120.227731 
L 424.798881 119.703572 
L 424.666977 119.155458 
L 424.534775 120.139979 
L 424.402273 120.613962 
L 424.26947 121.657941 
L 424.136363 121.488692 
L 424.002952 121.506054 
L 423.869236 121.419812 
L 423.735213 120.91449 
L 423.600881 121.220137 
L 423.466239 120.846467 
L 423.331286 120.558843 
L 423.19602 120.134716 
L 423.06044 120.097115 
L 422.924544 120.597451 
L 422.788332 120.280702 
L 422.6518 120.61085 
L 422.514949 120.927909 
L 422.377775 120.541267 
L 422.240279 120.300242 
L 422.102458 119.644208 
L 421.964311 119.094784 
L 421.825836 117.591508 
L 421.687032 116.633808 
L 421.547896 117.24899 
L 421.408429 117.905516 
L 421.268627 117.601115 
L 421.12849 117.091012 
L 420.988015 117.434055 
L 420.847202 117.319687 
L 420.706048 117.308616 
L 420.564551 117.614157 
L 420.422711 117.526542 
L 420.280526 117.017783 
L 420.137993 116.81334 
L 419.995111 115.539464 
L 419.851879 115.147839 
L 419.708294 115.152221 
L 419.564355 115.567133 
L 419.42006 116.323329 
L 419.275408 117.051862 
L 419.130396 116.989181 
L 418.985024 117.030036 
L 418.839288 116.068712 
L 418.693187 116.007529 
L 418.54672 116.291217 
L 418.399884 117.00219 
L 418.252678 116.430117 
L 418.1051 116.516338 
L 417.957147 116.596631 
L 417.808819 116.625987 
L 417.660113 115.886777 
L 417.511027 116.328829 
L 417.361559 116.282501 
L 417.211707 117.085875 
L 417.06147 117.551011 
L 416.910845 117.555607 
L 416.75983 117.246491 
L 416.608424 117.162323 
L 416.456623 115.667739 
L 416.304427 115.929686 
L 416.151833 114.707938 
L 415.998839 114.258147 
L 415.845443 114.051348 
L 415.691643 114.029073 
L 415.537436 114.624898 
L 415.382821 115.333754 
L 415.227795 115.43105 
L 415.072357 114.828285 
L 414.916503 114.516713 
L 414.760232 114.700475 
L 414.603542 113.97971 
L 414.446429 114.500734 
L 414.288893 115.870794 
L 414.13093 115.760797 
L 413.972539 115.33712 
L 413.813717 114.672 
L 413.654461 114.549518 
L 413.49477 114.637363 
L 413.33464 114.312392 
L 413.17407 113.979608 
L 413.013057 113.830864 
L 412.851599 113.518116 
L 412.689693 113.171677 
L 412.527336 112.040857 
L 412.364526 112.79019 
L 412.201261 112.104267 
L 412.037539 111.467682 
L 411.873355 111.830793 
L 411.708709 111.385712 
L 411.543596 111.858904 
L 411.378016 112.454778 
L 411.211964 112.360407 
L 411.045438 112.226319 
L 410.878436 112.963145 
L 410.710955 112.06462 
L 410.542992 112.364659 
L 410.374544 112.590737 
L 410.205608 112.276948 
L 410.036182 112.467584 
L 409.866263 112.363354 
L 409.695848 111.814066 
L 409.524934 112.280041 
L 409.353518 112.129898 
L 409.181597 112.280197 
L 409.009168 111.382459 
L 408.836228 111.435232 
L 408.662774 111.913404 
L 408.488803 111.85639 
L 408.314312 112.058159 
L 408.139298 111.477915 
L 407.963757 112.010035 
L 407.787687 111.636728 
L 407.611085 110.761776 
L 407.433946 110.375254 
L 407.256268 108.967552 
L 407.078047 109.438063 
L 406.899281 108.953248 
L 406.719966 109.028347 
L 406.540097 109.032911 
L 406.359673 109.687895 
L 406.17869 109.453686 
L 405.997143 108.804041 
L 405.81503 109.193852 
L 405.632347 108.899047 
L 405.44909 108.068774 
L 405.265257 107.707764 
L 405.080842 108.123663 
L 404.895843 107.415443 
L 404.710256 107.2949 
L 404.524076 107.009615 
L 404.337301 106.169431 
L 404.149926 106.481393 
L 403.961948 105.758334 
L 403.773363 105.062444 
L 403.584166 105.119037 
L 403.394354 104.606367 
L 403.203922 104.681422 
L 403.012868 104.172742 
L 402.821186 104.3285 
L 402.628872 104.035306 
L 402.435922 104.303885 
L 402.242333 104.585687 
L 402.048099 104.653646 
L 401.853217 105.035392 
L 401.657682 104.871767 
L 401.461489 104.077427 
L 401.264635 104.368509 
L 401.067115 104.027504 
L 400.868924 103.228865 
L 400.670058 103.362738 
L 400.470512 103.494865 
L 400.270281 103.335702 
L 400.069361 103.004452 
L 399.867748 103.376819 
L 399.665435 103.956849 
L 399.462418 103.893478 
L 399.258693 103.692192 
L 399.054255 103.579177 
L 398.849097 103.761225 
L 398.643217 104.392935 
L 398.436607 103.554125 
L 398.229263 103.024655 
L 398.02118 103.199921 
L 397.812353 102.296936 
L 397.602776 102.413083 
L 397.392444 103.175291 
L 397.181351 103.289149 
L 396.969491 102.806029 
L 396.75686 102.834587 
L 396.543452 102.521339 
L 396.32926 101.802496 
L 396.114279 101.75184 
L 395.898504 101.951261 
L 395.681928 102.06583 
L 395.464545 102.202282 
L 395.24635 101.495274 
L 395.027336 102.035225 
L 394.807497 102.55808 
L 394.586827 101.890552 
L 394.365319 101.982089 
L 394.142968 101.720256 
L 393.919766 101.649409 
L 393.695708 101.267831 
L 393.470786 101.269293 
L 393.244994 100.353387 
L 393.018325 100.652366 
L 392.790772 100.453484 
L 392.562329 100.063516 
L 392.332988 99.19889 
L 392.102743 99.038674 
L 391.871585 99.271587 
L 391.639509 99.086565 
L 391.406506 99.412013 
L 391.172569 98.275039 
L 390.937691 98.626427 
L 390.701863 98.413476 
L 390.465079 97.84186 
L 390.227331 98.028236 
L 389.98861 98.517047 
L 389.748909 97.524323 
L 389.508219 97.453753 
L 389.266533 97.7381 
L 389.023841 96.93838 
L 388.780137 98.078508 
L 388.53541 97.730229 
L 388.289653 97.797426 
L 388.042857 97.658025 
L 387.795013 97.388341 
L 387.546113 97.261584 
L 387.296146 96.51395 
L 387.045104 96.398864 
L 386.792977 96.797045 
L 386.539757 95.934287 
L 386.285434 95.993562 
L 386.029997 97.150696 
L 385.773438 95.908087 
L 385.515745 95.932467 
L 385.256911 95.417379 
L 384.996923 95.77923 
L 384.735772 95.755808 
L 384.473447 96.475143 
L 384.209938 95.821449 
L 383.945234 95.65403 
L 383.679323 95.358396 
L 383.412196 94.096396 
L 383.143841 94.186145 
L 382.874246 93.507185 
L 382.6034 93.52929 
L 382.331292 94.232684 
L 382.057909 94.198686 
L 381.783239 93.938935 
L 381.507271 92.822101 
L 381.229992 93.134184 
L 380.951389 92.824376 
L 380.67145 91.788423 
L 380.390162 91.905817 
L 380.107512 91.527454 
L 379.823486 91.737109 
L 379.538071 91.574013 
L 379.251254 91.48649 
L 378.963021 90.805763 
L 378.673357 90.304334 
L 378.382248 90.308785 
L 378.08968 90.15703 
L 377.795638 89.655144 
L 377.500108 89.260666 
L 377.203073 88.897637 
L 376.904519 89.470785 
L 376.60443 89.949118 
L 376.30279 89.355618 
L 375.999584 87.85234 
L 375.694794 88.747605 
L 375.388404 88.562189 
L 375.080397 88.768091 
L 374.770756 88.97986 
L 374.459463 88.571008 
L 374.146502 88.262009 
L 373.831853 87.130174 
L 373.515499 86.760191 
L 373.197421 86.455441 
L 372.8776 85.682234 
L 372.556017 85.631594 
L 372.232653 85.843518 
L 371.907487 86.065524 
L 371.580499 85.524399 
L 371.251669 84.522663 
L 370.920976 85.619276 
L 370.588398 85.138658 
L 370.253915 85.174087 
L 369.917504 84.938229 
L 369.579143 85.180077 
L 369.238808 84.632885 
L 368.896478 84.326627 
L 368.552128 84.435986 
L 368.205734 83.947357 
L 367.857272 84.278676 
L 367.506718 84.86096 
L 367.154045 84.480802 
L 366.799228 85.016424 
L 366.442241 84.799135 
L 366.083058 85.019118 
L 365.72165 84.018939 
L 365.35799 81.766846 
L 364.992051 81.888822 
L 364.623802 82.352814 
L 364.253216 81.310136 
L 363.880261 81.815329 
L 363.504909 82.533244 
L 363.127126 82.254486 
L 362.746883 81.836853 
L 362.364146 82.026267 
L 361.978883 81.881295 
L 361.591059 82.47258 
L 361.200642 82.14009 
L 360.807596 81.765208 
L 360.411885 81.191962 
L 360.013472 80.965255 
L 359.612322 80.923087 
L 359.208395 80.648264 
L 358.801654 80.536917 
L 358.392058 80.697529 
L 357.979567 80.3971 
L 357.564141 80.70757 
L 357.145736 80.56037 
L 356.724311 81.107447 
L 356.29982 79.821265 
L 355.87222 79.771672 
L 355.441464 80.064778 
L 355.007506 79.82157 
L 354.570296 79.854356 
L 354.129787 79.672202 
L 353.685928 78.753211 
L 353.238668 79.205399 
L 352.787954 79.076917 
L 352.333733 79.044139 
L 351.875948 78.451476 
L 351.414546 77.91721 
L 350.949466 77.914723 
L 350.480651 78.081793 
L 350.00804 77.81926 
L 349.53157 77.799067 
L 349.051179 77.507645 
L 348.566802 77.295387 
L 348.078371 77.27019 
L 347.585818 76.944894 
L 347.089073 75.661958 
L 346.588064 76.230743 
L 346.082717 76.109796 
L 345.572957 75.901869 
L 345.058706 76.120787 
L 344.539883 74.96141 
L 344.016407 75.03091 
L 343.488194 75.971963 
L 342.955157 75.246949 
L 342.417207 75.282936 
L 341.874252 74.724378 
L 341.3262 74.675834 
L 340.772952 73.183638 
L 340.21441 73.730885 
L 339.650472 72.922743 
L 339.081032 72.906656 
L 338.505981 72.989495 
L 337.925208 72.252513 
L 337.338599 72.137944 
L 336.746033 72.220525 
L 336.147391 71.825253 
L 335.542544 71.103485 
L 334.931364 70.431535 
L 334.313716 70.102888 
L 333.689462 70.774108 
L 333.05846 70.755597 
L 332.420561 69.55114 
L 331.775613 69.712788 
L 331.123459 69.137077 
L 330.463936 68.65582 
L 329.796875 68.215473 
L 329.122103 67.558451 
L 328.439438 67.423243 
L 327.748694 67.625601 
L 327.049678 67.548699 
L 326.342189 66.981988 
L 325.626018 67.177673 
L 324.900951 66.9567 
L 324.166763 67.189282 
L 323.423222 66.573542 
L 322.670087 66.54918 
L 321.907106 65.309097 
L 321.13402 65.109755 
L 320.350556 65.350087 
L 319.556433 65.434844 
L 318.751355 65.520495 
L 317.935018 65.955555 
L 317.107101 65.230329 
L 316.267271 65.524743 
L 315.41518 64.994266 
L 314.550466 64.914966 
L 313.672748 63.944227 
L 312.781628 63.647857 
L 311.876693 63.323619 
L 310.957506 63.625657 
L 310.023611 63.433953 
L 309.074531 63.38355 
L 308.109762 62.715639 
L 307.128778 62.019833 
L 306.131024 60.549364 
L 305.115918 60.502195 
L 304.082843 59.906197 
L 303.031154 60.474982 
L 301.960167 60.758215 
L 300.86916 61.541439 
L 299.757371 60.915107 
L 298.623992 61.194078 
L 297.468169 60.23416 
L 296.288994 59.528089 
L 295.085504 59.402451 
L 293.856676 58.949098 
L 292.60142 59.433263 
L 291.318573 58.781242 
L 290.006896 58.785236 
L 288.665063 58.017051 
L 287.291655 56.832955 
L 285.885149 56.724708 
L 284.443911 56.659775 
L 282.966182 56.684075 
L 281.450066 56.272002 
L 279.893516 54.790629 
L 278.294316 54.587745 
L 276.650061 54.659881 
L 274.958141 54.774909 
L 273.215708 53.866951 
L 271.419653 53.159258 
L 269.566571 53.164792 
L 267.652722 52.892432 
L 265.673985 52.381465 
L 263.625804 51.824928 
L 261.503127 51.660421 
L 259.300331 51.152866 
L 257.011129 51.660376 
L 254.628465 51.036597 
L 252.14438 51.02574 
L 249.549857 50.508537 
L 246.834615 50.06136 
L 243.986871 49.977273 
L 240.993027 49.850058 
L 237.837276 48.932569 
L 234.501101 47.654309 
L 230.962613 47.449252 
L 227.195683 46.958548 
L 223.168764 45.898069 
L 218.843291 46.248932 
L 214.171425 45.339189 
L 209.092817 44.178547 
L 203.529831 43.989392 
L 197.380236 44.23002 
L 190.505574 44.189457 
L 182.711724 43.68694 
L 173.714385 42.975529 
L 163.072792 42.477151 
L 150.048534 41.578941 
L 133.257345 41.181222 
L 109.591494 39.670105 
L 69.134455 39.576578 
L -134460.637798 39.341098 
z
" clip-path="url(#p4fe9c28c47)" style="fill: #1f77b4; fill-opacity: 0.2"/>
   </g>
   <g id="matplotlib.axis_1">
    <g id="xtick_1">
     <g id="line2d_1">
      <defs>
       <path id="m43606845c3" d="M 0 0 
L 0 3.5 
" style="stroke: #000000; stroke-width: 0.8"/>
      </defs>
      <g>
       <use xlink:href="#m43606845c3" x="69.134455" y="296.636" style="stroke: #000000; stroke-width: 0.8"/>
      </g>
     </g>
     <g id="text_1">
      <!-- $\mathdefault{10^{1}}$ -->
      <g transform="translate(60.334455 311.234437) scale(0.1 -0.1)">
       <defs>
        <path id="DejaVuSans-31" d="M 794 531 
L 1825 531 
L 1825 4091 
L 703 3866 
L 703 4441 
L 1819 4666 
L 2450 4666 
L 2450 531 
L 3481 531 
L 3481 0 
L 794 0 
L 794 531 
z
" transform="scale(0.015625)"/>
        <path id="DejaVuSans-30" d="M 2034 4250 
Q 1547 4250 1301 3770 
Q 1056 3291 1056 2328 
Q 1056 1369 1301 889 
Q 1547 409 2034 409 
Q 2525 409 2770 889 
Q 3016 1369 3016 2328 
Q 3016 3291 2770 3770 
Q 2525 4250 2034 4250 
z
M 2034 4750 
Q 2819 4750 3233 4129 
Q 3647 3509 3647 2328 
Q 3647 1150 3233 529 
Q 2819 -91 2034 -91 
Q 1250 -91 836 529 
Q 422 1150 422 2328 
Q 422 3509 836 4129 
Q 1250 4750 2034 4750 
z
" transform="scale(0.015625)"/>
       </defs>
       <use xlink:href="#DejaVuSans-31" transform="translate(0 0.684375)"/>
       <use xlink:href="#DejaVuSans-30" transform="translate(63.623047 0.684375)"/>
       <use xlink:href="#DejaVuSans-31" transform="translate(128.203125 38.965625) scale(0.7)"/>
      </g>
     </g>
    </g>
    <g id="xtick_2">
     <g id="line2d_2">
      <g>
       <use xlink:href="#m43606845c3" x="203.529831" y="296.636" style="stroke: #000000; stroke-width: 0.8"/>
      </g>
     </g>
     <g id="text_2">
      <!-- $\mathdefault{10^{2}}$ -->
      <g transform="translate(194.729831 311.234437) scale(0.1 -0.1)">
       <defs>
        <path id="DejaVuSans-32" d="M 1228 531 
L 3431 531 
L 3431 0 
L 469 0 
L 469 531 
Q 828 903 1448 1529 
Q 2069 2156 2228 2338 
Q 2531 2678 2651 2914 
Q 2772 3150 2772 3378 
Q 2772 3750 2511 3984 
Q 2250 4219 1831 4219 
Q 1534 4219 1204 4116 
Q 875 4013 500 3803 
L 500 4441 
Q 881 4594 1212 4672 
Q 1544 4750 1819 4750 
Q 2544 4750 2975 4387 
Q 3406 4025 3406 3419 
Q 3406 3131 3298 2873 
Q 3191 2616 2906 2266 
Q 2828 2175 2409 1742 
Q 1991 1309 1228 531 
z
" transform="scale(0.015625)"/>
       </defs>
       <use xlink:href="#DejaVuSans-31" transform="translate(0 0.765625)"/>
       <use xlink:href="#DejaVuSans-30" transform="translate(63.623047 0.765625)"/>
       <use xlink:href="#DejaVuSans-32" transform="translate(128.203125 39.046875) scale(0.7)"/>
      </g>
     </g>
    </g>
    <g id="xtick_3">
     <g id="line2d_3">
      <g>
       <use xlink:href="#m43606845c3" x="337.925208" y="296.636" style="stroke: #000000; stroke-width: 0.8"/>
      </g>
     </g>
     <g id="text_3">
      <!-- $\mathdefault{10^{3}}$ -->
      <g transform="translate(329.125208 311.234437) scale(0.1 -0.1)">
       <defs>
        <path id="DejaVuSans-33" d="M 2597 2516 
Q 3050 2419 3304 2112 
Q 3559 1806 3559 1356 
Q 3559 666 3084 287 
Q 2609 -91 1734 -91 
Q 1441 -91 1130 -33 
Q 819 25 488 141 
L 488 750 
Q 750 597 1062 519 
Q 1375 441 1716 441 
Q 2309 441 2620 675 
Q 2931 909 2931 1356 
Q 2931 1769 2642 2001 
Q 2353 2234 1838 2234 
L 1294 2234 
L 1294 2753 
L 1863 2753 
Q 2328 2753 2575 2939 
Q 2822 3125 2822 3475 
Q 2822 3834 2567 4026 
Q 2313 4219 1838 4219 
Q 1578 4219 1281 4162 
Q 984 4106 628 3988 
L 628 4550 
Q 988 4650 1302 4700 
Q 1616 4750 1894 4750 
Q 2613 4750 3031 4423 
Q 3450 4097 3450 3541 
Q 3450 3153 3228 2886 
Q 3006 2619 2597 2516 
z
" transform="scale(0.015625)"/>
       </defs>
       <use xlink:href="#DejaVuSans-31" transform="translate(0 0.765625)"/>
       <use xlink:href="#DejaVuSans-30" transform="translate(63.623047 0.765625)"/>
       <use xlink:href="#DejaVuSans-33" transform="translate(128.203125 39.046875) scale(0.7)"/>
      </g>
     </g>
    </g>
    <g id="xtick_4">
     <g id="line2d_4">
      <defs>
       <path id="mc10e645acc" d="M 0 0 
L 0 2 
" style="stroke: #000000; stroke-width: 0.6"/>
      </defs>
      <g>
       <use xlink:href="#mc10e645acc" x="56.110197" y="296.636" style="stroke: #000000; stroke-width: 0.6"/>
      </g>
     </g>
    </g>
    <g id="xtick_5">
     <g id="line2d_5">
      <g>
       <use xlink:href="#mc10e645acc" x="62.984859" y="296.636" style="stroke: #000000; stroke-width: 0.6"/>
      </g>
     </g>
    </g>
    <g id="xtick_6">
     <g id="line2d_6">
      <g>
       <use xlink:href="#mc10e645acc" x="109.591494" y="296.636" style="stroke: #000000; stroke-width: 0.6"/>
      </g>
     </g>
    </g>
    <g id="xtick_7">
     <g id="line2d_7">
      <g>
       <use xlink:href="#mc10e645acc" x="133.257345" y="296.636" style="stroke: #000000; stroke-width: 0.6"/>
      </g>
     </g>
    </g>
    <g id="xtick_8">
     <g id="line2d_8">
      <g>
       <use xlink:href="#mc10e645acc" x="150.048534" y="296.636" style="stroke: #000000; stroke-width: 0.6"/>
      </g>
     </g>
    </g>
    <g id="xtick_9">
     <g id="line2d_9">
      <g>
       <use xlink:href="#mc10e645acc" x="163.072792" y="296.636" style="stroke: #000000; stroke-width: 0.6"/>
      </g>
     </g>
    </g>
    <g id="xtick_10">
     <g id="line2d_10">
      <g>
       <use xlink:href="#mc10e645acc" x="173.714385" y="296.636" style="stroke: #000000; stroke-width: 0.6"/>
      </g>
     </g>
    </g>
    <g id="xtick_11">
     <g id="line2d_11">
      <g>
       <use xlink:href="#mc10e645acc" x="182.711724" y="296.636" style="stroke: #000000; stroke-width: 0.6"/>
      </g>
     </g>
    </g>
    <g id="xtick_12">
     <g id="line2d_12">
      <g>
       <use xlink:href="#mc10e645acc" x="190.505574" y="296.636" style="stroke: #000000; stroke-width: 0.6"/>
      </g>
     </g>
    </g>
    <g id="xtick_13">
     <g id="line2d_13">
      <g>
       <use xlink:href="#mc10e645acc" x="197.380236" y="296.636" style="stroke: #000000; stroke-width: 0.6"/>
      </g>
     </g>
    </g>
    <g id="xtick_14">
     <g id="line2d_14">
      <g>
       <use xlink:href="#mc10e645acc" x="243.986871" y="296.636" style="stroke: #000000; stroke-width: 0.6"/>
      </g>
     </g>
    </g>
    <g id="xtick_15">
     <g id="line2d_15">
      <g>
       <use xlink:href="#mc10e645acc" x="267.652722" y="296.636" style="stroke: #000000; stroke-width: 0.6"/>
      </g>
     </g>
    </g>
    <g id="xtick_16">
     <g id="line2d_16">
      <g>
       <use xlink:href="#mc10e645acc" x="284.443911" y="296.636" style="stroke: #000000; stroke-width: 0.6"/>
      </g>
     </g>
    </g>
    <g id="xtick_17">
     <g id="line2d_17">
      <g>
       <use xlink:href="#mc10e645acc" x="297.468169" y="296.636" style="stroke: #000000; stroke-width: 0.6"/>
      </g>
     </g>
    </g>
    <g id="xtick_18">
     <g id="line2d_18">
      <g>
       <use xlink:href="#mc10e645acc" x="308.109762" y="296.636" style="stroke: #000000; stroke-width: 0.6"/>
      </g>
     </g>
    </g>
    <g id="xtick_19">
     <g id="line2d_19">
      <g>
       <use xlink:href="#mc10e645acc" x="317.107101" y="296.636" style="stroke: #000000; stroke-width: 0.6"/>
      </g>
     </g>
    </g>
    <g id="xtick_20">
     <g id="line2d_20">
      <g>
       <use xlink:href="#mc10e645acc" x="324.900951" y="296.636" style="stroke: #000000; stroke-width: 0.6"/>
      </g>
     </g>
    </g>
    <g id="xtick_21">
     <g id="line2d_21">
      <g>
       <use xlink:href="#mc10e645acc" x="331.775613" y="296.636" style="stroke: #000000; stroke-width: 0.6"/>
      </g>
     </g>
    </g>
    <g id="xtick_22">
     <g id="line2d_22">
      <g>
       <use xlink:href="#mc10e645acc" x="378.382248" y="296.636" style="stroke: #000000; stroke-width: 0.6"/>
      </g>
     </g>
    </g>
    <g id="xtick_23">
     <g id="line2d_23">
      <g>
       <use xlink:href="#mc10e645acc" x="402.048099" y="296.636" style="stroke: #000000; stroke-width: 0.6"/>
      </g>
     </g>
    </g>
    <g id="xtick_24">
     <g id="line2d_24">
      <g>
       <use xlink:href="#mc10e645acc" x="418.839288" y="296.636" style="stroke: #000000; stroke-width: 0.6"/>
      </g>
     </g>
    </g>
    <g id="xtick_25">
     <g id="line2d_25">
      <g>
       <use xlink:href="#mc10e645acc" x="431.863545" y="296.636" style="stroke: #000000; stroke-width: 0.6"/>
      </g>
     </g>
    </g>
    <g id="xtick_26">
     <g id="line2d_26">
      <g>
       <use xlink:href="#mc10e645acc" x="442.505139" y="296.636" style="stroke: #000000; stroke-width: 0.6"/>
      </g>
     </g>
    </g>
    <g id="text_4">
     <!-- time (units of $\omega_\mathrm{r}^{-1}$) -->
     <g transform="translate(203.699 323.814125) scale(0.1 -0.1)">
      <defs>
       <path id="DejaVuSans-74" d="M 1172 4494 
L 1172 3500 
L 2356 3500 
L 2356 3053 
L 1172 3053 
L 1172 1153 
Q 1172 725 1289 603 
Q 1406 481 1766 481 
L 2356 481 
L 2356 0 
L 1766 0 
Q 1100 0 847 248 
Q 594 497 594 1153 
L 594 3053 
L 172 3053 
L 172 3500 
L 594 3500 
L 594 4494 
L 1172 4494 
z
" transform="scale(0.015625)"/>
       <path id="DejaVuSans-69" d="M 603 3500 
L 1178 3500 
L 1178 0 
L 603 0 
L 603 3500 
z
M 603 4863 
L 1178 4863 
L 1178 4134 
L 603 4134 
L 603 4863 
z
" transform="scale(0.015625)"/>
       <path id="DejaVuSans-6d" d="M 3328 2828 
Q 3544 3216 3844 3400 
Q 4144 3584 4550 3584 
Q 5097 3584 5394 3201 
Q 5691 2819 5691 2113 
L 5691 0 
L 5113 0 
L 5113 2094 
Q 5113 2597 4934 2840 
Q 4756 3084 4391 3084 
Q 3944 3084 3684 2787 
Q 3425 2491 3425 1978 
L 3425 0 
L 2847 0 
L 2847 2094 
Q 2847 2600 2669 2842 
Q 2491 3084 2119 3084 
Q 1678 3084 1418 2786 
Q 1159 2488 1159 1978 
L 1159 0 
L 581 0 
L 581 3500 
L 1159 3500 
L 1159 2956 
Q 1356 3278 1631 3431 
Q 1906 3584 2284 3584 
Q 2666 3584 2933 3390 
Q 3200 3197 3328 2828 
z
" transform="scale(0.015625)"/>
       <path id="DejaVuSans-65" d="M 3597 1894 
L 3597 1613 
L 953 1613 
Q 991 1019 1311 708 
Q 1631 397 2203 397 
Q 2534 397 2845 478 
Q 3156 559 3463 722 
L 3463 178 
Q 3153 47 2828 -22 
Q 2503 -91 2169 -91 
Q 1331 -91 842 396 
Q 353 884 353 1716 
Q 353 2575 817 3079 
Q 1281 3584 2069 3584 
Q 2775 3584 3186 3129 
Q 3597 2675 3597 1894 
z
M 3022 2063 
Q 3016 2534 2758 2815 
Q 2500 3097 2075 3097 
Q 1594 3097 1305 2825 
Q 1016 2553 972 2059 
L 3022 2063 
z
" transform="scale(0.015625)"/>
       <path id="DejaVuSans-20" transform="scale(0.015625)"/>
       <path id="DejaVuSans-28" d="M 1984 4856 
Q 1566 4138 1362 3434 
Q 1159 2731 1159 2009 
Q 1159 1288 1364 580 
Q 1569 -128 1984 -844 
L 1484 -844 
Q 1016 -109 783 600 
Q 550 1309 550 2009 
Q 550 2706 781 3412 
Q 1013 4119 1484 4856 
L 1984 4856 
z
" transform="scale(0.015625)"/>
       <path id="DejaVuSans-75" d="M 544 1381 
L 544 3500 
L 1119 3500 
L 1119 1403 
Q 1119 906 1312 657 
Q 1506 409 1894 409 
Q 2359 409 2629 706 
Q 2900 1003 2900 1516 
L 2900 3500 
L 3475 3500 
L 3475 0 
L 2900 0 
L 2900 538 
Q 2691 219 2414 64 
Q 2138 -91 1772 -91 
Q 1169 -91 856 284 
Q 544 659 544 1381 
z
M 1991 3584 
L 1991 3584 
z
" transform="scale(0.015625)"/>
       <path id="DejaVuSans-6e" d="M 3513 2113 
L 3513 0 
L 2938 0 
L 2938 2094 
Q 2938 2591 2744 2837 
Q 2550 3084 2163 3084 
Q 1697 3084 1428 2787 
Q 1159 2491 1159 1978 
L 1159 0 
L 581 0 
L 581 3500 
L 1159 3500 
L 1159 2956 
Q 1366 3272 1645 3428 
Q 1925 3584 2291 3584 
Q 2894 3584 3203 3211 
Q 3513 2838 3513 2113 
z
" transform="scale(0.015625)"/>
       <path id="DejaVuSans-73" d="M 2834 3397 
L 2834 2853 
Q 2591 2978 2328 3040 
Q 2066 3103 1784 3103 
Q 1356 3103 1142 2972 
Q 928 2841 928 2578 
Q 928 2378 1081 2264 
Q 1234 2150 1697 2047 
L 1894 2003 
Q 2506 1872 2764 1633 
Q 3022 1394 3022 966 
Q 3022 478 2636 193 
Q 2250 -91 1575 -91 
Q 1294 -91 989 -36 
Q 684 19 347 128 
L 347 722 
Q 666 556 975 473 
Q 1284 391 1588 391 
Q 1994 391 2212 530 
Q 2431 669 2431 922 
Q 2431 1156 2273 1281 
Q 2116 1406 1581 1522 
L 1381 1569 
Q 847 1681 609 1914 
Q 372 2147 372 2553 
Q 372 3047 722 3315 
Q 1072 3584 1716 3584 
Q 2034 3584 2315 3537 
Q 2597 3491 2834 3397 
z
" transform="scale(0.015625)"/>
       <path id="DejaVuSans-6f" d="M 1959 3097 
Q 1497 3097 1228 2736 
Q 959 2375 959 1747 
Q 959 1119 1226 758 
Q 1494 397 1959 397 
Q 2419 397 2687 759 
Q 2956 1122 2956 1747 
Q 2956 2369 2687 2733 
Q 2419 3097 1959 3097 
z
M 1959 3584 
Q 2709 3584 3137 3096 
Q 3566 2609 3566 1747 
Q 3566 888 3137 398 
Q 2709 -91 1959 -91 
Q 1206 -91 779 398 
Q 353 888 353 1747 
Q 353 2609 779 3096 
Q 1206 3584 1959 3584 
z
" transform="scale(0.015625)"/>
       <path id="DejaVuSans-66" d="M 2375 4863 
L 2375 4384 
L 1825 4384 
Q 1516 4384 1395 4259 
Q 1275 4134 1275 3809 
L 1275 3500 
L 2222 3500 
L 2222 3053 
L 1275 3053 
L 1275 0 
L 697 0 
L 697 3053 
L 147 3053 
L 147 3500 
L 697 3500 
L 697 3744 
Q 697 4328 969 4595 
Q 1241 4863 1831 4863 
L 2375 4863 
z
" transform="scale(0.015625)"/>
       <path id="DejaVuSans-Oblique-3c9" d="M 1369 -91 
Q 72 -91 434 1766 
Q 575 2500 1256 3500 
L 1875 3500 
Q 1231 2500 1088 1750 
Q 819 397 1519 397 
Q 2166 397 2478 2078 
L 3009 2078 
Q 2669 388 3316 397 
Q 4013 403 4275 1750 
Q 4419 2500 4169 3500 
L 4788 3500 
Q 5075 2500 4934 1766 
Q 4578 -94 3278 -91 
Q 2428 -88 2503 844 
Q 2194 -91 1369 -91 
z
" transform="scale(0.015625)"/>
       <path id="DejaVuSans-2212" d="M 678 2272 
L 4684 2272 
L 4684 1741 
L 678 1741 
L 678 2272 
z
" transform="scale(0.015625)"/>
       <path id="DejaVuSans-72" d="M 2631 2963 
Q 2534 3019 2420 3045 
Q 2306 3072 2169 3072 
Q 1681 3072 1420 2755 
Q 1159 2438 1159 1844 
L 1159 0 
L 581 0 
L 581 3500 
L 1159 3500 
L 1159 2956 
Q 1341 3275 1631 3429 
Q 1922 3584 2338 3584 
Q 2397 3584 2469 3576 
Q 2541 3569 2628 3553 
L 2631 2963 
z
" transform="scale(0.015625)"/>
       <path id="DejaVuSans-29" d="M 513 4856 
L 1013 4856 
Q 1481 4119 1714 3412 
Q 1947 2706 1947 2009 
Q 1947 1309 1714 600 
Q 1481 -109 1013 -844 
L 513 -844 
Q 928 -128 1133 580 
Q 1338 1288 1338 2009 
Q 1338 2731 1133 3434 
Q 928 4138 513 4856 
z
" transform="scale(0.015625)"/>
      </defs>
      <use xlink:href="#DejaVuSans-74" transform="translate(0 0.684375)"/>
      <use xlink:href="#DejaVuSans-69" transform="translate(39.208984 0.684375)"/>
      <use xlink:href="#DejaVuSans-6d" transform="translate(66.992188 0.684375)"/>
      <use xlink:href="#DejaVuSans-65" transform="translate(164.404297 0.684375)"/>
      <use xlink:href="#DejaVuSans-20" transform="translate(225.927734 0.684375)"/>
      <use xlink:href="#DejaVuSans-28" transform="translate(257.714844 0.684375)"/>
      <use xlink:href="#DejaVuSans-75" transform="translate(296.728516 0.684375)"/>
      <use xlink:href="#DejaVuSans-6e" transform="translate(360.107422 0.684375)"/>
      <use xlink:href="#DejaVuSans-69" transform="translate(423.486328 0.684375)"/>
      <use xlink:href="#DejaVuSans-74" transform="translate(451.269531 0.684375)"/>
      <use xlink:href="#DejaVuSans-73" transform="translate(490.478516 0.684375)"/>
      <use xlink:href="#DejaVuSans-20" transform="translate(542.578125 0.684375)"/>
      <use xlink:href="#DejaVuSans-6f" transform="translate(574.365234 0.684375)"/>
      <use xlink:href="#DejaVuSans-66" transform="translate(635.546875 0.684375)"/>
      <use xlink:href="#DejaVuSans-20" transform="translate(670.751953 0.684375)"/>
      <use xlink:href="#DejaVuSans-Oblique-3c9" transform="translate(702.539062 0.684375)"/>
      <use xlink:href="#DejaVuSans-2212" transform="translate(790.745443 38.965625) scale(0.7)"/>
      <use xlink:href="#DejaVuSans-31" transform="translate(849.397786 38.965625) scale(0.7)"/>
      <use xlink:href="#DejaVuSans-72" transform="translate(786.279297 -26.659375) scale(0.7)"/>
      <use xlink:href="#DejaVuSans-29" transform="translate(896.668294 0.684375)"/>
     </g>
    </g>
   </g>
   <g id="matplotlib.axis_2">
    <g id="ytick_1">
     <g id="line2d_27">
      <defs>
       <path id="m04be008844" d="M 0 0 
L -3.5 0 
" style="stroke: #000000; stroke-width: 0.8"/>
      </defs>
      <g>
       <use xlink:href="#m04be008844" x="50.998" y="288.826092" style="stroke: #000000; stroke-width: 0.8"/>
      </g>
     </g>
     <g id="text_5">
      <!-- 200 -->
      <g transform="translate(24.9105 292.625311) scale(0.1 -0.1)">
       <use xlink:href="#DejaVuSans-32"/>
       <use xlink:href="#DejaVuSans-30" x="63.623047"/>
       <use xlink:href="#DejaVuSans-30" x="127.246094"/>
      </g>
     </g>
    </g>
    <g id="ytick_2">
     <g id="line2d_28">
      <g>
       <use xlink:href="#m04be008844" x="50.998" y="246.784426" style="stroke: #000000; stroke-width: 0.8"/>
      </g>
     </g>
     <g id="text_6">
      <!-- 250 -->
      <g transform="translate(24.9105 250.583645) scale(0.1 -0.1)">
       <defs>
        <path id="DejaVuSans-35" d="M 691 4666 
L 3169 4666 
L 3169 4134 
L 1269 4134 
L 1269 2991 
Q 1406 3038 1543 3061 
Q 1681 3084 1819 3084 
Q 2600 3084 3056 2656 
Q 3513 2228 3513 1497 
Q 3513 744 3044 326 
Q 2575 -91 1722 -91 
Q 1428 -91 1123 -41 
Q 819 9 494 109 
L 494 744 
Q 775 591 1075 516 
Q 1375 441 1709 441 
Q 2250 441 2565 725 
Q 2881 1009 2881 1497 
Q 2881 1984 2565 2268 
Q 2250 2553 1709 2553 
Q 1456 2553 1204 2497 
Q 953 2441 691 2322 
L 691 4666 
z
" transform="scale(0.015625)"/>
       </defs>
       <use xlink:href="#DejaVuSans-32"/>
       <use xlink:href="#DejaVuSans-35" x="63.623047"/>
       <use xlink:href="#DejaVuSans-30" x="127.246094"/>
      </g>
     </g>
    </g>
    <g id="ytick_3">
     <g id="line2d_29">
      <g>
       <use xlink:href="#m04be008844" x="50.998" y="204.742761" style="stroke: #000000; stroke-width: 0.8"/>
      </g>
     </g>
     <g id="text_7">
      <!-- 300 -->
      <g transform="translate(24.9105 208.54198) scale(0.1 -0.1)">
       <use xlink:href="#DejaVuSans-33"/>
       <use xlink:href="#DejaVuSans-30" x="63.623047"/>
       <use xlink:href="#DejaVuSans-30" x="127.246094"/>
      </g>
     </g>
    </g>
    <g id="ytick_4">
     <g id="line2d_30">
      <g>
       <use xlink:href="#m04be008844" x="50.998" y="162.701096" style="stroke: #000000; stroke-width: 0.8"/>
      </g>
     </g>
     <g id="text_8">
      <!-- 350 -->
      <g transform="translate(24.9105 166.500315) scale(0.1 -0.1)">
       <use xlink:href="#DejaVuSans-33"/>
       <use xlink:href="#DejaVuSans-35" x="63.623047"/>
       <use xlink:href="#DejaVuSans-30" x="127.246094"/>
      </g>
     </g>
    </g>
    <g id="ytick_5">
     <g id="line2d_31">
      <g>
       <use xlink:href="#m04be008844" x="50.998" y="120.659431" style="stroke: #000000; stroke-width: 0.8"/>
      </g>
     </g>
     <g id="text_9">
      <!-- 400 -->
      <g transform="translate(24.9105 124.458649) scale(0.1 -0.1)">
       <defs>
        <path id="DejaVuSans-34" d="M 2419 4116 
L 825 1625 
L 2419 1625 
L 2419 4116 
z
M 2253 4666 
L 3047 4666 
L 3047 1625 
L 3713 1625 
L 3713 1100 
L 3047 1100 
L 3047 0 
L 2419 0 
L 2419 1100 
L 313 1100 
L 313 1709 
L 2253 4666 
z
" transform="scale(0.015625)"/>
       </defs>
       <use xlink:href="#DejaVuSans-34"/>
       <use xlink:href="#DejaVuSans-30" x="63.623047"/>
       <use xlink:href="#DejaVuSans-30" x="127.246094"/>
      </g>
     </g>
    </g>
    <g id="ytick_6">
     <g id="line2d_32">
      <g>
       <use xlink:href="#m04be008844" x="50.998" y="78.617765" style="stroke: #000000; stroke-width: 0.8"/>
      </g>
     </g>
     <g id="text_10">
      <!-- 450 -->
      <g transform="translate(24.9105 82.416984) scale(0.1 -0.1)">
       <use xlink:href="#DejaVuSans-34"/>
       <use xlink:href="#DejaVuSans-35" x="63.623047"/>
       <use xlink:href="#DejaVuSans-30" x="127.246094"/>
      </g>
     </g>
    </g>
    <g id="ytick_7">
     <g id="line2d_33">
      <g>
       <use xlink:href="#m04be008844" x="50.998" y="36.5761" style="stroke: #000000; stroke-width: 0.8"/>
      </g>
     </g>
     <g id="text_11">
      <!-- 500 -->
      <g transform="translate(24.9105 40.375319) scale(0.1 -0.1)">
       <use xlink:href="#DejaVuSans-35"/>
       <use xlink:href="#DejaVuSans-30" x="63.623047"/>
       <use xlink:href="#DejaVuSans-30" x="127.246094"/>
      </g>
     </g>
    </g>
    <g id="text_12">
     <!-- $K_B T$ (units of ${\hbar\omega_\mathrm{r}}$ ) -->
     <g transform="translate(21.330813 207.36248) rotate(-90) scale(0.1 -0.1)">
      <defs>
       <path id="DejaVuSans-Oblique-4b" d="M 1081 4666 
L 1716 4666 
L 1331 2700 
L 3781 4666 
L 4622 4666 
L 1850 2438 
L 3878 0 
L 3109 0 
L 1247 2272 
L 806 0 
L 172 0 
L 1081 4666 
z
" transform="scale(0.015625)"/>
       <path id="DejaVuSans-Oblique-42" d="M 1081 4666 
L 2694 4666 
Q 3350 4666 3675 4422 
Q 4000 4178 4000 3688 
Q 4000 3238 3720 2911 
Q 3441 2584 2988 2516 
Q 3375 2428 3569 2181 
Q 3763 1934 3763 1522 
Q 3763 819 3242 409 
Q 2722 0 1819 0 
L 172 0 
L 1081 4666 
z
M 1234 2228 
L 903 519 
L 1919 519 
Q 2491 519 2800 781 
Q 3109 1044 3109 1522 
Q 3109 1891 2904 2059 
Q 2700 2228 2247 2228 
L 1234 2228 
z
M 1606 4147 
L 1331 2741 
L 2272 2741 
Q 2775 2741 3058 2959 
Q 3341 3178 3341 3566 
Q 3341 3869 3150 4008 
Q 2959 4147 2541 4147 
L 1606 4147 
z
" transform="scale(0.015625)"/>
       <path id="DejaVuSans-Oblique-54" d="M 378 4666 
L 4325 4666 
L 4225 4134 
L 2559 4134 
L 1759 0 
L 1125 0 
L 1925 4134 
L 275 4134 
L 378 4666 
z
" transform="scale(0.015625)"/>
       <path id="DejaVuSans-Oblique-127" d="M 3634 2113 
L 3225 0 
L 2650 0 
L 3056 2094 
Q 3094 2291 3094 2450 
Q 3094 2688 3006 2838 
Q 2863 3084 2475 3084 
Q 2009 3084 1681 2788 
Q 1356 2491 1256 1978 
L 872 0 
L 294 0 
L 1066 3969 
L 675 3969 
L 775 4481 
L 1166 4481 
L 1238 4863 
L 1816 4863 
L 1744 4481 
L 2844 4481 
L 2744 3969 
L 1644 3969 
L 1447 2956 
Q 1713 3272 2025 3428 
Q 2331 3584 2700 3584 
Q 3300 3584 3538 3213 
Q 3688 2975 3688 2606 
Q 3688 2381 3634 2113 
z
" transform="scale(0.015625)"/>
      </defs>
      <use xlink:href="#DejaVuSans-Oblique-4b" transform="translate(0 0.015625)"/>
      <use xlink:href="#DejaVuSans-Oblique-42" transform="translate(65.576172 -16.390625) scale(0.7)"/>
      <use xlink:href="#DejaVuSans-Oblique-54" transform="translate(116.333008 0.015625)"/>
      <use xlink:href="#DejaVuSans-20" transform="translate(177.416992 0.015625)"/>
      <use xlink:href="#DejaVuSans-28" transform="translate(209.204102 0.015625)"/>
      <use xlink:href="#DejaVuSans-75" transform="translate(248.217773 0.015625)"/>
      <use xlink:href="#DejaVuSans-6e" transform="translate(311.59668 0.015625)"/>
      <use xlink:href="#DejaVuSans-69" transform="translate(374.975586 0.015625)"/>
      <use xlink:href="#DejaVuSans-74" transform="translate(402.758789 0.015625)"/>
      <use xlink:href="#DejaVuSans-73" transform="translate(441.967773 0.015625)"/>
      <use xlink:href="#DejaVuSans-20" transform="translate(494.067383 0.015625)"/>
      <use xlink:href="#DejaVuSans-6f" transform="translate(525.854492 0.015625)"/>
      <use xlink:href="#DejaVuSans-66" transform="translate(587.036133 0.015625)"/>
      <use xlink:href="#DejaVuSans-20" transform="translate(622.241211 0.015625)"/>
      <use xlink:href="#DejaVuSans-Oblique-127" transform="translate(654.02832 0.015625)"/>
      <use xlink:href="#DejaVuSans-Oblique-3c9" transform="translate(723.510742 0.015625)"/>
      <use xlink:href="#DejaVuSans-72" transform="translate(807.250977 -16.390625) scale(0.7)"/>
      <use xlink:href="#DejaVuSans-20" transform="translate(838.764648 0.015625)"/>
      <use xlink:href="#DejaVuSans-29" transform="translate(870.551758 0.015625)"/>
     </g>
    </g>
   </g>
   <g id="line2d_34">
    <path d="M -1 120.898262 
L 69.134455 120.898749 
L 109.591494 121.577481 
L 133.257345 122.243525 
L 150.048534 122.82842 
L 173.714385 123.974995 
L 197.380236 125.462336 
L 214.171425 126.825296 
L 227.195683 128.265375 
L 237.837276 129.601145 
L 246.834615 130.842588 
L 252.14438 131.686551 
L 271.419653 135.120183 
L 296.288994 140.970987 
L 299.757371 142.053684 
L 305.115918 143.697314 
L 312.781628 145.971502 
L 331.775613 152.309385 
L 337.338599 154.573044 
L 338.505981 155.035257 
L 342.955157 157.036783 
L 345.058706 157.835463 
L 347.585818 158.987859 
L 349.051179 159.633412 
L 351.414546 160.701048 
L 352.787954 161.249173 
L 361.978883 165.701527 
L 364.623802 167.104312 
L 366.083058 167.917234 
L 367.154045 168.474649 
L 372.556017 171.341995 
L 374.459463 172.38854 
L 376.30279 173.415988 
L 378.08968 174.464873 
L 382.874246 177.21179 
L 384.735772 178.267608 
L 385.773438 178.832335 
L 387.045104 179.73421 
L 391.172569 182.393366 
L 392.332988 183.210657 
L 393.018325 183.648894 
L 394.142968 184.415649 
L 403.203922 190.170741 
L 404.524076 191.074294 
L 405.44909 191.72908 
L 406.359673 192.497528 
L 406.719966 192.647092 
L 408.314312 194.004133 
L 408.662774 194.234394 
L 409.353518 194.718309 
L 410.710955 195.68622 
L 411.543596 196.238309 
L 413.49477 197.598783 
L 414.13093 198.123526 
L 414.446429 198.328436 
L 415.382821 198.95504 
L 415.998839 199.415846 
L 416.75983 199.955301 
L 417.361559 200.485619 
L 417.957147 200.962615 
L 419.275408 202.206147 
L 419.564355 202.387217 
L 419.995111 202.825034 
L 420.422711 203.140599 
L 421.408429 203.967434 
L 423.19602 205.212288 
L 425.453962 207.092063 
L 426.101773 207.687895 
L 426.487037 207.983127 
L 427.123544 208.490342 
L 428.127735 209.288934 
L 428.99245 210.064888 
L 429.723572 210.621268 
L 430.565132 211.282275 
L 431.39473 211.911836 
L 431.863545 212.247498 
L 431.863545 212.247498 
" clip-path="url(#p4fe9c28c47)" style="fill: none; stroke: #1f77b4; stroke-width: 1.5; stroke-linecap: square"/>
   </g>
   <g id="patch_3">
    <path d="M 50.998 296.636 
L 50.998 27.08896 
" style="fill: none; stroke: #000000; stroke-width: 0.8; stroke-linejoin: miter; stroke-linecap: square"/>
   </g>
   <g id="patch_4">
    <path d="M 450 296.636 
L 450 27.08896 
" style="fill: none; stroke: #000000; stroke-width: 0.8; stroke-linejoin: miter; stroke-linecap: square"/>
   </g>
   <g id="patch_5">
    <path d="M 50.998 296.636 
L 450 296.636 
" style="fill: none; stroke: #000000; stroke-width: 0.8; stroke-linejoin: miter; stroke-linecap: square"/>
   </g>
   <g id="patch_6">
    <path d="M 50.998 27.08896 
L 450 27.08896 
" style="fill: none; stroke: #000000; stroke-width: 0.8; stroke-linejoin: miter; stroke-linecap: square"/>
   </g>
   <g id="legend_1">
    <g id="patch_7">
     <path d="M 137.7984 28.203322 
L 220.9984 28.203322 
Q 222.9984 28.203322 222.9984 26.203322 
L 222.9984 12.525197 
Q 222.9984 10.525197 220.9984 10.525197 
L 137.7984 10.525197 
Q 135.7984 10.525197 135.7984 12.525197 
L 135.7984 26.203322 
Q 135.7984 28.203322 137.7984 28.203322 
z
" style="fill: #ffffff; stroke: #cccccc; stroke-linejoin: miter"/>
    </g>
    <g id="line2d_35">
     <path d="M 139.7984 18.623634 
L 152.2984 18.623634 
L 164.7984 18.623634 
" style="fill: none; stroke: #1f77b4; stroke-width: 1.5; stroke-linecap: square"/>
    </g>
    <g id="text_13">
     <!-- $N_{at}= 100$ -->
     <g transform="translate(172.7984 22.123634) scale(0.1 -0.1)">
      <defs>
       <path id="DejaVuSans-Oblique-4e" d="M 1081 4666 
L 1931 4666 
L 3219 666 
L 4000 4666 
L 4616 4666 
L 3706 0 
L 2853 0 
L 1569 4025 
L 788 0 
L 172 0 
L 1081 4666 
z
" transform="scale(0.015625)"/>
       <path id="DejaVuSans-Oblique-61" d="M 3438 1997 
L 3047 0 
L 2472 0 
L 2578 531 
Q 2325 219 2001 64 
Q 1678 -91 1281 -91 
Q 834 -91 548 182 
Q 263 456 263 884 
Q 263 1497 752 1853 
Q 1241 2209 2100 2209 
L 2900 2209 
L 2931 2363 
Q 2938 2388 2941 2417 
Q 2944 2447 2944 2509 
Q 2944 2788 2717 2942 
Q 2491 3097 2081 3097 
Q 1800 3097 1504 3025 
Q 1209 2953 897 2809 
L 997 3341 
Q 1322 3463 1633 3523 
Q 1944 3584 2234 3584 
Q 2853 3584 3176 3315 
Q 3500 3047 3500 2534 
Q 3500 2431 3484 2292 
Q 3469 2153 3438 1997 
z
M 2816 1759 
L 2241 1759 
Q 1534 1759 1195 1570 
Q 856 1381 856 984 
Q 856 709 1029 553 
Q 1203 397 1509 397 
Q 1978 397 2328 733 
Q 2678 1069 2791 1631 
L 2816 1759 
z
" transform="scale(0.015625)"/>
       <path id="DejaVuSans-Oblique-74" d="M 2706 3500 
L 2619 3053 
L 1472 3053 
L 1100 1153 
Q 1081 1047 1072 975 
Q 1063 903 1063 863 
Q 1063 663 1183 572 
Q 1303 481 1569 481 
L 2150 481 
L 2053 0 
L 1503 0 
Q 991 0 739 200 
Q 488 400 488 806 
Q 488 878 497 964 
Q 506 1050 525 1153 
L 897 3053 
L 409 3053 
L 500 3500 
L 978 3500 
L 1172 4494 
L 1747 4494 
L 1556 3500 
L 2706 3500 
z
" transform="scale(0.015625)"/>
       <path id="DejaVuSans-3d" d="M 678 2906 
L 4684 2906 
L 4684 2381 
L 678 2381 
L 678 2906 
z
M 678 1631 
L 4684 1631 
L 4684 1100 
L 678 1100 
L 678 1631 
z
" transform="scale(0.015625)"/>
      </defs>
      <use xlink:href="#DejaVuSans-Oblique-4e" transform="translate(0 0.78125)"/>
      <use xlink:href="#DejaVuSans-Oblique-61" transform="translate(74.804688 -15.625) scale(0.7)"/>
      <use xlink:href="#DejaVuSans-Oblique-74" transform="translate(117.700195 -15.625) scale(0.7)"/>
      <use xlink:href="#DejaVuSans-3d" transform="translate(167.363281 0.78125)"/>
      <use xlink:href="#DejaVuSans-31" transform="translate(270.634766 0.78125)"/>
      <use xlink:href="#DejaVuSans-30" transform="translate(334.257812 0.78125)"/>
      <use xlink:href="#DejaVuSans-30" transform="translate(397.880859 0.78125)"/>
     </g>
    </g>
   </g>
  </g>
 </g>
 <defs>
  <clipPath id="p4fe9c28c47">
   <rect x="50.998" y="27.08896" width="399.002" height="269.54704"/>
  </clipPath>
 </defs>
</svg>
