<?xml version="1.0" encoding="utf-8" standalone="no"?>
<!DOCTYPE svg PUBLIC "-//W3C//DTD SVG 1.1//EN"
  "http://www.w3.org/Graphics/SVG/1.1/DTD/svg11.dtd">
<svg xmlns:xlink="http://www.w3.org/1999/xlink" width="244.8pt" height="525.6pt" viewBox="0 0 244.8 525.6" xmlns="http://www.w3.org/2000/svg" version="1.1">
 <metadata>
  <rdf:RDF xmlns:dc="http://purl.org/dc/elements/1.1/" xmlns:cc="http://creativecommons.org/ns#" xmlns:rdf="http://www.w3.org/1999/02/22-rdf-syntax-ns#">
   <cc:Work>
    <dc:type rdf:resource="http://purl.org/dc/dcmitype/StillImage"/>
    <dc:date>2024-02-06T15:31:36.663441</dc:date>
    <dc:format>image/svg+xml</dc:format>
    <dc:creator>
     <cc:Agent>
      <dc:title>Matplotlib v3.8.2, https://matplotlib.org/</dc:title>
     </cc:Agent>
    </dc:creator>
   </cc:Work>
  </rdf:RDF>
 </metadata>
 <defs>
  <style type="text/css">*{stroke-linejoin: round; stroke-linecap: butt}</style>
 </defs>
 <g id="figure_1">
  <g id="patch_1">
   <path d="M 0 525.6 
L 244.8 525.6 
L 244.8 0 
L 0 0 
z
" style="fill: #ffffff"/>
  </g>
  <g id="axes_1">
   <g id="patch_2">
    <path d="M 53.282 126.323852 
L 201.981693 126.323852 
L 201.981693 12.83847 
L 53.282 12.83847 
z
" style="fill: #ffffff"/>
   </g>
   <g id="PolyCollection_1">
    <defs>
     <path id="m0bfdc151ed" d="M 60.041077 -405.097133 
L 60.041077 -404.441015 
L 62.498923 -404.434574 
L 64.956769 -404.435897 
L 67.414615 -404.439007 
L 69.872462 -404.440094 
L 72.330308 -404.437217 
L 74.788154 -404.438481 
L 77.246 -404.436974 
L 79.703846 -404.440739 
L 82.161693 -404.441135 
L 84.619539 -404.446786 
L 84.619539 -405.40821 
L 84.619539 -405.40821 
L 82.161693 -405.354199 
L 79.703846 -405.24113 
L 77.246 -405.258925 
L 74.788154 -405.19302 
L 72.330308 -405.202919 
L 69.872462 -405.112805 
L 67.414615 -405.161902 
L 64.956769 -405.099254 
L 62.498923 -405.109827 
L 60.041077 -405.097133 
z
" style="stroke: #ff7f0e; stroke-opacity: 0.2; stroke-width: 0.1"/>
    </defs>
    <g clip-path="url(#p7a6c087706)">
     <use xlink:href="#m0bfdc151ed" x="0" y="525.6" style="fill: #ff7f0e; fill-opacity: 0.2; stroke: #ff7f0e; stroke-opacity: 0.2; stroke-width: 0.1"/>
    </g>
   </g>
   <g id="PolyCollection_2">
    <defs>
     <path id="mfd67b20c0f" d="M 87.077385 -405.592535 
L 87.077385 -404.44577 
L 89.535231 -404.447664 
L 91.993077 -404.449866 
L 94.450923 -404.447453 
L 96.90877 -404.449137 
L 99.366616 -404.466444 
L 101.824462 -404.460323 
L 104.282308 -404.482559 
L 106.740154 -404.500088 
L 109.198 -404.542681 
L 111.655847 -404.59443 
L 114.113693 -404.70676 
L 116.571539 -404.938825 
L 119.029385 -405.311465 
L 121.487231 -405.599986 
L 121.487231 -420.222987 
L 121.487231 -420.222987 
L 119.029385 -418.86505 
L 116.571539 -416.476743 
L 114.113693 -415.00625 
L 111.655847 -413.759447 
L 109.198 -412.653613 
L 106.740154 -410.517218 
L 104.282308 -410.150341 
L 101.824462 -408.418922 
L 99.366616 -407.73465 
L 96.90877 -406.82422 
L 94.450923 -406.18064 
L 91.993077 -406.005576 
L 89.535231 -405.782168 
L 87.077385 -405.592535 
z
" style="stroke: #2ca02c; stroke-opacity: 0.2; stroke-width: 0.1"/>
    </defs>
    <g clip-path="url(#p7a6c087706)">
     <use xlink:href="#mfd67b20c0f" x="0" y="525.6" style="fill: #2ca02c; fill-opacity: 0.2; stroke: #2ca02c; stroke-opacity: 0.2; stroke-width: 0.1"/>
    </g>
   </g>
   <g id="PolyCollection_3">
    <defs>
     <path id="mfc4fa38303" d="M 123.945077 -422.515274 
L 123.945077 -407.132969 
L 126.402924 -407.577017 
L 128.86077 -408.674372 
L 131.318616 -409.886849 
L 133.776462 -410.639684 
L 136.234308 -411.950825 
L 138.692154 -412.363788 
L 141.150001 -413.787048 
L 143.607847 -415.57397 
L 146.065693 -417.889777 
L 148.523539 -419.117453 
L 150.981385 -420.436372 
L 153.439231 -421.831732 
L 155.897078 -423.726793 
L 158.354924 -424.628381 
L 158.354924 -457.060409 
L 158.354924 -457.060409 
L 155.897078 -454.357932 
L 153.439231 -451.066442 
L 150.981385 -448.599248 
L 148.523539 -446.977251 
L 146.065693 -442.704408 
L 143.607847 -440.870723 
L 141.150001 -438.163513 
L 138.692154 -435.082209 
L 136.234308 -433.005857 
L 133.776462 -430.455707 
L 131.318616 -428.802233 
L 128.86077 -426.223057 
L 126.402924 -424.317357 
L 123.945077 -422.515274 
z
" style="stroke: #d62728; stroke-opacity: 0.2; stroke-width: 0.1"/>
    </defs>
    <g clip-path="url(#p7a6c087706)">
     <use xlink:href="#mfc4fa38303" x="0" y="525.6" style="fill: #d62728; fill-opacity: 0.2; stroke: #d62728; stroke-opacity: 0.2; stroke-width: 0.1"/>
    </g>
   </g>
   <g id="PolyCollection_4">
    <defs>
     <path id="m7762799dae" d="M 160.81277 -461.396113 
L 160.81277 -426.306504 
L 163.270616 -428.29006 
L 165.728462 -430.324204 
L 168.186309 -432.4984 
L 170.644155 -432.578294 
L 173.102001 -435.596711 
L 175.559847 -439.444946 
L 178.017693 -440.19274 
L 180.475539 -442.884803 
L 182.933386 -442.975378 
L 185.391232 -445.794777 
L 187.849078 -448.87846 
L 190.306924 -450.558382 
L 192.76477 -452.711396 
L 195.222616 -456.134643 
L 195.222616 -507.603104 
L 195.222616 -507.603104 
L 192.76477 -502.414732 
L 190.306924 -499.857145 
L 187.849078 -497.079231 
L 185.391232 -492.097651 
L 182.933386 -487.039089 
L 180.475539 -484.932649 
L 178.017693 -482.367454 
L 175.559847 -479.25339 
L 173.102001 -476.33365 
L 170.644155 -471.389553 
L 168.186309 -470.951552 
L 165.728462 -466.202855 
L 163.270616 -463.168127 
L 160.81277 -461.396113 
z
" style="stroke: #9467bd; stroke-opacity: 0.2; stroke-width: 0.1"/>
    </defs>
    <g clip-path="url(#p7a6c087706)">
     <use xlink:href="#m7762799dae" x="0" y="525.6" style="fill: #9467bd; fill-opacity: 0.2; stroke: #9467bd; stroke-opacity: 0.2; stroke-width: 0.1"/>
    </g>
   </g>
   <g id="matplotlib.axis_1">
    <g id="xtick_1">
     <g id="line2d_1">
      <defs>
       <path id="m5823bf3036" d="M 0 0 
L 0 3.5 
" style="stroke: #000000; stroke-width: 0.8"/>
      </defs>
      <g>
       <use xlink:href="#m5823bf3036" x="96.90877" y="126.323852" style="stroke: #000000; stroke-width: 0.8"/>
      </g>
     </g>
    </g>
    <g id="xtick_2">
     <g id="line2d_2">
      <g>
       <use xlink:href="#m5823bf3036" x="146.065693" y="126.323852" style="stroke: #000000; stroke-width: 0.8"/>
      </g>
     </g>
    </g>
    <g id="xtick_3">
     <g id="line2d_3">
      <g>
       <use xlink:href="#m5823bf3036" x="195.222616" y="126.323852" style="stroke: #000000; stroke-width: 0.8"/>
      </g>
     </g>
    </g>
   </g>
   <g id="matplotlib.axis_2">
    <g id="ytick_1">
     <g id="line2d_4">
      <defs>
       <path id="m8ea36c251f" d="M 0 0 
L -3.5 0 
" style="stroke: #000000; stroke-width: 0.8"/>
      </defs>
      <g>
       <use xlink:href="#m8ea36c251f" x="53.282" y="121.174797" style="stroke: #000000; stroke-width: 0.8"/>
      </g>
     </g>
     <g id="text_1">
      <!-- 0 -->
      <g transform="translate(39.9195 124.974016) scale(0.1 -0.1)">
       <defs>
        <path id="DejaVuSans-30" d="M 2034 4250 
Q 1547 4250 1301 3770 
Q 1056 3291 1056 2328 
Q 1056 1369 1301 889 
Q 1547 409 2034 409 
Q 2525 409 2770 889 
Q 3016 1369 3016 2328 
Q 3016 3291 2770 3770 
Q 2525 4250 2034 4250 
z
M 2034 4750 
Q 2819 4750 3233 4129 
Q 3647 3509 3647 2328 
Q 3647 1150 3233 529 
Q 2819 -91 2034 -91 
Q 1250 -91 836 529 
Q 422 1150 422 2328 
Q 422 3509 836 4129 
Q 1250 4750 2034 4750 
z
" transform="scale(0.015625)"/>
       </defs>
       <use xlink:href="#DejaVuSans-30"/>
      </g>
     </g>
    </g>
    <g id="ytick_2">
     <g id="line2d_5">
      <g>
       <use xlink:href="#m8ea36c251f" x="53.282" y="98.130944" style="stroke: #000000; stroke-width: 0.8"/>
      </g>
     </g>
     <g id="text_2">
      <!-- 2 -->
      <g transform="translate(39.9195 101.930163) scale(0.1 -0.1)">
       <defs>
        <path id="DejaVuSans-32" d="M 1228 531 
L 3431 531 
L 3431 0 
L 469 0 
L 469 531 
Q 828 903 1448 1529 
Q 2069 2156 2228 2338 
Q 2531 2678 2651 2914 
Q 2772 3150 2772 3378 
Q 2772 3750 2511 3984 
Q 2250 4219 1831 4219 
Q 1534 4219 1204 4116 
Q 875 4013 500 3803 
L 500 4441 
Q 881 4594 1212 4672 
Q 1544 4750 1819 4750 
Q 2544 4750 2975 4387 
Q 3406 4025 3406 3419 
Q 3406 3131 3298 2873 
Q 3191 2616 2906 2266 
Q 2828 2175 2409 1742 
Q 1991 1309 1228 531 
z
" transform="scale(0.015625)"/>
       </defs>
       <use xlink:href="#DejaVuSans-32"/>
      </g>
     </g>
    </g>
    <g id="ytick_3">
     <g id="line2d_6">
      <g>
       <use xlink:href="#m8ea36c251f" x="53.282" y="75.087092" style="stroke: #000000; stroke-width: 0.8"/>
      </g>
     </g>
     <g id="text_3">
      <!-- 4 -->
      <g transform="translate(39.9195 78.886311) scale(0.1 -0.1)">
       <defs>
        <path id="DejaVuSans-34" d="M 2419 4116 
L 825 1625 
L 2419 1625 
L 2419 4116 
z
M 2253 4666 
L 3047 4666 
L 3047 1625 
L 3713 1625 
L 3713 1100 
L 3047 1100 
L 3047 0 
L 2419 0 
L 2419 1100 
L 313 1100 
L 313 1709 
L 2253 4666 
z
" transform="scale(0.015625)"/>
       </defs>
       <use xlink:href="#DejaVuSans-34"/>
      </g>
     </g>
    </g>
    <g id="ytick_4">
     <g id="line2d_7">
      <g>
       <use xlink:href="#m8ea36c251f" x="53.282" y="52.043239" style="stroke: #000000; stroke-width: 0.8"/>
      </g>
     </g>
     <g id="text_4">
      <!-- 6 -->
      <g transform="translate(39.9195 55.842458) scale(0.1 -0.1)">
       <defs>
        <path id="DejaVuSans-36" d="M 2113 2584 
Q 1688 2584 1439 2293 
Q 1191 2003 1191 1497 
Q 1191 994 1439 701 
Q 1688 409 2113 409 
Q 2538 409 2786 701 
Q 3034 994 3034 1497 
Q 3034 2003 2786 2293 
Q 2538 2584 2113 2584 
z
M 3366 4563 
L 3366 3988 
Q 3128 4100 2886 4159 
Q 2644 4219 2406 4219 
Q 1781 4219 1451 3797 
Q 1122 3375 1075 2522 
Q 1259 2794 1537 2939 
Q 1816 3084 2150 3084 
Q 2853 3084 3261 2657 
Q 3669 2231 3669 1497 
Q 3669 778 3244 343 
Q 2819 -91 2113 -91 
Q 1303 -91 875 529 
Q 447 1150 447 2328 
Q 447 3434 972 4092 
Q 1497 4750 2381 4750 
Q 2619 4750 2861 4703 
Q 3103 4656 3366 4563 
z
" transform="scale(0.015625)"/>
       </defs>
       <use xlink:href="#DejaVuSans-36"/>
      </g>
     </g>
    </g>
    <g id="ytick_5">
     <g id="line2d_8">
      <g>
       <use xlink:href="#m8ea36c251f" x="53.282" y="28.999387" style="stroke: #000000; stroke-width: 0.8"/>
      </g>
     </g>
     <g id="text_5">
      <!-- 8 -->
      <g transform="translate(39.9195 32.798605) scale(0.1 -0.1)">
       <defs>
        <path id="DejaVuSans-38" d="M 2034 2216 
Q 1584 2216 1326 1975 
Q 1069 1734 1069 1313 
Q 1069 891 1326 650 
Q 1584 409 2034 409 
Q 2484 409 2743 651 
Q 3003 894 3003 1313 
Q 3003 1734 2745 1975 
Q 2488 2216 2034 2216 
z
M 1403 2484 
Q 997 2584 770 2862 
Q 544 3141 544 3541 
Q 544 4100 942 4425 
Q 1341 4750 2034 4750 
Q 2731 4750 3128 4425 
Q 3525 4100 3525 3541 
Q 3525 3141 3298 2862 
Q 3072 2584 2669 2484 
Q 3125 2378 3379 2068 
Q 3634 1759 3634 1313 
Q 3634 634 3220 271 
Q 2806 -91 2034 -91 
Q 1263 -91 848 271 
Q 434 634 434 1313 
Q 434 1759 690 2068 
Q 947 2378 1403 2484 
z
M 1172 3481 
Q 1172 3119 1398 2916 
Q 1625 2713 2034 2713 
Q 2441 2713 2670 2916 
Q 2900 3119 2900 3481 
Q 2900 3844 2670 4047 
Q 2441 4250 2034 4250 
Q 1625 4250 1398 4047 
Q 1172 3844 1172 3481 
z
" transform="scale(0.015625)"/>
       </defs>
       <use xlink:href="#DejaVuSans-38"/>
      </g>
     </g>
    </g>
    <g id="text_6">
     <!-- cavity population $|\alpha|^2/N_\mathrm{at}$ -->
     <g transform="translate(33.5195 132.631161) rotate(-90) scale(0.1 -0.1)">
      <defs>
       <path id="DejaVuSans-63" d="M 3122 3366 
L 3122 2828 
Q 2878 2963 2633 3030 
Q 2388 3097 2138 3097 
Q 1578 3097 1268 2742 
Q 959 2388 959 1747 
Q 959 1106 1268 751 
Q 1578 397 2138 397 
Q 2388 397 2633 464 
Q 2878 531 3122 666 
L 3122 134 
Q 2881 22 2623 -34 
Q 2366 -91 2075 -91 
Q 1284 -91 818 406 
Q 353 903 353 1747 
Q 353 2603 823 3093 
Q 1294 3584 2113 3584 
Q 2378 3584 2631 3529 
Q 2884 3475 3122 3366 
z
" transform="scale(0.015625)"/>
       <path id="DejaVuSans-61" d="M 2194 1759 
Q 1497 1759 1228 1600 
Q 959 1441 959 1056 
Q 959 750 1161 570 
Q 1363 391 1709 391 
Q 2188 391 2477 730 
Q 2766 1069 2766 1631 
L 2766 1759 
L 2194 1759 
z
M 3341 1997 
L 3341 0 
L 2766 0 
L 2766 531 
Q 2569 213 2275 61 
Q 1981 -91 1556 -91 
Q 1019 -91 701 211 
Q 384 513 384 1019 
Q 384 1609 779 1909 
Q 1175 2209 1959 2209 
L 2766 2209 
L 2766 2266 
Q 2766 2663 2505 2880 
Q 2244 3097 1772 3097 
Q 1472 3097 1187 3025 
Q 903 2953 641 2809 
L 641 3341 
Q 956 3463 1253 3523 
Q 1550 3584 1831 3584 
Q 2591 3584 2966 3190 
Q 3341 2797 3341 1997 
z
" transform="scale(0.015625)"/>
       <path id="DejaVuSans-76" d="M 191 3500 
L 800 3500 
L 1894 563 
L 2988 3500 
L 3597 3500 
L 2284 0 
L 1503 0 
L 191 3500 
z
" transform="scale(0.015625)"/>
       <path id="DejaVuSans-69" d="M 603 3500 
L 1178 3500 
L 1178 0 
L 603 0 
L 603 3500 
z
M 603 4863 
L 1178 4863 
L 1178 4134 
L 603 4134 
L 603 4863 
z
" transform="scale(0.015625)"/>
       <path id="DejaVuSans-74" d="M 1172 4494 
L 1172 3500 
L 2356 3500 
L 2356 3053 
L 1172 3053 
L 1172 1153 
Q 1172 725 1289 603 
Q 1406 481 1766 481 
L 2356 481 
L 2356 0 
L 1766 0 
Q 1100 0 847 248 
Q 594 497 594 1153 
L 594 3053 
L 172 3053 
L 172 3500 
L 594 3500 
L 594 4494 
L 1172 4494 
z
" transform="scale(0.015625)"/>
       <path id="DejaVuSans-79" d="M 2059 -325 
Q 1816 -950 1584 -1140 
Q 1353 -1331 966 -1331 
L 506 -1331 
L 506 -850 
L 844 -850 
Q 1081 -850 1212 -737 
Q 1344 -625 1503 -206 
L 1606 56 
L 191 3500 
L 800 3500 
L 1894 763 
L 2988 3500 
L 3597 3500 
L 2059 -325 
z
" transform="scale(0.015625)"/>
       <path id="DejaVuSans-20" transform="scale(0.015625)"/>
       <path id="DejaVuSans-70" d="M 1159 525 
L 1159 -1331 
L 581 -1331 
L 581 3500 
L 1159 3500 
L 1159 2969 
Q 1341 3281 1617 3432 
Q 1894 3584 2278 3584 
Q 2916 3584 3314 3078 
Q 3713 2572 3713 1747 
Q 3713 922 3314 415 
Q 2916 -91 2278 -91 
Q 1894 -91 1617 61 
Q 1341 213 1159 525 
z
M 3116 1747 
Q 3116 2381 2855 2742 
Q 2594 3103 2138 3103 
Q 1681 3103 1420 2742 
Q 1159 2381 1159 1747 
Q 1159 1113 1420 752 
Q 1681 391 2138 391 
Q 2594 391 2855 752 
Q 3116 1113 3116 1747 
z
" transform="scale(0.015625)"/>
       <path id="DejaVuSans-6f" d="M 1959 3097 
Q 1497 3097 1228 2736 
Q 959 2375 959 1747 
Q 959 1119 1226 758 
Q 1494 397 1959 397 
Q 2419 397 2687 759 
Q 2956 1122 2956 1747 
Q 2956 2369 2687 2733 
Q 2419 3097 1959 3097 
z
M 1959 3584 
Q 2709 3584 3137 3096 
Q 3566 2609 3566 1747 
Q 3566 888 3137 398 
Q 2709 -91 1959 -91 
Q 1206 -91 779 398 
Q 353 888 353 1747 
Q 353 2609 779 3096 
Q 1206 3584 1959 3584 
z
" transform="scale(0.015625)"/>
       <path id="DejaVuSans-75" d="M 544 1381 
L 544 3500 
L 1119 3500 
L 1119 1403 
Q 1119 906 1312 657 
Q 1506 409 1894 409 
Q 2359 409 2629 706 
Q 2900 1003 2900 1516 
L 2900 3500 
L 3475 3500 
L 3475 0 
L 2900 0 
L 2900 538 
Q 2691 219 2414 64 
Q 2138 -91 1772 -91 
Q 1169 -91 856 284 
Q 544 659 544 1381 
z
M 1991 3584 
L 1991 3584 
z
" transform="scale(0.015625)"/>
       <path id="DejaVuSans-6c" d="M 603 4863 
L 1178 4863 
L 1178 0 
L 603 0 
L 603 4863 
z
" transform="scale(0.015625)"/>
       <path id="DejaVuSans-6e" d="M 3513 2113 
L 3513 0 
L 2938 0 
L 2938 2094 
Q 2938 2591 2744 2837 
Q 2550 3084 2163 3084 
Q 1697 3084 1428 2787 
Q 1159 2491 1159 1978 
L 1159 0 
L 581 0 
L 581 3500 
L 1159 3500 
L 1159 2956 
Q 1366 3272 1645 3428 
Q 1925 3584 2291 3584 
Q 2894 3584 3203 3211 
Q 3513 2838 3513 2113 
z
" transform="scale(0.015625)"/>
       <path id="DejaVuSans-7c" d="M 1344 4891 
L 1344 -1509 
L 813 -1509 
L 813 4891 
L 1344 4891 
z
" transform="scale(0.015625)"/>
       <path id="DejaVuSans-Oblique-3b1" d="M 2619 1628 
L 2622 2350 
Q 2625 3088 2069 3091 
Q 1653 3094 1394 2747 
Q 1069 2319 959 1747 
Q 825 1059 994 731 
Q 1169 397 1547 397 
Q 1966 397 2319 1063 
L 2619 1628 
z
M 2166 3578 
Q 3141 3594 3128 2584 
Q 3128 2584 3616 3500 
L 4128 3500 
L 3119 1603 
L 3109 919 
Q 3109 766 3194 638 
Q 3291 488 3391 488 
L 3669 488 
L 3575 0 
L 3228 0 
Q 2934 0 2722 263 
Q 2622 394 2619 669 
Q 2416 334 2066 50 
Q 1900 -81 1453 -78 
Q 722 -72 456 397 
Q 184 884 353 1747 
Q 534 2675 1009 3097 
Q 1544 3569 2166 3578 
z
" transform="scale(0.015625)"/>
       <path id="DejaVuSans-2f" d="M 1625 4666 
L 2156 4666 
L 531 -594 
L 0 -594 
L 1625 4666 
z
" transform="scale(0.015625)"/>
       <path id="DejaVuSans-Oblique-4e" d="M 1081 4666 
L 1931 4666 
L 3219 666 
L 4000 4666 
L 4616 4666 
L 3706 0 
L 2853 0 
L 1569 4025 
L 788 0 
L 172 0 
L 1081 4666 
z
" transform="scale(0.015625)"/>
      </defs>
      <use xlink:href="#DejaVuSans-63" transform="translate(0 0.765625)"/>
      <use xlink:href="#DejaVuSans-61" transform="translate(54.980469 0.765625)"/>
      <use xlink:href="#DejaVuSans-76" transform="translate(116.259766 0.765625)"/>
      <use xlink:href="#DejaVuSans-69" transform="translate(175.439453 0.765625)"/>
      <use xlink:href="#DejaVuSans-74" transform="translate(203.222656 0.765625)"/>
      <use xlink:href="#DejaVuSans-79" transform="translate(242.431641 0.765625)"/>
      <use xlink:href="#DejaVuSans-20" transform="translate(301.611328 0.765625)"/>
      <use xlink:href="#DejaVuSans-70" transform="translate(333.398438 0.765625)"/>
      <use xlink:href="#DejaVuSans-6f" transform="translate(396.875 0.765625)"/>
      <use xlink:href="#DejaVuSans-70" transform="translate(458.056641 0.765625)"/>
      <use xlink:href="#DejaVuSans-75" transform="translate(521.533203 0.765625)"/>
      <use xlink:href="#DejaVuSans-6c" transform="translate(584.912109 0.765625)"/>
      <use xlink:href="#DejaVuSans-61" transform="translate(612.695312 0.765625)"/>
      <use xlink:href="#DejaVuSans-74" transform="translate(673.974609 0.765625)"/>
      <use xlink:href="#DejaVuSans-69" transform="translate(713.183594 0.765625)"/>
      <use xlink:href="#DejaVuSans-6f" transform="translate(740.966797 0.765625)"/>
      <use xlink:href="#DejaVuSans-6e" transform="translate(802.148438 0.765625)"/>
      <use xlink:href="#DejaVuSans-20" transform="translate(865.527344 0.765625)"/>
      <use xlink:href="#DejaVuSans-7c" transform="translate(897.314453 0.765625)"/>
      <use xlink:href="#DejaVuSans-Oblique-3b1" transform="translate(931.005859 0.765625)"/>
      <use xlink:href="#DejaVuSans-7c" transform="translate(996.923828 0.765625)"/>
      <use xlink:href="#DejaVuSans-32" transform="translate(1031.572266 39.046875) scale(0.7)"/>
      <use xlink:href="#DejaVuSans-2f" transform="translate(1078.842773 0.765625)"/>
      <use xlink:href="#DejaVuSans-Oblique-4e" transform="translate(1112.53418 0.765625)"/>
      <use xlink:href="#DejaVuSans-61" transform="translate(1187.338867 -15.640625) scale(0.7)"/>
      <use xlink:href="#DejaVuSans-74" transform="translate(1230.234375 -15.640625) scale(0.7)"/>
     </g>
    </g>
   </g>
   <g id="line2d_9">
    <path d="M 60.041077 120.942407 
L 62.498923 120.939281 
L 64.956769 120.943395 
L 67.414615 120.920648 
L 69.872462 120.931532 
L 72.330308 120.917047 
L 74.788154 120.915871 
L 77.246 120.89643 
L 79.703846 120.896715 
L 82.161693 120.867266 
L 84.619539 120.846254 
" clip-path="url(#p7a6c087706)" style="fill: none; stroke: #ff7f0e; stroke-width: 1.5; stroke-linecap: square"/>
   </g>
   <g id="line2d_10">
    <path d="M 87.077385 120.792244 
L 89.535231 120.756841 
L 91.993077 120.676823 
L 94.450923 120.623489 
L 96.90877 120.456191 
L 99.366616 120.237319 
L 101.824462 119.935466 
L 104.282308 119.450221 
L 106.740154 119.128608 
L 109.198 118.166097 
L 111.655847 117.652813 
L 114.113693 116.728543 
L 116.571539 115.484057 
L 119.029385 114.30738 
L 121.487231 113.15531 
" clip-path="url(#p7a6c087706)" style="fill: none; stroke-dasharray: 5.55,2.4; stroke-dashoffset: 0; stroke: #2ca02c; stroke-width: 1.5"/>
   </g>
   <g id="line2d_11">
    <path d="M 123.945077 111.534188 
L 126.402924 110.149049 
L 128.86077 108.871336 
L 131.318616 106.71512 
L 133.776462 105.394301 
L 136.234308 103.935786 
L 138.692154 102.052853 
L 141.150001 99.824533 
L 143.607847 97.907542 
L 146.065693 95.639004 
L 148.523539 93.597963 
L 150.981385 91.697333 
L 153.439231 89.511561 
L 155.897078 86.955787 
L 158.354924 85.252606 
" clip-path="url(#p7a6c087706)" style="fill: none; stroke-dasharray: 1.5,2.475; stroke-dashoffset: 0; stroke: #d62728; stroke-width: 1.5"/>
   </g>
   <g id="line2d_12">
    <path d="M 160.81277 82.591526 
L 163.270616 80.359377 
L 165.728462 78.022608 
L 168.186309 75.437385 
L 170.644155 73.295563 
L 173.102001 69.991065 
L 175.559847 67.034472 
L 178.017693 64.837239 
L 180.475539 62.723051 
L 182.933386 60.611196 
L 185.391232 56.768735 
L 187.849078 53.976026 
L 190.306924 51.366343 
L 192.76477 48.684616 
L 195.222616 44.916991 
" clip-path="url(#p7a6c087706)" style="fill: none; stroke-dasharray: 9.6,2.4,1.5,2.4; stroke-dashoffset: 0; stroke: #9467bd; stroke-width: 1.5"/>
   </g>
   <g id="patch_3">
    <path d="M 53.282 126.323852 
L 53.282 12.83847 
" style="fill: none; stroke: #000000; stroke-width: 0.8; stroke-linejoin: miter; stroke-linecap: square"/>
   </g>
   <g id="patch_4">
    <path d="M 201.981693 126.323852 
L 201.981693 12.83847 
" style="fill: none; stroke: #000000; stroke-width: 0.8; stroke-linejoin: miter; stroke-linecap: square"/>
   </g>
   <g id="patch_5">
    <path d="M 53.282 126.323852 
L 201.981693 126.323852 
" style="fill: none; stroke: #000000; stroke-width: 0.8; stroke-linejoin: miter; stroke-linecap: square"/>
   </g>
   <g id="patch_6">
    <path d="M 53.282 12.83847 
L 201.981693 12.83847 
" style="fill: none; stroke: #000000; stroke-width: 0.8; stroke-linejoin: miter; stroke-linecap: square"/>
   </g>
   <g id="text_7">
    <!-- (a) -->
    <g transform="translate(60.716985 27.591569) scale(0.1 -0.1)">
     <defs>
      <path id="DejaVuSans-28" d="M 1984 4856 
Q 1566 4138 1362 3434 
Q 1159 2731 1159 2009 
Q 1159 1288 1364 580 
Q 1569 -128 1984 -844 
L 1484 -844 
Q 1016 -109 783 600 
Q 550 1309 550 2009 
Q 550 2706 781 3412 
Q 1013 4119 1484 4856 
L 1984 4856 
z
" transform="scale(0.015625)"/>
      <path id="DejaVuSans-29" d="M 513 4856 
L 1013 4856 
Q 1481 4119 1714 3412 
Q 1947 2706 1947 2009 
Q 1947 1309 1714 600 
Q 1481 -109 1013 -844 
L 513 -844 
Q 928 -128 1133 580 
Q 1338 1288 1338 2009 
Q 1338 2731 1133 3434 
Q 928 4138 513 4856 
z
" transform="scale(0.015625)"/>
     </defs>
     <use xlink:href="#DejaVuSans-28"/>
     <use xlink:href="#DejaVuSans-61" x="39.013672"/>
     <use xlink:href="#DejaVuSans-29" x="100.292969"/>
    </g>
   </g>
   <g id="legend_1">
    <g id="patch_7">
     <path d="M 90.021939 70.472139 
L 264.121939 70.472139 
Q 266.121939 70.472139 266.121939 68.472139 
L 266.121939 10.759639 
Q 266.121939 8.759639 264.121939 8.759639 
L 90.021939 8.759639 
Q 88.021939 8.759639 88.021939 10.759639 
L 88.021939 68.472139 
Q 88.021939 70.472139 90.021939 70.472139 
z
" style="fill: #ffffff; stroke: #cccccc; stroke-linejoin: miter"/>
    </g>
    <g id="line2d_13">
     <path d="M 92.021939 16.858076 
L 104.521939 16.858076 
L 117.021939 16.858076 
" style="fill: none; stroke: #ff7f0e; stroke-width: 1.5; stroke-linecap: square"/>
    </g>
    <g id="text_8">
     <!-- $δD=\kappa/0, Δₑ=\kappa/5, N_{at}=100$ -->
     <g transform="translate(125.021939 20.358076) scale(0.1 -0.1)">
      <defs>
       <path id="DejaVuSans-Oblique-3b4" d="M 3472 4053 
Q 3197 4272 2450 4272 
Q 1659 4272 1588 3906 
Q 1531 3619 2328 3469 
Q 2953 3353 3253 3003 
Q 3616 2581 3447 1716 
Q 3284 888 2763 400 
Q 2238 -91 1488 -91 
Q 741 -91 406 400 
Q 72 888 241 1747 
Q 363 2384 891 2900 
Q 1097 3100 1353 3213 
Q 913 3459 1000 3900 
Q 1166 4750 2544 4750 
Q 3234 4750 3566 4531 
L 3472 4053 
z
M 1753 3056 
Q 1525 2966 1306 2738 
Q 969 2384 847 1747 
Q 722 1113 919 756 
Q 1119 397 1584 397 
Q 2044 397 2381 759 
Q 2722 1122 2838 1716 
Q 2956 2338 2731 2638 
Q 2491 2959 2103 2994 
Q 1906 3013 1753 3056 
z
" transform="scale(0.015625)"/>
       <path id="DejaVuSans-Oblique-44" d="M 1081 4666 
L 2438 4666 
Q 3519 4666 4070 4208 
Q 4622 3750 4622 2847 
Q 4622 2250 4412 1698 
Q 4203 1147 3834 769 
Q 3463 381 2891 190 
Q 2319 0 1538 0 
L 172 0 
L 1081 4666 
z
M 1613 4147 
L 909 519 
L 1734 519 
Q 2794 519 3375 1128 
Q 3956 1738 3956 2847 
Q 3956 3519 3581 3833 
Q 3206 4147 2406 4147 
L 1613 4147 
z
" transform="scale(0.015625)"/>
       <path id="DejaVuSans-3d" d="M 678 2906 
L 4684 2906 
L 4684 2381 
L 678 2381 
L 678 2906 
z
M 678 1631 
L 4684 1631 
L 4684 1100 
L 678 1100 
L 678 1631 
z
" transform="scale(0.015625)"/>
       <path id="DejaVuSans-Oblique-3ba" d="M 938 3500 
L 1531 3500 
L 1247 2047 
L 3041 3500 
L 3741 3500 
L 2106 2181 
L 3275 0 
L 2572 0 
L 1628 1806 
L 1122 1403 
L 850 0 
L 256 0 
L 938 3500 
z
" transform="scale(0.015625)"/>
       <path id="DejaVuSans-2c" d="M 750 794 
L 1409 794 
L 1409 256 
L 897 -744 
L 494 -744 
L 750 256 
L 750 794 
z
" transform="scale(0.015625)"/>
       <path id="DejaVuSans-394" d="M 2188 4044 
L 906 525 
L 3472 525 
L 2188 4044 
z
M 50 0 
L 1831 4666 
L 2547 4666 
L 4325 0 
L 50 0 
z
" transform="scale(0.015625)"/>
       <path id="DejaVuSans-Oblique-2091" d="M 2281 1059 
L 2250 903 
L 584 903 
Q 547 571 713 396 
Q 881 221 1241 221 
Q 1450 221 1656 268 
Q 1859 312 2069 403 
L 2009 100 
Q 1803 25 1588 -13 
Q 1378 -50 1166 -50 
Q 638 -50 384 221 
Q 128 493 219 959 
Q 313 1440 659 1725 
Q 1006 2006 1503 2006 
Q 1947 2006 2156 1753 
Q 2366 1496 2281 1059 
z
M 1938 1156 
Q 1984 1418 1853 1578 
Q 1722 1734 1453 1734 
Q 1150 1734 941 1581 
Q 728 1431 647 1153 
L 1938 1156 
z
" transform="scale(0.015625)"/>
       <path id="DejaVuSans-35" d="M 691 4666 
L 3169 4666 
L 3169 4134 
L 1269 4134 
L 1269 2991 
Q 1406 3038 1543 3061 
Q 1681 3084 1819 3084 
Q 2600 3084 3056 2656 
Q 3513 2228 3513 1497 
Q 3513 744 3044 326 
Q 2575 -91 1722 -91 
Q 1428 -91 1123 -41 
Q 819 9 494 109 
L 494 744 
Q 775 591 1075 516 
Q 1375 441 1709 441 
Q 2250 441 2565 725 
Q 2881 1009 2881 1497 
Q 2881 1984 2565 2268 
Q 2250 2553 1709 2553 
Q 1456 2553 1204 2497 
Q 953 2441 691 2322 
L 691 4666 
z
" transform="scale(0.015625)"/>
       <path id="DejaVuSans-Oblique-61" d="M 3438 1997 
L 3047 0 
L 2472 0 
L 2578 531 
Q 2325 219 2001 64 
Q 1678 -91 1281 -91 
Q 834 -91 548 182 
Q 263 456 263 884 
Q 263 1497 752 1853 
Q 1241 2209 2100 2209 
L 2900 2209 
L 2931 2363 
Q 2938 2388 2941 2417 
Q 2944 2447 2944 2509 
Q 2944 2788 2717 2942 
Q 2491 3097 2081 3097 
Q 1800 3097 1504 3025 
Q 1209 2953 897 2809 
L 997 3341 
Q 1322 3463 1633 3523 
Q 1944 3584 2234 3584 
Q 2853 3584 3176 3315 
Q 3500 3047 3500 2534 
Q 3500 2431 3484 2292 
Q 3469 2153 3438 1997 
z
M 2816 1759 
L 2241 1759 
Q 1534 1759 1195 1570 
Q 856 1381 856 984 
Q 856 709 1029 553 
Q 1203 397 1509 397 
Q 1978 397 2328 733 
Q 2678 1069 2791 1631 
L 2816 1759 
z
" transform="scale(0.015625)"/>
       <path id="DejaVuSans-Oblique-74" d="M 2706 3500 
L 2619 3053 
L 1472 3053 
L 1100 1153 
Q 1081 1047 1072 975 
Q 1063 903 1063 863 
Q 1063 663 1183 572 
Q 1303 481 1569 481 
L 2150 481 
L 2053 0 
L 1503 0 
Q 991 0 739 200 
Q 488 400 488 806 
Q 488 878 497 964 
Q 506 1050 525 1153 
L 897 3053 
L 409 3053 
L 500 3500 
L 978 3500 
L 1172 4494 
L 1747 4494 
L 1556 3500 
L 2706 3500 
z
" transform="scale(0.015625)"/>
       <path id="DejaVuSans-31" d="M 794 531 
L 1825 531 
L 1825 4091 
L 703 3866 
L 703 4441 
L 1819 4666 
L 2450 4666 
L 2450 531 
L 3481 531 
L 3481 0 
L 794 0 
L 794 531 
z
" transform="scale(0.015625)"/>
      </defs>
      <use xlink:href="#DejaVuSans-Oblique-3b4" transform="translate(0 0.78125)"/>
      <use xlink:href="#DejaVuSans-Oblique-44" transform="translate(61.181641 0.78125)"/>
      <use xlink:href="#DejaVuSans-3d" transform="translate(157.666016 0.78125)"/>
      <use xlink:href="#DejaVuSans-Oblique-3ba" transform="translate(260.9375 0.78125)"/>
      <use xlink:href="#DejaVuSans-2f" transform="translate(319.873047 0.78125)"/>
      <use xlink:href="#DejaVuSans-30" transform="translate(353.564453 0.78125)"/>
      <use xlink:href="#DejaVuSans-2c" transform="translate(417.1875 0.78125)"/>
      <use xlink:href="#DejaVuSans-394" transform="translate(468.457031 0.78125)"/>
      <use xlink:href="#DejaVuSans-Oblique-2091" transform="translate(536.865234 0.78125)"/>
      <use xlink:href="#DejaVuSans-3d" transform="translate(598.046875 0.78125)"/>
      <use xlink:href="#DejaVuSans-Oblique-3ba" transform="translate(701.318359 0.78125)"/>
      <use xlink:href="#DejaVuSans-2f" transform="translate(760.253906 0.78125)"/>
      <use xlink:href="#DejaVuSans-35" transform="translate(793.945312 0.78125)"/>
      <use xlink:href="#DejaVuSans-2c" transform="translate(857.568359 0.78125)"/>
      <use xlink:href="#DejaVuSans-Oblique-4e" transform="translate(908.837891 0.78125)"/>
      <use xlink:href="#DejaVuSans-Oblique-61" transform="translate(983.642578 -15.625) scale(0.7)"/>
      <use xlink:href="#DejaVuSans-Oblique-74" transform="translate(1026.538086 -15.625) scale(0.7)"/>
      <use xlink:href="#DejaVuSans-3d" transform="translate(1076.201172 0.78125)"/>
      <use xlink:href="#DejaVuSans-31" transform="translate(1179.472656 0.78125)"/>
      <use xlink:href="#DejaVuSans-30" transform="translate(1243.095703 0.78125)"/>
      <use xlink:href="#DejaVuSans-30" transform="translate(1306.71875 0.78125)"/>
     </g>
    </g>
    <g id="line2d_14">
     <path d="M 92.021939 31.536201 
L 104.521939 31.536201 
L 117.021939 31.536201 
" style="fill: none; stroke-dasharray: 5.55,2.4; stroke-dashoffset: 0; stroke: #2ca02c; stroke-width: 1.5"/>
    </g>
    <g id="text_9">
     <!-- $δD=\kappa/0, Δₑ=\kappa/5, N_{at}=100$ -->
     <g transform="translate(125.021939 35.036201) scale(0.1 -0.1)">
      <use xlink:href="#DejaVuSans-Oblique-3b4" transform="translate(0 0.78125)"/>
      <use xlink:href="#DejaVuSans-Oblique-44" transform="translate(61.181641 0.78125)"/>
      <use xlink:href="#DejaVuSans-3d" transform="translate(157.666016 0.78125)"/>
      <use xlink:href="#DejaVuSans-Oblique-3ba" transform="translate(260.9375 0.78125)"/>
      <use xlink:href="#DejaVuSans-2f" transform="translate(319.873047 0.78125)"/>
      <use xlink:href="#DejaVuSans-30" transform="translate(353.564453 0.78125)"/>
      <use xlink:href="#DejaVuSans-2c" transform="translate(417.1875 0.78125)"/>
      <use xlink:href="#DejaVuSans-394" transform="translate(468.457031 0.78125)"/>
      <use xlink:href="#DejaVuSans-Oblique-2091" transform="translate(536.865234 0.78125)"/>
      <use xlink:href="#DejaVuSans-3d" transform="translate(598.046875 0.78125)"/>
      <use xlink:href="#DejaVuSans-Oblique-3ba" transform="translate(701.318359 0.78125)"/>
      <use xlink:href="#DejaVuSans-2f" transform="translate(760.253906 0.78125)"/>
      <use xlink:href="#DejaVuSans-35" transform="translate(793.945312 0.78125)"/>
      <use xlink:href="#DejaVuSans-2c" transform="translate(857.568359 0.78125)"/>
      <use xlink:href="#DejaVuSans-Oblique-4e" transform="translate(908.837891 0.78125)"/>
      <use xlink:href="#DejaVuSans-Oblique-61" transform="translate(983.642578 -15.625) scale(0.7)"/>
      <use xlink:href="#DejaVuSans-Oblique-74" transform="translate(1026.538086 -15.625) scale(0.7)"/>
      <use xlink:href="#DejaVuSans-3d" transform="translate(1076.201172 0.78125)"/>
      <use xlink:href="#DejaVuSans-31" transform="translate(1179.472656 0.78125)"/>
      <use xlink:href="#DejaVuSans-30" transform="translate(1243.095703 0.78125)"/>
      <use xlink:href="#DejaVuSans-30" transform="translate(1306.71875 0.78125)"/>
     </g>
    </g>
    <g id="line2d_15">
     <path d="M 92.021939 46.214326 
L 104.521939 46.214326 
L 117.021939 46.214326 
" style="fill: none; stroke-dasharray: 1.5,2.475; stroke-dashoffset: 0; stroke: #d62728; stroke-width: 1.5"/>
    </g>
    <g id="text_10">
     <!-- $δD=\kappa/0, Δₑ=\kappa/5, N_{at}=100$ -->
     <g transform="translate(125.021939 49.714326) scale(0.1 -0.1)">
      <use xlink:href="#DejaVuSans-Oblique-3b4" transform="translate(0 0.78125)"/>
      <use xlink:href="#DejaVuSans-Oblique-44" transform="translate(61.181641 0.78125)"/>
      <use xlink:href="#DejaVuSans-3d" transform="translate(157.666016 0.78125)"/>
      <use xlink:href="#DejaVuSans-Oblique-3ba" transform="translate(260.9375 0.78125)"/>
      <use xlink:href="#DejaVuSans-2f" transform="translate(319.873047 0.78125)"/>
      <use xlink:href="#DejaVuSans-30" transform="translate(353.564453 0.78125)"/>
      <use xlink:href="#DejaVuSans-2c" transform="translate(417.1875 0.78125)"/>
      <use xlink:href="#DejaVuSans-394" transform="translate(468.457031 0.78125)"/>
      <use xlink:href="#DejaVuSans-Oblique-2091" transform="translate(536.865234 0.78125)"/>
      <use xlink:href="#DejaVuSans-3d" transform="translate(598.046875 0.78125)"/>
      <use xlink:href="#DejaVuSans-Oblique-3ba" transform="translate(701.318359 0.78125)"/>
      <use xlink:href="#DejaVuSans-2f" transform="translate(760.253906 0.78125)"/>
      <use xlink:href="#DejaVuSans-35" transform="translate(793.945312 0.78125)"/>
      <use xlink:href="#DejaVuSans-2c" transform="translate(857.568359 0.78125)"/>
      <use xlink:href="#DejaVuSans-Oblique-4e" transform="translate(908.837891 0.78125)"/>
      <use xlink:href="#DejaVuSans-Oblique-61" transform="translate(983.642578 -15.625) scale(0.7)"/>
      <use xlink:href="#DejaVuSans-Oblique-74" transform="translate(1026.538086 -15.625) scale(0.7)"/>
      <use xlink:href="#DejaVuSans-3d" transform="translate(1076.201172 0.78125)"/>
      <use xlink:href="#DejaVuSans-31" transform="translate(1179.472656 0.78125)"/>
      <use xlink:href="#DejaVuSans-30" transform="translate(1243.095703 0.78125)"/>
      <use xlink:href="#DejaVuSans-30" transform="translate(1306.71875 0.78125)"/>
     </g>
    </g>
    <g id="line2d_16">
     <path d="M 92.021939 60.892451 
L 104.521939 60.892451 
L 117.021939 60.892451 
" style="fill: none; stroke-dasharray: 9.6,2.4,1.5,2.4; stroke-dashoffset: 0; stroke: #9467bd; stroke-width: 1.5"/>
    </g>
    <g id="text_11">
     <!-- $δD=\kappa/0, Δₑ=\kappa/5, N_{at}=100$ -->
     <g transform="translate(125.021939 64.392451) scale(0.1 -0.1)">
      <use xlink:href="#DejaVuSans-Oblique-3b4" transform="translate(0 0.78125)"/>
      <use xlink:href="#DejaVuSans-Oblique-44" transform="translate(61.181641 0.78125)"/>
      <use xlink:href="#DejaVuSans-3d" transform="translate(157.666016 0.78125)"/>
      <use xlink:href="#DejaVuSans-Oblique-3ba" transform="translate(260.9375 0.78125)"/>
      <use xlink:href="#DejaVuSans-2f" transform="translate(319.873047 0.78125)"/>
      <use xlink:href="#DejaVuSans-30" transform="translate(353.564453 0.78125)"/>
      <use xlink:href="#DejaVuSans-2c" transform="translate(417.1875 0.78125)"/>
      <use xlink:href="#DejaVuSans-394" transform="translate(468.457031 0.78125)"/>
      <use xlink:href="#DejaVuSans-Oblique-2091" transform="translate(536.865234 0.78125)"/>
      <use xlink:href="#DejaVuSans-3d" transform="translate(598.046875 0.78125)"/>
      <use xlink:href="#DejaVuSans-Oblique-3ba" transform="translate(701.318359 0.78125)"/>
      <use xlink:href="#DejaVuSans-2f" transform="translate(760.253906 0.78125)"/>
      <use xlink:href="#DejaVuSans-35" transform="translate(793.945312 0.78125)"/>
      <use xlink:href="#DejaVuSans-2c" transform="translate(857.568359 0.78125)"/>
      <use xlink:href="#DejaVuSans-Oblique-4e" transform="translate(908.837891 0.78125)"/>
      <use xlink:href="#DejaVuSans-Oblique-61" transform="translate(983.642578 -15.625) scale(0.7)"/>
      <use xlink:href="#DejaVuSans-Oblique-74" transform="translate(1026.538086 -15.625) scale(0.7)"/>
      <use xlink:href="#DejaVuSans-3d" transform="translate(1076.201172 0.78125)"/>
      <use xlink:href="#DejaVuSans-31" transform="translate(1179.472656 0.78125)"/>
      <use xlink:href="#DejaVuSans-30" transform="translate(1243.095703 0.78125)"/>
      <use xlink:href="#DejaVuSans-30" transform="translate(1306.71875 0.78125)"/>
     </g>
    </g>
   </g>
  </g>
  <g id="axes_2">
   <g id="patch_8">
    <path d="M 53.282 243.309235 
L 201.981693 243.309235 
L 201.981693 129.823852 
L 53.282 129.823852 
z
" style="fill: #ffffff"/>
   </g>
   <g id="PolyCollection_5">
    <defs>
     <path id="m0e6e3e94ab" d="M 60.041077 -307.427211 
L 60.041077 -287.574963 
L 62.498923 -287.653316 
L 64.956769 -287.52942 
L 67.414615 -287.757684 
L 69.872462 -287.721004 
L 72.330308 -287.449192 
L 74.788154 -287.557476 
L 77.246 -287.621829 
L 79.703846 -287.842241 
L 82.161693 -287.611694 
L 84.619539 -287.699941 
L 84.619539 -314.792438 
L 84.619539 -314.792438 
L 82.161693 -314.058103 
L 79.703846 -312.429085 
L 77.246 -310.356759 
L 74.788154 -309.779303 
L 72.330308 -309.154249 
L 69.872462 -308.033092 
L 67.414615 -308.911707 
L 64.956769 -307.965267 
L 62.498923 -308.014338 
L 60.041077 -307.427211 
z
" style="stroke: #ff7f0e; stroke-opacity: 0.2; stroke-width: 0.1"/>
    </defs>
    <g clip-path="url(#p103e724ad2)">
     <use xlink:href="#m0e6e3e94ab" x="0" y="525.6" style="fill: #ff7f0e; fill-opacity: 0.2; stroke: #ff7f0e; stroke-opacity: 0.2; stroke-width: 0.1"/>
    </g>
   </g>
   <g id="PolyCollection_6">
    <defs>
     <path id="m789e82e5d9" d="M 87.077385 -317.907124 
L 87.077385 -287.786959 
L 89.535231 -287.93124 
L 91.993077 -288.073961 
L 94.450923 -288.237259 
L 96.90877 -288.179515 
L 99.366616 -288.44036 
L 101.824462 -289.334243 
L 104.282308 -289.718906 
L 106.740154 -291.051758 
L 109.198 -291.424683 
L 111.655847 -292.43252 
L 114.113693 -294.813109 
L 116.571539 -301.518563 
L 119.029385 -306.243271 
L 121.487231 -308.086062 
L 121.487231 -365.035776 
L 121.487231 -365.035776 
L 119.029385 -363.541284 
L 116.571539 -361.523389 
L 114.113693 -357.516993 
L 111.655847 -355.39498 
L 109.198 -353.668419 
L 106.740154 -347.618492 
L 104.282308 -346.316054 
L 101.824462 -339.244722 
L 99.366616 -332.233891 
L 96.90877 -330.22196 
L 94.450923 -323.500652 
L 91.993077 -323.55884 
L 89.535231 -317.384815 
L 87.077385 -317.907124 
z
" style="stroke: #2ca02c; stroke-opacity: 0.2; stroke-width: 0.1"/>
    </defs>
    <g clip-path="url(#p103e724ad2)">
     <use xlink:href="#m789e82e5d9" x="0" y="525.6" style="fill: #2ca02c; fill-opacity: 0.2; stroke: #2ca02c; stroke-opacity: 0.2; stroke-width: 0.1"/>
    </g>
   </g>
   <g id="PolyCollection_7">
    <defs>
     <path id="m3ac84db7d7" d="M 123.945077 -367.687239 
L 123.945077 -320.338563 
L 126.402924 -321.059629 
L 128.86077 -325.945448 
L 131.318616 -328.394263 
L 133.776462 -331.03567 
L 136.234308 -333.567331 
L 138.692154 -333.923529 
L 141.150001 -336.856354 
L 143.607847 -338.143557 
L 146.065693 -341.480585 
L 148.523539 -342.867171 
L 150.981385 -344.763758 
L 153.439231 -346.230727 
L 155.897078 -347.499221 
L 158.354924 -348.233042 
L 158.354924 -383.50169 
L 158.354924 -383.50169 
L 155.897078 -384.978208 
L 153.439231 -384.179808 
L 150.981385 -381.893277 
L 148.523539 -381.908988 
L 146.065693 -380.714182 
L 143.607847 -380.305724 
L 141.150001 -378.895866 
L 138.692154 -377.106323 
L 136.234308 -376.621287 
L 133.776462 -374.403711 
L 131.318616 -374.314665 
L 128.86077 -371.890632 
L 126.402924 -370.474296 
L 123.945077 -367.687239 
z
" style="stroke: #d62728; stroke-opacity: 0.2; stroke-width: 0.1"/>
    </defs>
    <g clip-path="url(#p103e724ad2)">
     <use xlink:href="#m3ac84db7d7" x="0" y="525.6" style="fill: #d62728; fill-opacity: 0.2; stroke: #d62728; stroke-opacity: 0.2; stroke-width: 0.1"/>
    </g>
   </g>
   <g id="PolyCollection_8">
    <defs>
     <path id="m180700c176" d="M 160.81277 -385.525829 
L 160.81277 -349.292861 
L 163.270616 -350.654188 
L 165.728462 -351.742146 
L 168.186309 -351.906563 
L 170.644155 -351.833601 
L 173.102001 -353.277234 
L 175.559847 -355.560113 
L 178.017693 -354.461935 
L 180.475539 -356.882257 
L 182.933386 -354.971978 
L 185.391232 -356.828645 
L 187.849078 -357.367717 
L 190.306924 -357.328389 
L 192.76477 -357.185825 
L 195.222616 -358.698043 
L 195.222616 -390.617721 
L 195.222616 -390.617721 
L 192.76477 -389.409962 
L 190.306924 -388.787048 
L 187.849078 -389.427885 
L 185.391232 -388.513604 
L 182.933386 -388.348115 
L 180.475539 -387.221565 
L 178.017693 -388.538731 
L 175.559847 -387.791336 
L 173.102001 -388.717067 
L 170.644155 -386.619917 
L 168.186309 -386.718002 
L 165.728462 -385.531502 
L 163.270616 -385.371689 
L 160.81277 -385.525829 
z
" style="stroke: #9467bd; stroke-opacity: 0.2; stroke-width: 0.1"/>
    </defs>
    <g clip-path="url(#p103e724ad2)">
     <use xlink:href="#m180700c176" x="0" y="525.6" style="fill: #9467bd; fill-opacity: 0.2; stroke: #9467bd; stroke-opacity: 0.2; stroke-width: 0.1"/>
    </g>
   </g>
   <g id="matplotlib.axis_3">
    <g id="xtick_4">
     <g id="line2d_17">
      <g>
       <use xlink:href="#m5823bf3036" x="96.90877" y="243.309235" style="stroke: #000000; stroke-width: 0.8"/>
      </g>
     </g>
    </g>
    <g id="xtick_5">
     <g id="line2d_18">
      <g>
       <use xlink:href="#m5823bf3036" x="146.065693" y="243.309235" style="stroke: #000000; stroke-width: 0.8"/>
      </g>
     </g>
    </g>
    <g id="xtick_6">
     <g id="line2d_19">
      <g>
       <use xlink:href="#m5823bf3036" x="195.222616" y="243.309235" style="stroke: #000000; stroke-width: 0.8"/>
      </g>
     </g>
    </g>
   </g>
   <g id="matplotlib.axis_4">
    <g id="ytick_6">
     <g id="line2d_20">
      <g>
       <use xlink:href="#m8ea36c251f" x="53.282" y="238.723849" style="stroke: #000000; stroke-width: 0.8"/>
      </g>
     </g>
     <g id="text_12">
      <!-- 0.0 -->
      <g transform="translate(30.378875 242.523068) scale(0.1 -0.1)">
       <defs>
        <path id="DejaVuSans-2e" d="M 684 794 
L 1344 794 
L 1344 0 
L 684 0 
L 684 794 
z
" transform="scale(0.015625)"/>
       </defs>
       <use xlink:href="#DejaVuSans-30"/>
       <use xlink:href="#DejaVuSans-2e" x="63.623047"/>
       <use xlink:href="#DejaVuSans-30" x="95.410156"/>
      </g>
     </g>
    </g>
    <g id="ytick_7">
     <g id="line2d_21">
      <g>
       <use xlink:href="#m8ea36c251f" x="53.282" y="209.571232" style="stroke: #000000; stroke-width: 0.8"/>
      </g>
     </g>
     <g id="text_13">
      <!-- 0.2 -->
      <g transform="translate(30.378875 213.37045) scale(0.1 -0.1)">
       <use xlink:href="#DejaVuSans-30"/>
       <use xlink:href="#DejaVuSans-2e" x="63.623047"/>
       <use xlink:href="#DejaVuSans-32" x="95.410156"/>
      </g>
     </g>
    </g>
    <g id="ytick_8">
     <g id="line2d_22">
      <g>
       <use xlink:href="#m8ea36c251f" x="53.282" y="180.418614" style="stroke: #000000; stroke-width: 0.8"/>
      </g>
     </g>
     <g id="text_14">
      <!-- 0.4 -->
      <g transform="translate(30.378875 184.217833) scale(0.1 -0.1)">
       <use xlink:href="#DejaVuSans-30"/>
       <use xlink:href="#DejaVuSans-2e" x="63.623047"/>
       <use xlink:href="#DejaVuSans-34" x="95.410156"/>
      </g>
     </g>
    </g>
    <g id="ytick_9">
     <g id="line2d_23">
      <g>
       <use xlink:href="#m8ea36c251f" x="53.282" y="151.265996" style="stroke: #000000; stroke-width: 0.8"/>
      </g>
     </g>
     <g id="text_15">
      <!-- 0.6 -->
      <g transform="translate(30.378875 155.065215) scale(0.1 -0.1)">
       <use xlink:href="#DejaVuSans-30"/>
       <use xlink:href="#DejaVuSans-2e" x="63.623047"/>
       <use xlink:href="#DejaVuSans-36" x="95.410156"/>
      </g>
     </g>
    </g>
    <g id="text_16">
     <!-- order parameter $\vert\Phi\vert$ -->
     <g transform="translate(23.978875 236.916543) rotate(-90) scale(0.1 -0.1)">
      <defs>
       <path id="DejaVuSans-72" d="M 2631 2963 
Q 2534 3019 2420 3045 
Q 2306 3072 2169 3072 
Q 1681 3072 1420 2755 
Q 1159 2438 1159 1844 
L 1159 0 
L 581 0 
L 581 3500 
L 1159 3500 
L 1159 2956 
Q 1341 3275 1631 3429 
Q 1922 3584 2338 3584 
Q 2397 3584 2469 3576 
Q 2541 3569 2628 3553 
L 2631 2963 
z
" transform="scale(0.015625)"/>
       <path id="DejaVuSans-64" d="M 2906 2969 
L 2906 4863 
L 3481 4863 
L 3481 0 
L 2906 0 
L 2906 525 
Q 2725 213 2448 61 
Q 2172 -91 1784 -91 
Q 1150 -91 751 415 
Q 353 922 353 1747 
Q 353 2572 751 3078 
Q 1150 3584 1784 3584 
Q 2172 3584 2448 3432 
Q 2725 3281 2906 2969 
z
M 947 1747 
Q 947 1113 1208 752 
Q 1469 391 1925 391 
Q 2381 391 2643 752 
Q 2906 1113 2906 1747 
Q 2906 2381 2643 2742 
Q 2381 3103 1925 3103 
Q 1469 3103 1208 2742 
Q 947 2381 947 1747 
z
" transform="scale(0.015625)"/>
       <path id="DejaVuSans-65" d="M 3597 1894 
L 3597 1613 
L 953 1613 
Q 991 1019 1311 708 
Q 1631 397 2203 397 
Q 2534 397 2845 478 
Q 3156 559 3463 722 
L 3463 178 
Q 3153 47 2828 -22 
Q 2503 -91 2169 -91 
Q 1331 -91 842 396 
Q 353 884 353 1716 
Q 353 2575 817 3079 
Q 1281 3584 2069 3584 
Q 2775 3584 3186 3129 
Q 3597 2675 3597 1894 
z
M 3022 2063 
Q 3016 2534 2758 2815 
Q 2500 3097 2075 3097 
Q 1594 3097 1305 2825 
Q 1016 2553 972 2059 
L 3022 2063 
z
" transform="scale(0.015625)"/>
       <path id="DejaVuSans-6d" d="M 3328 2828 
Q 3544 3216 3844 3400 
Q 4144 3584 4550 3584 
Q 5097 3584 5394 3201 
Q 5691 2819 5691 2113 
L 5691 0 
L 5113 0 
L 5113 2094 
Q 5113 2597 4934 2840 
Q 4756 3084 4391 3084 
Q 3944 3084 3684 2787 
Q 3425 2491 3425 1978 
L 3425 0 
L 2847 0 
L 2847 2094 
Q 2847 2600 2669 2842 
Q 2491 3084 2119 3084 
Q 1678 3084 1418 2786 
Q 1159 2488 1159 1978 
L 1159 0 
L 581 0 
L 581 3500 
L 1159 3500 
L 1159 2956 
Q 1356 3278 1631 3431 
Q 1906 3584 2284 3584 
Q 2666 3584 2933 3390 
Q 3200 3197 3328 2828 
z
" transform="scale(0.015625)"/>
       <path id="DejaVuSans-3a6" d="M 2206 3644 
Q 1738 3578 1431 3306 
Q 1025 2947 1025 2328 
Q 1025 1713 1431 1353 
Q 1738 1081 2206 1016 
L 2206 3644 
z
M 2838 1016 
Q 3306 1081 3613 1353 
Q 4013 1713 4013 2328 
Q 4013 2947 3613 3306 
Q 3306 3578 2838 3644 
L 2838 1016 
z
M 2206 494 
Q 1444 563 950 981 
Q 359 1481 359 2328 
Q 359 3175 950 3678 
Q 1441 4100 2206 4169 
L 2206 4666 
L 2838 4666 
L 2838 4169 
Q 3600 4097 4091 3678 
Q 4678 3175 4678 2328 
Q 4678 1484 4091 981 
Q 3600 563 2838 491 
L 2838 0 
L 2206 0 
L 2206 494 
z
" transform="scale(0.015625)"/>
      </defs>
      <use xlink:href="#DejaVuSans-6f" transform="translate(0 0.578125)"/>
      <use xlink:href="#DejaVuSans-72" transform="translate(61.181641 0.578125)"/>
      <use xlink:href="#DejaVuSans-64" transform="translate(102.294922 0.578125)"/>
      <use xlink:href="#DejaVuSans-65" transform="translate(165.771484 0.578125)"/>
      <use xlink:href="#DejaVuSans-72" transform="translate(227.294922 0.578125)"/>
      <use xlink:href="#DejaVuSans-20" transform="translate(268.408203 0.578125)"/>
      <use xlink:href="#DejaVuSans-70" transform="translate(300.195312 0.578125)"/>
      <use xlink:href="#DejaVuSans-61" transform="translate(363.671875 0.578125)"/>
      <use xlink:href="#DejaVuSans-72" transform="translate(424.951172 0.578125)"/>
      <use xlink:href="#DejaVuSans-61" transform="translate(466.064453 0.578125)"/>
      <use xlink:href="#DejaVuSans-6d" transform="translate(527.34375 0.578125)"/>
      <use xlink:href="#DejaVuSans-65" transform="translate(624.755859 0.578125)"/>
      <use xlink:href="#DejaVuSans-74" transform="translate(686.279297 0.578125)"/>
      <use xlink:href="#DejaVuSans-65" transform="translate(725.488281 0.578125)"/>
      <use xlink:href="#DejaVuSans-72" transform="translate(787.011719 0.578125)"/>
      <use xlink:href="#DejaVuSans-20" transform="translate(828.125 0.578125)"/>
      <use xlink:href="#DejaVuSans-7c" transform="translate(859.912109 0.578125)"/>
      <use xlink:href="#DejaVuSans-3a6" transform="translate(893.603516 0.578125)"/>
      <use xlink:href="#DejaVuSans-7c" transform="translate(972.314453 0.578125)"/>
     </g>
    </g>
   </g>
   <g id="line2d_24">
    <path d="M 60.041077 230.139908 
L 62.498923 230.179062 
L 64.956769 229.982608 
L 67.414615 229.893594 
L 69.872462 229.79361 
L 72.330308 229.359333 
L 74.788154 229.127145 
L 77.246 228.61503 
L 79.703846 228.36129 
L 82.161693 228.100374 
L 84.619539 227.551315 
" clip-path="url(#p103e724ad2)" style="fill: none; stroke: #ff7f0e; stroke-width: 1.5; stroke-linecap: square"/>
   </g>
   <g id="line2d_25">
    <path d="M 87.077385 226.033032 
L 89.535231 225.754871 
L 91.993077 224.180228 
L 94.450923 223.297346 
L 96.90877 220.518862 
L 99.366616 218.76033 
L 101.824462 215.270858 
L 104.282308 211.503705 
L 106.740154 207.850548 
L 109.198 202.512668 
L 111.655847 199.996351 
L 114.113693 196.003752 
L 116.571539 190.865896 
L 119.029385 187.814568 
L 121.487231 184.601306 
" clip-path="url(#p103e724ad2)" style="fill: none; stroke-dasharray: 5.55,2.4; stroke-dashoffset: 0; stroke: #2ca02c; stroke-width: 1.5"/>
   </g>
   <g id="line2d_26">
    <path d="M 123.945077 180.281064 
L 126.402924 177.976558 
L 128.86077 175.94831 
L 131.318616 172.52705 
L 133.776462 171.554794 
L 136.234308 170.003865 
L 138.692154 168.343304 
L 141.150001 166.157661 
L 143.607847 164.937107 
L 146.065693 163.749889 
L 148.523539 162.318649 
L 150.981385 161.195247 
L 153.439231 159.98529 
L 155.897078 158.861358 
L 158.354924 159.029871 
" clip-path="url(#p103e724ad2)" style="fill: none; stroke-dasharray: 1.5,2.475; stroke-dashoffset: 0; stroke: #d62728; stroke-width: 1.5"/>
   </g>
   <g id="line2d_27">
    <path d="M 160.81277 157.864591 
L 163.270616 157.506104 
L 165.728462 156.272509 
L 168.186309 155.875476 
L 170.644155 155.409626 
L 173.102001 154.035555 
L 175.559847 153.755566 
L 178.017693 153.619626 
L 180.475539 153.246972 
L 182.933386 153.125671 
L 185.391232 151.956448 
L 187.849078 151.803318 
L 190.306924 151.770539 
L 192.76477 151.783648 
L 195.222616 150.905749 
" clip-path="url(#p103e724ad2)" style="fill: none; stroke-dasharray: 9.6,2.4,1.5,2.4; stroke-dashoffset: 0; stroke: #9467bd; stroke-width: 1.5"/>
   </g>
   <g id="patch_9">
    <path d="M 53.282 243.309235 
L 53.282 129.823852 
" style="fill: none; stroke: #000000; stroke-width: 0.8; stroke-linejoin: miter; stroke-linecap: square"/>
   </g>
   <g id="patch_10">
    <path d="M 201.981693 243.309235 
L 201.981693 129.823852 
" style="fill: none; stroke: #000000; stroke-width: 0.8; stroke-linejoin: miter; stroke-linecap: square"/>
   </g>
   <g id="patch_11">
    <path d="M 53.282 243.309235 
L 201.981693 243.309235 
" style="fill: none; stroke: #000000; stroke-width: 0.8; stroke-linejoin: miter; stroke-linecap: square"/>
   </g>
   <g id="patch_12">
    <path d="M 53.282 129.823852 
L 201.981693 129.823852 
" style="fill: none; stroke: #000000; stroke-width: 0.8; stroke-linejoin: miter; stroke-linecap: square"/>
   </g>
   <g id="text_17">
    <!-- (b) -->
    <g transform="translate(60.716985 144.576952) scale(0.1 -0.1)">
     <defs>
      <path id="DejaVuSans-62" d="M 3116 1747 
Q 3116 2381 2855 2742 
Q 2594 3103 2138 3103 
Q 1681 3103 1420 2742 
Q 1159 2381 1159 1747 
Q 1159 1113 1420 752 
Q 1681 391 2138 391 
Q 2594 391 2855 752 
Q 3116 1113 3116 1747 
z
M 1159 2969 
Q 1341 3281 1617 3432 
Q 1894 3584 2278 3584 
Q 2916 3584 3314 3078 
Q 3713 2572 3713 1747 
Q 3713 922 3314 415 
Q 2916 -91 2278 -91 
Q 1894 -91 1617 61 
Q 1341 213 1159 525 
L 1159 0 
L 581 0 
L 581 4863 
L 1159 4863 
L 1159 2969 
z
" transform="scale(0.015625)"/>
     </defs>
     <use xlink:href="#DejaVuSans-28"/>
     <use xlink:href="#DejaVuSans-62" x="39.013672"/>
     <use xlink:href="#DejaVuSans-29" x="102.490234"/>
    </g>
   </g>
  </g>
  <g id="axes_3">
   <g id="patch_13">
    <path d="M 53.282 360.294617 
L 201.981693 360.294617 
L 201.981693 246.809235 
L 53.282 246.809235 
z
" style="fill: #ffffff"/>
   </g>
   <g id="PolyCollection_9">
    <defs>
     <path id="m18d0a471ef" d="M 60.041077 -231.048061 
L 60.041077 -173.183009 
L 62.498923 -170.463809 
L 64.956769 -172.770737 
L 67.414615 -173.635784 
L 69.872462 -172.161328 
L 72.330308 -171.53696 
L 74.788154 -172.941518 
L 77.246 -174.698575 
L 79.703846 -171.631664 
L 82.161693 -171.813383 
L 84.619539 -173.312747 
L 84.619539 -230.593059 
L 84.619539 -230.593059 
L 82.161693 -231.881263 
L 79.703846 -231.148444 
L 77.246 -233.252915 
L 74.788154 -230.274741 
L 72.330308 -229.942207 
L 69.872462 -231.484156 
L 67.414615 -230.147622 
L 64.956769 -230.094689 
L 62.498923 -230.820594 
L 60.041077 -231.048061 
z
" style="stroke: #ff7f0e; stroke-opacity: 0.2; stroke-width: 0.1"/>
    </defs>
    <g clip-path="url(#p9687fc88d2)">
     <use xlink:href="#m18d0a471ef" x="0" y="525.6" style="fill: #ff7f0e; fill-opacity: 0.2; stroke: #ff7f0e; stroke-opacity: 0.2; stroke-width: 0.1"/>
    </g>
   </g>
   <g id="PolyCollection_10">
    <defs>
     <path id="m49f38fdb3d" d="M 87.077385 -232.123899 
L 87.077385 -175.266 
L 89.535231 -172.415195 
L 91.993077 -175.115191 
L 94.450923 -175.184153 
L 96.90877 -174.134501 
L 99.366616 -175.233538 
L 101.824462 -174.819255 
L 104.282308 -174.922308 
L 106.740154 -179.052349 
L 109.198 -179.132751 
L 111.655847 -180.940298 
L 114.113693 -181.957923 
L 116.571539 -185.276813 
L 119.029385 -186.209728 
L 121.487231 -186.599684 
L 121.487231 -246.303774 
L 121.487231 -246.303774 
L 119.029385 -243.951282 
L 116.571539 -245.704908 
L 114.113693 -242.63946 
L 111.655847 -242.261781 
L 109.198 -241.74857 
L 106.740154 -238.826138 
L 104.282308 -236.892311 
L 101.824462 -233.721189 
L 99.366616 -233.15375 
L 96.90877 -232.776391 
L 94.450923 -231.89994 
L 91.993077 -231.233702 
L 89.535231 -232.617919 
L 87.077385 -232.123899 
z
" style="stroke: #2ca02c; stroke-opacity: 0.2; stroke-width: 0.1"/>
    </defs>
    <g clip-path="url(#p9687fc88d2)">
     <use xlink:href="#m49f38fdb3d" x="0" y="525.6" style="fill: #2ca02c; fill-opacity: 0.2; stroke: #2ca02c; stroke-opacity: 0.2; stroke-width: 0.1"/>
    </g>
   </g>
   <g id="PolyCollection_11">
    <defs>
     <path id="m4d6a6f5a99" d="M 123.945077 -247.902023 
L 123.945077 -191.977714 
L 126.402924 -192.34619 
L 128.86077 -192.925081 
L 131.318616 -195.063728 
L 133.776462 -196.616382 
L 136.234308 -197.272614 
L 138.692154 -199.609725 
L 141.150001 -200.360759 
L 143.607847 -199.868014 
L 146.065693 -201.994035 
L 148.523539 -203.184346 
L 150.981385 -204.901475 
L 153.439231 -204.982053 
L 155.897078 -205.786311 
L 158.354924 -204.240779 
L 158.354924 -264.092411 
L 158.354924 -264.092411 
L 155.897078 -265.278584 
L 153.439231 -264.581143 
L 150.981385 -263.395023 
L 148.523539 -264.516881 
L 146.065693 -262.278266 
L 143.607847 -260.830025 
L 141.150001 -259.308981 
L 138.692154 -260.262351 
L 136.234308 -257.985677 
L 133.776462 -257.014495 
L 131.318616 -255.044289 
L 128.86077 -253.795851 
L 126.402924 -252.826912 
L 123.945077 -247.902023 
z
" style="stroke: #d62728; stroke-opacity: 0.2; stroke-width: 0.1"/>
    </defs>
    <g clip-path="url(#p9687fc88d2)">
     <use xlink:href="#m4d6a6f5a99" x="0" y="525.6" style="fill: #d62728; fill-opacity: 0.2; stroke: #d62728; stroke-opacity: 0.2; stroke-width: 0.1"/>
    </g>
   </g>
   <g id="PolyCollection_12">
    <defs>
     <path id="m444c392b85" d="M 160.81277 -266.779304 
L 160.81277 -207.775865 
L 163.270616 -206.387625 
L 165.728462 -209.350099 
L 168.186309 -207.145686 
L 170.644155 -208.472694 
L 173.102001 -208.925422 
L 175.559847 -212.893774 
L 178.017693 -210.759727 
L 180.475539 -212.614351 
L 182.933386 -210.450177 
L 185.391232 -213.838007 
L 187.849078 -213.00763 
L 190.306924 -217.829285 
L 192.76477 -214.631019 
L 195.222616 -216.797679 
L 195.222616 -273.201748 
L 195.222616 -273.201748 
L 192.76477 -273.632339 
L 190.306924 -271.744584 
L 187.849078 -272.779961 
L 185.391232 -272.256246 
L 182.933386 -271.112709 
L 180.475539 -271.328294 
L 178.017693 -271.506294 
L 175.559847 -271.117776 
L 173.102001 -272.274965 
L 170.644155 -268.730113 
L 168.186309 -268.000749 
L 165.728462 -270.064914 
L 163.270616 -265.999232 
L 160.81277 -266.779304 
z
" style="stroke: #9467bd; stroke-opacity: 0.2; stroke-width: 0.1"/>
    </defs>
    <g clip-path="url(#p9687fc88d2)">
     <use xlink:href="#m444c392b85" x="0" y="525.6" style="fill: #9467bd; fill-opacity: 0.2; stroke: #9467bd; stroke-opacity: 0.2; stroke-width: 0.1"/>
    </g>
   </g>
   <g id="matplotlib.axis_5">
    <g id="xtick_7">
     <g id="line2d_28">
      <g>
       <use xlink:href="#m5823bf3036" x="96.90877" y="360.294617" style="stroke: #000000; stroke-width: 0.8"/>
      </g>
     </g>
    </g>
    <g id="xtick_8">
     <g id="line2d_29">
      <g>
       <use xlink:href="#m5823bf3036" x="146.065693" y="360.294617" style="stroke: #000000; stroke-width: 0.8"/>
      </g>
     </g>
    </g>
    <g id="xtick_9">
     <g id="line2d_30">
      <g>
       <use xlink:href="#m5823bf3036" x="195.222616" y="360.294617" style="stroke: #000000; stroke-width: 0.8"/>
      </g>
     </g>
    </g>
   </g>
   <g id="matplotlib.axis_6">
    <g id="ytick_10">
     <g id="line2d_31">
      <g>
       <use xlink:href="#m8ea36c251f" x="53.282" y="349.166657" style="stroke: #000000; stroke-width: 0.8"/>
      </g>
     </g>
     <g id="text_18">
      <!-- 0.45 -->
      <g transform="translate(24.016375 352.965876) scale(0.1 -0.1)">
       <use xlink:href="#DejaVuSans-30"/>
       <use xlink:href="#DejaVuSans-2e" x="63.623047"/>
       <use xlink:href="#DejaVuSans-34" x="95.410156"/>
       <use xlink:href="#DejaVuSans-35" x="159.033203"/>
      </g>
     </g>
    </g>
    <g id="ytick_11">
     <g id="line2d_32">
      <g>
       <use xlink:href="#m8ea36c251f" x="53.282" y="324.276867" style="stroke: #000000; stroke-width: 0.8"/>
      </g>
     </g>
     <g id="text_19">
      <!-- 0.50 -->
      <g transform="translate(24.016375 328.076086) scale(0.1 -0.1)">
       <use xlink:href="#DejaVuSans-30"/>
       <use xlink:href="#DejaVuSans-2e" x="63.623047"/>
       <use xlink:href="#DejaVuSans-35" x="95.410156"/>
       <use xlink:href="#DejaVuSans-30" x="159.033203"/>
      </g>
     </g>
    </g>
    <g id="ytick_12">
     <g id="line2d_33">
      <g>
       <use xlink:href="#m8ea36c251f" x="53.282" y="299.387078" style="stroke: #000000; stroke-width: 0.8"/>
      </g>
     </g>
     <g id="text_20">
      <!-- 0.55 -->
      <g transform="translate(24.016375 303.186296) scale(0.1 -0.1)">
       <use xlink:href="#DejaVuSans-30"/>
       <use xlink:href="#DejaVuSans-2e" x="63.623047"/>
       <use xlink:href="#DejaVuSans-35" x="95.410156"/>
       <use xlink:href="#DejaVuSans-35" x="159.033203"/>
      </g>
     </g>
    </g>
    <g id="ytick_13">
     <g id="line2d_34">
      <g>
       <use xlink:href="#m8ea36c251f" x="53.282" y="274.497288" style="stroke: #000000; stroke-width: 0.8"/>
      </g>
     </g>
     <g id="text_21">
      <!-- 0.60 -->
      <g transform="translate(24.016375 278.296506) scale(0.1 -0.1)">
       <use xlink:href="#DejaVuSans-30"/>
       <use xlink:href="#DejaVuSans-2e" x="63.623047"/>
       <use xlink:href="#DejaVuSans-36" x="95.410156"/>
       <use xlink:href="#DejaVuSans-30" x="159.033203"/>
      </g>
     </g>
    </g>
    <g id="ytick_14">
     <g id="line2d_35">
      <g>
       <use xlink:href="#m8ea36c251f" x="53.282" y="249.607498" style="stroke: #000000; stroke-width: 0.8"/>
      </g>
     </g>
     <g id="text_22">
      <!-- 0.65 -->
      <g transform="translate(24.016375 253.406716) scale(0.1 -0.1)">
       <use xlink:href="#DejaVuSans-30"/>
       <use xlink:href="#DejaVuSans-2e" x="63.623047"/>
       <use xlink:href="#DejaVuSans-36" x="95.410156"/>
       <use xlink:href="#DejaVuSans-35" x="159.033203"/>
      </g>
     </g>
    </g>
    <g id="text_23">
     <!-- bunching parameter $\mathcal{B}$ -->
     <g transform="translate(17.916375 359.951926) rotate(-90) scale(0.1 -0.1)">
      <defs>
       <path id="DejaVuSans-68" d="M 3513 2113 
L 3513 0 
L 2938 0 
L 2938 2094 
Q 2938 2591 2744 2837 
Q 2550 3084 2163 3084 
Q 1697 3084 1428 2787 
Q 1159 2491 1159 1978 
L 1159 0 
L 581 0 
L 581 4863 
L 1159 4863 
L 1159 2956 
Q 1366 3272 1645 3428 
Q 1925 3584 2291 3584 
Q 2894 3584 3203 3211 
Q 3513 2838 3513 2113 
z
" transform="scale(0.015625)"/>
       <path id="DejaVuSans-67" d="M 2906 1791 
Q 2906 2416 2648 2759 
Q 2391 3103 1925 3103 
Q 1463 3103 1205 2759 
Q 947 2416 947 1791 
Q 947 1169 1205 825 
Q 1463 481 1925 481 
Q 2391 481 2648 825 
Q 2906 1169 2906 1791 
z
M 3481 434 
Q 3481 -459 3084 -895 
Q 2688 -1331 1869 -1331 
Q 1566 -1331 1297 -1286 
Q 1028 -1241 775 -1147 
L 775 -588 
Q 1028 -725 1275 -790 
Q 1522 -856 1778 -856 
Q 2344 -856 2625 -561 
Q 2906 -266 2906 331 
L 2906 616 
Q 2728 306 2450 153 
Q 2172 0 1784 0 
Q 1141 0 747 490 
Q 353 981 353 1791 
Q 353 2603 747 3093 
Q 1141 3584 1784 3584 
Q 2172 3584 2450 3431 
Q 2728 3278 2906 2969 
L 2906 3500 
L 3481 3500 
L 3481 434 
z
" transform="scale(0.015625)"/>
       <path id="STIXNonUnicode-Italic-e22e" d="M 2080 3341 
L 2099 3328 
Q 2810 4288 3853 4288 
Q 4154 4288 4346 4102 
Q 4538 3917 4538 3622 
Q 4538 3213 4173 2893 
Q 3808 2573 3430 2451 
Q 3866 2406 4144 2169 
Q 4422 1933 4422 1485 
Q 4422 1152 4211 857 
Q 4000 563 3677 377 
Q 3354 192 2986 86 
Q 2618 -19 2291 -19 
Q 1792 -19 1517 186 
L 1587 326 
Q 1843 198 2272 198 
Q 2854 198 3296 595 
Q 3738 992 3738 1478 
Q 3738 1798 3459 2003 
Q 3181 2208 2630 2208 
L 2208 2208 
L 2278 2451 
L 2400 2451 
Q 2611 2451 2867 2508 
Q 3123 2566 3385 2681 
Q 3648 2797 3824 3008 
Q 4000 3219 4000 3482 
Q 4000 3987 3456 3987 
Q 3245 3987 3008 3865 
Q 2771 3744 2624 3590 
Q 2349 3315 2144 2908 
Q 1939 2502 1715 1728 
L 1478 909 
Q 1344 448 1193 253 
Q 1043 58 666 13 
Q 544 0 224 0 
L 282 154 
Q 474 154 576 333 
Q 678 512 870 1190 
L 1536 3514 
Q 1555 3571 1555 3667 
Q 1555 3859 1286 3859 
L 1146 3859 
L 1171 4013 
Q 1875 4077 2355 4237 
L 2080 3341 
z
" transform="scale(0.015625)"/>
      </defs>
      <use xlink:href="#DejaVuSans-62" transform="translate(0 0.015625)"/>
      <use xlink:href="#DejaVuSans-75" transform="translate(63.476562 0.015625)"/>
      <use xlink:href="#DejaVuSans-6e" transform="translate(126.855469 0.015625)"/>
      <use xlink:href="#DejaVuSans-63" transform="translate(190.234375 0.015625)"/>
      <use xlink:href="#DejaVuSans-68" transform="translate(245.214844 0.015625)"/>
      <use xlink:href="#DejaVuSans-69" transform="translate(308.59375 0.015625)"/>
      <use xlink:href="#DejaVuSans-6e" transform="translate(336.376953 0.015625)"/>
      <use xlink:href="#DejaVuSans-67" transform="translate(399.755859 0.015625)"/>
      <use xlink:href="#DejaVuSans-20" transform="translate(463.232422 0.015625)"/>
      <use xlink:href="#DejaVuSans-70" transform="translate(495.019531 0.015625)"/>
      <use xlink:href="#DejaVuSans-61" transform="translate(558.496094 0.015625)"/>
      <use xlink:href="#DejaVuSans-72" transform="translate(619.775391 0.015625)"/>
      <use xlink:href="#DejaVuSans-61" transform="translate(660.888672 0.015625)"/>
      <use xlink:href="#DejaVuSans-6d" transform="translate(722.167969 0.015625)"/>
      <use xlink:href="#DejaVuSans-65" transform="translate(819.580078 0.015625)"/>
      <use xlink:href="#DejaVuSans-74" transform="translate(881.103516 0.015625)"/>
      <use xlink:href="#DejaVuSans-65" transform="translate(920.3125 0.015625)"/>
      <use xlink:href="#DejaVuSans-72" transform="translate(981.835938 0.015625)"/>
      <use xlink:href="#DejaVuSans-20" transform="translate(1022.949219 0.015625)"/>
      <use xlink:href="#STIXNonUnicode-Italic-e22e" transform="translate(1054.736328 0.015625)"/>
     </g>
    </g>
   </g>
   <g id="line2d_36">
    <path d="M 60.041077 324.249621 
L 62.498923 323.332665 
L 64.956769 324.714463 
L 67.414615 323.150894 
L 69.872462 323.718008 
L 72.330308 324.782658 
L 74.788154 323.477257 
L 77.246 323.071851 
L 79.703846 323.80926 
L 82.161693 323.896886 
L 84.619539 323.56551 
" clip-path="url(#p9687fc88d2)" style="fill: none; stroke: #ff7f0e; stroke-width: 1.5; stroke-linecap: square"/>
   </g>
   <g id="line2d_37">
    <path d="M 87.077385 322.535136 
L 89.535231 323.061394 
L 91.993077 322.947273 
L 94.450923 321.923035 
L 96.90877 322.571934 
L 99.366616 321.06628 
L 101.824462 320.507092 
L 104.282308 319.313771 
L 106.740154 317.374478 
L 109.198 316.412909 
L 111.655847 314.601263 
L 114.113693 312.934508 
L 116.571539 311.396692 
L 119.029385 309.860719 
L 121.487231 307.521127 
" clip-path="url(#p9687fc88d2)" style="fill: none; stroke-dasharray: 5.55,2.4; stroke-dashoffset: 0; stroke: #2ca02c; stroke-width: 1.5"/>
   </g>
   <g id="line2d_38">
    <path d="M 123.945077 305.937546 
L 126.402924 303.106994 
L 128.86077 303.309573 
L 131.318616 300.312251 
L 133.776462 299.482458 
L 136.234308 298.507154 
L 138.692154 296.86895 
L 141.150001 294.858489 
L 143.607847 294.639705 
L 146.065693 293.439086 
L 148.523539 292.543895 
L 150.981385 291.452772 
L 153.439231 290.541409 
L 155.897078 290.052868 
L 158.354924 290.710828 
" clip-path="url(#p9687fc88d2)" style="fill: none; stroke-dasharray: 1.5,2.475; stroke-dashoffset: 0; stroke: #d62728; stroke-width: 1.5"/>
   </g>
   <g id="line2d_39">
    <path d="M 160.81277 288.699381 
L 163.270616 288.427475 
L 165.728462 287.093726 
L 168.186309 287.018249 
L 170.644155 286.400795 
L 173.102001 284.213376 
L 175.559847 283.959886 
L 178.017693 284.174461 
L 180.475539 283.47729 
L 182.933386 283.717206 
L 185.391232 282.24734 
L 187.849078 282.212515 
L 190.306924 281.639895 
L 192.76477 282.065099 
L 195.222616 280.236558 
" clip-path="url(#p9687fc88d2)" style="fill: none; stroke-dasharray: 9.6,2.4,1.5,2.4; stroke-dashoffset: 0; stroke: #9467bd; stroke-width: 1.5"/>
   </g>
   <g id="patch_14">
    <path d="M 53.282 360.294617 
L 53.282 246.809235 
" style="fill: none; stroke: #000000; stroke-width: 0.8; stroke-linejoin: miter; stroke-linecap: square"/>
   </g>
   <g id="patch_15">
    <path d="M 201.981693 360.294617 
L 201.981693 246.809235 
" style="fill: none; stroke: #000000; stroke-width: 0.8; stroke-linejoin: miter; stroke-linecap: square"/>
   </g>
   <g id="patch_16">
    <path d="M 53.282 360.294617 
L 201.981693 360.294617 
" style="fill: none; stroke: #000000; stroke-width: 0.8; stroke-linejoin: miter; stroke-linecap: square"/>
   </g>
   <g id="patch_17">
    <path d="M 53.282 246.809235 
L 201.981693 246.809235 
" style="fill: none; stroke: #000000; stroke-width: 0.8; stroke-linejoin: miter; stroke-linecap: square"/>
   </g>
   <g id="text_24">
    <!-- (c) -->
    <g transform="translate(60.716985 261.562335) scale(0.1 -0.1)">
     <use xlink:href="#DejaVuSans-28"/>
     <use xlink:href="#DejaVuSans-63" x="39.013672"/>
     <use xlink:href="#DejaVuSans-29" x="93.994141"/>
    </g>
   </g>
  </g>
  <g id="axes_4">
   <g id="patch_18">
    <path d="M 53.282 477.28 
L 201.981693 477.28 
L 201.981693 363.794617 
L 53.282 363.794617 
z
" style="fill: #ffffff"/>
   </g>
   <g id="PolyCollection_13">
    <defs>
     <path id="m94f992c5f4" d="M 60.041077 -156.646956 
L 60.041077 -117.677655 
L 62.498923 -116.046799 
L 64.956769 -108.765182 
L 67.414615 -105.504058 
L 69.872462 -102.377124 
L 72.330308 -98.242559 
L 74.788154 -91.630932 
L 77.246 -90.960028 
L 79.703846 -88.15039 
L 82.161693 -83.661376 
L 84.619539 -80.353061 
L 84.619539 -128.405165 
L 84.619539 -128.405165 
L 82.161693 -128.694538 
L 79.703846 -132.070755 
L 77.246 -132.756495 
L 74.788154 -138.741147 
L 72.330308 -140.951803 
L 69.872462 -143.087334 
L 67.414615 -145.54482 
L 64.956769 -148.603996 
L 62.498923 -153.352333 
L 60.041077 -156.646956 
z
" style="stroke: #ff7f0e; stroke-opacity: 0.2; stroke-width: 0.1"/>
    </defs>
    <g clip-path="url(#pa279b50f49)">
     <use xlink:href="#m94f992c5f4" x="0" y="525.6" style="fill: #ff7f0e; fill-opacity: 0.2; stroke: #ff7f0e; stroke-opacity: 0.2; stroke-width: 0.1"/>
    </g>
   </g>
   <g id="PolyCollection_14">
    <defs>
     <path id="m266f4235df" d="M 87.077385 -123.26436 
L 87.077385 -78.487853 
L 89.535231 -73.301673 
L 91.993077 -71.190227 
L 94.450923 -69.566692 
L 96.90877 -66.153746 
L 99.366616 -65.727212 
L 101.824462 -64.082629 
L 104.282308 -60.674536 
L 106.740154 -58.766092 
L 109.198 -58.406793 
L 111.655847 -58.244585 
L 114.113693 -55.98102 
L 116.571539 -55.391877 
L 119.029385 -53.478426 
L 121.487231 -55.157989 
L 121.487231 -105.278442 
L 121.487231 -105.278442 
L 119.029385 -105.530951 
L 116.571539 -104.444568 
L 114.113693 -108.504709 
L 111.655847 -109.35907 
L 109.198 -107.729585 
L 106.740154 -110.054397 
L 104.282308 -112.040507 
L 101.824462 -115.216347 
L 99.366616 -115.491883 
L 96.90877 -116.844534 
L 94.450923 -119.580426 
L 91.993077 -122.270808 
L 89.535231 -123.627744 
L 87.077385 -123.26436 
z
" style="stroke: #2ca02c; stroke-opacity: 0.2; stroke-width: 0.1"/>
    </defs>
    <g clip-path="url(#pa279b50f49)">
     <use xlink:href="#m266f4235df" x="0" y="525.6" style="fill: #2ca02c; fill-opacity: 0.2; stroke: #2ca02c; stroke-opacity: 0.2; stroke-width: 0.1"/>
    </g>
   </g>
   <g id="PolyCollection_15">
    <defs>
     <path id="me9955babc1" d="M 123.945077 -105.500353 
L 123.945077 -53.713253 
L 126.402924 -53.984435 
L 128.86077 -54.326338 
L 131.318616 -54.261332 
L 133.776462 -53.73122 
L 136.234308 -54.424405 
L 138.692154 -54.378694 
L 141.150001 -55.304801 
L 143.607847 -55.614915 
L 146.065693 -55.73613 
L 148.523539 -56.761081 
L 150.981385 -57.29144 
L 153.439231 -57.874325 
L 155.897078 -58.523808 
L 158.354924 -58.971779 
L 158.354924 -98.725461 
L 158.354924 -98.725461 
L 155.897078 -97.601952 
L 153.439231 -98.167031 
L 150.981385 -96.841696 
L 148.523539 -97.020684 
L 146.065693 -100.500767 
L 143.607847 -99.033981 
L 141.150001 -99.0067 
L 138.692154 -100.305636 
L 136.234308 -101.661719 
L 133.776462 -102.151264 
L 131.318616 -101.416583 
L 128.86077 -103.088506 
L 126.402924 -101.347954 
L 123.945077 -105.500353 
z
" style="stroke: #d62728; stroke-opacity: 0.2; stroke-width: 0.1"/>
    </defs>
    <g clip-path="url(#pa279b50f49)">
     <use xlink:href="#me9955babc1" x="0" y="525.6" style="fill: #d62728; fill-opacity: 0.2; stroke: #d62728; stroke-opacity: 0.2; stroke-width: 0.1"/>
    </g>
   </g>
   <g id="PolyCollection_16">
    <defs>
     <path id="m0510aa8a35" d="M 160.81277 -97.920119 
L 160.81277 -59.666645 
L 163.270616 -60.256614 
L 165.728462 -61.204622 
L 168.186309 -61.558228 
L 170.644155 -61.624969 
L 173.102001 -63.401519 
L 175.559847 -63.736436 
L 178.017693 -63.535537 
L 180.475539 -64.864901 
L 182.933386 -65.411859 
L 185.391232 -66.304716 
L 187.849078 -66.950089 
L 190.306924 -67.625597 
L 192.76477 -68.516377 
L 195.222616 -68.540307 
L 195.222616 -98.381347 
L 195.222616 -98.381347 
L 192.76477 -99.920569 
L 190.306924 -100.283392 
L 187.849078 -98.220742 
L 185.391232 -98.324639 
L 182.933386 -99.051652 
L 180.475539 -98.192994 
L 178.017693 -98.384428 
L 175.559847 -98.509218 
L 173.102001 -99.362978 
L 170.644155 -97.771496 
L 168.186309 -97.662902 
L 165.728462 -97.994613 
L 163.270616 -95.96419 
L 160.81277 -97.920119 
z
" style="stroke: #9467bd; stroke-opacity: 0.2; stroke-width: 0.1"/>
    </defs>
    <g clip-path="url(#pa279b50f49)">
     <use xlink:href="#m0510aa8a35" x="0" y="525.6" style="fill: #9467bd; fill-opacity: 0.2; stroke: #9467bd; stroke-opacity: 0.2; stroke-width: 0.1"/>
    </g>
   </g>
   <g id="matplotlib.axis_7">
    <g id="xtick_10">
     <g id="line2d_40">
      <g>
       <use xlink:href="#m5823bf3036" x="96.90877" y="477.28" style="stroke: #000000; stroke-width: 0.8"/>
      </g>
     </g>
     <g id="text_25">
      <!-- 2 -->
      <g transform="translate(93.72752 491.878438) scale(0.1 -0.1)">
       <use xlink:href="#DejaVuSans-32"/>
      </g>
     </g>
    </g>
    <g id="xtick_11">
     <g id="line2d_41">
      <g>
       <use xlink:href="#m5823bf3036" x="146.065693" y="477.28" style="stroke: #000000; stroke-width: 0.8"/>
      </g>
     </g>
     <g id="text_26">
      <!-- 4 -->
      <g transform="translate(142.884443 491.878438) scale(0.1 -0.1)">
       <use xlink:href="#DejaVuSans-34"/>
      </g>
     </g>
    </g>
    <g id="xtick_12">
     <g id="line2d_42">
      <g>
       <use xlink:href="#m5823bf3036" x="195.222616" y="477.28" style="stroke: #000000; stroke-width: 0.8"/>
      </g>
     </g>
     <g id="text_27">
      <!-- 6 -->
      <g transform="translate(192.041366 491.878438) scale(0.1 -0.1)">
       <use xlink:href="#DejaVuSans-36"/>
      </g>
     </g>
    </g>
    <g id="text_28">
     <!-- pump strength $\sqrt{N}S/\kappa$ -->
     <g transform="translate(73.081847 509.058125) scale(0.1 -0.1)">
      <defs>
       <path id="DejaVuSans-73" d="M 2834 3397 
L 2834 2853 
Q 2591 2978 2328 3040 
Q 2066 3103 1784 3103 
Q 1356 3103 1142 2972 
Q 928 2841 928 2578 
Q 928 2378 1081 2264 
Q 1234 2150 1697 2047 
L 1894 2003 
Q 2506 1872 2764 1633 
Q 3022 1394 3022 966 
Q 3022 478 2636 193 
Q 2250 -91 1575 -91 
Q 1294 -91 989 -36 
Q 684 19 347 128 
L 347 722 
Q 666 556 975 473 
Q 1284 391 1588 391 
Q 1994 391 2212 530 
Q 2431 669 2431 922 
Q 2431 1156 2273 1281 
Q 2116 1406 1581 1522 
L 1381 1569 
Q 847 1681 609 1914 
Q 372 2147 372 2553 
Q 372 3047 722 3315 
Q 1072 3584 1716 3584 
Q 2034 3584 2315 3537 
Q 2597 3491 2834 3397 
z
" transform="scale(0.015625)"/>
       <path id="STIXSizeOneSym-Regular-221a" d="M 6970 9933 
L 3373 -1888 
L 3104 -1888 
L 1626 2918 
Q 1555 3149 1465 3251 
Q 1376 3354 1229 3354 
Q 1011 3354 794 3181 
L 717 3309 
L 1766 4115 
L 1926 4115 
L 3379 -602 
L 3405 -602 
L 6605 9933 
L 6970 9933 
z
" transform="scale(0.015625)"/>
       <path id="DejaVuSans-Oblique-53" d="M 3859 4513 
L 3738 3897 
Q 3422 4066 3111 4152 
Q 2800 4238 2509 4238 
Q 1944 4238 1609 3991 
Q 1275 3744 1275 3334 
Q 1275 3109 1398 2989 
Q 1522 2869 2034 2731 
L 2413 2638 
Q 3053 2472 3303 2217 
Q 3553 1963 3553 1503 
Q 3553 797 2998 353 
Q 2444 -91 1538 -91 
Q 1166 -91 791 -17 
Q 416 56 38 206 
L 166 856 
Q 513 641 861 531 
Q 1209 422 1556 422 
Q 2147 422 2503 684 
Q 2859 947 2859 1369 
Q 2859 1650 2717 1795 
Q 2575 1941 2106 2059 
L 1728 2156 
Q 1081 2325 845 2545 
Q 609 2766 609 3163 
Q 609 3859 1145 4304 
Q 1681 4750 2541 4750 
Q 2875 4750 3203 4690 
Q 3531 4631 3859 4513 
z
" transform="scale(0.015625)"/>
      </defs>
      <use xlink:href="#DejaVuSans-70" transform="translate(0 0.84375)"/>
      <use xlink:href="#DejaVuSans-75" transform="translate(63.476562 0.84375)"/>
      <use xlink:href="#DejaVuSans-6d" transform="translate(126.855469 0.84375)"/>
      <use xlink:href="#DejaVuSans-70" transform="translate(224.267578 0.84375)"/>
      <use xlink:href="#DejaVuSans-20" transform="translate(287.744141 0.84375)"/>
      <use xlink:href="#DejaVuSans-73" transform="translate(319.53125 0.84375)"/>
      <use xlink:href="#DejaVuSans-74" transform="translate(371.630859 0.84375)"/>
      <use xlink:href="#DejaVuSans-72" transform="translate(410.839844 0.84375)"/>
      <use xlink:href="#DejaVuSans-65" transform="translate(451.953125 0.84375)"/>
      <use xlink:href="#DejaVuSans-6e" transform="translate(513.476562 0.84375)"/>
      <use xlink:href="#DejaVuSans-67" transform="translate(576.855469 0.84375)"/>
      <use xlink:href="#DejaVuSans-74" transform="translate(640.332031 0.84375)"/>
      <use xlink:href="#DejaVuSans-68" transform="translate(679.541016 0.84375)"/>
      <use xlink:href="#DejaVuSans-20" transform="translate(742.919922 0.84375)"/>
      <use xlink:href="#STIXSizeOneSym-Regular-221a" transform="translate(774.707031 17.484375) scale(0.563912)"/>
      <use xlink:href="#DejaVuSans-Oblique-4e" transform="translate(846.811905 0.84375)"/>
      <use xlink:href="#DejaVuSans-Oblique-53" transform="translate(934.116592 0.84375)"/>
      <use xlink:href="#DejaVuSans-2f" transform="translate(997.593155 0.84375)"/>
      <use xlink:href="#DejaVuSans-Oblique-3ba" transform="translate(1031.284561 0.84375)"/>
      <path d="M 834.311905 98.5 
L 834.311905 104.75 
L 934.116592 104.75 
L 934.116592 98.5 
L 834.311905 98.5 
z
"/>
     </g>
    </g>
   </g>
   <g id="matplotlib.axis_8">
    <g id="ytick_15">
     <g id="line2d_43">
      <g>
       <use xlink:href="#m8ea36c251f" x="53.282" y="464.122582" style="stroke: #000000; stroke-width: 0.8"/>
      </g>
     </g>
     <g id="text_29">
      <!-- 2 -->
      <g transform="translate(39.9195 467.9218) scale(0.1 -0.1)">
       <use xlink:href="#DejaVuSans-32"/>
      </g>
     </g>
    </g>
    <g id="ytick_16">
     <g id="line2d_44">
      <g>
       <use xlink:href="#m8ea36c251f" x="53.282" y="421.117988" style="stroke: #000000; stroke-width: 0.8"/>
      </g>
     </g>
     <g id="text_30">
      <!-- 4 -->
      <g transform="translate(39.9195 424.917207) scale(0.1 -0.1)">
       <use xlink:href="#DejaVuSans-34"/>
      </g>
     </g>
    </g>
    <g id="ytick_17">
     <g id="line2d_45">
      <g>
       <use xlink:href="#m8ea36c251f" x="53.282" y="378.113395" style="stroke: #000000; stroke-width: 0.8"/>
      </g>
     </g>
     <g id="text_31">
      <!-- 6 -->
      <g transform="translate(39.9195 381.912614) scale(0.1 -0.1)">
       <use xlink:href="#DejaVuSans-36"/>
      </g>
     </g>
    </g>
    <g id="text_32">
     <!-- final kinetic energy $E_\mathrm{kin}/\hbar\kappa$ -->
     <g transform="translate(33.8195 486.837309) rotate(-90) scale(0.1 -0.1)">
      <defs>
       <path id="DejaVuSans-66" d="M 2375 4863 
L 2375 4384 
L 1825 4384 
Q 1516 4384 1395 4259 
Q 1275 4134 1275 3809 
L 1275 3500 
L 2222 3500 
L 2222 3053 
L 1275 3053 
L 1275 0 
L 697 0 
L 697 3053 
L 147 3053 
L 147 3500 
L 697 3500 
L 697 3744 
Q 697 4328 969 4595 
Q 1241 4863 1831 4863 
L 2375 4863 
z
" transform="scale(0.015625)"/>
       <path id="DejaVuSans-6b" d="M 581 4863 
L 1159 4863 
L 1159 1991 
L 2875 3500 
L 3609 3500 
L 1753 1863 
L 3688 0 
L 2938 0 
L 1159 1709 
L 1159 0 
L 581 0 
L 581 4863 
z
" transform="scale(0.015625)"/>
       <path id="DejaVuSans-Oblique-45" d="M 1081 4666 
L 4031 4666 
L 3928 4134 
L 1606 4134 
L 1338 2753 
L 3566 2753 
L 3463 2222 
L 1234 2222 
L 909 531 
L 3284 531 
L 3181 0 
L 172 0 
L 1081 4666 
z
" transform="scale(0.015625)"/>
       <path id="DejaVuSans-Oblique-127" d="M 3634 2113 
L 3225 0 
L 2650 0 
L 3056 2094 
Q 3094 2291 3094 2450 
Q 3094 2688 3006 2838 
Q 2863 3084 2475 3084 
Q 2009 3084 1681 2788 
Q 1356 2491 1256 1978 
L 872 0 
L 294 0 
L 1066 3969 
L 675 3969 
L 775 4481 
L 1166 4481 
L 1238 4863 
L 1816 4863 
L 1744 4481 
L 2844 4481 
L 2744 3969 
L 1644 3969 
L 1447 2956 
Q 1713 3272 2025 3428 
Q 2331 3584 2700 3584 
Q 3300 3584 3538 3213 
Q 3688 2975 3688 2606 
Q 3688 2381 3634 2113 
z
" transform="scale(0.015625)"/>
      </defs>
      <use xlink:href="#DejaVuSans-66" transform="translate(0 0.015625)"/>
      <use xlink:href="#DejaVuSans-69" transform="translate(35.205078 0.015625)"/>
      <use xlink:href="#DejaVuSans-6e" transform="translate(62.988281 0.015625)"/>
      <use xlink:href="#DejaVuSans-61" transform="translate(126.367188 0.015625)"/>
      <use xlink:href="#DejaVuSans-6c" transform="translate(187.646484 0.015625)"/>
      <use xlink:href="#DejaVuSans-20" transform="translate(215.429688 0.015625)"/>
      <use xlink:href="#DejaVuSans-6b" transform="translate(247.216797 0.015625)"/>
      <use xlink:href="#DejaVuSans-69" transform="translate(305.126953 0.015625)"/>
      <use xlink:href="#DejaVuSans-6e" transform="translate(332.910156 0.015625)"/>
      <use xlink:href="#DejaVuSans-65" transform="translate(396.289062 0.015625)"/>
      <use xlink:href="#DejaVuSans-74" transform="translate(457.8125 0.015625)"/>
      <use xlink:href="#DejaVuSans-69" transform="translate(497.021484 0.015625)"/>
      <use xlink:href="#DejaVuSans-63" transform="translate(524.804688 0.015625)"/>
      <use xlink:href="#DejaVuSans-20" transform="translate(579.785156 0.015625)"/>
      <use xlink:href="#DejaVuSans-65" transform="translate(611.572266 0.015625)"/>
      <use xlink:href="#DejaVuSans-6e" transform="translate(673.095703 0.015625)"/>
      <use xlink:href="#DejaVuSans-65" transform="translate(736.474609 0.015625)"/>
      <use xlink:href="#DejaVuSans-72" transform="translate(797.998047 0.015625)"/>
      <use xlink:href="#DejaVuSans-67" transform="translate(839.111328 0.015625)"/>
      <use xlink:href="#DejaVuSans-79" transform="translate(902.587891 0.015625)"/>
      <use xlink:href="#DejaVuSans-20" transform="translate(961.767578 0.015625)"/>
      <use xlink:href="#DejaVuSans-Oblique-45" transform="translate(993.554688 0.015625)"/>
      <use xlink:href="#DejaVuSans-6b" transform="translate(1056.738281 -16.390625) scale(0.7)"/>
      <use xlink:href="#DejaVuSans-69" transform="translate(1097.275391 -16.390625) scale(0.7)"/>
      <use xlink:href="#DejaVuSans-6e" transform="translate(1116.723633 -16.390625) scale(0.7)"/>
      <use xlink:href="#DejaVuSans-2f" transform="translate(1163.823242 0.015625)"/>
      <use xlink:href="#DejaVuSans-Oblique-127" transform="translate(1197.514648 0.015625)"/>
      <use xlink:href="#DejaVuSans-Oblique-3ba" transform="translate(1266.99707 0.015625)"/>
     </g>
    </g>
   </g>
   <g id="line2d_46">
    <path d="M 60.041077 387.676439 
L 62.498923 391.119416 
L 64.956769 396.10528 
L 67.414615 399.266743 
L 69.872462 401.697849 
L 72.330308 405.516927 
L 74.788154 408.680773 
L 77.246 412.15202 
L 79.703846 415.053928 
L 82.161693 417.751964 
L 84.619539 420.04134 
" clip-path="url(#pa279b50f49)" style="fill: none; stroke: #ff7f0e; stroke-width: 1.5; stroke-linecap: square"/>
   </g>
   <g id="line2d_47">
    <path d="M 87.077385 422.86888 
L 89.535231 425.26909 
L 91.993077 427.367698 
L 94.450923 429.914343 
L 96.90877 431.904002 
L 99.366616 433.166274 
L 101.824462 435.203499 
L 104.282308 437.420288 
L 106.740154 438.381523 
L 109.198 440.313797 
L 111.655847 440.522548 
L 114.113693 441.411838 
L 116.571539 443.776466 
L 119.029385 443.930282 
L 121.487231 444.401129 
" clip-path="url(#pa279b50f49)" style="fill: none; stroke-dasharray: 5.55,2.4; stroke-dashoffset: 0; stroke: #2ca02c; stroke-width: 1.5"/>
   </g>
   <g id="line2d_48">
    <path d="M 123.945077 445.307496 
L 126.402924 446.766267 
L 128.86077 446.903573 
L 131.318616 446.98729 
L 133.776462 448.707411 
L 136.234308 448.88748 
L 138.692154 449.268034 
L 141.150001 450.100533 
L 143.607847 450.069746 
L 146.065693 449.516894 
L 148.523539 450.423375 
L 150.981385 450.584931 
L 153.439231 450.179737 
L 155.897078 449.681564 
L 158.354924 449.828148 
" clip-path="url(#pa279b50f49)" style="fill: none; stroke-dasharray: 1.5,2.475; stroke-dashoffset: 0; stroke: #d62728; stroke-width: 1.5"/>
   </g>
   <g id="line2d_49">
    <path d="M 160.81277 449.551943 
L 163.270616 449.58439 
L 165.728462 449.030602 
L 168.186309 448.865332 
L 170.644155 448.599048 
L 173.102001 447.617015 
L 175.559847 447.724468 
L 178.017693 448.20532 
L 180.475539 447.040167 
L 182.933386 446.673001 
L 185.391232 446.567264 
L 187.849078 445.89937 
L 190.306924 445.536006 
L 192.76477 445.10831 
L 195.222616 445.201879 
" clip-path="url(#pa279b50f49)" style="fill: none; stroke-dasharray: 9.6,2.4,1.5,2.4; stroke-dashoffset: 0; stroke: #9467bd; stroke-width: 1.5"/>
   </g>
   <g id="patch_19">
    <path d="M 53.282 477.28 
L 53.282 363.794617 
" style="fill: none; stroke: #000000; stroke-width: 0.8; stroke-linejoin: miter; stroke-linecap: square"/>
   </g>
   <g id="patch_20">
    <path d="M 201.981693 477.28 
L 201.981693 363.794617 
" style="fill: none; stroke: #000000; stroke-width: 0.8; stroke-linejoin: miter; stroke-linecap: square"/>
   </g>
   <g id="patch_21">
    <path d="M 53.282 477.28 
L 201.981693 477.28 
" style="fill: none; stroke: #000000; stroke-width: 0.8; stroke-linejoin: miter; stroke-linecap: square"/>
   </g>
   <g id="patch_22">
    <path d="M 53.282 363.794617 
L 201.981693 363.794617 
" style="fill: none; stroke: #000000; stroke-width: 0.8; stroke-linejoin: miter; stroke-linecap: square"/>
   </g>
   <g id="text_33">
    <!-- (d) -->
    <g transform="translate(60.716985 378.547717) scale(0.1 -0.1)">
     <use xlink:href="#DejaVuSans-28"/>
     <use xlink:href="#DejaVuSans-64" x="39.013672"/>
     <use xlink:href="#DejaVuSans-29" x="102.490234"/>
    </g>
   </g>
  </g>
 </g>
 <defs>
  <clipPath id="p7a6c087706">
   <rect x="53.282" y="12.83847" width="148.699693" height="113.485383"/>
  </clipPath>
  <clipPath id="p103e724ad2">
   <rect x="53.282" y="129.823852" width="148.699693" height="113.485383"/>
  </clipPath>
  <clipPath id="p9687fc88d2">
   <rect x="53.282" y="246.809235" width="148.699693" height="113.485383"/>
  </clipPath>
  <clipPath id="pa279b50f49">
   <rect x="53.282" y="363.794617" width="148.699693" height="113.485383"/>
  </clipPath>
 </defs>
</svg>
