<?xml version="1.0" encoding="utf-8" standalone="no"?>
<!DOCTYPE svg PUBLIC "-//W3C//DTD SVG 1.1//EN"
  "http://www.w3.org/Graphics/SVG/1.1/DTD/svg11.dtd">
<svg xmlns:xlink="http://www.w3.org/1999/xlink" width="234pt" height="144pt" viewBox="0 0 234 144" xmlns="http://www.w3.org/2000/svg" version="1.1">
 <metadata>
  <rdf:RDF xmlns:dc="http://purl.org/dc/elements/1.1/" xmlns:cc="http://creativecommons.org/ns#" xmlns:rdf="http://www.w3.org/1999/02/22-rdf-syntax-ns#">
   <cc:Work>
    <dc:type rdf:resource="http://purl.org/dc/dcmitype/StillImage"/>
    <dc:date>2024-02-05T16:30:48.735867</dc:date>
    <dc:format>image/svg+xml</dc:format>
    <dc:creator>
     <cc:Agent>
      <dc:title>Matplotlib v3.8.2, https://matplotlib.org/</dc:title>
     </cc:Agent>
    </dc:creator>
   </cc:Work>
  </rdf:RDF>
 </metadata>
 <defs>
  <style type="text/css">*{stroke-linejoin: round; stroke-linecap: butt}</style>
 </defs>
 <g id="figure_1">
  <g id="patch_1">
   <path d="M 0 144 
L 234 144 
L 234 0 
L 0 0 
z
" style="fill: #ffffff"/>
  </g>
  <g id="axes_1">
   <g id="patch_2">
    <path d="M 40.242 99.348 
L 218.696155 99.348 
L 218.696155 10.8 
L 40.242 10.8 
z
" style="fill: #ffffff"/>
   </g>
   <g id="PolyCollection_1">
    <defs>
     <path id="m2e9e7ce71a" d="M 48.353552 -48.676909 
L 48.353552 -48.676909 
L 48.678015 -48.875855 
L 49.002477 -49.385178 
L 49.326939 -50.768342 
L 49.651401 -53.063811 
L 49.975863 -54.267781 
L 50.300325 -55.777991 
L 50.624787 -56.878876 
L 50.949249 -58.000276 
L 51.273711 -59.288657 
L 51.598173 -60.678875 
L 51.922636 -61.269096 
L 52.247098 -61.715087 
L 52.57156 -62.876789 
L 52.896022 -63.985147 
L 53.220484 -63.706443 
L 53.544946 -64.629753 
L 53.869408 -66.072471 
L 54.19387 -65.484811 
L 54.518332 -66.653496 
L 54.842794 -66.560255 
L 55.167257 -67.740836 
L 55.491719 -67.753454 
L 55.816181 -68.790216 
L 56.140643 -69.500987 
L 56.465105 -68.857071 
L 56.789567 -69.309683 
L 57.114029 -70.101288 
L 57.438491 -70.927191 
L 57.762953 -70.781887 
L 58.087415 -70.619683 
L 58.411878 -71.577012 
L 58.73634 -72.019451 
L 59.060802 -72.572846 
L 59.385264 -71.6503 
L 59.709726 -72.038608 
L 60.034188 -73.008147 
L 60.35865 -72.788636 
L 60.683112 -73.50988 
L 61.007574 -72.650956 
L 61.332036 -72.666627 
L 61.656499 -73.852411 
L 61.980961 -74.875522 
L 62.305423 -75.317807 
L 62.629885 -75.050557 
L 62.954347 -74.890146 
L 63.278809 -75.893441 
L 63.603271 -75.5894 
L 63.927733 -76.943302 
L 64.252195 -76.964411 
L 64.576657 -76.665289 
L 64.90112 -76.112598 
L 65.225582 -76.463599 
L 65.550044 -76.946761 
L 65.874506 -76.581333 
L 66.198968 -78.000358 
L 66.52343 -76.873692 
L 66.847892 -76.946244 
L 67.172354 -77.95337 
L 67.496816 -77.947697 
L 67.821278 -78.248098 
L 68.145741 -78.621527 
L 68.470203 -78.669612 
L 68.794665 -78.234021 
L 69.119127 -78.615522 
L 69.443589 -76.688252 
L 69.768051 -78.24634 
L 70.092513 -78.41717 
L 70.416975 -79.192345 
L 70.741437 -79.023372 
L 71.065899 -78.125081 
L 71.390362 -79.625693 
L 71.714824 -78.754468 
L 72.039286 -79.320372 
L 72.363748 -79.535845 
L 72.68821 -78.902546 
L 73.012672 -79.094591 
L 73.337134 -80.222733 
L 73.661596 -79.126387 
L 73.986058 -79.367454 
L 74.31052 -80.011312 
L 74.634983 -80.737848 
L 74.959445 -80.52749 
L 75.283907 -80.904903 
L 75.608369 -80.315212 
L 75.932831 -80.280675 
L 76.257293 -80.933157 
L 76.581755 -81.27478 
L 76.906217 -81.60557 
L 77.230679 -81.245528 
L 77.555141 -81.204004 
L 77.879604 -81.291606 
L 78.204066 -80.875209 
L 78.528528 -81.451243 
L 78.85299 -81.40563 
L 79.177452 -81.356697 
L 79.501914 -81.737297 
L 79.826376 -80.888176 
L 80.150838 -80.370516 
L 80.4753 -81.572135 
L 80.799762 -81.710133 
L 81.124224 -81.605697 
L 81.448687 -81.834086 
L 81.773149 -81.010863 
L 82.097611 -80.265542 
L 82.422073 -81.756062 
L 82.746535 -81.761855 
L 83.070997 -82.191361 
L 83.395459 -81.422354 
L 83.719921 -83.052005 
L 84.044383 -81.895852 
L 84.368845 -82.76885 
L 84.693308 -81.60246 
L 85.01777 -82.638412 
L 85.342232 -81.76695 
L 85.666694 -80.337125 
L 85.991156 -80.9056 
L 86.315618 -81.219046 
L 86.64008 -82.439144 
L 86.964542 -81.863825 
L 87.289004 -82.254446 
L 87.613466 -81.543426 
L 87.937929 -81.901648 
L 88.262391 -82.164983 
L 88.586853 -82.068996 
L 88.911315 -82.197557 
L 89.235777 -81.887107 
L 89.560239 -82.689238 
L 89.884701 -82.435684 
L 90.209163 -82.17702 
L 90.533625 -82.221626 
L 90.858087 -81.604719 
L 91.18255 -82.013108 
L 91.507012 -81.990239 
L 91.831474 -82.763726 
L 92.155936 -83.019259 
L 92.480398 -84.114731 
L 92.80486 -83.451934 
L 93.129322 -82.946795 
L 93.453784 -82.899711 
L 93.778246 -83.40479 
L 94.102708 -82.446039 
L 94.427171 -83.138498 
L 94.751633 -82.574948 
L 95.076095 -83.497467 
L 95.400557 -83.150975 
L 95.725019 -83.974863 
L 96.049481 -83.054222 
L 96.373943 -83.522134 
L 96.698405 -83.228953 
L 97.022867 -83.061611 
L 97.347329 -83.117679 
L 97.671792 -83.003385 
L 97.996254 -82.845213 
L 98.320716 -83.479342 
L 98.645178 -82.240195 
L 98.96964 -82.621095 
L 99.294102 -82.847141 
L 99.618564 -84.013357 
L 99.943026 -83.847655 
L 100.267488 -83.4796 
L 100.59195 -83.700556 
L 100.916413 -83.653608 
L 101.240875 -82.787626 
L 101.565337 -84.022862 
L 101.889799 -84.567016 
L 102.214261 -83.912146 
L 102.538723 -83.170364 
L 102.863185 -83.105313 
L 103.187647 -84.008759 
L 103.512109 -85.090778 
L 103.836571 -82.96756 
L 104.161034 -83.708558 
L 104.485496 -84.751231 
L 104.809958 -83.971515 
L 105.13442 -82.844674 
L 105.458882 -83.624973 
L 105.783344 -83.938052 
L 106.107806 -84.023285 
L 106.432268 -84.056259 
L 106.75673 -83.836551 
L 107.081192 -83.869071 
L 107.405655 -83.37789 
L 107.730117 -82.874603 
L 108.054579 -83.227743 
L 108.379041 -83.910984 
L 108.703503 -84.080379 
L 109.027965 -84.142102 
L 109.352427 -84.855322 
L 109.676889 -85.04501 
L 110.001351 -84.003899 
L 110.325813 -84.439615 
L 110.650276 -84.733406 
L 110.974738 -83.786783 
L 111.2992 -84.220856 
L 111.623662 -84.478481 
L 111.948124 -84.916442 
L 112.272586 -84.642848 
L 112.597048 -83.332852 
L 112.92151 -83.250687 
L 113.245972 -83.576644 
L 113.570434 -83.721723 
L 113.894897 -83.652975 
L 114.219359 -85.006271 
L 114.543821 -84.528139 
L 114.868283 -83.911141 
L 115.192745 -83.976374 
L 115.517207 -84.237735 
L 115.841669 -83.877732 
L 116.166131 -83.643555 
L 116.490593 -84.187999 
L 116.815055 -83.228198 
L 117.139518 -83.887294 
L 117.46398 -83.369605 
L 117.788442 -84.057961 
L 118.112904 -83.162382 
L 118.437366 -82.974952 
L 118.761828 -83.534637 
L 119.08629 -83.915274 
L 119.410752 -83.450641 
L 119.735214 -83.53412 
L 120.059676 -85.292352 
L 120.384138 -83.963699 
L 120.708601 -84.669922 
L 121.033063 -85.668917 
L 121.357525 -84.771179 
L 121.681987 -85.217835 
L 122.006449 -84.63473 
L 122.330911 -85.494924 
L 122.655373 -85.546944 
L 122.979835 -84.735113 
L 123.304297 -84.881116 
L 123.628759 -84.874768 
L 123.953222 -83.966958 
L 124.277684 -83.693897 
L 124.602146 -84.347303 
L 124.926608 -84.198004 
L 125.25107 -84.163696 
L 125.575532 -83.329246 
L 125.899994 -84.233102 
L 126.224456 -84.527099 
L 126.548918 -85.844025 
L 126.87338 -83.950986 
L 127.197843 -84.625744 
L 127.522305 -84.507707 
L 127.846767 -84.268604 
L 128.171229 -85.482142 
L 128.495691 -84.742942 
L 128.820153 -84.651318 
L 129.144615 -84.237378 
L 129.469077 -83.912727 
L 129.793539 -84.370894 
L 130.118001 -83.420047 
L 130.442464 -84.696555 
L 130.766926 -83.969015 
L 131.091388 -83.938016 
L 131.41585 -84.595412 
L 131.740312 -84.427723 
L 132.064774 -84.050857 
L 132.389236 -85.558558 
L 132.713698 -86.200313 
L 133.03816 -84.971517 
L 133.362622 -84.428204 
L 133.687085 -84.013549 
L 134.011547 -84.236475 
L 134.336009 -85.621705 
L 134.660471 -85.001597 
L 134.984933 -84.177813 
L 135.309395 -85.637082 
L 135.633857 -84.505309 
L 135.958319 -85.423857 
L 136.282781 -85.167088 
L 136.607243 -84.46861 
L 136.931706 -84.678763 
L 137.256168 -84.793842 
L 137.58063 -84.550827 
L 137.905092 -84.58812 
L 138.229554 -84.796038 
L 138.554016 -85.118677 
L 138.878478 -85.327039 
L 139.20294 -84.702511 
L 139.527402 -84.134276 
L 139.851864 -83.811037 
L 140.176327 -84.285364 
L 140.500789 -84.639047 
L 140.825251 -85.159246 
L 141.149713 -86.197834 
L 141.474175 -85.39901 
L 141.798637 -84.466735 
L 142.123099 -83.930547 
L 142.447561 -86.105664 
L 142.772023 -85.581685 
L 143.096485 -84.867414 
L 143.420948 -84.929869 
L 143.74541 -85.375477 
L 144.069872 -84.62687 
L 144.394334 -85.510982 
L 144.718796 -84.583357 
L 145.043258 -84.752511 
L 145.36772 -85.077247 
L 145.692182 -83.49326 
L 146.016644 -85.118103 
L 146.341106 -84.888557 
L 146.665569 -84.80743 
L 146.990031 -84.509305 
L 147.314493 -85.172729 
L 147.638955 -84.75996 
L 147.963417 -86.083643 
L 148.287879 -85.084804 
L 148.612341 -85.541869 
L 148.936803 -86.465726 
L 149.261265 -86.243103 
L 149.585727 -85.310552 
L 149.91019 -84.676852 
L 150.234652 -85.094468 
L 150.559114 -84.930192 
L 150.883576 -85.663879 
L 151.208038 -84.105865 
L 151.5325 -85.435455 
L 151.856962 -85.38221 
L 152.181424 -84.187328 
L 152.505886 -84.88366 
L 152.830348 -84.354966 
L 153.154811 -84.824646 
L 153.479273 -84.288915 
L 153.803735 -85.037143 
L 154.128197 -84.724438 
L 154.452659 -84.561575 
L 154.777121 -83.295367 
L 155.101583 -83.173898 
L 155.426045 -84.08222 
L 155.750507 -85.818462 
L 156.074969 -86.241986 
L 156.399432 -84.247318 
L 156.723894 -84.824939 
L 157.048356 -85.669951 
L 157.372818 -85.622935 
L 157.69728 -85.69997 
L 158.021742 -86.398614 
L 158.346204 -86.748516 
L 158.670666 -86.540676 
L 158.995128 -85.209295 
L 159.31959 -85.907379 
L 159.644052 -86.362128 
L 159.968515 -84.964875 
L 160.292977 -85.435638 
L 160.617439 -85.750383 
L 160.941901 -86.275381 
L 161.266363 -85.980823 
L 161.590825 -85.754477 
L 161.915287 -85.341971 
L 162.239749 -86.827998 
L 162.564211 -85.834065 
L 162.888673 -85.958321 
L 163.213136 -85.851128 
L 163.537598 -85.881811 
L 163.86206 -86.584693 
L 164.186522 -85.853569 
L 164.510984 -84.730518 
L 164.835446 -85.608035 
L 165.159908 -85.945912 
L 165.48437 -85.896166 
L 165.808832 -86.240507 
L 166.133294 -84.961289 
L 166.457757 -85.393127 
L 166.782219 -85.678734 
L 167.106681 -85.605815 
L 167.431143 -85.536823 
L 167.755605 -85.393198 
L 168.080067 -85.089304 
L 168.404529 -85.106482 
L 168.728991 -85.099831 
L 169.053453 -85.771302 
L 169.377915 -86.19256 
L 169.702378 -84.645759 
L 170.02684 -85.08771 
L 170.351302 -85.554225 
L 170.675764 -86.856636 
L 171.000226 -85.544792 
L 171.324688 -85.919965 
L 171.64915 -86.6091 
L 171.973612 -86.192473 
L 172.298074 -86.095069 
L 172.622536 -86.175959 
L 172.946999 -86.160721 
L 173.271461 -86.299526 
L 173.595923 -84.673885 
L 173.920385 -85.598236 
L 174.244847 -85.815307 
L 174.569309 -85.52961 
L 174.893771 -84.433915 
L 175.218233 -84.327837 
L 175.542695 -84.044161 
L 175.867157 -82.913629 
L 176.19162 -83.355525 
L 176.516082 -83.383178 
L 176.840544 -84.868474 
L 177.165006 -83.909862 
L 177.489468 -84.856124 
L 177.81393 -84.160789 
L 178.138392 -84.454638 
L 178.462854 -85.453311 
L 178.787316 -85.537222 
L 179.111778 -85.589127 
L 179.436241 -85.878264 
L 179.760703 -85.55743 
L 180.085165 -86.700294 
L 180.409627 -86.178574 
L 180.734089 -85.052377 
L 181.058551 -85.916056 
L 181.383013 -86.105943 
L 181.707475 -85.80302 
L 182.031937 -85.593002 
L 182.356399 -84.82817 
L 182.680862 -85.367292 
L 183.005324 -85.700928 
L 183.329786 -86.481869 
L 183.654248 -85.761138 
L 183.97871 -86.100501 
L 184.303172 -86.980357 
L 184.627634 -85.611068 
L 184.952096 -85.755171 
L 185.276558 -86.174044 
L 185.60102 -86.133398 
L 185.925483 -86.281376 
L 186.249945 -85.678848 
L 186.574407 -84.892787 
L 186.898869 -85.004069 
L 187.223331 -85.535326 
L 187.547793 -84.296034 
L 187.872255 -85.806926 
L 188.196717 -86.127754 
L 188.521179 -84.813891 
L 188.845641 -84.113086 
L 189.170104 -85.43187 
L 189.494566 -85.713208 
L 189.819028 -85.881721 
L 190.14349 -85.352545 
L 190.467952 -85.992237 
L 190.792414 -85.382342 
L 191.116876 -86.357944 
L 191.441338 -85.839608 
L 191.7658 -87.324751 
L 192.090262 -86.139 
L 192.414725 -85.864622 
L 192.739187 -86.134907 
L 193.063649 -86.461337 
L 193.388111 -85.946776 
L 193.712573 -85.53721 
L 194.037035 -86.124474 
L 194.361497 -86.807277 
L 194.685959 -86.423536 
L 195.010421 -85.52774 
L 195.334883 -85.019365 
L 195.659346 -84.195921 
L 195.983808 -85.977676 
L 196.30827 -86.168487 
L 196.632732 -85.704886 
L 196.957194 -85.475582 
L 197.281656 -85.184988 
L 197.606118 -85.240601 
L 197.93058 -84.661419 
L 198.255042 -85.735194 
L 198.579504 -84.295541 
L 198.903966 -85.490091 
L 199.228429 -85.249767 
L 199.552891 -86.076504 
L 199.877353 -85.994303 
L 200.201815 -85.569858 
L 200.526277 -86.299849 
L 200.850739 -85.456274 
L 201.175201 -87.604695 
L 201.499663 -85.924824 
L 201.824125 -85.388066 
L 202.148587 -85.803495 
L 202.47305 -85.908056 
L 202.797512 -86.15325 
L 203.121974 -86.803213 
L 203.446436 -86.257393 
L 203.770898 -86.183348 
L 204.09536 -87.209438 
L 204.419822 -85.4095 
L 204.744284 -85.616105 
L 205.068746 -86.364057 
L 205.393208 -86.349224 
L 205.717671 -85.819993 
L 206.042133 -85.51804 
L 206.366595 -85.255795 
L 206.691057 -85.879375 
L 207.015519 -86.911075 
L 207.339981 -84.691668 
L 207.664443 -85.96014 
L 207.988905 -86.22396 
L 208.313367 -86.388467 
L 208.637829 -86.961947 
L 208.962292 -86.959413 
L 209.286754 -85.766628 
L 209.611216 -85.869055 
L 209.935678 -86.135819 
L 210.26014 -87.336093 
L 210.584602 -86.679226 
L 210.584602 -127.885226 
L 210.584602 -127.885226 
L 210.26014 -128.24744 
L 209.935678 -126.850347 
L 209.611216 -126.660082 
L 209.286754 -126.584032 
L 208.962292 -126.668668 
L 208.637829 -127.578685 
L 208.313367 -127.093759 
L 207.988905 -128.210987 
L 207.664443 -128.138992 
L 207.339981 -127.584802 
L 207.015519 -127.069367 
L 206.691057 -127.539175 
L 206.366595 -127.94351 
L 206.042133 -127.496961 
L 205.717671 -126.891718 
L 205.393208 -128.786865 
L 205.068746 -128.371181 
L 204.744284 -127.332954 
L 204.419822 -127.650903 
L 204.09536 -127.447186 
L 203.770898 -128.104212 
L 203.446436 -127.13869 
L 203.121974 -126.565133 
L 202.797512 -129.064116 
L 202.47305 -127.687132 
L 202.148587 -128.174276 
L 201.824125 -128.091462 
L 201.499663 -127.958471 
L 201.175201 -127.39491 
L 200.850739 -127.44769 
L 200.526277 -128.142319 
L 200.201815 -128.953488 
L 199.877353 -127.465301 
L 199.552891 -127.584786 
L 199.228429 -127.133491 
L 198.903966 -128.179908 
L 198.579504 -127.619648 
L 198.255042 -127.439113 
L 197.93058 -126.867807 
L 197.606118 -127.921498 
L 197.281656 -128.427547 
L 196.957194 -128.630855 
L 196.632732 -127.138377 
L 196.30827 -128.116405 
L 195.983808 -127.291993 
L 195.659346 -128.378621 
L 195.334883 -128.767674 
L 195.010421 -128.228707 
L 194.685959 -126.32835 
L 194.361497 -127.310925 
L 194.037035 -126.215115 
L 193.712573 -128.816867 
L 193.388111 -127.816438 
L 193.063649 -129.175091 
L 192.739187 -126.976192 
L 192.414725 -127.41891 
L 192.090262 -127.563006 
L 191.7658 -128.593832 
L 191.441338 -128.279409 
L 191.116876 -127.215412 
L 190.792414 -128.648526 
L 190.467952 -129.1512 
L 190.14349 -127.83481 
L 189.819028 -127.009128 
L 189.494566 -128.306105 
L 189.170104 -128.1267 
L 188.845641 -127.983575 
L 188.521179 -127.503775 
L 188.196717 -128.998878 
L 187.872255 -128.336646 
L 187.547793 -126.490243 
L 187.223331 -127.006321 
L 186.898869 -127.325489 
L 186.574407 -128.440383 
L 186.249945 -127.640711 
L 185.925483 -128.695173 
L 185.60102 -128.758062 
L 185.276558 -128.171774 
L 184.952096 -126.731423 
L 184.627634 -128.442606 
L 184.303172 -127.734706 
L 183.97871 -127.452356 
L 183.654248 -127.821209 
L 183.329786 -128.62651 
L 183.005324 -125.691793 
L 182.680862 -126.788054 
L 182.356399 -126.443617 
L 182.031937 -126.368506 
L 181.707475 -127.571821 
L 181.383013 -126.146382 
L 181.058551 -127.599823 
L 180.734089 -126.822878 
L 180.409627 -127.610943 
L 180.085165 -126.095949 
L 179.760703 -127.12471 
L 179.436241 -127.333974 
L 179.111778 -126.321779 
L 178.787316 -127.069612 
L 178.462854 -127.794462 
L 178.138392 -127.245546 
L 177.81393 -129.10192 
L 177.489468 -128.544082 
L 177.165006 -127.609754 
L 176.840544 -127.603388 
L 176.516082 -125.556623 
L 176.19162 -127.79134 
L 175.867157 -126.653211 
L 175.542695 -127.544265 
L 175.218233 -127.790957 
L 174.893771 -126.201559 
L 174.569309 -128.41314 
L 174.244847 -126.634009 
L 173.920385 -126.785846 
L 173.595923 -125.218986 
L 173.271461 -126.098918 
L 172.946999 -125.562737 
L 172.622536 -125.868266 
L 172.298074 -127.75155 
L 171.973612 -126.782586 
L 171.64915 -125.432086 
L 171.324688 -127.301001 
L 171.000226 -127.554382 
L 170.675764 -127.37906 
L 170.351302 -128.064175 
L 170.02684 -125.429695 
L 169.702378 -125.312918 
L 169.377915 -126.772514 
L 169.053453 -126.84509 
L 168.728991 -128.399377 
L 168.404529 -126.031049 
L 168.080067 -127.963462 
L 167.755605 -128.711733 
L 167.431143 -126.535274 
L 167.106681 -125.346444 
L 166.782219 -126.556669 
L 166.457757 -124.884671 
L 166.133294 -125.260309 
L 165.808832 -125.229873 
L 165.48437 -125.189882 
L 165.159908 -125.53628 
L 164.835446 -126.65839 
L 164.510984 -125.913502 
L 164.186522 -126.097095 
L 163.86206 -124.772133 
L 163.537598 -125.803275 
L 163.213136 -125.031315 
L 162.888673 -126.058848 
L 162.564211 -126.382203 
L 162.239749 -126.303148 
L 161.915287 -126.350638 
L 161.590825 -126.10511 
L 161.266363 -126.205031 
L 160.941901 -127.156732 
L 160.617439 -127.456411 
L 160.292977 -126.394846 
L 159.968515 -125.780801 
L 159.644052 -127.559955 
L 159.31959 -127.102104 
L 158.995128 -126.210111 
L 158.670666 -126.217046 
L 158.346204 -125.964326 
L 158.021742 -126.186253 
L 157.69728 -125.947147 
L 157.372818 -127.501665 
L 157.048356 -127.137027 
L 156.723894 -126.09773 
L 156.399432 -126.714179 
L 156.074969 -124.778972 
L 155.750507 -124.865222 
L 155.426045 -126.543747 
L 155.101583 -124.808265 
L 154.777121 -126.235456 
L 154.452659 -125.946898 
L 154.128197 -123.929466 
L 153.803735 -125.502903 
L 153.479273 -125.685477 
L 153.154811 -125.151018 
L 152.830348 -125.579019 
L 152.505886 -125.560668 
L 152.181424 -126.137142 
L 151.856962 -127.851634 
L 151.5325 -127.098678 
L 151.208038 -125.840721 
L 150.883576 -126.546037 
L 150.559114 -126.321199 
L 150.234652 -127.091419 
L 149.91019 -126.164572 
L 149.585727 -128.239052 
L 149.261265 -126.415727 
L 148.936803 -127.656923 
L 148.612341 -127.768387 
L 148.287879 -127.501853 
L 147.963417 -127.721334 
L 147.638955 -125.530384 
L 147.314493 -125.51314 
L 146.990031 -127.030056 
L 146.665569 -126.535191 
L 146.341106 -127.239833 
L 146.016644 -125.793645 
L 145.692182 -126.41446 
L 145.36772 -127.328047 
L 145.043258 -125.906922 
L 144.718796 -127.218266 
L 144.394334 -126.233656 
L 144.069872 -125.520049 
L 143.74541 -126.456493 
L 143.420948 -125.98027 
L 143.096485 -126.892034 
L 142.772023 -126.147169 
L 142.447561 -125.102987 
L 142.123099 -126.156534 
L 141.798637 -126.218218 
L 141.474175 -126.173462 
L 141.149713 -125.434876 
L 140.825251 -125.206893 
L 140.500789 -126.497809 
L 140.176327 -125.194182 
L 139.851864 -124.956382 
L 139.527402 -124.596767 
L 139.20294 -125.411828 
L 138.878478 -126.528226 
L 138.554016 -126.12167 
L 138.229554 -124.534661 
L 137.905092 -123.77849 
L 137.58063 -124.220063 
L 137.256168 -125.247117 
L 136.931706 -125.969647 
L 136.607243 -125.433574 
L 136.282781 -124.106235 
L 135.958319 -125.961473 
L 135.633857 -125.694649 
L 135.309395 -126.895597 
L 134.984933 -126.291379 
L 134.660471 -124.231611 
L 134.336009 -124.736419 
L 134.011547 -126.631127 
L 133.687085 -125.819782 
L 133.362622 -124.5309 
L 133.03816 -124.509964 
L 132.713698 -125.3751 
L 132.389236 -125.585358 
L 132.064774 -124.455053 
L 131.740312 -125.129413 
L 131.41585 -124.882937 
L 131.091388 -125.681615 
L 130.766926 -125.854682 
L 130.442464 -126.945113 
L 130.118001 -125.795973 
L 129.793539 -126.065308 
L 129.469077 -125.725022 
L 129.144615 -126.623596 
L 128.820153 -126.39718 
L 128.495691 -126.327283 
L 128.171229 -125.544355 
L 127.846767 -126.400866 
L 127.522305 -126.512419 
L 127.197843 -126.536371 
L 126.87338 -125.516953 
L 126.548918 -126.394578 
L 126.224456 -125.807499 
L 125.899994 -124.838929 
L 125.575532 -125.854234 
L 125.25107 -125.604722 
L 124.926608 -126.297639 
L 124.602146 -125.283594 
L 124.277684 -125.09304 
L 123.953222 -126.141816 
L 123.628759 -125.699945 
L 123.304297 -126.634356 
L 122.979835 -126.971185 
L 122.655373 -126.690819 
L 122.330911 -127.483025 
L 122.006449 -126.38136 
L 121.681987 -126.041938 
L 121.357525 -126.522908 
L 121.033063 -125.030583 
L 120.708601 -126.26578 
L 120.384138 -126.502118 
L 120.059676 -126.707069 
L 119.735214 -126.948873 
L 119.410752 -127.167278 
L 119.08629 -126.600477 
L 118.761828 -127.675049 
L 118.437366 -126.92954 
L 118.112904 -126.092287 
L 117.788442 -126.360709 
L 117.46398 -125.979385 
L 117.139518 -125.556581 
L 116.815055 -126.443274 
L 116.490593 -126.119624 
L 116.166131 -125.479454 
L 115.841669 -125.329856 
L 115.517207 -125.125612 
L 115.192745 -124.9928 
L 114.868283 -125.01803 
L 114.543821 -123.982037 
L 114.219359 -124.125278 
L 113.894897 -123.722092 
L 113.570434 -123.473291 
L 113.245972 -123.942601 
L 112.92151 -125.107329 
L 112.597048 -123.933925 
L 112.272586 -124.886343 
L 111.948124 -125.040924 
L 111.623662 -124.870284 
L 111.2992 -124.642092 
L 110.974738 -123.798565 
L 110.650276 -124.504862 
L 110.325813 -125.339443 
L 110.001351 -125.442549 
L 109.676889 -123.543463 
L 109.352427 -123.635403 
L 109.027965 -124.688877 
L 108.703503 -123.250354 
L 108.379041 -123.861454 
L 108.054579 -123.639286 
L 107.730117 -124.552645 
L 107.405655 -125.051407 
L 107.081192 -124.436464 
L 106.75673 -123.70059 
L 106.432268 -124.644601 
L 106.107806 -124.01322 
L 105.783344 -123.112507 
L 105.458882 -123.783282 
L 105.13442 -122.961239 
L 104.809958 -122.887676 
L 104.485496 -124.264539 
L 104.161034 -124.136354 
L 103.836571 -122.867487 
L 103.512109 -124.090246 
L 103.187647 -123.452413 
L 102.863185 -124.646706 
L 102.538723 -123.160463 
L 102.214261 -124.753369 
L 101.889799 -124.075855 
L 101.565337 -124.048668 
L 101.240875 -124.5778 
L 100.916413 -124.673644 
L 100.59195 -122.652826 
L 100.267488 -123.978774 
L 99.943026 -123.704648 
L 99.618564 -124.358602 
L 99.294102 -124.189803 
L 98.96964 -125.093857 
L 98.645178 -124.976391 
L 98.320716 -123.55982 
L 97.996254 -122.765144 
L 97.671792 -124.073716 
L 97.347329 -123.29301 
L 97.022867 -124.617129 
L 96.698405 -122.940106 
L 96.373943 -123.937057 
L 96.049481 -122.905199 
L 95.725019 -122.281032 
L 95.400557 -124.041086 
L 95.076095 -122.354285 
L 94.751633 -123.128131 
L 94.427171 -122.520534 
L 94.102708 -123.468813 
L 93.778246 -123.540669 
L 93.453784 -122.169472 
L 93.129322 -124.147865 
L 92.80486 -121.454579 
L 92.480398 -121.284229 
L 92.155936 -121.575315 
L 91.831474 -124.14256 
L 91.507012 -122.774125 
L 91.18255 -122.055572 
L 90.858087 -123.063019 
L 90.533625 -124.977741 
L 90.209163 -123.231036 
L 89.884701 -122.224686 
L 89.560239 -121.926659 
L 89.235777 -122.863916 
L 88.911315 -121.584162 
L 88.586853 -122.268342 
L 88.262391 -123.367521 
L 87.937929 -124.35582 
L 87.613466 -122.579228 
L 87.289004 -123.30141 
L 86.964542 -123.627481 
L 86.64008 -123.269954 
L 86.315618 -124.20086 
L 85.991156 -123.268229 
L 85.666694 -120.980974 
L 85.342232 -122.847017 
L 85.01777 -122.305186 
L 84.693308 -122.5523 
L 84.368845 -122.36787 
L 84.044383 -121.57659 
L 83.719921 -121.644093 
L 83.395459 -122.264029 
L 83.070997 -121.046617 
L 82.746535 -122.318247 
L 82.422073 -120.791206 
L 82.097611 -120.464694 
L 81.773149 -120.832744 
L 81.448687 -121.698581 
L 81.124224 -120.916408 
L 80.799762 -120.733985 
L 80.4753 -120.920935 
L 80.150838 -120.399935 
L 79.826376 -121.321232 
L 79.501914 -120.931519 
L 79.177452 -121.319649 
L 78.85299 -120.566834 
L 78.528528 -120.853792 
L 78.204066 -120.124736 
L 77.879604 -120.407378 
L 77.555141 -119.654279 
L 77.230679 -119.445396 
L 76.906217 -119.593676 
L 76.581755 -119.270355 
L 76.257293 -119.819515 
L 75.932831 -119.473234 
L 75.608369 -120.185062 
L 75.283907 -119.147647 
L 74.959445 -119.348154 
L 74.634983 -119.943516 
L 74.31052 -119.139825 
L 73.986058 -119.037967 
L 73.661596 -118.680483 
L 73.337134 -118.939237 
L 73.012672 -118.669772 
L 72.68821 -118.480963 
L 72.363748 -116.963249 
L 72.039286 -118.129841 
L 71.714824 -116.707258 
L 71.390362 -117.628367 
L 71.065899 -116.950051 
L 70.741437 -116.970137 
L 70.416975 -116.196062 
L 70.092513 -116.35085 
L 69.768051 -116.424108 
L 69.443589 -115.727805 
L 69.119127 -117.235746 
L 68.794665 -116.038979 
L 68.470203 -116.222702 
L 68.145741 -116.000419 
L 67.821278 -115.058425 
L 67.496816 -114.771596 
L 67.172354 -114.223367 
L 66.847892 -114.382197 
L 66.52343 -113.666325 
L 66.198968 -113.526927 
L 65.874506 -113.387862 
L 65.550044 -112.551738 
L 65.225582 -112.418495 
L 64.90112 -111.875906 
L 64.576657 -112.897572 
L 64.252195 -112.584034 
L 63.927733 -111.470661 
L 63.603271 -111.262243 
L 63.278809 -111.18457 
L 62.954347 -111.259605 
L 62.629885 -111.282781 
L 62.305423 -109.674355 
L 61.980961 -110.631521 
L 61.656499 -109.098389 
L 61.332036 -109.504302 
L 61.007574 -109.187458 
L 60.683112 -107.403051 
L 60.35865 -108.440872 
L 60.034188 -108.239074 
L 59.709726 -106.400304 
L 59.385264 -106.869618 
L 59.060802 -107.173175 
L 58.73634 -106.719285 
L 58.411878 -104.57437 
L 58.087415 -104.429166 
L 57.762953 -104.691791 
L 57.438491 -103.862984 
L 57.114029 -104.082714 
L 56.789567 -101.97003 
L 56.465105 -101.245214 
L 56.140643 -101.417579 
L 55.816181 -99.829261 
L 55.491719 -98.958116 
L 55.167257 -98.885774 
L 54.842794 -97.485419 
L 54.518332 -96.227399 
L 54.19387 -96.370455 
L 53.869408 -95.085213 
L 53.544946 -94.68038 
L 53.220484 -92.424771 
L 52.896022 -92.524322 
L 52.57156 -90.650699 
L 52.247098 -89.739344 
L 51.922636 -87.849368 
L 51.598173 -86.799553 
L 51.273711 -84.236358 
L 50.949249 -82.856811 
L 50.624787 -81.197889 
L 50.300325 -78.053145 
L 49.975863 -75.77345 
L 49.651401 -72.396424 
L 49.326939 -68.191621 
L 49.002477 -63.798708 
L 48.678015 -58.105182 
L 48.353552 -48.676909 
z
" style="stroke: #2ca02c; stroke-opacity: 0.2"/>
    </defs>
    <g clip-path="url(#p2afcd887ca)">
     <use xlink:href="#m2e9e7ce71a" x="0" y="144" style="fill: #2ca02c; fill-opacity: 0.2; stroke: #2ca02c; stroke-opacity: 0.2"/>
    </g>
   </g>
   <g id="matplotlib.axis_1">
    <g id="xtick_1">
     <g id="line2d_1">
      <defs>
       <path id="m97f3c64f2e" d="M 0 0 
L 0 3.5 
" style="stroke: #000000; stroke-width: 0.8"/>
      </defs>
      <g>
       <use xlink:href="#m97f3c64f2e" x="48.321106" y="99.348" style="stroke: #000000; stroke-width: 0.8"/>
      </g>
     </g>
     <g id="text_1">
      <!-- 0 -->
      <g transform="translate(45.139856 113.946438) scale(0.1 -0.1)">
       <defs>
        <path id="DejaVuSans-30" d="M 2034 4250 
Q 1547 4250 1301 3770 
Q 1056 3291 1056 2328 
Q 1056 1369 1301 889 
Q 1547 409 2034 409 
Q 2525 409 2770 889 
Q 3016 1369 3016 2328 
Q 3016 3291 2770 3770 
Q 2525 4250 2034 4250 
z
M 2034 4750 
Q 2819 4750 3233 4129 
Q 3647 3509 3647 2328 
Q 3647 1150 3233 529 
Q 2819 -91 2034 -91 
Q 1250 -91 836 529 
Q 422 1150 422 2328 
Q 422 3509 836 4129 
Q 1250 4750 2034 4750 
z
" transform="scale(0.015625)"/>
       </defs>
       <use xlink:href="#DejaVuSans-30"/>
      </g>
     </g>
    </g>
    <g id="xtick_2">
     <g id="line2d_2">
      <g>
       <use xlink:href="#m97f3c64f2e" x="113.213526" y="99.348" style="stroke: #000000; stroke-width: 0.8"/>
      </g>
     </g>
     <g id="text_2">
      <!-- 2000 -->
      <g transform="translate(100.488526 113.946438) scale(0.1 -0.1)">
       <defs>
        <path id="DejaVuSans-32" d="M 1228 531 
L 3431 531 
L 3431 0 
L 469 0 
L 469 531 
Q 828 903 1448 1529 
Q 2069 2156 2228 2338 
Q 2531 2678 2651 2914 
Q 2772 3150 2772 3378 
Q 2772 3750 2511 3984 
Q 2250 4219 1831 4219 
Q 1534 4219 1204 4116 
Q 875 4013 500 3803 
L 500 4441 
Q 881 4594 1212 4672 
Q 1544 4750 1819 4750 
Q 2544 4750 2975 4387 
Q 3406 4025 3406 3419 
Q 3406 3131 3298 2873 
Q 3191 2616 2906 2266 
Q 2828 2175 2409 1742 
Q 1991 1309 1228 531 
z
" transform="scale(0.015625)"/>
       </defs>
       <use xlink:href="#DejaVuSans-32"/>
       <use xlink:href="#DejaVuSans-30" x="63.623047"/>
       <use xlink:href="#DejaVuSans-30" x="127.246094"/>
       <use xlink:href="#DejaVuSans-30" x="190.869141"/>
      </g>
     </g>
    </g>
    <g id="xtick_3">
     <g id="line2d_3">
      <g>
       <use xlink:href="#m97f3c64f2e" x="178.105946" y="99.348" style="stroke: #000000; stroke-width: 0.8"/>
      </g>
     </g>
     <g id="text_3">
      <!-- 4000 -->
      <g transform="translate(165.380946 113.946438) scale(0.1 -0.1)">
       <defs>
        <path id="DejaVuSans-34" d="M 2419 4116 
L 825 1625 
L 2419 1625 
L 2419 4116 
z
M 2253 4666 
L 3047 4666 
L 3047 1625 
L 3713 1625 
L 3713 1100 
L 3047 1100 
L 3047 0 
L 2419 0 
L 2419 1100 
L 313 1100 
L 313 1709 
L 2253 4666 
z
" transform="scale(0.015625)"/>
       </defs>
       <use xlink:href="#DejaVuSans-34"/>
       <use xlink:href="#DejaVuSans-30" x="63.623047"/>
       <use xlink:href="#DejaVuSans-30" x="127.246094"/>
       <use xlink:href="#DejaVuSans-30" x="190.869141"/>
      </g>
     </g>
    </g>
    <g id="text_4">
     <!-- time (units of $\omega_\mathrm{r}^{-1}$) -->
     <g transform="translate(82.669077 125.526125) scale(0.1 -0.1)">
      <defs>
       <path id="DejaVuSans-74" d="M 1172 4494 
L 1172 3500 
L 2356 3500 
L 2356 3053 
L 1172 3053 
L 1172 1153 
Q 1172 725 1289 603 
Q 1406 481 1766 481 
L 2356 481 
L 2356 0 
L 1766 0 
Q 1100 0 847 248 
Q 594 497 594 1153 
L 594 3053 
L 172 3053 
L 172 3500 
L 594 3500 
L 594 4494 
L 1172 4494 
z
" transform="scale(0.015625)"/>
       <path id="DejaVuSans-69" d="M 603 3500 
L 1178 3500 
L 1178 0 
L 603 0 
L 603 3500 
z
M 603 4863 
L 1178 4863 
L 1178 4134 
L 603 4134 
L 603 4863 
z
" transform="scale(0.015625)"/>
       <path id="DejaVuSans-6d" d="M 3328 2828 
Q 3544 3216 3844 3400 
Q 4144 3584 4550 3584 
Q 5097 3584 5394 3201 
Q 5691 2819 5691 2113 
L 5691 0 
L 5113 0 
L 5113 2094 
Q 5113 2597 4934 2840 
Q 4756 3084 4391 3084 
Q 3944 3084 3684 2787 
Q 3425 2491 3425 1978 
L 3425 0 
L 2847 0 
L 2847 2094 
Q 2847 2600 2669 2842 
Q 2491 3084 2119 3084 
Q 1678 3084 1418 2786 
Q 1159 2488 1159 1978 
L 1159 0 
L 581 0 
L 581 3500 
L 1159 3500 
L 1159 2956 
Q 1356 3278 1631 3431 
Q 1906 3584 2284 3584 
Q 2666 3584 2933 3390 
Q 3200 3197 3328 2828 
z
" transform="scale(0.015625)"/>
       <path id="DejaVuSans-65" d="M 3597 1894 
L 3597 1613 
L 953 1613 
Q 991 1019 1311 708 
Q 1631 397 2203 397 
Q 2534 397 2845 478 
Q 3156 559 3463 722 
L 3463 178 
Q 3153 47 2828 -22 
Q 2503 -91 2169 -91 
Q 1331 -91 842 396 
Q 353 884 353 1716 
Q 353 2575 817 3079 
Q 1281 3584 2069 3584 
Q 2775 3584 3186 3129 
Q 3597 2675 3597 1894 
z
M 3022 2063 
Q 3016 2534 2758 2815 
Q 2500 3097 2075 3097 
Q 1594 3097 1305 2825 
Q 1016 2553 972 2059 
L 3022 2063 
z
" transform="scale(0.015625)"/>
       <path id="DejaVuSans-20" transform="scale(0.015625)"/>
       <path id="DejaVuSans-28" d="M 1984 4856 
Q 1566 4138 1362 3434 
Q 1159 2731 1159 2009 
Q 1159 1288 1364 580 
Q 1569 -128 1984 -844 
L 1484 -844 
Q 1016 -109 783 600 
Q 550 1309 550 2009 
Q 550 2706 781 3412 
Q 1013 4119 1484 4856 
L 1984 4856 
z
" transform="scale(0.015625)"/>
       <path id="DejaVuSans-75" d="M 544 1381 
L 544 3500 
L 1119 3500 
L 1119 1403 
Q 1119 906 1312 657 
Q 1506 409 1894 409 
Q 2359 409 2629 706 
Q 2900 1003 2900 1516 
L 2900 3500 
L 3475 3500 
L 3475 0 
L 2900 0 
L 2900 538 
Q 2691 219 2414 64 
Q 2138 -91 1772 -91 
Q 1169 -91 856 284 
Q 544 659 544 1381 
z
M 1991 3584 
L 1991 3584 
z
" transform="scale(0.015625)"/>
       <path id="DejaVuSans-6e" d="M 3513 2113 
L 3513 0 
L 2938 0 
L 2938 2094 
Q 2938 2591 2744 2837 
Q 2550 3084 2163 3084 
Q 1697 3084 1428 2787 
Q 1159 2491 1159 1978 
L 1159 0 
L 581 0 
L 581 3500 
L 1159 3500 
L 1159 2956 
Q 1366 3272 1645 3428 
Q 1925 3584 2291 3584 
Q 2894 3584 3203 3211 
Q 3513 2838 3513 2113 
z
" transform="scale(0.015625)"/>
       <path id="DejaVuSans-73" d="M 2834 3397 
L 2834 2853 
Q 2591 2978 2328 3040 
Q 2066 3103 1784 3103 
Q 1356 3103 1142 2972 
Q 928 2841 928 2578 
Q 928 2378 1081 2264 
Q 1234 2150 1697 2047 
L 1894 2003 
Q 2506 1872 2764 1633 
Q 3022 1394 3022 966 
Q 3022 478 2636 193 
Q 2250 -91 1575 -91 
Q 1294 -91 989 -36 
Q 684 19 347 128 
L 347 722 
Q 666 556 975 473 
Q 1284 391 1588 391 
Q 1994 391 2212 530 
Q 2431 669 2431 922 
Q 2431 1156 2273 1281 
Q 2116 1406 1581 1522 
L 1381 1569 
Q 847 1681 609 1914 
Q 372 2147 372 2553 
Q 372 3047 722 3315 
Q 1072 3584 1716 3584 
Q 2034 3584 2315 3537 
Q 2597 3491 2834 3397 
z
" transform="scale(0.015625)"/>
       <path id="DejaVuSans-6f" d="M 1959 3097 
Q 1497 3097 1228 2736 
Q 959 2375 959 1747 
Q 959 1119 1226 758 
Q 1494 397 1959 397 
Q 2419 397 2687 759 
Q 2956 1122 2956 1747 
Q 2956 2369 2687 2733 
Q 2419 3097 1959 3097 
z
M 1959 3584 
Q 2709 3584 3137 3096 
Q 3566 2609 3566 1747 
Q 3566 888 3137 398 
Q 2709 -91 1959 -91 
Q 1206 -91 779 398 
Q 353 888 353 1747 
Q 353 2609 779 3096 
Q 1206 3584 1959 3584 
z
" transform="scale(0.015625)"/>
       <path id="DejaVuSans-66" d="M 2375 4863 
L 2375 4384 
L 1825 4384 
Q 1516 4384 1395 4259 
Q 1275 4134 1275 3809 
L 1275 3500 
L 2222 3500 
L 2222 3053 
L 1275 3053 
L 1275 0 
L 697 0 
L 697 3053 
L 147 3053 
L 147 3500 
L 697 3500 
L 697 3744 
Q 697 4328 969 4595 
Q 1241 4863 1831 4863 
L 2375 4863 
z
" transform="scale(0.015625)"/>
       <path id="DejaVuSans-Oblique-3c9" d="M 1369 -91 
Q 72 -91 434 1766 
Q 575 2500 1256 3500 
L 1875 3500 
Q 1231 2500 1088 1750 
Q 819 397 1519 397 
Q 2166 397 2478 2078 
L 3009 2078 
Q 2669 388 3316 397 
Q 4013 403 4275 1750 
Q 4419 2500 4169 3500 
L 4788 3500 
Q 5075 2500 4934 1766 
Q 4578 -94 3278 -91 
Q 2428 -88 2503 844 
Q 2194 -91 1369 -91 
z
" transform="scale(0.015625)"/>
       <path id="DejaVuSans-2212" d="M 678 2272 
L 4684 2272 
L 4684 1741 
L 678 1741 
L 678 2272 
z
" transform="scale(0.015625)"/>
       <path id="DejaVuSans-31" d="M 794 531 
L 1825 531 
L 1825 4091 
L 703 3866 
L 703 4441 
L 1819 4666 
L 2450 4666 
L 2450 531 
L 3481 531 
L 3481 0 
L 794 0 
L 794 531 
z
" transform="scale(0.015625)"/>
       <path id="DejaVuSans-72" d="M 2631 2963 
Q 2534 3019 2420 3045 
Q 2306 3072 2169 3072 
Q 1681 3072 1420 2755 
Q 1159 2438 1159 1844 
L 1159 0 
L 581 0 
L 581 3500 
L 1159 3500 
L 1159 2956 
Q 1341 3275 1631 3429 
Q 1922 3584 2338 3584 
Q 2397 3584 2469 3576 
Q 2541 3569 2628 3553 
L 2631 2963 
z
" transform="scale(0.015625)"/>
       <path id="DejaVuSans-29" d="M 513 4856 
L 1013 4856 
Q 1481 4119 1714 3412 
Q 1947 2706 1947 2009 
Q 1947 1309 1714 600 
Q 1481 -109 1013 -844 
L 513 -844 
Q 928 -128 1133 580 
Q 1338 1288 1338 2009 
Q 1338 2731 1133 3434 
Q 928 4138 513 4856 
z
" transform="scale(0.015625)"/>
      </defs>
      <use xlink:href="#DejaVuSans-74" transform="translate(0 0.684375)"/>
      <use xlink:href="#DejaVuSans-69" transform="translate(39.208984 0.684375)"/>
      <use xlink:href="#DejaVuSans-6d" transform="translate(66.992188 0.684375)"/>
      <use xlink:href="#DejaVuSans-65" transform="translate(164.404297 0.684375)"/>
      <use xlink:href="#DejaVuSans-20" transform="translate(225.927734 0.684375)"/>
      <use xlink:href="#DejaVuSans-28" transform="translate(257.714844 0.684375)"/>
      <use xlink:href="#DejaVuSans-75" transform="translate(296.728516 0.684375)"/>
      <use xlink:href="#DejaVuSans-6e" transform="translate(360.107422 0.684375)"/>
      <use xlink:href="#DejaVuSans-69" transform="translate(423.486328 0.684375)"/>
      <use xlink:href="#DejaVuSans-74" transform="translate(451.269531 0.684375)"/>
      <use xlink:href="#DejaVuSans-73" transform="translate(490.478516 0.684375)"/>
      <use xlink:href="#DejaVuSans-20" transform="translate(542.578125 0.684375)"/>
      <use xlink:href="#DejaVuSans-6f" transform="translate(574.365234 0.684375)"/>
      <use xlink:href="#DejaVuSans-66" transform="translate(635.546875 0.684375)"/>
      <use xlink:href="#DejaVuSans-20" transform="translate(670.751953 0.684375)"/>
      <use xlink:href="#DejaVuSans-Oblique-3c9" transform="translate(702.539062 0.684375)"/>
      <use xlink:href="#DejaVuSans-2212" transform="translate(790.745443 38.965625) scale(0.7)"/>
      <use xlink:href="#DejaVuSans-31" transform="translate(849.397786 38.965625) scale(0.7)"/>
      <use xlink:href="#DejaVuSans-72" transform="translate(786.279297 -26.659375) scale(0.7)"/>
      <use xlink:href="#DejaVuSans-29" transform="translate(896.668294 0.684375)"/>
     </g>
    </g>
   </g>
   <g id="matplotlib.axis_2">
    <g id="ytick_1">
     <g id="line2d_4">
      <defs>
       <path id="m64cbaf93a0" d="M 0 0 
L -3.5 0 
" style="stroke: #000000; stroke-width: 0.8"/>
      </defs>
      <g>
       <use xlink:href="#m64cbaf93a0" x="40.242" y="95.323091" style="stroke: #000000; stroke-width: 0.8"/>
      </g>
     </g>
     <g id="text_5">
      <!-- 0.0 -->
      <g transform="translate(17.338875 99.12231) scale(0.1 -0.1)">
       <defs>
        <path id="DejaVuSans-2e" d="M 684 794 
L 1344 794 
L 1344 0 
L 684 0 
L 684 794 
z
" transform="scale(0.015625)"/>
       </defs>
       <use xlink:href="#DejaVuSans-30"/>
       <use xlink:href="#DejaVuSans-2e" x="63.623047"/>
       <use xlink:href="#DejaVuSans-30" x="95.410156"/>
      </g>
     </g>
    </g>
    <g id="ytick_2">
     <g id="line2d_5">
      <g>
       <use xlink:href="#m64cbaf93a0" x="40.242" y="70.698355" style="stroke: #000000; stroke-width: 0.8"/>
      </g>
     </g>
     <g id="text_6">
      <!-- 2.5 -->
      <g transform="translate(17.338875 74.497574) scale(0.1 -0.1)">
       <defs>
        <path id="DejaVuSans-35" d="M 691 4666 
L 3169 4666 
L 3169 4134 
L 1269 4134 
L 1269 2991 
Q 1406 3038 1543 3061 
Q 1681 3084 1819 3084 
Q 2600 3084 3056 2656 
Q 3513 2228 3513 1497 
Q 3513 744 3044 326 
Q 2575 -91 1722 -91 
Q 1428 -91 1123 -41 
Q 819 9 494 109 
L 494 744 
Q 775 591 1075 516 
Q 1375 441 1709 441 
Q 2250 441 2565 725 
Q 2881 1009 2881 1497 
Q 2881 1984 2565 2268 
Q 2250 2553 1709 2553 
Q 1456 2553 1204 2497 
Q 953 2441 691 2322 
L 691 4666 
z
" transform="scale(0.015625)"/>
       </defs>
       <use xlink:href="#DejaVuSans-32"/>
       <use xlink:href="#DejaVuSans-2e" x="63.623047"/>
       <use xlink:href="#DejaVuSans-35" x="95.410156"/>
      </g>
     </g>
    </g>
    <g id="ytick_3">
     <g id="line2d_6">
      <g>
       <use xlink:href="#m64cbaf93a0" x="40.242" y="46.073619" style="stroke: #000000; stroke-width: 0.8"/>
      </g>
     </g>
     <g id="text_7">
      <!-- 5.0 -->
      <g transform="translate(17.338875 49.872838) scale(0.1 -0.1)">
       <use xlink:href="#DejaVuSans-35"/>
       <use xlink:href="#DejaVuSans-2e" x="63.623047"/>
       <use xlink:href="#DejaVuSans-30" x="95.410156"/>
      </g>
     </g>
    </g>
    <g id="ytick_4">
     <g id="line2d_7">
      <g>
       <use xlink:href="#m64cbaf93a0" x="40.242" y="21.448883" style="stroke: #000000; stroke-width: 0.8"/>
      </g>
     </g>
     <g id="text_8">
      <!-- 7.5 -->
      <g transform="translate(17.338875 25.248102) scale(0.1 -0.1)">
       <defs>
        <path id="DejaVuSans-37" d="M 525 4666 
L 3525 4666 
L 3525 4397 
L 1831 0 
L 1172 0 
L 2766 4134 
L 525 4134 
L 525 4666 
z
" transform="scale(0.015625)"/>
       </defs>
       <use xlink:href="#DejaVuSans-37"/>
       <use xlink:href="#DejaVuSans-2e" x="63.623047"/>
       <use xlink:href="#DejaVuSans-35" x="95.410156"/>
      </g>
     </g>
    </g>
    <g id="text_9">
     <!-- cavity population $|\alpha|^2/N_\mathrm{at}$ -->
     <g transform="translate(14.438875 118.124) rotate(-90) scale(0.1 -0.1)">
      <defs>
       <path id="DejaVuSans-63" d="M 3122 3366 
L 3122 2828 
Q 2878 2963 2633 3030 
Q 2388 3097 2138 3097 
Q 1578 3097 1268 2742 
Q 959 2388 959 1747 
Q 959 1106 1268 751 
Q 1578 397 2138 397 
Q 2388 397 2633 464 
Q 2878 531 3122 666 
L 3122 134 
Q 2881 22 2623 -34 
Q 2366 -91 2075 -91 
Q 1284 -91 818 406 
Q 353 903 353 1747 
Q 353 2603 823 3093 
Q 1294 3584 2113 3584 
Q 2378 3584 2631 3529 
Q 2884 3475 3122 3366 
z
" transform="scale(0.015625)"/>
       <path id="DejaVuSans-61" d="M 2194 1759 
Q 1497 1759 1228 1600 
Q 959 1441 959 1056 
Q 959 750 1161 570 
Q 1363 391 1709 391 
Q 2188 391 2477 730 
Q 2766 1069 2766 1631 
L 2766 1759 
L 2194 1759 
z
M 3341 1997 
L 3341 0 
L 2766 0 
L 2766 531 
Q 2569 213 2275 61 
Q 1981 -91 1556 -91 
Q 1019 -91 701 211 
Q 384 513 384 1019 
Q 384 1609 779 1909 
Q 1175 2209 1959 2209 
L 2766 2209 
L 2766 2266 
Q 2766 2663 2505 2880 
Q 2244 3097 1772 3097 
Q 1472 3097 1187 3025 
Q 903 2953 641 2809 
L 641 3341 
Q 956 3463 1253 3523 
Q 1550 3584 1831 3584 
Q 2591 3584 2966 3190 
Q 3341 2797 3341 1997 
z
" transform="scale(0.015625)"/>
       <path id="DejaVuSans-76" d="M 191 3500 
L 800 3500 
L 1894 563 
L 2988 3500 
L 3597 3500 
L 2284 0 
L 1503 0 
L 191 3500 
z
" transform="scale(0.015625)"/>
       <path id="DejaVuSans-79" d="M 2059 -325 
Q 1816 -950 1584 -1140 
Q 1353 -1331 966 -1331 
L 506 -1331 
L 506 -850 
L 844 -850 
Q 1081 -850 1212 -737 
Q 1344 -625 1503 -206 
L 1606 56 
L 191 3500 
L 800 3500 
L 1894 763 
L 2988 3500 
L 3597 3500 
L 2059 -325 
z
" transform="scale(0.015625)"/>
       <path id="DejaVuSans-70" d="M 1159 525 
L 1159 -1331 
L 581 -1331 
L 581 3500 
L 1159 3500 
L 1159 2969 
Q 1341 3281 1617 3432 
Q 1894 3584 2278 3584 
Q 2916 3584 3314 3078 
Q 3713 2572 3713 1747 
Q 3713 922 3314 415 
Q 2916 -91 2278 -91 
Q 1894 -91 1617 61 
Q 1341 213 1159 525 
z
M 3116 1747 
Q 3116 2381 2855 2742 
Q 2594 3103 2138 3103 
Q 1681 3103 1420 2742 
Q 1159 2381 1159 1747 
Q 1159 1113 1420 752 
Q 1681 391 2138 391 
Q 2594 391 2855 752 
Q 3116 1113 3116 1747 
z
" transform="scale(0.015625)"/>
       <path id="DejaVuSans-6c" d="M 603 4863 
L 1178 4863 
L 1178 0 
L 603 0 
L 603 4863 
z
" transform="scale(0.015625)"/>
       <path id="DejaVuSans-7c" d="M 1344 4891 
L 1344 -1509 
L 813 -1509 
L 813 4891 
L 1344 4891 
z
" transform="scale(0.015625)"/>
       <path id="DejaVuSans-Oblique-3b1" d="M 2619 1628 
L 2622 2350 
Q 2625 3088 2069 3091 
Q 1653 3094 1394 2747 
Q 1069 2319 959 1747 
Q 825 1059 994 731 
Q 1169 397 1547 397 
Q 1966 397 2319 1063 
L 2619 1628 
z
M 2166 3578 
Q 3141 3594 3128 2584 
Q 3128 2584 3616 3500 
L 4128 3500 
L 3119 1603 
L 3109 919 
Q 3109 766 3194 638 
Q 3291 488 3391 488 
L 3669 488 
L 3575 0 
L 3228 0 
Q 2934 0 2722 263 
Q 2622 394 2619 669 
Q 2416 334 2066 50 
Q 1900 -81 1453 -78 
Q 722 -72 456 397 
Q 184 884 353 1747 
Q 534 2675 1009 3097 
Q 1544 3569 2166 3578 
z
" transform="scale(0.015625)"/>
       <path id="DejaVuSans-2f" d="M 1625 4666 
L 2156 4666 
L 531 -594 
L 0 -594 
L 1625 4666 
z
" transform="scale(0.015625)"/>
       <path id="DejaVuSans-Oblique-4e" d="M 1081 4666 
L 1931 4666 
L 3219 666 
L 4000 4666 
L 4616 4666 
L 3706 0 
L 2853 0 
L 1569 4025 
L 788 0 
L 172 0 
L 1081 4666 
z
" transform="scale(0.015625)"/>
      </defs>
      <use xlink:href="#DejaVuSans-63" transform="translate(0 0.765625)"/>
      <use xlink:href="#DejaVuSans-61" transform="translate(54.980469 0.765625)"/>
      <use xlink:href="#DejaVuSans-76" transform="translate(116.259766 0.765625)"/>
      <use xlink:href="#DejaVuSans-69" transform="translate(175.439453 0.765625)"/>
      <use xlink:href="#DejaVuSans-74" transform="translate(203.222656 0.765625)"/>
      <use xlink:href="#DejaVuSans-79" transform="translate(242.431641 0.765625)"/>
      <use xlink:href="#DejaVuSans-20" transform="translate(301.611328 0.765625)"/>
      <use xlink:href="#DejaVuSans-70" transform="translate(333.398438 0.765625)"/>
      <use xlink:href="#DejaVuSans-6f" transform="translate(396.875 0.765625)"/>
      <use xlink:href="#DejaVuSans-70" transform="translate(458.056641 0.765625)"/>
      <use xlink:href="#DejaVuSans-75" transform="translate(521.533203 0.765625)"/>
      <use xlink:href="#DejaVuSans-6c" transform="translate(584.912109 0.765625)"/>
      <use xlink:href="#DejaVuSans-61" transform="translate(612.695312 0.765625)"/>
      <use xlink:href="#DejaVuSans-74" transform="translate(673.974609 0.765625)"/>
      <use xlink:href="#DejaVuSans-69" transform="translate(713.183594 0.765625)"/>
      <use xlink:href="#DejaVuSans-6f" transform="translate(740.966797 0.765625)"/>
      <use xlink:href="#DejaVuSans-6e" transform="translate(802.148438 0.765625)"/>
      <use xlink:href="#DejaVuSans-20" transform="translate(865.527344 0.765625)"/>
      <use xlink:href="#DejaVuSans-7c" transform="translate(897.314453 0.765625)"/>
      <use xlink:href="#DejaVuSans-Oblique-3b1" transform="translate(931.005859 0.765625)"/>
      <use xlink:href="#DejaVuSans-7c" transform="translate(996.923828 0.765625)"/>
      <use xlink:href="#DejaVuSans-32" transform="translate(1031.572266 39.046875) scale(0.7)"/>
      <use xlink:href="#DejaVuSans-2f" transform="translate(1078.842773 0.765625)"/>
      <use xlink:href="#DejaVuSans-Oblique-4e" transform="translate(1112.53418 0.765625)"/>
      <use xlink:href="#DejaVuSans-61" transform="translate(1187.338867 -15.640625) scale(0.7)"/>
      <use xlink:href="#DejaVuSans-74" transform="translate(1230.234375 -15.640625) scale(0.7)"/>
     </g>
    </g>
   </g>
   <g id="line2d_8">
    <path d="M 48.353552 95.323091 
L 49.651401 82.168029 
L 50.624787 75.951663 
L 51.598173 71.188301 
L 53.220484 66.500125 
L 53.544946 65.66753 
L 53.869408 64.37925 
L 54.19387 64.061041 
L 54.518332 63.264121 
L 54.842794 62.787052 
L 55.167257 61.464176 
L 55.491719 61.098173 
L 56.140643 59.573513 
L 56.465105 59.527298 
L 57.438491 57.579767 
L 57.762953 57.345109 
L 58.73634 55.6946 
L 59.060802 55.336696 
L 59.385264 55.315791 
L 60.034188 54.35141 
L 60.35865 54.400106 
L 60.683112 53.780184 
L 61.332036 53.355517 
L 61.656499 52.746424 
L 61.980961 52.490346 
L 62.954347 51.3501 
L 63.278809 51.154024 
L 64.252195 50.121817 
L 64.576657 50.422366 
L 65.225582 50.036489 
L 65.550044 49.554076 
L 65.874506 49.336972 
L 66.198968 48.800534 
L 66.52343 48.931022 
L 66.847892 48.907239 
L 67.172354 49.067909 
L 67.821278 47.96247 
L 68.145741 47.759866 
L 68.470203 47.808683 
L 68.794665 48.175412 
L 69.119127 47.647998 
L 69.443589 47.979063 
L 69.768051 47.424881 
L 70.092513 47.181234 
L 70.416975 47.17263 
L 70.741437 46.784516 
L 71.065899 46.59275 
L 71.390362 46.264781 
L 71.714824 46.753612 
L 72.039286 46.269647 
L 72.363748 46.51277 
L 72.68821 46.264498 
L 73.012672 46.240172 
L 73.337134 46.05121 
L 73.661596 45.711071 
L 73.986058 45.975249 
L 74.31052 45.714602 
L 74.634983 45.05312 
L 74.959445 45.237778 
L 75.283907 44.976657 
L 75.608369 45.321903 
L 76.257293 44.535561 
L 76.581755 44.519209 
L 76.906217 44.678315 
L 77.230679 44.294617 
L 77.555141 44.304219 
L 77.879604 43.814968 
L 78.204066 44.021207 
L 78.85299 43.774462 
L 79.177452 43.708956 
L 79.501914 43.808888 
L 79.826376 44.063377 
L 80.150838 44.079825 
L 81.448687 43.619453 
L 81.773149 43.721418 
L 82.097611 43.033552 
L 82.422073 43.114369 
L 83.070997 42.740326 
L 83.395459 42.993819 
L 84.368845 41.967476 
L 84.693308 42.333173 
L 85.01777 42.275678 
L 85.342232 42.784994 
L 85.666694 42.83227 
L 85.991156 42.582843 
L 86.315618 42.767586 
L 86.64008 42.027648 
L 86.964542 42.198016 
L 87.289004 42.170851 
L 87.937929 42.319024 
L 88.262391 41.951598 
L 88.586853 42.505615 
L 89.560239 42.842411 
L 89.884701 42.512517 
L 90.533625 42.271861 
L 91.18255 42.389988 
L 91.507012 42.757453 
L 91.831474 41.960089 
L 92.155936 42.197278 
L 92.480398 41.865382 
L 93.453784 41.655064 
L 93.778246 41.995355 
L 94.102708 42.090068 
L 94.427171 41.723102 
L 95.400557 41.639206 
L 95.725019 41.243984 
L 96.698405 41.497766 
L 97.022867 41.231012 
L 97.347329 41.572124 
L 97.671792 41.650449 
L 97.996254 41.372235 
L 98.645178 41.29742 
L 98.96964 40.919652 
L 99.294102 41.363218 
L 99.943026 40.819874 
L 100.267488 40.98595 
L 100.59195 41.007312 
L 100.916413 40.679013 
L 101.565337 41.1148 
L 101.889799 40.524768 
L 102.214261 40.506723 
L 102.538723 40.838918 
L 102.863185 40.552324 
L 103.187647 40.834839 
L 103.512109 40.560669 
L 103.836571 40.824151 
L 104.161034 40.45607 
L 104.485496 40.275681 
L 104.809958 40.766095 
L 105.458882 40.854844 
L 105.783344 40.727891 
L 106.107806 40.445952 
L 106.432268 40.433413 
L 106.75673 40.639731 
L 107.405655 40.432838 
L 107.730117 40.866768 
L 108.054579 41.04181 
L 108.703503 40.729756 
L 109.027965 40.353463 
L 109.352427 40.302179 
L 109.676889 40.05206 
L 110.001351 40.483217 
L 110.325813 40.703099 
L 110.650276 40.493789 
L 110.974738 40.440964 
L 111.2992 40.58886 
L 111.623662 39.954422 
L 112.272586 40.354364 
L 112.597048 40.259133 
L 113.570434 40.54109 
L 113.894897 40.316514 
L 114.543821 40.126551 
L 114.868283 40.381205 
L 115.192745 39.996846 
L 115.517207 40.00611 
L 115.841669 39.747482 
L 116.166131 39.948192 
L 116.490593 39.704561 
L 116.815055 40.061528 
L 117.139518 39.98706 
L 117.46398 39.736717 
L 117.788442 39.645249 
L 118.112904 39.90636 
L 118.437366 39.511955 
L 118.761828 39.730376 
L 119.08629 39.812175 
L 119.735214 39.657786 
L 120.384138 39.792516 
L 120.708601 39.952651 
L 121.033063 39.493046 
L 121.357525 39.333082 
L 121.681987 39.583313 
L 122.330911 39.31814 
L 122.655373 39.668837 
L 122.979835 39.713378 
L 123.304297 39.59938 
L 123.953222 39.73466 
L 124.277684 40.178015 
L 124.602146 39.593712 
L 124.926608 40.155833 
L 125.25107 39.629743 
L 125.575532 39.557378 
L 125.899994 39.891977 
L 126.548918 39.144115 
L 126.87338 40.081255 
L 127.197843 39.531659 
L 127.522305 39.599214 
L 129.144615 39.362723 
L 129.469077 39.652534 
L 130.442464 39.130897 
L 130.766926 39.356561 
L 131.091388 39.755854 
L 131.41585 39.722144 
L 131.740312 39.571679 
L 132.064774 39.775994 
L 132.389236 39.306759 
L 132.713698 39.107557 
L 133.362622 39.469093 
L 133.687085 39.38349 
L 134.336009 39.455709 
L 134.660471 39.908039 
L 134.984933 39.27951 
L 135.309395 39.288026 
L 135.633857 39.169871 
L 135.958319 39.613424 
L 136.282781 39.630444 
L 136.607243 39.474211 
L 136.931706 39.999639 
L 137.256168 39.585807 
L 137.58063 39.850536 
L 137.905092 39.598488 
L 138.229554 39.821042 
L 138.554016 39.64383 
L 138.878478 39.24549 
L 139.20294 39.430479 
L 139.527402 40.195412 
L 139.851864 39.625388 
L 140.176327 39.582531 
L 140.500789 39.813565 
L 140.825251 39.833275 
L 141.149713 39.382391 
L 142.123099 39.609941 
L 143.096485 38.850475 
L 143.74541 39.226072 
L 144.069872 39.13884 
L 144.394334 39.230289 
L 144.718796 39.144592 
L 145.043258 39.50916 
L 145.692182 39.057625 
L 146.341106 39.299785 
L 146.665569 39.079859 
L 147.963417 39.13666 
L 148.287879 38.926612 
L 148.612341 38.577137 
L 148.936803 38.586393 
L 149.261265 39.022196 
L 149.585727 38.70187 
L 149.91019 39.403209 
L 150.559114 39.012642 
L 151.208038 39.189248 
L 151.5325 38.888782 
L 151.856962 38.926961 
L 152.830348 39.650501 
L 153.154811 39.604437 
L 153.479273 38.98274 
L 153.803735 39.271391 
L 154.128197 39.331346 
L 154.452659 39.2193 
L 154.777121 39.522985 
L 155.101583 39.184727 
L 155.426045 39.135199 
L 156.399432 38.704665 
L 156.723894 38.92668 
L 157.372818 38.722106 
L 157.69728 38.988468 
L 158.021742 38.839136 
L 158.346204 38.479952 
L 158.670666 38.307142 
L 158.995128 38.953761 
L 159.31959 38.268862 
L 159.644052 38.297998 
L 160.292977 38.956544 
L 160.617439 38.330442 
L 160.941901 38.64422 
L 161.915287 38.570737 
L 162.888673 39.15954 
L 163.213136 38.751752 
L 163.86206 38.755597 
L 164.186522 39.39991 
L 164.835446 38.928633 
L 165.48437 39.241848 
L 165.808832 39.028197 
L 166.457757 39.373824 
L 166.782219 38.902208 
L 167.106681 38.75628 
L 167.431143 39.509571 
L 167.755605 38.601983 
L 168.080067 39.096537 
L 169.053453 38.597556 
L 169.377915 38.656295 
L 169.702378 39.311572 
L 170.02684 38.978122 
L 170.351302 38.450922 
L 170.675764 38.715383 
L 171.000226 38.578953 
L 171.324688 38.267432 
L 171.64915 38.88889 
L 171.973612 38.474132 
L 172.298074 38.423526 
L 172.622536 38.602712 
L 172.946999 39.026752 
L 173.271461 38.853724 
L 173.920385 38.802831 
L 174.244847 38.609871 
L 174.569309 38.872879 
L 174.893771 38.92355 
L 175.542695 38.798397 
L 175.867157 39.651941 
L 176.516082 39.023468 
L 176.840544 38.931462 
L 177.165006 38.546419 
L 177.489468 38.724083 
L 178.138392 38.764632 
L 178.462854 37.981698 
L 179.111778 38.60144 
L 179.436241 38.480364 
L 179.760703 38.148909 
L 180.409627 38.483608 
L 180.734089 38.921837 
L 181.707475 38.451286 
L 182.031937 38.795231 
L 182.356399 38.696959 
L 182.680862 38.317986 
L 183.005324 38.37495 
L 183.329786 38.070871 
L 184.303172 38.223649 
L 185.60102 37.865591 
L 185.925483 37.479923 
L 186.249945 37.909488 
L 186.574407 37.760592 
L 187.223331 38.068766 
L 187.547793 38.652681 
L 187.872255 37.895287 
L 188.196717 37.665108 
L 188.521179 38.482345 
L 188.845641 38.274988 
L 189.170104 37.870016 
L 189.819028 37.783867 
L 190.14349 38.135554 
L 190.467952 37.499131 
L 190.792414 37.992916 
L 191.441338 37.707165 
L 191.7658 37.975574 
L 192.414725 38.031045 
L 192.739187 38.104218 
L 193.063649 37.762717 
L 193.712573 37.92109 
L 194.037035 37.889828 
L 194.361497 37.729858 
L 194.685959 37.85671 
L 195.010421 37.69262 
L 195.334883 37.699504 
L 195.659346 37.937142 
L 195.983808 37.963297 
L 196.30827 38.357491 
L 197.281656 38.076339 
L 197.606118 38.141961 
L 197.93058 38.48006 
L 198.255042 38.154652 
L 198.579504 38.406154 
L 198.903966 38.241971 
L 199.228429 37.88598 
L 199.877353 37.605799 
L 200.201815 37.958519 
L 200.850739 37.87323 
L 201.499663 37.327593 
L 201.824125 37.867413 
L 202.148587 37.767101 
L 202.47305 37.907077 
L 202.797512 37.631091 
L 203.121974 37.698439 
L 203.770898 37.470112 
L 204.09536 37.71534 
L 204.419822 37.677278 
L 204.744284 37.497494 
L 205.068746 37.813993 
L 205.393208 37.585499 
L 205.717671 38.013251 
L 206.042133 37.75424 
L 206.366595 37.694896 
L 206.691057 37.506791 
L 207.015519 37.483869 
L 207.339981 38.092276 
L 207.664443 37.538653 
L 208.313367 37.34259 
L 208.637829 37.687718 
L 208.962292 37.55492 
L 209.286754 37.579395 
L 209.935678 37.890402 
L 210.26014 37.525532 
L 210.584602 37.87603 
L 210.584602 37.87603 
" clip-path="url(#p2afcd887ca)" style="fill: none; stroke: #2ca02c; stroke-width: 1.5; stroke-linecap: square"/>
   </g>
   <g id="patch_3">
    <path d="M 40.242 99.348 
L 40.242 10.8 
" style="fill: none; stroke: #000000; stroke-width: 0.8; stroke-linejoin: miter; stroke-linecap: square"/>
   </g>
   <g id="patch_4">
    <path d="M 218.696155 99.348 
L 218.696155 10.8 
" style="fill: none; stroke: #000000; stroke-width: 0.8; stroke-linejoin: miter; stroke-linecap: square"/>
   </g>
   <g id="patch_5">
    <path d="M 40.242 99.348 
L 218.696155 99.348 
" style="fill: none; stroke: #000000; stroke-width: 0.8; stroke-linejoin: miter; stroke-linecap: square"/>
   </g>
   <g id="patch_6">
    <path d="M 40.242 10.8 
L 218.696155 10.8 
" style="fill: none; stroke: #000000; stroke-width: 0.8; stroke-linejoin: miter; stroke-linecap: square"/>
   </g>
  </g>
 </g>
 <defs>
  <clipPath id="p2afcd887ca">
   <rect x="40.242" y="10.8" width="178.454155" height="88.548"/>
  </clipPath>
 </defs>
</svg>
